<svg width="162" height="148" viewBox="0 0 162 148" fill="none" xmlns="http://www.w3.org/2000/svg">
    <g filter="url(#filter0_f_0_1)">
        <path d="M62.0666 28.0867C58.5879 28.0867 55.7568 30.9172 55.7554 34.3979C55.7554 37.8777 58.5862 40.7091 62.0652 40.7091H62.0666C65.5464 40.7091 68.3778 37.878 68.3778 34.3979C68.3778 30.9178 65.5467 28.0867 62.0666 28.0867Z" fill="#00B2FF"/>
        <path d="M99.9334 28.0867C96.4547 28.0867 93.6236 30.9172 93.6222 34.3979C93.6222 37.8777 96.453 40.7091 99.932 40.7091H99.9334C103.413 40.7091 106.245 37.878 106.245 34.3979C106.244 30.9178 103.413 28.0867 99.9334 28.0867Z" fill="#00B2FF"/>
        <path d="M123.239 30.2671C121.279 19.18 111.574 10.731 99.9331 10.731C92.2 10.731 85.321 14.459 80.9997 20.2125C76.6784 14.459 69.7997 10.731 62.0663 10.731C50.4253 10.731 40.7203 19.18 38.7605 30.2671C22.5501 32.414 10 46.3255 10 63.1134C10 79.5768 21.9674 93.2984 37.8534 95.8289L39.8855 105.144L39.9168 105.279C44.3804 123.217 59.0998 137.269 73.4266 137.269H88.5734C102.901 137.268 117.62 123.216 122.083 105.279L124.146 95.8289C140.033 93.2984 152 79.5768 152 63.1134C152 46.3255 139.45 32.414 123.239 30.2671ZM120.024 86.7517L116.602 86.9162L115.689 90.2185C115.671 90.2853 115.654 90.3533 115.638 90.4218L112.881 103.058C109.516 116.477 98.3967 127.802 88.5734 127.803H73.4269C63.6042 127.803 52.4857 116.478 49.1199 103.058L46.3811 90.505L45.4945 86.9212L41.9758 86.7523C29.3539 86.1454 19.4669 75.7625 19.4669 63.1134C19.4669 50.0636 30.0838 39.4469 43.1334 39.4469H47.8669V34.3981C47.8669 26.5681 54.2366 20.1981 62.0668 20.1981C69.8971 20.1981 76.2669 26.5681 76.2669 34.3981H85.7334C85.7334 26.5681 92.1032 20.1981 99.9334 20.1981C107.764 20.1981 114.133 26.5681 114.133 34.3981V39.4469H118.867C131.917 39.4469 142.533 50.0638 142.533 63.1134C142.533 75.7622 132.646 86.1454 120.024 86.7517Z" fill="#00B2FF"/>
        <path d="M106.83 67.953C101.251 73.872 97.2989 81.5453 95.9765 89.0219L94.6361 95.167C93.1068 101.207 88.1851 105.713 84.7868 105.713H77.2142C73.8151 105.713 68.8933 101.207 67.3641 95.1668L66.0234 89.0217C64.701 81.5453 60.7486 73.8718 55.1695 67.9527C49.4352 61.8694 42.7481 58.3799 36.8221 58.3799V67.8465C40.0532 67.8465 44.4438 70.3753 48.2806 74.4456C52.6457 79.0767 55.7195 85.0176 56.7149 90.7453L58.1305 97.2552L58.1621 97.3899C59.551 102.972 62.7846 107.877 66.8002 111.115V119.913H76.2668V115.142C76.5824 115.164 76.898 115.18 77.2134 115.18H84.7874C85.1027 115.18 85.4178 115.164 85.7334 115.142V119.913H95.2V111.115C99.2153 107.877 102.449 102.973 103.838 97.3899L105.246 90.9445L105.285 90.7453C106.281 85.0176 109.355 79.0764 113.72 74.4456C117.556 70.3753 121.947 67.8465 125.178 67.8465V58.3799C119.252 58.3799 112.565 61.8694 106.83 67.953Z" fill="#00B2FF"/>
        <path d="M81 52.0688C73.1698 52.0688 65.5121 54.2135 58.855 58.2714L63.7828 66.3543C68.955 63.202 74.9088 61.5354 81.0006 61.5354C87.0925 61.5354 93.0459 63.202 98.2184 66.3543L103.146 58.2714C96.488 54.2138 88.8303 52.0688 81 52.0688Z" fill="#00B2FF"/>
        <path d="M81 71.0022C76.07 71.0022 71.3216 72.0622 66.8868 74.1531L70.9239 82.7158C74.0861 81.2248 77.4767 80.4691 81.0003 80.4691C84.524 80.4691 87.9142 81.2248 91.0768 82.7158L95.1138 74.1531C90.6785 72.0622 85.9301 71.0022 81 71.0022Z" fill="#00B2FF"/>
    </g>
    <path d="M62.0666 28.0867C58.5879 28.0867 55.7568 30.9172 55.7554 34.3979C55.7554 37.8777 58.5862 40.7091 62.0652 40.7091H62.0666C65.5464 40.7091 68.3778 37.878 68.3778 34.3979C68.3778 30.9178 65.5467 28.0867 62.0666 28.0867Z" fill="#00B2FF"/>
    <path d="M99.9334 28.0867C96.4547 28.0867 93.6236 30.9172 93.6222 34.3979C93.6222 37.8777 96.453 40.7091 99.932 40.7091H99.9334C103.413 40.7091 106.245 37.878 106.245 34.3979C106.244 30.9178 103.413 28.0867 99.9334 28.0867Z" fill="#00B2FF"/>
    <path d="M123.239 30.2671C121.279 19.18 111.574 10.731 99.9331 10.731C92.2 10.731 85.321 14.459 80.9997 20.2125C76.6784 14.459 69.7997 10.731 62.0663 10.731C50.4253 10.731 40.7203 19.18 38.7605 30.2671C22.5501 32.414 10 46.3255 10 63.1134C10 79.5768 21.9674 93.2984 37.8534 95.8289L39.8855 105.144L39.9168 105.279C44.3804 123.217 59.0998 137.269 73.4266 137.269H88.5734C102.901 137.268 117.62 123.216 122.083 105.279L124.146 95.8289C140.033 93.2984 152 79.5768 152 63.1134C152 46.3255 139.45 32.414 123.239 30.2671ZM120.024 86.7517L116.602 86.9162L115.689 90.2185C115.671 90.2853 115.654 90.3533 115.638 90.4218L112.881 103.058C109.516 116.477 98.3967 127.802 88.5734 127.803H73.4269C63.6042 127.803 52.4857 116.478 49.1199 103.058L46.3811 90.505L45.4945 86.9212L41.9758 86.7523C29.3539 86.1454 19.4669 75.7625 19.4669 63.1134C19.4669 50.0636 30.0838 39.4469 43.1334 39.4469H47.8669V34.3981C47.8669 26.5681 54.2366 20.1981 62.0668 20.1981C69.8971 20.1981 76.2669 26.5681 76.2669 34.3981H85.7334C85.7334 26.5681 92.1032 20.1981 99.9334 20.1981C107.764 20.1981 114.133 26.5681 114.133 34.3981V39.4469H118.867C131.917 39.4469 142.533 50.0638 142.533 63.1134C142.533 75.7622 132.646 86.1454 120.024 86.7517Z" fill="#00B2FF"/>
    <path d="M106.83 67.953C101.251 73.872 97.2989 81.5453 95.9765 89.0219L94.6361 95.167C93.1068 101.207 88.1851 105.713 84.7868 105.713H77.2142C73.8151 105.713 68.8933 101.207 67.3641 95.1668L66.0234 89.0217C64.701 81.5453 60.7486 73.8718 55.1695 67.9527C49.4352 61.8694 42.7481 58.3799 36.8221 58.3799V67.8465C40.0532 67.8465 44.4438 70.3753 48.2806 74.4456C52.6457 79.0767 55.7195 85.0176 56.7149 90.7453L58.1305 97.2552L58.1621 97.3899C59.551 102.972 62.7846 107.877 66.8002 111.115V119.913H76.2668V115.142C76.5824 115.164 76.898 115.18 77.2134 115.18H84.7874C85.1027 115.18 85.4178 115.164 85.7334 115.142V119.913H95.2V111.115C99.2153 107.877 102.449 102.973 103.838 97.3899L105.246 90.9445L105.285 90.7453C106.281 85.0176 109.355 79.0764 113.72 74.4456C117.556 70.3753 121.947 67.8465 125.178 67.8465V58.3799C119.252 58.3799 112.565 61.8694 106.83 67.953Z" fill="#00B2FF"/>
    <path d="M81 52.0688C73.1698 52.0688 65.5121 54.2135 58.855 58.2714L63.7828 66.3543C68.955 63.202 74.9088 61.5354 81.0006 61.5354C87.0925 61.5354 93.0459 63.202 98.2184 66.3543L103.146 58.2714C96.488 54.2138 88.8303 52.0688 81 52.0688Z" fill="#00B2FF"/>
    <path d="M81 71.0022C76.07 71.0022 71.3216 72.0622 66.8868 74.1531L70.9239 82.7158C74.0861 81.2248 77.4767 80.4691 81.0003 80.4691C84.524 80.4691 87.9142 81.2248 91.0768 82.7158L95.1138 74.1531C90.6785 72.0622 85.9301 71.0022 81 71.0022Z" fill="#00B2FF"/>
    <defs>
        <filter id="filter0_f_0_1" x="0" y="-7" width="162" height="162" filterUnits="userSpaceOnUse" color-interpolation-filters="sRGB">
            <feFlood flood-opacity="0" result="BackgroundImageFix"/>
            <feBlend mode="normal" in="SourceGraphic" in2="BackgroundImageFix" result="shape"/>
            <feGaussianBlur stdDeviation="5" result="effect1_foregroundBlur_0_1"/>
        </filter>
    </defs>
</svg>
