<svg width="162" height="162" viewBox="0 0 162 162" fill="none" xmlns="http://www.w3.org/2000/svg">
    <g clip-path="url(#clip0_0_1)" filter="url(#filter0_f_0_1)">
        <path d="M63.2465 81.0001C63.2465 78.5532 61.2559 76.5629 58.8093 76.5629C56.3627 76.5629 54.3721 78.5532 54.3721 81.0001C54.3721 83.4469 56.3627 85.4373 58.8093 85.4373C61.2559 85.4373 63.2465 83.4466 63.2465 81.0001Z" fill="#00B2FF"/>
        <path d="M103.181 76.5629C100.735 76.5629 98.7443 78.5532 98.7443 81.0001C98.7443 83.4469 100.735 85.4373 103.181 85.4373C105.628 85.4373 107.619 83.4469 107.619 81.0001C107.619 78.5532 105.628 76.5629 103.181 76.5629Z" fill="#00B2FF"/>
        <path d="M143.174 51.3215C143.734 50.6182 143.833 49.6145 143.343 48.7981C142.44 47.2922 144.453 43.6795 146.585 39.8549C147.704 37.8484 148.972 35.5744 150.109 33.125C152.788 27.3555 152.614 21.3672 149.632 16.6957C146.918 12.4432 142.315 10.0046 137.004 10.0046C129.133 10.0046 125.493 16.0581 122.282 21.3991C120.512 24.3438 119.032 26.6481 117.351 28.1232C106.868 23.527 94.2974 21.0977 80.9954 21.0977C67.8474 21.0977 55.4179 23.4752 45.0082 27.9684C43.3986 26.4889 41.9607 24.242 40.2515 21.3994C37.0404 16.0581 33.401 10.0046 25.5302 10.0046C20.2183 10.0046 15.6156 12.4434 12.9014 16.6957C9.91985 21.3672 9.74625 27.3555 12.4249 33.125C13.5623 35.5744 14.8296 37.8484 15.9484 39.8549C18.0804 43.6798 20.0944 47.2922 19.1906 48.7981C18.8084 49.4351 18.7851 50.1861 19.0586 50.8198C16.9237 55.2071 15.3346 59.8548 14.2112 63.7637C11.535 73.0777 10 83.4034 10 92.0931C10 110.749 17.2623 126.253 31.0013 136.931C37.354 141.868 44.9553 145.671 53.5934 148.232C62.013 150.729 71.2324 151.995 80.9954 151.995C90.7584 151.995 99.9778 150.729 108.397 148.232C117.036 145.67 124.637 141.868 130.99 136.931C144.729 126.253 151.991 110.748 151.991 92.0931C151.991 83.4048 150.456 73.0802 147.781 63.767C146.7 60.0057 145.188 55.5604 143.174 51.3215ZM128.267 133.427C116.541 142.54 99.7537 147.558 80.9954 147.558C62.2371 147.558 45.4495 142.54 33.7241 133.427C21.1066 123.621 14.4372 109.328 14.4372 92.0931C14.4372 83.8008 15.9093 73.9216 18.4759 64.9892C21.2819 55.224 25.1256 47.5998 29.2991 43.5209C30.1755 42.6645 30.1915 41.2598 29.3349 40.3835C28.4785 39.5068 27.0738 39.491 26.1975 40.3474C25.0624 41.4567 24.0061 42.7141 23.0246 44.0733C22.2711 42.0851 21.085 39.9569 19.8237 37.6942C18.69 35.6603 17.5175 33.5571 16.4492 31.2564C14.4214 26.8888 14.4916 22.4516 16.6417 19.0829C18.5242 16.1333 21.7639 14.4419 25.5302 14.4419C30.8912 14.4419 33.4668 18.7254 36.4488 23.6857C39.4711 28.7119 42.8964 34.4093 49.9349 34.4093C51.1602 34.4093 52.1535 33.4159 52.1535 32.1907C52.1535 31.4117 51.7514 30.7278 51.1441 30.3321C60.0462 27.188 70.2535 25.5349 80.9954 25.5349C91.8841 25.5349 102.225 27.2324 111.212 30.4608C110.705 30.8673 110.38 31.4907 110.38 32.1907C110.38 33.4159 111.374 34.4093 112.599 34.4093C119.637 34.4093 123.063 28.7122 126.085 23.6857C129.067 18.7257 131.642 14.4419 137.004 14.4419C140.77 14.4419 144.009 16.1335 145.892 19.0829C148.042 22.4519 148.112 26.8888 146.084 31.2564C145.016 33.5571 143.844 35.6603 142.71 37.6942C141.34 40.1513 140.06 42.4495 139.325 44.5822C138.245 43.0297 137.072 41.5973 135.798 40.3524C134.922 39.496 133.518 39.5118 132.661 40.3879C131.804 41.264 131.82 42.6686 132.696 43.5253C136.868 47.6039 140.711 55.2276 143.516 64.992C146.082 73.9238 147.554 83.8016 147.554 92.0931C147.554 109.328 140.884 123.621 128.267 133.427Z" fill="#00B2FF"/>
        <path d="M137.601 27.4736C138.637 28.0513 139.952 27.7102 140.574 26.6883C141.211 25.6416 140.879 24.2766 139.833 23.6396C138.771 22.9934 136.606 22.2655 134.03 24.6507C132.792 25.7969 131.612 27.4836 130.362 29.2693C128.122 32.4697 125.583 36.0971 122.714 36.6709C121.512 36.911 120.733 38.08 120.973 39.2816C121.184 40.3363 122.111 41.0657 123.146 41.0657C123.291 41.0657 123.437 41.0515 123.584 41.0221C128.198 40.0992 131.413 35.5053 133.997 31.8138C135.045 30.3171 136.769 27.8522 137.601 27.4736Z" fill="#00B2FF"/>
        <path d="M39.277 36.671C36.4078 36.0972 33.8691 32.4698 31.6292 29.2695C30.3793 27.4838 29.199 25.7971 27.961 24.6509C25.3846 22.2659 23.2195 22.9936 22.1579 23.6398C21.1113 24.2768 20.7877 25.6371 21.4247 26.6837C22.0434 27.7001 23.3563 28.0379 24.3899 27.4735C25.2207 27.8518 26.946 30.3167 27.9937 31.8137C30.5773 35.5051 33.7926 40.099 38.4067 41.022C38.5537 41.0514 38.6999 41.0655 38.8441 41.0655C39.8799 41.0655 40.8064 40.3362 41.0172 39.2815C41.2576 38.0801 40.4784 36.9112 39.277 36.671Z" fill="#00B2FF"/>
        <path d="M96.4391 87.0411C96.3387 86.6916 96.1507 86.3619 95.8753 86.0865C95.0089 85.2204 93.6043 85.2204 92.7379 86.0871C91.6023 87.223 92.259 88.5874 92.4747 89.0356C92.6026 89.3016 92.7961 89.684 93.0407 90.1674C95.0003 94.0391 100.963 105.821 100.963 114.279C100.963 119.422 100.127 122.702 98.4076 124.305C96.2841 126.284 92.4001 126.012 87.4834 125.667C86.0993 125.57 84.6791 125.475 83.2118 125.42C83.212 125.404 83.2143 125.388 83.2143 125.372V120.942C83.701 120.944 84.1694 120.946 84.6148 120.946C88.6892 120.946 91.0795 120.777 92.7221 119.143C94.127 117.744 94.3073 115.809 94.3073 114.279C94.3073 108.162 88.3356 103.186 80.9957 103.186C73.6557 103.186 67.684 108.162 67.684 114.279C67.684 115.809 67.864 117.745 69.2692 119.143C71.0912 120.956 73.8357 120.966 78.7771 120.942V125.372C78.7771 125.388 78.7793 125.404 78.7795 125.42C77.2881 125.478 75.8457 125.578 74.4399 125.679C69.5551 126.033 65.6967 126.312 63.5862 124.348C61.8649 122.747 61.0282 119.453 61.0282 114.279C61.0282 108.354 63.9742 99.4922 69.3236 89.3254C69.7567 88.502 69.9026 88.2247 69.9026 87.6556C69.9026 86.4304 68.9092 85.437 67.684 85.437C66.7589 85.437 65.966 86.0033 65.6329 86.8078C65.5855 86.9019 65.5048 87.0538 65.3966 87.2593C59.6357 98.2081 56.5907 107.552 56.5907 114.279C56.5907 120.844 57.8531 125.075 60.5637 127.597C60.7201 127.743 60.8804 127.88 61.0434 128.012C61.2015 131.615 63.371 135.334 67.0617 138.278C70.9764 141.401 75.925 143.121 80.9957 143.121C92.0452 143.121 100.652 135.061 100.949 127.967C101.113 127.835 101.276 127.697 101.434 127.55C104.14 125.027 105.4 120.81 105.4 114.279C105.4 104.762 99.2975 92.7032 97.0001 88.164C96.7752 87.72 96.5439 87.2632 96.4391 87.0411ZM95.8811 89.2192C96.0661 89.0328 96.2114 88.8218 96.3168 88.5966C96.2167 88.8123 96.075 89.0239 95.8811 89.2192ZM72.3988 115.998C72.3703 115.969 72.1209 115.681 72.1209 114.279C72.1209 110.609 76.102 107.623 80.9954 107.623C85.8888 107.623 89.8698 110.609 89.8698 114.279C89.8698 115.681 89.6205 115.969 89.5919 115.998C89.0539 116.533 86.0025 116.518 83.0504 116.504C82.4072 116.501 81.7231 116.498 80.9954 116.498C80.2677 116.498 79.5835 116.501 78.9404 116.504C75.9883 116.518 72.9368 116.533 72.3988 115.998ZM80.9954 138.684C73.5758 138.684 67.8476 134.19 66.0558 130.109C67.171 130.291 68.344 130.36 69.5598 130.36C71.2299 130.36 72.979 130.234 74.7594 130.105C76.7714 129.96 78.8519 129.809 80.9951 129.809C83.1178 129.809 85.1791 129.954 87.1725 130.094C90.3185 130.314 93.3641 130.527 96.0569 130.058C94.1049 135.182 86.4165 138.684 80.9954 138.684Z" fill="#00B2FF"/>
        <path d="M83.214 132.028H78.7768C77.5516 132.028 76.5582 133.021 76.5582 134.247C76.5582 135.472 77.5516 136.465 78.7768 136.465H83.214C84.4393 136.465 85.4327 135.472 85.4327 134.247C85.4327 133.021 84.4393 132.028 83.214 132.028Z" fill="#00B2FF"/>
    </g>
    <g clip-path="url(#clip1_0_1)">
        <path d="M63.2465 81.0001C63.2465 78.5532 61.2559 76.5629 58.8093 76.5629C56.3627 76.5629 54.3721 78.5532 54.3721 81.0001C54.3721 83.4469 56.3627 85.4373 58.8093 85.4373C61.2559 85.4373 63.2465 83.4466 63.2465 81.0001Z" fill="#00B2FF"/>
        <path d="M103.181 76.5629C100.735 76.5629 98.7443 78.5532 98.7443 81.0001C98.7443 83.4469 100.735 85.4373 103.181 85.4373C105.628 85.4373 107.619 83.4469 107.619 81.0001C107.619 78.5532 105.628 76.5629 103.181 76.5629Z" fill="#00B2FF"/>
        <path d="M143.174 51.3215C143.734 50.6182 143.833 49.6145 143.343 48.7981C142.44 47.2922 144.453 43.6795 146.585 39.8549C147.704 37.8484 148.972 35.5744 150.109 33.125C152.788 27.3555 152.614 21.3672 149.632 16.6957C146.918 12.4432 142.315 10.0046 137.004 10.0046C129.133 10.0046 125.493 16.0581 122.282 21.3991C120.512 24.3438 119.032 26.6481 117.351 28.1232C106.868 23.527 94.2974 21.0977 80.9954 21.0977C67.8474 21.0977 55.4179 23.4752 45.0082 27.9684C43.3986 26.4889 41.9607 24.242 40.2515 21.3994C37.0404 16.0581 33.401 10.0046 25.5302 10.0046C20.2183 10.0046 15.6156 12.4434 12.9014 16.6957C9.91985 21.3672 9.74625 27.3555 12.4249 33.125C13.5623 35.5744 14.8296 37.8484 15.9484 39.8549C18.0804 43.6798 20.0944 47.2922 19.1906 48.7981C18.8084 49.4351 18.7851 50.1861 19.0586 50.8198C16.9237 55.2071 15.3346 59.8548 14.2112 63.7637C11.535 73.0777 10 83.4034 10 92.0931C10 110.749 17.2623 126.253 31.0013 136.931C37.354 141.868 44.9553 145.671 53.5934 148.232C62.013 150.729 71.2324 151.995 80.9954 151.995C90.7584 151.995 99.9778 150.729 108.397 148.232C117.036 145.67 124.637 141.868 130.99 136.931C144.729 126.253 151.991 110.748 151.991 92.0931C151.991 83.4048 150.456 73.0802 147.781 63.767C146.7 60.0057 145.188 55.5604 143.174 51.3215ZM128.267 133.427C116.541 142.54 99.7537 147.558 80.9954 147.558C62.2371 147.558 45.4495 142.54 33.7241 133.427C21.1066 123.621 14.4372 109.328 14.4372 92.0931C14.4372 83.8008 15.9093 73.9216 18.4759 64.9892C21.2819 55.224 25.1256 47.5998 29.2991 43.5209C30.1755 42.6645 30.1915 41.2598 29.3349 40.3835C28.4785 39.5068 27.0738 39.491 26.1975 40.3474C25.0624 41.4567 24.0061 42.7141 23.0246 44.0733C22.2711 42.0851 21.085 39.9569 19.8237 37.6942C18.69 35.6603 17.5175 33.5571 16.4492 31.2564C14.4214 26.8888 14.4916 22.4516 16.6417 19.0829C18.5242 16.1333 21.7639 14.4419 25.5302 14.4419C30.8912 14.4419 33.4668 18.7254 36.4488 23.6857C39.4711 28.7119 42.8964 34.4093 49.9349 34.4093C51.1602 34.4093 52.1535 33.4159 52.1535 32.1907C52.1535 31.4117 51.7514 30.7278 51.1441 30.3321C60.0462 27.188 70.2535 25.5349 80.9954 25.5349C91.8841 25.5349 102.225 27.2324 111.212 30.4608C110.705 30.8673 110.38 31.4907 110.38 32.1907C110.38 33.4159 111.374 34.4093 112.599 34.4093C119.637 34.4093 123.063 28.7122 126.085 23.6857C129.067 18.7257 131.642 14.4419 137.004 14.4419C140.77 14.4419 144.009 16.1335 145.892 19.0829C148.042 22.4519 148.112 26.8888 146.084 31.2564C145.016 33.5571 143.844 35.6603 142.71 37.6942C141.34 40.1513 140.06 42.4495 139.325 44.5822C138.245 43.0297 137.072 41.5973 135.798 40.3524C134.922 39.496 133.518 39.5118 132.661 40.3879C131.804 41.264 131.82 42.6686 132.696 43.5253C136.868 47.6039 140.711 55.2276 143.516 64.992C146.082 73.9238 147.554 83.8016 147.554 92.0931C147.554 109.328 140.884 123.621 128.267 133.427Z" fill="#00B2FF"/>
        <path d="M137.601 27.4736C138.637 28.0513 139.952 27.7102 140.574 26.6883C141.211 25.6416 140.879 24.2766 139.833 23.6396C138.771 22.9934 136.606 22.2655 134.03 24.6507C132.792 25.7969 131.612 27.4836 130.362 29.2693C128.122 32.4697 125.583 36.0971 122.714 36.6709C121.512 36.911 120.733 38.08 120.973 39.2816C121.184 40.3363 122.111 41.0657 123.146 41.0657C123.291 41.0657 123.437 41.0515 123.584 41.0221C128.198 40.0992 131.413 35.5053 133.997 31.8138C135.045 30.3171 136.769 27.8522 137.601 27.4736Z" fill="#00B2FF"/>
        <path d="M39.277 36.671C36.4078 36.0972 33.8691 32.4698 31.6292 29.2695C30.3793 27.4838 29.199 25.7971 27.961 24.6509C25.3846 22.2659 23.2195 22.9936 22.1579 23.6398C21.1113 24.2768 20.7877 25.6371 21.4247 26.6837C22.0434 27.7001 23.3563 28.0379 24.3899 27.4735C25.2207 27.8518 26.946 30.3167 27.9937 31.8137C30.5773 35.5051 33.7926 40.099 38.4067 41.022C38.5537 41.0514 38.6999 41.0655 38.8441 41.0655C39.8799 41.0655 40.8064 40.3362 41.0172 39.2815C41.2576 38.0801 40.4784 36.9112 39.277 36.671Z" fill="#00B2FF"/>
        <path d="M96.4391 87.0411C96.3387 86.6916 96.1507 86.3619 95.8753 86.0865C95.0089 85.2204 93.6043 85.2204 92.7379 86.0871C91.6023 87.223 92.259 88.5874 92.4747 89.0356C92.6026 89.3016 92.7961 89.684 93.0407 90.1674C95.0003 94.0391 100.963 105.821 100.963 114.279C100.963 119.422 100.127 122.702 98.4076 124.305C96.2841 126.284 92.4001 126.012 87.4834 125.667C86.0993 125.57 84.6791 125.475 83.2118 125.42C83.212 125.404 83.2143 125.388 83.2143 125.372V120.942C83.701 120.944 84.1694 120.946 84.6148 120.946C88.6892 120.946 91.0795 120.777 92.7221 119.143C94.127 117.744 94.3073 115.809 94.3073 114.279C94.3073 108.162 88.3356 103.186 80.9957 103.186C73.6557 103.186 67.684 108.162 67.684 114.279C67.684 115.809 67.864 117.745 69.2692 119.143C71.0912 120.956 73.8357 120.966 78.7771 120.942V125.372C78.7771 125.388 78.7793 125.404 78.7795 125.42C77.2881 125.478 75.8457 125.578 74.4399 125.679C69.5551 126.033 65.6967 126.312 63.5862 124.348C61.8649 122.747 61.0282 119.453 61.0282 114.279C61.0282 108.354 63.9742 99.4922 69.3236 89.3254C69.7567 88.502 69.9026 88.2247 69.9026 87.6556C69.9026 86.4304 68.9092 85.437 67.684 85.437C66.7589 85.437 65.966 86.0033 65.6329 86.8078C65.5855 86.9019 65.5048 87.0538 65.3966 87.2593C59.6357 98.2081 56.5907 107.552 56.5907 114.279C56.5907 120.844 57.8531 125.075 60.5637 127.597C60.7201 127.743 60.8804 127.88 61.0434 128.012C61.2015 131.615 63.371 135.334 67.0617 138.278C70.9764 141.401 75.925 143.121 80.9957 143.121C92.0452 143.121 100.652 135.061 100.949 127.967C101.113 127.835 101.276 127.697 101.434 127.55C104.14 125.027 105.4 120.81 105.4 114.279C105.4 104.762 99.2975 92.7032 97.0001 88.164C96.7752 87.72 96.5439 87.2632 96.4391 87.0411ZM95.8811 89.2192C96.0661 89.0328 96.2114 88.8218 96.3168 88.5966C96.2167 88.8123 96.075 89.0239 95.8811 89.2192ZM72.3988 115.998C72.3703 115.969 72.1209 115.681 72.1209 114.279C72.1209 110.609 76.102 107.623 80.9954 107.623C85.8888 107.623 89.8698 110.609 89.8698 114.279C89.8698 115.681 89.6205 115.969 89.5919 115.998C89.0539 116.533 86.0025 116.518 83.0504 116.504C82.4072 116.501 81.7231 116.498 80.9954 116.498C80.2677 116.498 79.5835 116.501 78.9404 116.504C75.9883 116.518 72.9368 116.533 72.3988 115.998ZM80.9954 138.684C73.5758 138.684 67.8476 134.19 66.0558 130.109C67.171 130.291 68.344 130.36 69.5598 130.36C71.2299 130.36 72.979 130.234 74.7594 130.105C76.7714 129.96 78.8519 129.809 80.9951 129.809C83.1178 129.809 85.1791 129.954 87.1725 130.094C90.3185 130.314 93.3641 130.527 96.0569 130.058C94.1049 135.182 86.4165 138.684 80.9954 138.684Z" fill="#00B2FF"/>
        <path d="M83.214 132.028H78.7768C77.5516 132.028 76.5582 133.021 76.5582 134.247C76.5582 135.472 77.5516 136.465 78.7768 136.465H83.214C84.4393 136.465 85.4327 135.472 85.4327 134.247C85.4327 133.021 84.4393 132.028 83.214 132.028Z" fill="#00B2FF"/>
    </g>
    <defs>
        <filter id="filter0_f_0_1" x="0" y="0" width="162" height="162" filterUnits="userSpaceOnUse" color-interpolation-filters="sRGB">
            <feFlood flood-opacity="0" result="BackgroundImageFix"/>
            <feBlend mode="normal" in="SourceGraphic" in2="BackgroundImageFix" result="shape"/>
            <feGaussianBlur stdDeviation="5" result="effect1_foregroundBlur_0_1"/>
        </filter>
        <clipPath id="clip0_0_1">
            <rect width="142" height="142" fill="white" transform="translate(10 10)"/>
        </clipPath>
        <clipPath id="clip1_0_1">
            <rect width="142" height="142" fill="white" transform="translate(10 10)"/>
        </clipPath>
    </defs>
</svg>
