<svg width="561" height="146" viewBox="0 0 561 146" fill="none" xmlns="http://www.w3.org/2000/svg">
    <mask id="path-1-outside-1_29_960" maskUnits="userSpaceOnUse" x="172" y="16" width="214" height="63" fill="black">
        <rect fill="white" x="172" y="16" width="214" height="63"/>
        <path d="M200.925 54.08H187.165L183.773 64H175.005L191.133 18.88H197.597L213.725 64H204.509L200.925 54.08ZM189.405 47.04H199.005L195.677 37.056L194.333 30.016H194.013L192.669 37.12L189.405 47.04ZM216.443 32H222.523L223.483 35.84H223.739C224.848 34.2187 226.15 33.024 227.643 32.256C229.179 31.488 231.035 31.104 233.211 31.104C237.222 31.104 240.23 32.384 242.235 34.944C244.24 37.4613 245.243 41.536 245.243 47.168C245.243 49.8987 244.923 52.3733 244.283 54.592C243.643 56.768 242.683 58.624 241.403 60.16C240.166 61.696 238.63 62.8693 236.795 63.68C235.003 64.4907 232.934 64.896 230.587 64.896C229.264 64.896 228.176 64.7893 227.323 64.576C226.47 64.4053 225.616 64.1067 224.763 63.68V76.8H216.443V32ZM230.715 38.144C229.094 38.144 227.814 38.5493 226.875 39.36C225.979 40.1707 225.275 41.3867 224.763 43.008V56.32C225.36 56.7893 226 57.1733 226.683 57.472C227.408 57.728 228.347 57.856 229.499 57.856C231.888 57.856 233.68 57.024 234.875 55.36C236.07 53.6533 236.667 50.8587 236.667 46.976C236.667 44.16 236.198 41.984 235.259 40.448C234.32 38.912 232.806 38.144 230.715 38.144ZM248.509 48C248.509 42.5813 249.832 38.4213 252.477 35.52C255.123 32.576 258.835 31.104 263.614 31.104C266.174 31.104 268.392 31.5093 270.27 32.32C272.147 33.1307 273.704 34.2827 274.941 35.776C276.179 37.2267 277.096 38.9973 277.694 41.088C278.333 43.1787 278.653 45.4827 278.653 48C278.653 53.4187 277.331 57.6 274.686 60.544C272.083 63.4453 268.392 64.896 263.614 64.896C261.053 64.896 258.835 64.4907 256.957 63.68C255.08 62.8693 253.501 61.7387 252.221 60.288C250.984 58.7947 250.045 57.0027 249.405 54.912C248.808 52.8213 248.509 50.5173 248.509 48ZM257.085 48C257.085 49.408 257.213 50.7093 257.469 51.904C257.725 53.0987 258.109 54.144 258.622 55.04C259.133 55.936 259.795 56.64 260.606 57.152C261.459 57.6213 262.462 57.856 263.614 57.856C265.79 57.856 267.411 57.0667 268.478 55.488C269.544 53.9093 270.077 51.4133 270.077 48C270.077 45.056 269.587 42.688 268.605 40.896C267.624 39.0613 265.96 38.144 263.614 38.144C261.566 38.144 259.965 38.912 258.813 40.448C257.661 41.984 257.085 44.5013 257.085 48ZM296.708 55.168C296.708 54.3147 296.346 53.632 295.621 53.12C294.895 52.608 293.999 52.1387 292.933 51.712C291.866 51.2853 290.693 50.8587 289.413 50.432C288.133 49.9627 286.959 49.344 285.893 48.576C284.826 47.7653 283.93 46.7627 283.205 45.568C282.479 44.3307 282.117 42.752 282.117 40.832C282.117 37.6747 283.055 35.264 284.933 33.6C286.81 31.936 289.519 31.104 293.061 31.104C295.493 31.104 297.69 31.36 299.653 31.872C301.615 32.384 303.151 32.96 304.261 33.6L302.405 39.616C301.423 39.232 300.186 38.8267 298.693 38.4C297.199 37.9733 295.685 37.76 294.149 37.76C291.674 37.76 290.437 38.72 290.437 40.64C290.437 41.408 290.799 42.0267 291.525 42.496C292.25 42.9653 293.146 43.4133 294.213 43.84C295.279 44.224 296.453 44.6507 297.733 45.12C299.013 45.5893 300.186 46.208 301.253 46.976C302.319 47.7013 303.215 48.6613 303.941 49.856C304.666 51.0507 305.029 52.5867 305.029 54.464C305.029 57.7067 303.983 60.2667 301.893 62.144C299.845 63.9787 296.751 64.896 292.613 64.896C290.351 64.896 288.218 64.5973 286.213 64C284.25 63.4453 282.65 62.784 281.413 62.016L283.717 55.808C284.698 56.3627 285.999 56.9173 287.621 57.472C289.242 57.984 290.906 58.24 292.613 58.24C293.85 58.24 294.831 58.0053 295.557 57.536C296.325 57.0667 296.708 56.2773 296.708 55.168ZM306.173 32H310.589V25.984L318.909 23.616V32H326.717V39.04H318.909V51.328C318.909 53.5467 319.122 55.1467 319.549 56.128C320.018 57.0667 320.871 57.536 322.109 57.536C322.962 57.536 323.687 57.4507 324.285 57.28C324.925 57.1093 325.629 56.8533 326.397 56.512L327.869 62.912C326.717 63.4667 325.373 63.936 323.837 64.32C322.301 64.704 320.743 64.896 319.165 64.896C316.221 64.896 314.045 64.1493 312.637 62.656C311.271 61.12 310.589 58.624 310.589 55.168V39.04H306.173V32ZM330.661 33.856C332.368 33.088 334.394 32.4907 336.741 32.064C339.088 31.5947 341.541 31.36 344.101 31.36C346.32 31.36 348.176 31.6373 349.669 32.192C351.162 32.704 352.336 33.4507 353.189 34.432C354.085 35.4133 354.704 36.5867 355.045 37.952C355.429 39.3173 355.621 40.8533 355.621 42.56C355.621 44.4373 355.557 46.336 355.429 48.256C355.301 50.1333 355.216 51.9893 355.173 53.824C355.173 55.6587 355.237 57.4507 355.365 59.2C355.493 60.9067 355.813 62.528 356.325 64.064H349.541L348.197 59.648H347.877C347.024 60.9707 345.829 62.1227 344.293 63.104C342.8 64.0427 340.858 64.512 338.469 64.512C336.976 64.512 335.632 64.2987 334.437 63.872C333.242 63.4027 332.218 62.7627 331.365 61.952C330.512 61.0987 329.85 60.1173 329.381 59.008C328.912 57.856 328.677 56.576 328.677 55.168C328.677 53.2053 329.104 51.5627 329.957 50.24C330.853 48.8747 332.112 47.7867 333.733 46.976C335.397 46.1227 337.36 45.5467 339.621 45.248C341.925 44.9067 344.485 44.8 347.301 44.928C347.6 42.5387 347.429 40.832 346.789 39.808C346.149 38.7413 344.72 38.208 342.501 38.208C340.837 38.208 339.066 38.3787 337.189 38.72C335.354 39.0613 333.84 39.5093 332.645 40.064L330.661 33.856ZM341.221 57.664C342.885 57.664 344.208 57.3013 345.189 56.576C346.17 55.808 346.896 54.9973 347.365 54.144V49.984C346.042 49.856 344.762 49.8347 343.525 49.92C342.33 50.0053 341.264 50.1973 340.325 50.496C339.386 50.7947 338.64 51.2213 338.085 51.776C337.53 52.3307 337.253 53.0347 337.253 53.888C337.253 55.0827 337.594 56.0213 338.277 56.704C339.002 57.344 339.984 57.664 341.221 57.664ZM374.891 55.168C374.891 54.3147 374.528 53.632 373.803 53.12C373.078 52.608 372.182 52.1387 371.115 51.712C370.048 51.2853 368.875 50.8587 367.595 50.432C366.315 49.9627 365.142 49.344 364.075 48.576C363.008 47.7653 362.112 46.7627 361.387 45.568C360.662 44.3307 360.299 42.752 360.299 40.832C360.299 37.6747 361.238 35.264 363.115 33.6C364.992 31.936 367.702 31.104 371.243 31.104C373.675 31.104 375.872 31.36 377.835 31.872C379.798 32.384 381.334 32.96 382.443 33.6L380.587 39.616C379.606 39.232 378.368 38.8267 376.875 38.4C375.382 37.9733 373.867 37.76 372.331 37.76C369.856 37.76 368.619 38.72 368.619 40.64C368.619 41.408 368.982 42.0267 369.707 42.496C370.432 42.9653 371.328 43.4133 372.395 43.84C373.462 44.224 374.635 44.6507 375.915 45.12C377.195 45.5893 378.368 46.208 379.435 46.976C380.502 47.7013 381.398 48.6613 382.123 49.856C382.848 51.0507 383.211 52.5867 383.211 54.464C383.211 57.7067 382.166 60.2667 380.075 62.144C378.027 63.9787 374.934 64.896 370.795 64.896C368.534 64.896 366.4 64.5973 364.395 64C362.432 63.4453 360.832 62.784 359.595 62.016L361.899 55.808C362.88 56.3627 364.182 56.9173 365.803 57.472C367.424 57.984 369.088 58.24 370.795 58.24C372.032 58.24 373.014 58.0053 373.739 57.536C374.507 57.0667 374.891 56.2773 374.891 55.168Z"/>
    </mask>
    <path d="M200.925 54.08L202.806 53.4004L202.329 52.08H200.925V54.08ZM187.165 54.08V52.08H185.735L185.273 53.4329L187.165 54.08ZM183.773 64V66H185.203L185.665 64.6471L183.773 64ZM175.005 64L173.122 63.3268L172.166 66H175.005V64ZM191.133 18.88V16.88H189.724L189.25 18.2068L191.133 18.88ZM197.597 18.88L199.48 18.2068L199.006 16.88H197.597V18.88ZM213.725 64V66H216.564L215.608 63.3268L213.725 64ZM204.509 64L202.628 64.6796L203.105 66H204.509V64ZM189.405 47.04L187.505 46.4149L186.641 49.04H189.405V47.04ZM199.005 47.04V49.04H201.78L200.902 46.4075L199.005 47.04ZM195.677 37.056L193.712 37.431L193.737 37.562L193.78 37.6885L195.677 37.056ZM194.333 30.016L196.298 29.641L195.987 28.016H194.333V30.016ZM194.013 30.016V28.016H192.356L192.048 29.6442L194.013 30.016ZM192.669 37.12L194.569 37.7451L194.61 37.6206L194.634 37.4918L192.669 37.12ZM200.925 52.08H187.165V56.08H200.925V52.08ZM185.273 53.4329L181.881 63.3529L185.665 64.6471L189.057 54.7271L185.273 53.4329ZM183.773 62H175.005V66H183.773V62ZM176.888 64.6732L193.016 19.5532L189.25 18.2068L173.122 63.3268L176.888 64.6732ZM191.133 20.88H197.597V16.88H191.133V20.88ZM195.714 19.5532L211.842 64.6732L215.608 63.3268L199.48 18.2068L195.714 19.5532ZM213.725 62H204.509V66H213.725V62ZM206.39 63.3204L202.806 53.4004L199.044 54.7596L202.628 64.6796L206.39 63.3204ZM189.405 49.04H199.005V45.04H189.405V49.04ZM200.902 46.4075L197.574 36.4235L193.78 37.6885L197.108 47.6725L200.902 46.4075ZM197.642 36.681L196.298 29.641L192.368 30.391L193.712 37.431L197.642 36.681ZM194.333 28.016H194.013V32.016H194.333V28.016ZM192.048 29.6442L190.704 36.7482L194.634 37.4918L195.978 30.3878L192.048 29.6442ZM190.769 36.4949L187.505 46.4149L191.305 47.6651L194.569 37.7451L190.769 36.4949ZM216.443 32V30H214.443V32H216.443ZM222.523 32L224.463 31.5149L224.085 30H222.523V32ZM223.483 35.84L221.543 36.3251L221.921 37.84H223.483V35.84ZM223.739 35.84V37.84H224.794L225.39 36.9694L223.739 35.84ZM227.643 32.256L226.749 30.4671L226.738 30.4722L226.728 30.4774L227.643 32.256ZM242.235 34.944L240.661 36.1773L240.666 36.1838L240.671 36.1902L242.235 34.944ZM244.283 54.592L246.202 55.1563L246.205 55.1463L244.283 54.592ZM241.403 60.16L239.867 58.8796L239.856 58.8924L239.845 58.9053L241.403 60.16ZM236.795 63.68L235.987 61.8506L235.979 61.8542L235.971 61.8578L236.795 63.68ZM227.323 64.576L227.808 62.6357L227.762 62.6242L227.715 62.6148L227.323 64.576ZM224.763 63.68L225.657 61.8911L222.763 60.4439V63.68H224.763ZM224.763 76.8V78.8H226.763V76.8H224.763ZM216.443 76.8H214.443V78.8H216.443V76.8ZM226.875 39.36L225.568 37.8464L225.55 37.8614L225.533 37.8769L226.875 39.36ZM224.763 43.008L222.856 42.4057L222.763 42.6997V43.008H224.763ZM224.763 56.32H222.763V57.2921L223.527 57.8926L224.763 56.32ZM226.683 57.472L225.881 59.3043L225.948 59.3336L226.017 59.358L226.683 57.472ZM234.875 55.36L236.5 56.5264L236.507 56.5167L236.513 56.5069L234.875 55.36ZM235.259 40.448L233.552 41.4909L235.259 40.448ZM216.443 34H222.523V30H216.443V34ZM220.583 32.4851L221.543 36.3251L225.423 35.3549L224.463 31.5149L220.583 32.4851ZM223.483 37.84H223.739V33.84H223.483V37.84ZM225.39 36.9694C226.343 35.5755 227.406 34.6267 228.558 34.0346L226.728 30.4774C224.893 31.4213 223.353 32.8619 222.088 34.7106L225.39 36.9694ZM228.537 34.0449C229.732 33.4478 231.265 33.104 233.211 33.104V29.104C230.805 29.104 228.626 29.5282 226.749 30.4671L228.537 34.0449ZM233.211 33.104C236.765 33.104 239.122 34.2137 240.661 36.1773L243.809 33.7107C241.337 30.5543 237.678 29.104 233.211 29.104V33.104ZM240.671 36.1902C242.25 38.1722 243.243 41.6841 243.243 47.168H247.243C247.243 41.3879 246.231 36.7505 243.799 33.6978L240.671 36.1902ZM243.243 47.168C243.243 49.7443 242.941 52.0285 242.361 54.0377L246.205 55.1463C246.905 52.7182 247.243 50.053 247.243 47.168H243.243ZM242.364 54.0277C241.791 55.9765 240.949 57.5801 239.867 58.8796L242.939 61.4404C244.417 59.6679 245.495 57.5595 246.202 55.1563L242.364 54.0277ZM239.845 58.9053C238.812 60.1884 237.534 61.1667 235.987 61.8506L237.603 65.5094C239.725 64.5719 241.519 63.2036 242.961 61.4147L239.845 58.9053ZM235.971 61.8578C234.483 62.5309 232.703 62.896 230.587 62.896V66.896C233.164 66.896 235.523 66.4505 237.619 65.5022L235.971 61.8578ZM230.587 62.896C229.355 62.896 228.445 62.7949 227.808 62.6357L226.838 66.5163C227.908 66.7838 229.174 66.896 230.587 66.896V62.896ZM227.715 62.6148C227.052 62.4822 226.367 62.2459 225.657 61.8911L223.869 65.4689C224.866 65.9674 225.887 66.3285 226.931 66.5372L227.715 62.6148ZM222.763 63.68V76.8H226.763V63.68H222.763ZM224.763 74.8H216.443V78.8H224.763V74.8ZM218.443 76.8V32H214.443V76.8H218.443ZM230.715 36.144C228.764 36.144 226.969 36.6361 225.568 37.8464L228.182 40.8736C228.658 40.4626 229.424 40.144 230.715 40.144V36.144ZM225.533 37.8769C224.288 39.0035 223.433 40.5767 222.856 42.4057L226.67 43.6103C227.117 42.1966 227.67 41.3378 228.217 40.8431L225.533 37.8769ZM222.763 43.008V56.32H226.763V43.008H222.763ZM223.527 57.8926C224.255 58.4645 225.041 58.9365 225.881 59.3043L227.485 55.6397C226.96 55.4102 226.465 55.1142 225.999 54.7474L223.527 57.8926ZM226.017 59.358C227.035 59.7171 228.222 59.856 229.499 59.856V55.856C228.472 55.856 227.782 55.7389 227.349 55.586L226.017 59.358ZM229.499 59.856C232.41 59.856 234.863 58.8059 236.5 56.5264L233.25 54.1936C232.498 55.2421 231.367 55.856 229.499 55.856V59.856ZM236.513 56.5069C238.072 54.2799 238.667 50.9646 238.667 46.976H234.667C234.667 50.7528 234.067 53.0268 233.237 54.2131L236.513 56.5069ZM238.667 46.976C238.667 43.982 238.176 41.3851 236.966 39.4051L233.552 41.4909C234.22 42.5829 234.667 44.338 234.667 46.976H238.667ZM236.966 39.4051C235.599 37.1695 233.37 36.144 230.715 36.144V40.144C232.242 40.144 233.041 40.6545 233.552 41.4909L236.966 39.4051ZM252.478 35.52L253.955 36.8675L253.96 36.8621L253.965 36.8567L252.478 35.52ZM270.27 32.32L271.062 30.4839L270.27 32.32ZM274.941 35.776L273.401 37.052L273.411 37.063L273.42 37.0739L274.941 35.776ZM277.693 41.088L275.77 41.6374L275.776 41.6555L275.781 41.6734L277.693 41.088ZM274.686 60.544L273.198 59.2073L273.197 59.2085L274.686 60.544ZM256.957 63.68L257.75 61.8439L256.957 63.68ZM252.221 60.288L250.681 61.564L250.701 61.588L250.722 61.6112L252.221 60.288ZM249.406 54.912L247.482 55.4614L247.488 55.4795L247.493 55.4974L249.406 54.912ZM258.621 55.04L260.358 54.0477L258.621 55.04ZM260.605 57.152L259.538 58.843L259.589 58.8753L259.642 58.9044L260.605 57.152ZM268.478 55.488L270.135 56.6077L268.478 55.488ZM268.605 40.896L266.842 41.8393L266.847 41.848L266.851 41.8566L268.605 40.896ZM258.813 40.448L257.214 39.248L258.813 40.448ZM250.509 48C250.509 42.8892 251.755 39.2803 253.955 36.8675L251 34.1725C247.909 37.5623 246.509 42.2735 246.509 48H250.509ZM253.965 36.8567C256.153 34.4215 259.274 33.104 263.614 33.104V29.104C258.395 29.104 254.092 30.7305 250.99 34.1833L253.965 36.8567ZM263.614 33.104C265.967 33.104 267.904 33.4771 269.477 34.1561L271.062 30.4839C268.88 29.5415 266.38 29.104 263.614 29.104V33.104ZM269.477 34.1561C271.08 34.8487 272.376 35.815 273.401 37.052L276.482 34.5C275.032 32.7503 273.213 31.4127 271.062 30.4839L269.477 34.1561ZM273.42 37.0739C274.447 38.2781 275.241 39.7835 275.77 41.6374L279.617 40.5386C278.952 38.2112 277.911 36.1753 276.463 34.4781L273.42 37.0739ZM275.781 41.6734C276.355 43.5482 276.654 45.6517 276.654 48H280.654C280.654 45.3136 280.312 42.8091 279.606 40.5026L275.781 41.6734ZM276.654 48C276.654 53.1086 275.408 56.7471 273.198 59.2073L276.173 61.8807C279.253 58.4529 280.654 53.7287 280.654 48H276.654ZM273.197 59.2085C271.057 61.5935 267.963 62.896 263.614 62.896V66.896C268.821 66.896 273.108 65.2972 276.174 61.8795L273.197 59.2085ZM263.614 62.896C261.26 62.896 259.323 62.5229 257.75 61.8439L256.165 65.5161C258.347 66.4585 260.847 66.896 263.614 66.896V62.896ZM257.75 61.8439C256.128 61.1432 254.795 60.182 253.721 58.9648L250.722 61.6112C252.208 63.2954 254.033 64.5955 256.165 65.5161L257.75 61.8439ZM253.762 59.012C252.713 57.7463 251.89 56.1968 251.318 54.3266L247.493 55.4974C248.201 57.8085 249.255 59.843 250.681 61.564L253.762 59.012ZM251.329 54.3626C250.79 52.4761 250.509 50.3601 250.509 48H246.509C246.509 50.6746 246.827 53.1666 247.482 55.4614L251.329 54.3626ZM255.086 48C255.086 49.528 255.224 50.9717 255.514 52.3231L259.425 51.4849C259.203 50.447 259.086 49.288 259.086 48H255.086ZM255.514 52.3231C255.805 53.683 256.254 54.9283 256.885 56.0323L260.358 54.0477C259.965 53.3597 259.646 52.5144 259.425 51.4849L255.514 52.3231ZM256.885 56.0323C257.547 57.1901 258.429 58.1431 259.538 58.843L261.673 55.461C261.16 55.1369 260.72 54.6819 260.358 54.0477L256.885 56.0323ZM259.642 58.9044C260.84 59.5635 262.186 59.856 263.614 59.856V55.856C262.737 55.856 262.078 55.6791 261.569 55.3996L259.642 58.9044ZM263.614 59.856C266.344 59.856 268.639 58.822 270.135 56.6077L266.82 54.3683C266.183 55.3113 265.235 55.856 263.614 55.856V59.856ZM270.135 56.6077C271.541 54.5268 272.077 51.5371 272.077 48H268.077C268.077 51.2896 267.548 53.2919 266.82 54.3683L270.135 56.6077ZM272.077 48C272.077 44.8588 271.558 42.1233 270.36 39.9354L266.851 41.8566C267.616 43.2527 268.077 45.2532 268.077 48H272.077ZM270.369 39.9527C269.714 38.7282 268.79 37.7434 267.587 37.0805C266.398 36.4248 265.046 36.144 263.614 36.144V40.144C264.528 40.144 265.181 40.3219 265.656 40.5835C266.117 40.8379 266.516 41.2291 266.842 41.8393L270.369 39.9527ZM263.614 36.144C260.985 36.144 258.772 37.1705 257.214 39.248L260.413 41.648C261.159 40.6535 262.146 40.144 263.614 40.144V36.144ZM257.214 39.248C255.663 41.316 255.086 44.3798 255.086 48H259.086C259.086 44.6229 259.66 42.652 260.413 41.648L257.214 39.248ZM295.62 53.12L294.467 54.7539L295.62 53.12ZM292.932 51.712L292.19 53.569L292.932 51.712ZM289.413 50.432L288.724 52.3098L288.752 52.32L288.78 52.3294L289.413 50.432ZM285.893 48.576L284.682 50.1683L284.703 50.184L284.724 50.1991L285.893 48.576ZM283.204 45.568L281.479 46.5794L281.487 46.5928L281.495 46.606L283.204 45.568ZM284.933 33.6L283.606 32.1033L284.933 33.6ZM299.652 31.872L300.157 29.9368L299.652 31.872ZM304.26 33.6L306.172 34.1896L306.642 32.665L305.26 31.8676L304.26 33.6ZM302.404 39.616L301.676 41.4785L303.681 42.2631L304.316 40.2056L302.404 39.616ZM298.693 38.4L298.143 40.323H298.143L298.693 38.4ZM291.525 42.496L292.611 40.8169V40.8169L291.525 42.496ZM294.212 43.84L293.47 45.697L293.502 45.7099L293.535 45.7218L294.212 43.84ZM301.253 46.976L300.084 48.5991L300.106 48.6148L300.128 48.6299L301.253 46.976ZM303.941 49.856L302.231 50.894L303.941 49.856ZM301.893 62.144L303.227 63.6337L303.229 63.6321L301.893 62.144ZM286.213 64L286.783 62.0832L286.77 62.0792L286.756 62.0754L286.213 64ZM281.412 62.016L279.537 61.3201L278.969 62.853L280.358 63.7153L281.412 62.016ZM283.716 55.808L284.701 54.0669L282.658 52.9123L281.841 55.1121L283.716 55.808ZM287.62 57.472L286.973 59.3643L286.996 59.372L287.018 59.3792L287.62 57.472ZM295.557 57.536L294.514 55.8294L294.492 55.8429L294.47 55.8569L295.557 57.536ZM298.708 55.168C298.708 53.6343 298.005 52.3549 296.774 51.4861L294.467 54.7539C294.612 54.8562 294.656 54.9281 294.67 54.9543C294.683 54.9776 294.708 55.0339 294.708 55.168H298.708ZM296.774 51.4861C295.89 50.8621 294.847 50.3238 293.675 49.855L292.19 53.569C293.151 53.9536 293.9 54.3539 294.467 54.7539L296.774 51.4861ZM293.675 49.855C292.567 49.4116 291.356 48.9716 290.045 48.5346L288.78 52.3294C290.029 52.7457 291.165 53.1591 292.19 53.569L293.675 49.855ZM290.101 48.5542C288.985 48.1452 287.975 47.6107 287.061 46.9529L284.724 50.1991C285.944 51.0773 287.28 51.7801 288.724 52.3098L290.101 48.5542ZM287.103 46.9837C286.244 46.3314 285.515 45.5196 284.914 44.53L281.495 46.606C282.345 48.0057 283.407 49.1993 284.682 50.1683L287.103 46.9837ZM284.93 44.5566C284.435 43.7128 284.117 42.5129 284.117 40.832H280.117C280.117 42.9911 280.523 44.9485 281.479 46.5794L284.93 44.5566ZM284.117 40.832C284.117 38.0879 284.916 36.287 286.259 35.0967L283.606 32.1033C281.194 34.241 280.117 37.2614 280.117 40.832H284.117ZM286.259 35.0967C287.644 33.8688 289.808 33.104 293.061 33.104V29.104C289.23 29.104 285.975 30.0032 283.606 32.1033L286.259 35.0967ZM293.061 33.104C295.355 33.104 297.379 33.3458 299.148 33.8072L300.157 29.9368C298.001 29.3742 295.63 29.104 293.061 29.104V33.104ZM299.148 33.8072C301.025 34.2971 302.37 34.8181 303.261 35.3324L305.26 31.8676C303.933 31.1019 302.205 30.4709 300.157 29.9368L299.148 33.8072ZM302.349 33.0104L300.493 39.0264L304.316 40.2056L306.172 34.1896L302.349 33.0104ZM303.133 37.7535C302.073 37.3385 300.77 36.9137 299.242 36.477L298.143 40.323C299.601 40.7397 300.774 41.1255 301.676 41.4785L303.133 37.7535ZM299.242 36.477C297.572 35.9998 295.872 35.76 294.148 35.76V39.76C295.497 39.76 296.826 39.9469 298.143 40.323L299.242 36.477ZM294.148 35.76C292.708 35.76 291.26 36.0299 290.139 36.8998C288.921 37.8445 288.437 39.2169 288.437 40.64H292.436C292.436 40.372 292.48 40.2307 292.506 40.1695C292.527 40.1203 292.549 40.0925 292.59 40.0602C292.707 39.9701 293.114 39.76 294.148 39.76V35.76ZM288.437 40.64C288.437 42.1806 289.227 43.3915 290.438 44.1751L292.611 40.8169C292.457 40.7175 292.428 40.6588 292.434 40.6686C292.436 40.6719 292.438 40.6779 292.439 40.6819C292.44 40.6852 292.436 40.6734 292.436 40.64H288.437ZM290.438 44.1751C291.301 44.7333 292.32 45.2369 293.47 45.697L294.955 41.983C293.972 41.5897 293.199 41.1973 292.611 40.8169L290.438 44.1751ZM293.535 45.7218C294.597 46.1042 295.767 46.5295 297.044 46.9978L298.421 43.2422C297.138 42.7718 295.961 42.3438 294.89 41.9582L293.535 45.7218ZM297.044 46.9978C298.16 47.4068 299.17 47.9413 300.084 48.5991L302.421 45.3529C301.201 44.4747 299.865 43.7719 298.421 43.2422L297.044 46.9978ZM300.128 48.6299C300.938 49.181 301.642 49.9234 302.231 50.894L305.65 48.818C304.789 47.3993 303.7 46.2216 302.377 45.3221L300.128 48.6299ZM302.231 50.894C302.712 51.6859 303.029 52.831 303.029 54.464H307.029C307.029 52.3423 306.62 50.4154 305.65 48.818L302.231 50.894ZM303.029 54.464C303.029 57.2353 302.158 59.2179 300.556 60.6559L303.229 63.6321C305.809 61.3155 307.029 58.178 307.029 54.464H303.029ZM300.558 60.6543C299.024 62.0287 296.5 62.896 292.613 62.896V66.896C297.002 66.896 300.665 65.9287 303.227 63.6337L300.558 60.6543ZM292.613 62.896C290.529 62.896 288.589 62.6211 286.783 62.0832L285.642 65.9168C287.846 66.5736 290.173 66.896 292.613 66.896V62.896ZM286.756 62.0754C284.908 61.5529 283.496 60.9555 282.467 60.3167L280.358 63.7153C281.803 64.6125 283.592 65.3377 285.669 65.9246L286.756 62.0754ZM283.288 62.7119L285.592 56.5039L281.841 55.1121L279.537 61.3201L283.288 62.7119ZM282.732 57.5491C283.861 58.1871 285.289 58.788 286.973 59.3643L288.268 55.5797C286.71 55.0466 285.535 54.5383 284.701 54.0669L282.732 57.5491ZM287.018 59.3792C288.835 59.9529 290.702 60.24 292.613 60.24V56.24C291.109 56.24 289.649 56.0151 288.223 55.5648L287.018 59.3792ZM292.613 60.24C294.077 60.24 295.483 59.966 296.643 59.2151L294.47 55.8569C294.18 56.0446 293.623 56.24 292.613 56.24V60.24ZM296.599 59.2426C298.106 58.3218 298.708 56.7865 298.708 55.168H294.708C294.708 55.4972 294.651 55.6572 294.622 55.7171C294.602 55.7589 294.58 55.7887 294.514 55.8294L296.599 59.2426ZM306.173 32V30H304.173V32H306.173ZM310.589 32V34H312.589V32H310.589ZM310.589 25.984L310.041 24.0604L308.589 24.4738V25.984H310.589ZM318.909 23.616H320.909V20.9673L318.361 21.6924L318.909 23.616ZM318.909 32H316.909V34H318.909V32ZM326.717 32H328.717V30H326.717V32ZM326.717 39.04V41.04H328.717V39.04H326.717ZM318.909 39.04V37.04H316.909V39.04H318.909ZM319.549 56.128L317.714 56.9255L317.736 56.9745L317.76 57.0224L319.549 56.128ZM324.285 57.28L323.769 55.3475L323.752 55.3521L323.735 55.357L324.285 57.28ZM326.397 56.512L328.346 56.0637L327.802 53.6988L325.584 54.6844L326.397 56.512ZM327.869 62.912L328.736 64.714L330.176 64.0209L329.818 62.4637L327.869 62.912ZM323.837 64.32L324.322 66.2603L323.837 64.32ZM312.637 62.656L311.142 63.9847L311.161 64.0067L311.181 64.028L312.637 62.656ZM310.589 39.04H312.589V37.04H310.589V39.04ZM306.173 39.04H304.173V41.04H306.173V39.04ZM306.173 34H310.589V30H306.173V34ZM312.589 32V25.984H308.589V32H312.589ZM311.136 27.9076L319.456 25.5396L318.361 21.6924L310.041 24.0604L311.136 27.9076ZM316.909 23.616V32H320.909V23.616H316.909ZM318.909 34H326.717V30H318.909V34ZM324.717 32V39.04H328.717V32H324.717ZM326.717 37.04H318.909V41.04H326.717V37.04ZM316.909 39.04V51.328H320.909V39.04H316.909ZM316.909 51.328C316.909 53.5893 317.113 55.5431 317.714 56.9255L321.383 55.3305C321.13 54.7502 320.909 53.504 320.909 51.328H316.909ZM317.76 57.0224C318.161 57.8252 318.766 58.4907 319.577 58.9364C320.368 59.3717 321.242 59.536 322.109 59.536V55.536C321.738 55.536 321.566 55.4657 321.504 55.4316C321.461 55.4079 321.405 55.3694 321.337 55.2336L317.76 57.0224ZM322.109 59.536C323.084 59.536 324.005 59.4398 324.834 59.203L323.735 55.357C323.369 55.4615 322.84 55.536 322.109 55.536V59.536ZM324.8 59.2125C325.564 59.0086 326.369 58.7129 327.209 58.3396L325.584 54.6844C324.888 54.9938 324.285 55.21 323.769 55.3475L324.8 59.2125ZM324.447 56.9603L325.919 63.3603L329.818 62.4637L328.346 56.0637L324.447 56.9603ZM327.001 61.11C325.996 61.5937 324.785 62.0212 323.351 62.3797L324.322 66.2603C325.96 65.8508 327.437 65.3396 328.736 64.714L327.001 61.11ZM323.351 62.3797C321.974 62.7242 320.579 62.896 319.165 62.896V66.896C320.907 66.896 322.627 66.6838 324.322 66.2603L323.351 62.3797ZM319.165 62.896C316.528 62.896 314.982 62.2287 314.092 61.284L311.181 64.028C313.107 66.0699 315.913 66.896 319.165 66.896V62.896ZM314.131 61.3273C313.251 60.3365 312.589 58.4434 312.589 55.168H308.589C308.589 58.8046 309.292 61.9035 311.142 63.9847L314.131 61.3273ZM312.589 55.168V39.04H308.589V55.168H312.589ZM310.589 37.04H306.173V41.04H310.589V37.04ZM308.173 39.04V32H304.173V39.04H308.173ZM330.661 33.856L329.84 32.0322L328.213 32.7646L328.756 34.4648L330.661 33.856ZM336.741 32.064L337.099 34.0317L337.116 34.0286L337.133 34.0252L336.741 32.064ZM349.669 32.192L348.973 34.0668L348.996 34.0757L349.02 34.0839L349.669 32.192ZM353.189 34.432L351.68 35.7444L351.696 35.7626L351.712 35.7805L353.189 34.432ZM355.045 37.952L353.105 38.4371L353.112 38.4654L353.12 38.4935L355.045 37.952ZM355.429 48.256L357.424 48.392L357.425 48.389L355.429 48.256ZM355.173 53.824L353.174 53.7775L353.173 53.8007V53.824H355.173ZM355.365 59.2L353.37 59.346L353.371 59.3496L355.365 59.2ZM356.325 64.064V66.064H359.1L358.222 63.4315L356.325 64.064ZM349.541 64.064L347.628 64.6463L348.059 66.064H349.541V64.064ZM348.197 59.648L350.11 59.0657L349.679 57.648H348.197V59.648ZM347.877 59.648V57.648H346.787L346.196 58.5637L347.877 59.648ZM344.293 63.104L345.357 64.7973L345.364 64.7934L345.37 64.7894L344.293 63.104ZM334.437 63.872L333.706 65.7335L333.735 65.7449L333.764 65.7555L334.437 63.872ZM331.365 61.952L329.951 63.3662L329.969 63.3843L329.987 63.402L331.365 61.952ZM329.381 59.008L327.529 59.7626L327.534 59.775L327.539 59.7873L329.381 59.008ZM329.957 50.24L328.285 49.1427L328.281 49.1492L328.276 49.1557L329.957 50.24ZM333.733 46.976L334.627 48.7649L334.637 48.7603L334.646 48.7556L333.733 46.976ZM339.621 45.248L339.883 47.2308L339.898 47.2287L339.914 47.2264L339.621 45.248ZM347.301 44.928L347.21 46.9259L349.056 47.0099L349.286 45.1761L347.301 44.928ZM346.789 39.808L345.074 40.837L345.083 40.8526L345.093 40.868L346.789 39.808ZM337.189 38.72L336.831 36.7522L336.823 36.7537L337.189 38.72ZM332.645 40.064L330.74 40.6728L331.43 42.833L333.487 41.878L332.645 40.064ZM345.189 56.576L346.378 58.1844L346.4 58.168L346.422 58.151L345.189 56.576ZM347.365 54.144L349.117 55.1078L349.365 54.6577V54.144H347.365ZM347.365 49.984H349.365V48.1682L347.558 47.9933L347.365 49.984ZM343.525 49.92L343.387 47.9247L343.382 47.9251L343.525 49.92ZM338.085 51.776L336.671 50.3618L338.085 51.776ZM338.277 56.704L336.863 58.1182L336.907 58.1624L336.954 58.2037L338.277 56.704ZM331.482 35.6798C333.007 34.9937 334.87 34.4369 337.099 34.0317L336.383 30.0963C333.918 30.5444 331.729 31.1823 329.84 32.0322L331.482 35.6798ZM337.133 34.0252C339.342 33.5834 341.664 33.36 344.101 33.36V29.36C341.418 29.36 338.833 29.6059 336.349 30.1028L337.133 34.0252ZM344.101 33.36C346.168 33.36 347.771 33.6205 348.973 34.0668L350.365 30.3172C348.58 29.6542 346.471 29.36 344.101 29.36V33.36ZM349.02 34.0839C350.252 34.5061 351.102 35.08 351.68 35.7444L354.698 33.1196C353.569 31.8214 352.073 30.9019 350.318 30.3001L349.02 34.0839ZM351.712 35.7805C352.371 36.5024 352.839 37.3739 353.105 38.4371L356.985 37.4669C356.568 35.7994 355.799 34.3243 354.666 33.0835L351.712 35.7805ZM353.12 38.4935C353.445 39.6511 353.621 41.0006 353.621 42.56H357.621C357.621 40.7061 357.413 38.9835 356.97 37.4105L353.12 38.4935ZM353.621 42.56C353.621 44.3919 353.559 46.2461 353.433 48.123L357.425 48.389C357.555 46.4259 357.621 44.4828 357.621 42.56H353.621ZM353.434 48.12C353.304 50.0263 353.217 51.9122 353.174 53.7775L357.172 53.8705C357.214 52.0665 357.298 50.2403 357.424 48.392L353.434 48.12ZM353.173 53.824C353.173 55.7052 353.239 57.5459 353.37 59.346L357.36 59.054C357.235 57.3554 357.173 55.6122 357.173 53.824H353.173ZM353.371 59.3496C353.51 61.2112 353.861 62.9955 354.428 64.6965L358.222 63.4315C357.765 62.0605 357.476 60.6021 357.359 59.0504L353.371 59.3496ZM356.325 62.064H349.541V66.064H356.325V62.064ZM351.454 63.4817L350.11 59.0657L346.284 60.2303L347.628 64.6463L351.454 63.4817ZM348.197 57.648H347.877V61.648H348.197V57.648ZM346.196 58.5637C345.522 59.6097 344.548 60.5676 343.216 61.4186L345.37 64.7894C347.11 63.6777 348.526 62.3316 349.558 60.7323L346.196 58.5637ZM343.229 61.4107C342.148 62.0898 340.611 62.512 338.469 62.512V66.512C341.106 66.512 343.451 65.9956 345.357 64.7973L343.229 61.4107ZM338.469 62.512C337.165 62.512 336.054 62.3258 335.11 61.9885L333.764 65.7555C335.209 66.2716 336.786 66.512 338.469 66.512V62.512ZM335.168 62.0105C334.192 61.6268 333.393 61.1197 332.742 60.502L329.987 63.402C331.044 64.4057 332.293 65.1785 333.706 65.7335L335.168 62.0105ZM332.779 60.5378C332.108 59.8662 331.592 59.1004 331.223 58.2287L327.539 59.7873C328.109 61.1343 328.916 62.3311 329.951 63.3662L332.779 60.5378ZM331.233 58.2534C330.873 57.3706 330.677 56.3512 330.677 55.168H326.677C326.677 56.8008 326.95 58.3414 327.529 59.7626L331.233 58.2534ZM330.677 55.168C330.677 53.4951 331.039 52.2523 331.638 51.3243L328.276 49.1557C327.168 50.873 326.677 52.9156 326.677 55.168H330.677ZM331.629 51.3373C332.311 50.2987 333.286 49.4355 334.627 48.7649L332.839 45.1871C330.937 46.1379 329.395 47.4507 328.285 49.1427L331.629 51.3373ZM334.646 48.7556C336.067 48.0269 337.8 47.5058 339.883 47.2308L339.359 43.2652C336.919 43.5875 334.727 44.2185 332.82 45.1964L334.646 48.7556ZM339.914 47.2264C342.068 46.9073 344.497 46.8026 347.21 46.9259L347.392 42.9301C344.473 42.7974 341.782 42.906 339.328 43.2696L339.914 47.2264ZM349.286 45.1761C349.593 42.714 349.515 40.3966 348.485 38.748L345.093 40.868C345.343 41.2674 345.606 42.3633 345.316 44.6799L349.286 45.1761ZM348.504 38.779C347.289 36.7542 344.872 36.208 342.501 36.208V40.208C344.567 40.208 345.009 40.7285 345.074 40.837L348.504 38.779ZM342.501 36.208C340.701 36.208 338.81 36.3925 336.831 36.7523L337.547 40.6877C339.323 40.3648 340.973 40.208 342.501 40.208V36.208ZM336.823 36.7537C334.886 37.1141 333.198 37.6024 331.803 38.25L333.487 41.878C334.482 41.4163 335.822 41.0086 337.555 40.6863L336.823 36.7537ZM334.55 39.4552L332.566 33.2472L328.756 34.4648L330.74 40.6728L334.55 39.4552ZM341.221 59.664C343.16 59.664 344.947 59.242 346.378 58.1844L344 54.9676C343.469 55.3606 342.61 55.664 341.221 55.664V59.664ZM346.422 58.151C347.559 57.2612 348.487 56.2541 349.117 55.1078L345.613 53.1802C345.304 53.7406 344.782 54.3548 343.956 55.001L346.422 58.151ZM349.365 54.144V49.984H345.365V54.144H349.365ZM347.558 47.9933C346.133 47.8554 344.742 47.8313 343.387 47.9247L343.663 51.9153C344.782 51.838 345.952 51.8566 347.172 51.9747L347.558 47.9933ZM343.382 47.9251C342.063 48.0193 340.836 48.2346 339.719 48.5901L340.931 52.4019C341.691 52.1601 342.598 51.9913 343.667 51.9149L343.382 47.9251ZM339.719 48.5901C338.551 48.9615 337.502 49.5305 336.671 50.3618L339.499 53.1902C339.777 52.9121 340.221 52.6278 340.931 52.4019L339.719 48.5901ZM336.671 50.3618C335.706 51.3263 335.253 52.5556 335.253 53.888H339.253C339.253 53.5137 339.354 53.335 339.499 53.1902L336.671 50.3618ZM335.253 53.888C335.253 55.4796 335.72 56.9756 336.863 58.1182L339.691 55.2898C339.468 55.0671 339.253 54.6857 339.253 53.888H335.253ZM336.954 58.2037C338.137 59.248 339.636 59.664 341.221 59.664V55.664C340.331 55.664 339.867 55.44 339.6 55.2043L336.954 58.2037ZM373.803 53.12L372.65 54.7539L373.803 53.12ZM371.115 51.712L370.372 53.569L371.115 51.712ZM367.595 50.432L366.906 52.3098L366.934 52.32L366.963 52.3294L367.595 50.432ZM364.075 48.576L362.865 50.1683L362.885 50.184L362.906 50.1991L364.075 48.576ZM361.387 45.568L359.662 46.5794L359.669 46.5928L359.677 46.606L361.387 45.568ZM363.115 33.6L361.788 32.1033L363.115 33.6ZM377.835 31.872L378.34 29.9368L377.835 31.872ZM382.443 33.6L384.354 34.1896L384.824 32.665L383.442 31.8676L382.443 33.6ZM380.587 39.616L379.858 41.4785L381.863 42.2631L382.498 40.2056L380.587 39.616ZM376.875 38.4L376.326 40.323H376.326L376.875 38.4ZM369.707 42.496L370.794 40.8169V40.8169L369.707 42.496ZM372.395 43.84L371.652 45.697L371.685 45.7099L371.718 45.7218L372.395 43.84ZM379.435 46.976L378.266 48.5991L378.288 48.6148L378.31 48.6299L379.435 46.976ZM382.123 49.856L380.413 50.894L382.123 49.856ZM380.075 62.144L381.41 63.6337L381.411 63.6321L380.075 62.144ZM364.395 64L364.966 62.0832L364.952 62.0792L364.939 62.0754L364.395 64ZM359.595 62.016L357.72 61.3201L357.151 62.853L358.54 63.7153L359.595 62.016ZM361.899 55.808L362.883 54.0669L360.84 52.9123L360.024 55.1121L361.899 55.808ZM365.803 57.472L365.156 59.3643L365.178 59.372L365.201 59.3792L365.803 57.472ZM373.739 57.536L372.696 55.8294L372.674 55.8429L372.652 55.8569L373.739 57.536ZM376.891 55.168C376.891 53.6343 376.187 52.3549 374.956 51.4861L372.65 54.7539C372.794 54.8562 372.839 54.9281 372.853 54.9543C372.865 54.9776 372.891 55.0339 372.891 55.168H376.891ZM374.956 51.4861C374.072 50.8621 373.03 50.3238 371.858 49.855L370.372 53.569C371.334 53.9536 372.083 54.3539 372.65 54.7539L374.956 51.4861ZM371.858 49.855C370.749 49.4116 369.538 48.9716 368.227 48.5346L366.963 52.3294C368.212 52.7457 369.348 53.1591 370.372 53.569L371.858 49.855ZM368.284 48.5542C367.168 48.1452 366.157 47.6107 365.244 46.9529L362.906 50.1991C364.126 51.0773 365.462 51.7801 366.906 52.3098L368.284 48.5542ZM365.285 46.9837C364.427 46.3314 363.697 45.5196 363.097 44.53L359.677 46.606C360.527 48.0057 361.59 49.1993 362.865 50.1683L365.285 46.9837ZM363.112 44.5566C362.618 43.7128 362.299 42.5129 362.299 40.832H358.299C358.299 42.9911 358.706 44.9485 359.662 46.5794L363.112 44.5566ZM362.299 40.832C362.299 38.0879 363.099 36.287 364.442 35.0967L361.788 32.1033C359.377 34.241 358.299 37.2614 358.299 40.832H362.299ZM364.442 35.0967C365.827 33.8688 367.99 33.104 371.243 33.104V29.104C367.413 29.104 364.158 30.0032 361.788 32.1033L364.442 35.0967ZM371.243 33.104C373.537 33.104 375.561 33.3458 377.33 33.8072L378.34 29.9368C376.184 29.3742 373.813 29.104 371.243 29.104V33.104ZM377.33 33.8072C379.208 34.2971 380.552 34.8181 381.444 35.3324L383.442 31.8676C382.115 31.1019 380.387 30.4709 378.34 29.9368L377.33 33.8072ZM380.532 33.0104L378.676 39.0264L382.498 40.2056L384.354 34.1896L380.532 33.0104ZM381.316 37.7535C380.255 37.3385 378.953 36.9137 377.424 36.477L376.326 40.323C377.784 40.7397 378.956 41.1255 379.858 41.4785L381.316 37.7535ZM377.424 36.477C375.754 35.9998 374.055 35.76 372.331 35.76V39.76C373.679 39.76 375.009 39.9469 376.326 40.323L377.424 36.477ZM372.331 35.76C370.89 35.76 369.442 36.0299 368.321 36.8998C367.103 37.8445 366.619 39.2169 366.619 40.64H370.619C370.619 40.372 370.662 40.2307 370.689 40.1695C370.71 40.1203 370.731 40.0925 370.773 40.0602C370.889 39.9701 371.297 39.76 372.331 39.76V35.76ZM366.619 40.64C366.619 42.1806 367.409 43.3915 368.62 44.1751L370.794 40.8169C370.64 40.7175 370.611 40.6588 370.616 40.6686C370.618 40.6719 370.621 40.6779 370.622 40.6819C370.623 40.6852 370.619 40.6734 370.619 40.64H366.619ZM368.62 44.1751C369.483 44.7333 370.502 45.2369 371.652 45.697L373.138 41.983C372.155 41.5897 371.382 41.1973 370.794 40.8169L368.62 44.1751ZM371.718 45.7218C372.78 46.1042 373.949 46.5295 375.226 46.9978L376.604 43.2422C375.321 42.7718 374.143 42.3438 373.072 41.9582L371.718 45.7218ZM375.226 46.9978C376.342 47.4068 377.353 47.9413 378.266 48.5991L380.604 45.3529C379.384 44.4747 378.048 43.7719 376.604 43.2422L375.226 46.9978ZM378.31 48.6299C379.121 49.181 379.824 49.9234 380.413 50.894L383.833 48.818C382.971 47.3993 381.882 46.2216 380.56 45.3221L378.31 48.6299ZM380.413 50.894C380.894 51.6859 381.211 52.831 381.211 54.464H385.211C385.211 52.3423 384.802 50.4154 383.833 48.818L380.413 50.894ZM381.211 54.464C381.211 57.2353 380.34 59.2179 378.739 60.6559L381.411 63.6321C383.991 61.3155 385.211 58.178 385.211 54.464H381.211ZM378.74 60.6543C377.206 62.0287 374.683 62.896 370.795 62.896V66.896C375.185 66.896 378.848 65.9287 381.41 63.6337L378.74 60.6543ZM370.795 62.896C368.711 62.896 366.772 62.6211 364.966 62.0832L363.824 65.9168C366.029 66.5736 368.356 66.896 370.795 66.896V62.896ZM364.939 62.0754C363.09 61.5529 361.679 60.9555 360.65 60.3167L358.54 63.7153C359.986 64.6125 361.774 65.3377 363.851 65.9246L364.939 62.0754ZM361.47 62.7119L363.774 56.5039L360.024 55.1121L357.72 61.3201L361.47 62.7119ZM360.915 57.5491C362.044 58.1871 363.471 58.788 365.156 59.3643L366.45 55.5797C364.892 55.0466 363.717 54.5383 362.883 54.0669L360.915 57.5491ZM365.201 59.3792C367.018 59.9529 368.885 60.24 370.795 60.24V56.24C369.292 56.24 367.831 56.0151 366.405 55.5648L365.201 59.3792ZM370.795 60.24C372.259 60.24 373.665 59.966 374.826 59.2151L372.652 55.8569C372.362 56.0446 371.805 56.24 370.795 56.24V60.24ZM374.782 59.2426C376.289 58.3218 376.891 56.7865 376.891 55.168H372.891C372.891 55.4972 372.834 55.6572 372.805 55.7171C372.784 55.7589 372.763 55.7887 372.696 55.8294L374.782 59.2426Z" fill="#EA0FFD" mask="url(#path-1-outside-1_29_960)"/>
    <path d="M38.1244 135.144C36.8604 135.144 35.6844 134.936 34.5964 134.52C33.5244 134.088 32.5884 133.488 31.7884 132.72C31.0044 131.936 30.3884 131.032 29.9404 130.008C29.5084 128.968 29.2924 127.832 29.2924 126.6C29.2924 125.368 29.5084 124.24 29.9404 123.216C30.3884 122.176 31.0044 121.272 31.7884 120.504C32.5884 119.72 33.5244 119.12 34.5964 118.704C35.6684 118.272 36.8444 118.056 38.1244 118.056C39.3884 118.056 40.5564 118.272 41.6284 118.704C42.7004 119.12 43.6284 119.712 44.4124 120.48C45.2124 121.248 45.8284 122.152 46.2604 123.192C46.7084 124.232 46.9324 125.368 46.9324 126.6C46.9324 127.832 46.7084 128.968 46.2604 130.008C45.8284 131.048 45.2124 131.952 44.4124 132.72C43.6284 133.488 42.7004 134.088 41.6284 134.52C40.5564 134.936 39.3884 135.144 38.1244 135.144ZM43.6204 138.336C43.1084 138.336 42.6124 138.272 42.1324 138.144C41.6524 138.016 41.1644 137.808 40.6684 137.52C40.1884 137.248 39.6924 136.888 39.1804 136.44C38.6684 135.992 38.1084 135.448 37.5004 134.808L39.4444 134.328C39.9404 134.92 40.4204 135.408 40.8844 135.792C41.3644 136.176 41.8284 136.456 42.2764 136.632C42.7404 136.824 43.1964 136.92 43.6444 136.92C44.8924 136.92 45.9564 136.408 46.8364 135.384L47.7004 136.416C46.6444 137.696 45.2844 138.336 43.6204 138.336ZM38.1244 133.56C39.1324 133.56 40.0604 133.392 40.9084 133.056C41.7724 132.704 42.5164 132.208 43.1404 131.568C43.7804 130.928 44.2764 130.192 44.6284 129.36C44.9804 128.512 45.1564 127.592 45.1564 126.6C45.1564 125.592 44.9804 124.672 44.6284 123.84C44.2764 122.992 43.7804 122.256 43.1404 121.632C42.5164 120.992 41.7724 120.504 40.9084 120.168C40.0604 119.816 39.1324 119.64 38.1244 119.64C37.1164 119.64 36.1804 119.816 35.3164 120.168C34.4524 120.504 33.7004 120.992 33.0604 121.632C32.4364 122.256 31.9404 122.992 31.5724 123.84C31.2204 124.672 31.0444 125.592 31.0444 126.6C31.0444 127.592 31.2204 128.512 31.5724 129.36C31.9404 130.192 32.4364 130.928 33.0604 131.568C33.7004 132.208 34.4524 132.704 35.3164 133.056C36.1804 133.392 37.1164 133.56 38.1244 133.56ZM55.4012 135.12C54.3292 135.12 53.3932 134.92 52.5932 134.52C51.7932 134.12 51.1692 133.52 50.7212 132.72C50.2892 131.92 50.0732 130.92 50.0732 129.72V122.4H51.7772V129.528C51.7772 130.872 52.1052 131.888 52.7612 132.576C53.4332 133.248 54.3692 133.584 55.5692 133.584C56.4492 133.584 57.2092 133.408 57.8492 133.056C58.5052 132.688 59.0012 132.16 59.3372 131.472C59.6892 130.784 59.8652 129.96 59.8652 129V122.4H61.5692V135H59.9372V131.544L60.2012 132.168C59.8012 133.096 59.1772 133.824 58.3292 134.352C57.4972 134.864 56.5212 135.12 55.4012 135.12ZM73.8542 135V132.216L73.7822 131.76V127.104C73.7822 126.032 73.4782 125.208 72.8702 124.632C72.2782 124.056 71.3902 123.768 70.2062 123.768C69.3902 123.768 68.6142 123.904 67.8782 124.176C67.1422 124.448 66.5182 124.808 66.0062 125.256L65.2382 123.984C65.8782 123.44 66.6462 123.024 67.5422 122.736C68.4382 122.432 69.3822 122.28 70.3742 122.28C72.0062 122.28 73.2622 122.688 74.1422 123.504C75.0382 124.304 75.4862 125.528 75.4862 127.176V135H73.8542ZM69.5102 135.12C68.5662 135.12 67.7422 134.968 67.0382 134.664C66.3502 134.344 65.8222 133.912 65.4542 133.368C65.0862 132.808 64.9022 132.168 64.9022 131.448C64.9022 130.792 65.0542 130.2 65.3582 129.672C65.6782 129.128 66.1902 128.696 66.8942 128.376C67.6142 128.04 68.5742 127.872 69.7742 127.872H74.1182V129.144H69.8222C68.6062 129.144 67.7582 129.36 67.2782 129.792C66.8142 130.224 66.5822 130.76 66.5822 131.4C66.5822 132.12 66.8622 132.696 67.4222 133.128C67.9822 133.56 68.7662 133.776 69.7742 133.776C70.7342 133.776 71.5582 133.56 72.2462 133.128C72.9502 132.68 73.4622 132.04 73.7822 131.208L74.1662 132.384C73.8462 133.216 73.2862 133.88 72.4862 134.376C71.7022 134.872 70.7102 135.12 69.5102 135.12ZM79.7544 135V117.192H81.4584V135H79.7544ZM95.745 135.12C94.561 135.12 93.649 134.8 93.009 134.16C92.369 133.52 92.049 132.616 92.049 131.448V119.616H93.753V131.352C93.753 132.088 93.937 132.656 94.305 133.056C94.689 133.456 95.233 133.656 95.937 133.656C96.689 133.656 97.313 133.44 97.809 133.008L98.409 134.232C98.073 134.536 97.665 134.76 97.185 134.904C96.721 135.048 96.241 135.12 95.745 135.12ZM89.793 123.816V122.4H97.593V123.816H89.793ZM101.151 135V122.4H102.855V135H101.151ZM102.015 119.616C101.663 119.616 101.367 119.496 101.127 119.256C100.887 119.016 100.767 118.728 100.767 118.392C100.767 118.056 100.887 117.776 101.127 117.552C101.367 117.312 101.663 117.192 102.015 117.192C102.367 117.192 102.663 117.304 102.903 117.528C103.143 117.752 103.263 118.032 103.263 118.368C103.263 118.72 103.143 119.016 102.903 119.256C102.679 119.496 102.383 119.616 102.015 119.616ZM113.74 135.12C112.652 135.12 111.668 134.872 110.788 134.376C109.908 133.864 109.204 133.136 108.676 132.192C108.164 131.232 107.908 130.064 107.908 128.688C107.908 127.312 108.164 126.152 108.676 125.208C109.188 124.248 109.884 123.52 110.764 123.024C111.644 122.528 112.636 122.28 113.74 122.28C114.94 122.28 116.012 122.552 116.956 123.096C117.916 123.624 118.668 124.376 119.212 125.352C119.756 126.312 120.028 127.424 120.028 128.688C120.028 129.968 119.756 131.088 119.212 132.048C118.668 133.008 117.916 133.76 116.956 134.304C116.012 134.848 114.94 135.12 113.74 135.12ZM107.236 139.656V122.4H108.868V126.192L108.7 128.712L108.94 131.256V139.656H107.236ZM113.62 133.608C114.516 133.608 115.316 133.408 116.02 133.008C116.724 132.592 117.284 132.016 117.7 131.28C118.116 130.528 118.324 129.664 118.324 128.688C118.324 127.712 118.116 126.856 117.7 126.12C117.284 125.384 116.724 124.808 116.02 124.392C115.316 123.976 114.516 123.768 113.62 123.768C112.724 123.768 111.916 123.976 111.196 124.392C110.492 124.808 109.932 125.384 109.516 126.12C109.116 126.856 108.916 127.712 108.916 128.688C108.916 129.664 109.116 130.528 109.516 131.28C109.932 132.016 110.492 132.592 111.196 133.008C111.916 133.408 112.724 133.608 113.62 133.608ZM128.278 135.12C127.062 135.12 125.966 134.848 124.99 134.304C124.03 133.744 123.27 132.984 122.71 132.024C122.15 131.048 121.87 129.936 121.87 128.688C121.87 127.424 122.15 126.312 122.71 125.352C123.27 124.392 124.03 123.64 124.99 123.096C125.95 122.552 127.046 122.28 128.278 122.28C129.526 122.28 130.63 122.552 131.59 123.096C132.566 123.64 133.326 124.392 133.87 125.352C134.43 126.312 134.71 127.424 134.71 128.688C134.71 129.936 134.43 131.048 133.87 132.024C133.326 132.984 132.566 133.744 131.59 134.304C130.614 134.848 129.51 135.12 128.278 135.12ZM128.278 133.608C129.19 133.608 129.998 133.408 130.702 133.008C131.406 132.592 131.958 132.016 132.358 131.28C132.774 130.528 132.982 129.664 132.982 128.688C132.982 127.696 132.774 126.832 132.358 126.096C131.958 125.36 131.406 124.792 130.702 124.392C129.998 123.976 129.198 123.768 128.302 123.768C127.406 123.768 126.606 123.976 125.902 124.392C125.198 124.792 124.638 125.36 124.222 126.096C123.806 126.832 123.598 127.696 123.598 128.688C123.598 129.664 123.806 130.528 124.222 131.28C124.638 132.016 125.198 132.592 125.902 133.008C126.606 133.408 127.398 133.608 128.278 133.608ZM148.766 135.12C147.566 135.12 146.486 134.848 145.526 134.304C144.582 133.76 143.838 133.008 143.294 132.048C142.75 131.072 142.478 129.952 142.478 128.688C142.478 127.408 142.75 126.288 143.294 125.328C143.838 124.368 144.582 123.624 145.526 123.096C146.486 122.552 147.566 122.28 148.766 122.28C149.87 122.28 150.854 122.528 151.718 123.024C152.598 123.52 153.294 124.248 153.806 125.208C154.334 126.152 154.598 127.312 154.598 128.688C154.598 130.048 154.342 131.208 153.83 132.168C153.318 133.128 152.622 133.864 151.742 134.376C150.878 134.872 149.886 135.12 148.766 135.12ZM148.886 133.608C149.782 133.608 150.582 133.408 151.286 133.008C152.006 132.592 152.566 132.016 152.966 131.28C153.382 130.528 153.59 129.664 153.59 128.688C153.59 127.696 153.382 126.832 152.966 126.096C152.566 125.36 152.006 124.792 151.286 124.392C150.582 123.976 149.782 123.768 148.886 123.768C148.006 123.768 147.214 123.976 146.51 124.392C145.806 124.792 145.246 125.36 144.83 126.096C144.414 126.832 144.206 127.696 144.206 128.688C144.206 129.664 144.414 130.528 144.83 131.28C145.246 132.016 145.806 132.592 146.51 133.008C147.214 133.408 148.006 133.608 148.886 133.608ZM153.638 135V131.208L153.806 128.664L153.566 126.12V117.192H155.27V135H153.638ZM165.008 135.12C163.696 135.12 162.544 134.848 161.552 134.304C160.56 133.744 159.784 132.984 159.224 132.024C158.664 131.048 158.384 129.936 158.384 128.688C158.384 127.44 158.648 126.336 159.176 125.376C159.72 124.416 160.456 123.664 161.384 123.12C162.328 122.56 163.384 122.28 164.552 122.28C165.736 122.28 166.784 122.552 167.696 123.096C168.624 123.624 169.352 124.376 169.88 125.352C170.408 126.312 170.672 127.424 170.672 128.688C170.672 128.768 170.664 128.856 170.648 128.952C170.648 129.032 170.648 129.12 170.648 129.216H159.68V127.944H169.736L169.064 128.448C169.064 127.536 168.864 126.728 168.464 126.024C168.08 125.304 167.552 124.744 166.88 124.344C166.208 123.944 165.432 123.744 164.552 123.744C163.688 123.744 162.912 123.944 162.224 124.344C161.536 124.744 161 125.304 160.616 126.024C160.232 126.744 160.04 127.568 160.04 128.496V128.76C160.04 129.72 160.248 130.568 160.664 131.304C161.096 132.024 161.688 132.592 162.44 133.008C163.208 133.408 164.08 133.608 165.056 133.608C165.824 133.608 166.536 133.472 167.192 133.2C167.864 132.928 168.44 132.512 168.92 131.952L169.88 133.056C169.32 133.728 168.616 134.24 167.768 134.592C166.936 134.944 166.016 135.12 165.008 135.12ZM187.597 135V132.216L187.525 131.76V127.104C187.525 126.032 187.221 125.208 186.613 124.632C186.021 124.056 185.133 123.768 183.949 123.768C183.133 123.768 182.357 123.904 181.621 124.176C180.885 124.448 180.261 124.808 179.749 125.256L178.981 123.984C179.621 123.44 180.389 123.024 181.285 122.736C182.181 122.432 183.125 122.28 184.117 122.28C185.749 122.28 187.005 122.688 187.885 123.504C188.781 124.304 189.229 125.528 189.229 127.176V135H187.597ZM183.253 135.12C182.309 135.12 181.485 134.968 180.781 134.664C180.093 134.344 179.565 133.912 179.197 133.368C178.829 132.808 178.645 132.168 178.645 131.448C178.645 130.792 178.797 130.2 179.101 129.672C179.421 129.128 179.933 128.696 180.637 128.376C181.357 128.04 182.317 127.872 183.517 127.872H187.861V129.144H183.565C182.349 129.144 181.501 129.36 181.021 129.792C180.557 130.224 180.325 130.76 180.325 131.4C180.325 132.12 180.605 132.696 181.165 133.128C181.725 133.56 182.509 133.776 183.517 133.776C184.477 133.776 185.301 133.56 185.989 133.128C186.693 132.68 187.205 132.04 187.525 131.208L187.909 132.384C187.589 133.216 187.029 133.88 186.229 134.376C185.445 134.872 184.453 135.12 183.253 135.12ZM200.002 135.12C198.914 135.12 197.93 134.872 197.05 134.376C196.17 133.864 195.466 133.136 194.938 132.192C194.426 131.232 194.17 130.064 194.17 128.688C194.17 127.312 194.426 126.152 194.938 125.208C195.45 124.248 196.146 123.52 197.026 123.024C197.906 122.528 198.898 122.28 200.002 122.28C201.202 122.28 202.274 122.552 203.218 123.096C204.178 123.624 204.93 124.376 205.474 125.352C206.018 126.312 206.29 127.424 206.29 128.688C206.29 129.968 206.018 131.088 205.474 132.048C204.93 133.008 204.178 133.76 203.218 134.304C202.274 134.848 201.202 135.12 200.002 135.12ZM193.498 139.656V122.4H195.13V126.192L194.962 128.712L195.202 131.256V139.656H193.498ZM199.882 133.608C200.778 133.608 201.578 133.408 202.282 133.008C202.986 132.592 203.546 132.016 203.962 131.28C204.378 130.528 204.586 129.664 204.586 128.688C204.586 127.712 204.378 126.856 203.962 126.12C203.546 125.384 202.986 124.808 202.282 124.392C201.578 123.976 200.778 123.768 199.882 123.768C198.986 123.768 198.178 123.976 197.458 124.392C196.754 124.808 196.194 125.384 195.778 126.12C195.378 126.856 195.178 127.712 195.178 128.688C195.178 129.664 195.378 130.528 195.778 131.28C196.194 132.016 196.754 132.592 197.458 133.008C198.178 133.408 198.986 133.608 199.882 133.608ZM214.539 135.12C213.323 135.12 212.227 134.848 211.251 134.304C210.291 133.744 209.531 132.984 208.971 132.024C208.411 131.048 208.131 129.936 208.131 128.688C208.131 127.424 208.411 126.312 208.971 125.352C209.531 124.392 210.291 123.64 211.251 123.096C212.211 122.552 213.307 122.28 214.539 122.28C215.787 122.28 216.891 122.552 217.851 123.096C218.827 123.64 219.587 124.392 220.131 125.352C220.691 126.312 220.971 127.424 220.971 128.688C220.971 129.936 220.691 131.048 220.131 132.024C219.587 132.984 218.827 133.744 217.851 134.304C216.875 134.848 215.771 135.12 214.539 135.12ZM214.539 133.608C215.451 133.608 216.259 133.408 216.963 133.008C217.667 132.592 218.219 132.016 218.619 131.28C219.035 130.528 219.243 129.664 219.243 128.688C219.243 127.696 219.035 126.832 218.619 126.096C218.219 125.36 217.667 124.792 216.963 124.392C216.259 123.976 215.459 123.768 214.563 123.768C213.667 123.768 212.867 123.976 212.163 124.392C211.459 124.792 210.899 125.36 210.483 126.096C210.067 126.832 209.859 127.696 209.859 128.688C209.859 129.664 210.067 130.528 210.483 131.28C210.899 132.016 211.459 132.592 212.163 133.008C212.867 133.408 213.659 133.608 214.539 133.608ZM227.474 135.12C226.434 135.12 225.45 134.976 224.522 134.688C223.594 134.384 222.866 134.008 222.338 133.56L223.106 132.216C223.618 132.6 224.274 132.936 225.074 133.224C225.874 133.496 226.714 133.632 227.594 133.632C228.794 133.632 229.658 133.448 230.186 133.08C230.714 132.696 230.978 132.192 230.978 131.568C230.978 131.104 230.826 130.744 230.522 130.488C230.234 130.216 229.85 130.016 229.37 129.888C228.89 129.744 228.354 129.624 227.762 129.528C227.17 129.432 226.578 129.32 225.986 129.192C225.41 129.064 224.882 128.88 224.402 128.64C223.922 128.384 223.53 128.04 223.226 127.608C222.938 127.176 222.794 126.6 222.794 125.88C222.794 125.192 222.986 124.576 223.37 124.032C223.754 123.488 224.314 123.064 225.05 122.76C225.802 122.44 226.714 122.28 227.786 122.28C228.602 122.28 229.418 122.392 230.234 122.616C231.05 122.824 231.722 123.104 232.25 123.456L231.506 124.824C230.946 124.44 230.346 124.168 229.706 124.008C229.066 123.832 228.426 123.744 227.786 123.744C226.65 123.744 225.81 123.944 225.266 124.344C224.738 124.728 224.474 125.224 224.474 125.832C224.474 126.312 224.618 126.688 224.906 126.96C225.21 127.232 225.602 127.448 226.082 127.608C226.578 127.752 227.114 127.872 227.69 127.968C228.282 128.064 228.866 128.184 229.442 128.328C230.034 128.456 230.57 128.64 231.05 128.88C231.546 129.104 231.938 129.432 232.226 129.864C232.53 130.28 232.682 130.832 232.682 131.52C232.682 132.256 232.474 132.896 232.058 133.44C231.658 133.968 231.066 134.384 230.282 134.688C229.514 134.976 228.578 135.12 227.474 135.12ZM239.433 135.12C238.249 135.12 237.337 134.8 236.697 134.16C236.057 133.52 235.737 132.616 235.737 131.448V119.616H237.441V131.352C237.441 132.088 237.625 132.656 237.993 133.056C238.377 133.456 238.921 133.656 239.625 133.656C240.377 133.656 241.001 133.44 241.497 133.008L242.097 134.232C241.761 134.536 241.353 134.76 240.873 134.904C240.409 135.048 239.929 135.12 239.433 135.12ZM233.481 123.816V122.4H241.281V123.816H233.481ZM252.735 135V132.216L252.663 131.76V127.104C252.663 126.032 252.359 125.208 251.751 124.632C251.159 124.056 250.271 123.768 249.087 123.768C248.271 123.768 247.495 123.904 246.759 124.176C246.023 124.448 245.399 124.808 244.887 125.256L244.119 123.984C244.759 123.44 245.527 123.024 246.423 122.736C247.319 122.432 248.263 122.28 249.255 122.28C250.887 122.28 252.143 122.688 253.023 123.504C253.919 124.304 254.367 125.528 254.367 127.176V135H252.735ZM248.391 135.12C247.447 135.12 246.623 134.968 245.919 134.664C245.231 134.344 244.703 133.912 244.335 133.368C243.967 132.808 243.783 132.168 243.783 131.448C243.783 130.792 243.935 130.2 244.239 129.672C244.559 129.128 245.071 128.696 245.775 128.376C246.495 128.04 247.455 127.872 248.655 127.872H252.999V129.144H248.703C247.487 129.144 246.639 129.36 246.159 129.792C245.695 130.224 245.463 130.76 245.463 131.4C245.463 132.12 245.743 132.696 246.303 133.128C246.863 133.56 247.647 133.776 248.655 133.776C249.615 133.776 250.439 133.56 251.127 133.128C251.831 132.68 252.343 132.04 252.663 131.208L253.047 132.384C252.727 133.216 252.167 133.88 251.367 134.376C250.583 134.872 249.591 135.12 248.391 135.12ZM267.796 135L262.204 122.4H263.98L269.116 134.088H268.276L273.484 122.4H275.164L269.548 135H267.796ZM281.989 135.12C280.773 135.12 279.677 134.848 278.701 134.304C277.741 133.744 276.981 132.984 276.421 132.024C275.861 131.048 275.581 129.936 275.581 128.688C275.581 127.424 275.861 126.312 276.421 125.352C276.981 124.392 277.741 123.64 278.701 123.096C279.661 122.552 280.757 122.28 281.989 122.28C283.237 122.28 284.341 122.552 285.301 123.096C286.277 123.64 287.037 124.392 287.581 125.352C288.141 126.312 288.421 127.424 288.421 128.688C288.421 129.936 288.141 131.048 287.581 132.024C287.037 132.984 286.277 133.744 285.301 134.304C284.325 134.848 283.221 135.12 281.989 135.12ZM281.989 133.608C282.901 133.608 283.709 133.408 284.413 133.008C285.117 132.592 285.669 132.016 286.069 131.28C286.485 130.528 286.693 129.664 286.693 128.688C286.693 127.696 286.485 126.832 286.069 126.096C285.669 125.36 285.117 124.792 284.413 124.392C283.709 123.976 282.909 123.768 282.013 123.768C281.117 123.768 280.317 123.976 279.613 124.392C278.909 124.792 278.349 125.36 277.933 126.096C277.517 126.832 277.309 127.696 277.309 128.688C277.309 129.664 277.517 130.528 277.933 131.28C278.349 132.016 278.909 132.592 279.613 133.008C280.317 133.408 281.109 133.608 281.989 133.608ZM296.771 135.12C295.523 135.12 294.403 134.848 293.411 134.304C292.435 133.744 291.667 132.984 291.107 132.024C290.547 131.048 290.267 129.936 290.267 128.688C290.267 127.424 290.547 126.312 291.107 125.352C291.667 124.392 292.435 123.64 293.411 123.096C294.403 122.552 295.523 122.28 296.771 122.28C297.843 122.28 298.811 122.488 299.675 122.904C300.539 123.32 301.219 123.944 301.715 124.776L300.443 125.64C300.011 125 299.475 124.528 298.835 124.224C298.195 123.92 297.499 123.768 296.747 123.768C295.851 123.768 295.043 123.976 294.323 124.392C293.603 124.792 293.035 125.36 292.619 126.096C292.203 126.832 291.995 127.696 291.995 128.688C291.995 129.68 292.203 130.544 292.619 131.28C293.035 132.016 293.603 132.592 294.323 133.008C295.043 133.408 295.851 133.608 296.747 133.608C297.499 133.608 298.195 133.456 298.835 133.152C299.475 132.848 300.011 132.384 300.443 131.76L301.715 132.624C301.219 133.44 300.539 134.064 299.675 134.496C298.811 134.912 297.843 135.12 296.771 135.12ZM309.844 135.12C308.532 135.12 307.38 134.848 306.388 134.304C305.396 133.744 304.62 132.984 304.06 132.024C303.5 131.048 303.22 129.936 303.22 128.688C303.22 127.44 303.484 126.336 304.012 125.376C304.556 124.416 305.292 123.664 306.22 123.12C307.164 122.56 308.22 122.28 309.388 122.28C310.572 122.28 311.62 122.552 312.532 123.096C313.46 123.624 314.188 124.376 314.716 125.352C315.244 126.312 315.508 127.424 315.508 128.688C315.508 128.768 315.5 128.856 315.484 128.952C315.484 129.032 315.484 129.12 315.484 129.216H304.516V127.944H314.572L313.9 128.448C313.9 127.536 313.7 126.728 313.3 126.024C312.916 125.304 312.388 124.744 311.716 124.344C311.044 123.944 310.268 123.744 309.388 123.744C308.524 123.744 307.748 123.944 307.06 124.344C306.372 124.744 305.836 125.304 305.452 126.024C305.068 126.744 304.876 127.568 304.876 128.496V128.76C304.876 129.72 305.084 130.568 305.5 131.304C305.932 132.024 306.524 132.592 307.276 133.008C308.044 133.408 308.916 133.608 309.892 133.608C310.66 133.608 311.372 133.472 312.028 133.2C312.7 132.928 313.276 132.512 313.756 131.952L314.716 133.056C314.156 133.728 313.452 134.24 312.604 134.592C311.772 134.944 310.852 135.12 309.844 135.12ZM305.404 120.432L308.5 117.456H310.228L313.324 120.432H311.74L308.692 117.888H310.036L306.988 120.432H305.404ZM329.554 135.12C328.354 135.12 327.274 134.848 326.314 134.304C325.37 133.76 324.626 133.008 324.082 132.048C323.538 131.072 323.266 129.952 323.266 128.688C323.266 127.408 323.538 126.288 324.082 125.328C324.626 124.368 325.37 123.624 326.314 123.096C327.274 122.552 328.354 122.28 329.554 122.28C330.658 122.28 331.642 122.528 332.506 123.024C333.386 123.52 334.082 124.248 334.594 125.208C335.122 126.152 335.386 127.312 335.386 128.688C335.386 130.048 335.13 131.208 334.618 132.168C334.106 133.128 333.41 133.864 332.53 134.376C331.666 134.872 330.674 135.12 329.554 135.12ZM329.674 133.608C330.57 133.608 331.37 133.408 332.074 133.008C332.794 132.592 333.354 132.016 333.754 131.28C334.17 130.528 334.378 129.664 334.378 128.688C334.378 127.696 334.17 126.832 333.754 126.096C333.354 125.36 332.794 124.792 332.074 124.392C331.37 123.976 330.57 123.768 329.674 123.768C328.794 123.768 328.002 123.976 327.298 124.392C326.594 124.792 326.034 125.36 325.618 126.096C325.202 126.832 324.994 127.696 324.994 128.688C324.994 129.664 325.202 130.528 325.618 131.28C326.034 132.016 326.594 132.592 327.298 133.008C328.002 133.408 328.794 133.608 329.674 133.608ZM334.426 135V131.208L334.594 128.664L334.354 126.12V117.192H336.058V135H334.426ZM345.795 135.12C344.483 135.12 343.331 134.848 342.339 134.304C341.347 133.744 340.571 132.984 340.011 132.024C339.451 131.048 339.171 129.936 339.171 128.688C339.171 127.44 339.435 126.336 339.963 125.376C340.507 124.416 341.243 123.664 342.171 123.12C343.115 122.56 344.171 122.28 345.339 122.28C346.523 122.28 347.571 122.552 348.483 123.096C349.411 123.624 350.139 124.376 350.667 125.352C351.195 126.312 351.459 127.424 351.459 128.688C351.459 128.768 351.451 128.856 351.435 128.952C351.435 129.032 351.435 129.12 351.435 129.216H340.467V127.944H350.523L349.851 128.448C349.851 127.536 349.651 126.728 349.251 126.024C348.867 125.304 348.339 124.744 347.667 124.344C346.995 123.944 346.219 123.744 345.339 123.744C344.475 123.744 343.699 123.944 343.011 124.344C342.323 124.744 341.787 125.304 341.403 126.024C341.019 126.744 340.827 127.568 340.827 128.496V128.76C340.827 129.72 341.035 130.568 341.451 131.304C341.883 132.024 342.475 132.592 343.227 133.008C343.995 133.408 344.867 133.608 345.843 133.608C346.611 133.608 347.323 133.472 347.979 133.2C348.651 132.928 349.227 132.512 349.707 131.952L350.667 133.056C350.107 133.728 349.403 134.24 348.555 134.592C347.723 134.944 346.803 135.12 345.795 135.12ZM357.952 135.12C356.912 135.12 355.928 134.976 355 134.688C354.072 134.384 353.344 134.008 352.816 133.56L353.584 132.216C354.096 132.6 354.752 132.936 355.552 133.224C356.352 133.496 357.192 133.632 358.072 133.632C359.272 133.632 360.136 133.448 360.664 133.08C361.192 132.696 361.456 132.192 361.456 131.568C361.456 131.104 361.304 130.744 361 130.488C360.712 130.216 360.328 130.016 359.848 129.888C359.368 129.744 358.832 129.624 358.24 129.528C357.648 129.432 357.056 129.32 356.464 129.192C355.888 129.064 355.36 128.88 354.88 128.64C354.4 128.384 354.008 128.04 353.704 127.608C353.416 127.176 353.272 126.6 353.272 125.88C353.272 125.192 353.464 124.576 353.848 124.032C354.232 123.488 354.792 123.064 355.528 122.76C356.28 122.44 357.192 122.28 358.264 122.28C359.08 122.28 359.896 122.392 360.712 122.616C361.528 122.824 362.2 123.104 362.728 123.456L361.984 124.824C361.424 124.44 360.824 124.168 360.184 124.008C359.544 123.832 358.904 123.744 358.264 123.744C357.128 123.744 356.288 123.944 355.744 124.344C355.216 124.728 354.952 125.224 354.952 125.832C354.952 126.312 355.096 126.688 355.384 126.96C355.688 127.232 356.08 127.448 356.56 127.608C357.056 127.752 357.592 127.872 358.168 127.968C358.76 128.064 359.344 128.184 359.92 128.328C360.512 128.456 361.048 128.64 361.528 128.88C362.024 129.104 362.416 129.432 362.704 129.864C363.008 130.28 363.16 130.832 363.16 131.52C363.16 132.256 362.952 132.896 362.536 133.44C362.136 133.968 361.544 134.384 360.76 134.688C359.992 134.976 359.056 135.12 357.952 135.12ZM371.278 135.12C369.966 135.12 368.814 134.848 367.822 134.304C366.83 133.744 366.054 132.984 365.494 132.024C364.934 131.048 364.654 129.936 364.654 128.688C364.654 127.44 364.918 126.336 365.446 125.376C365.99 124.416 366.726 123.664 367.654 123.12C368.598 122.56 369.654 122.28 370.822 122.28C372.006 122.28 373.054 122.552 373.966 123.096C374.894 123.624 375.622 124.376 376.15 125.352C376.678 126.312 376.942 127.424 376.942 128.688C376.942 128.768 376.934 128.856 376.918 128.952C376.918 129.032 376.918 129.12 376.918 129.216H365.95V127.944H376.006L375.334 128.448C375.334 127.536 375.134 126.728 374.734 126.024C374.35 125.304 373.822 124.744 373.15 124.344C372.478 123.944 371.702 123.744 370.822 123.744C369.958 123.744 369.182 123.944 368.494 124.344C367.806 124.744 367.27 125.304 366.886 126.024C366.502 126.744 366.31 127.568 366.31 128.496V128.76C366.31 129.72 366.518 130.568 366.934 131.304C367.366 132.024 367.958 132.592 368.71 133.008C369.478 133.408 370.35 133.608 371.326 133.608C372.094 133.608 372.806 133.472 373.462 133.2C374.134 132.928 374.71 132.512 375.19 131.952L376.15 133.056C375.59 133.728 374.886 134.24 374.038 134.592C373.206 134.944 372.286 135.12 371.278 135.12ZM378.179 139.776C377.667 139.776 377.179 139.704 376.715 139.56C376.235 139.432 375.835 139.232 375.515 138.96L376.115 137.664C376.627 138.096 377.283 138.312 378.083 138.312C378.755 138.312 379.267 138.112 379.619 137.712C379.987 137.312 380.171 136.72 380.171 135.936V122.4H381.875V135.936C381.875 137.104 381.555 138.032 380.915 138.72C380.291 139.424 379.379 139.776 378.179 139.776ZM381.035 119.616C380.683 119.616 380.387 119.496 380.147 119.256C379.907 119.016 379.787 118.728 379.787 118.392C379.787 118.056 379.907 117.776 380.147 117.552C380.387 117.312 380.683 117.192 381.035 117.192C381.387 117.192 381.683 117.304 381.923 117.528C382.163 117.752 382.283 118.032 382.283 118.368C382.283 118.72 382.163 119.016 381.923 119.256C381.699 119.496 381.403 119.616 381.035 119.616ZM394.173 135V132.216L394.101 131.76V127.104C394.101 126.032 393.797 125.208 393.189 124.632C392.597 124.056 391.709 123.768 390.525 123.768C389.709 123.768 388.933 123.904 388.197 124.176C387.461 124.448 386.837 124.808 386.325 125.256L385.557 123.984C386.197 123.44 386.965 123.024 387.861 122.736C388.757 122.432 389.701 122.28 390.693 122.28C392.325 122.28 393.581 122.688 394.461 123.504C395.357 124.304 395.805 125.528 395.805 127.176V135H394.173ZM389.829 135.12C388.885 135.12 388.061 134.968 387.357 134.664C386.669 134.344 386.141 133.912 385.773 133.368C385.405 132.808 385.221 132.168 385.221 131.448C385.221 130.792 385.373 130.2 385.677 129.672C385.997 129.128 386.509 128.696 387.213 128.376C387.933 128.04 388.893 127.872 390.093 127.872H394.437V129.144H390.141C388.925 129.144 388.077 129.36 387.597 129.792C387.133 130.224 386.901 130.76 386.901 131.4C386.901 132.12 387.181 132.696 387.741 133.128C388.301 133.56 389.085 133.776 390.093 133.776C391.053 133.776 391.877 133.56 392.565 133.128C393.269 132.68 393.781 132.04 394.101 131.208L394.485 132.384C394.165 133.216 393.605 133.88 392.805 134.376C392.021 134.872 391.029 135.12 389.829 135.12ZM404.122 139.776C403.61 139.776 403.122 139.704 402.658 139.56C402.178 139.432 401.778 139.232 401.458 138.96L402.058 137.664C402.57 138.096 403.226 138.312 404.026 138.312C404.698 138.312 405.21 138.112 405.562 137.712C405.93 137.312 406.114 136.72 406.114 135.936V122.4H407.818V135.936C407.818 137.104 407.498 138.032 406.858 138.72C406.234 139.424 405.322 139.776 404.122 139.776ZM406.978 119.616C406.626 119.616 406.33 119.496 406.09 119.256C405.85 119.016 405.73 118.728 405.73 118.392C405.73 118.056 405.85 117.776 406.09 117.552C406.33 117.312 406.626 117.192 406.978 117.192C407.33 117.192 407.626 117.304 407.866 117.528C408.106 117.752 408.226 118.032 408.226 118.368C408.226 118.72 408.106 119.016 407.866 119.256C407.642 119.496 407.346 119.616 406.978 119.616ZM417.356 135.12C416.14 135.12 415.044 134.848 414.068 134.304C413.108 133.744 412.348 132.984 411.788 132.024C411.228 131.048 410.948 129.936 410.948 128.688C410.948 127.424 411.228 126.312 411.788 125.352C412.348 124.392 413.108 123.64 414.068 123.096C415.028 122.552 416.124 122.28 417.356 122.28C418.604 122.28 419.708 122.552 420.668 123.096C421.644 123.64 422.404 124.392 422.948 125.352C423.508 126.312 423.788 127.424 423.788 128.688C423.788 129.936 423.508 131.048 422.948 132.024C422.404 132.984 421.644 133.744 420.668 134.304C419.692 134.848 418.588 135.12 417.356 135.12ZM417.356 133.608C418.268 133.608 419.076 133.408 419.78 133.008C420.484 132.592 421.036 132.016 421.436 131.28C421.852 130.528 422.06 129.664 422.06 128.688C422.06 127.696 421.852 126.832 421.436 126.096C421.036 125.36 420.484 124.792 419.78 124.392C419.076 123.976 418.276 123.768 417.38 123.768C416.484 123.768 415.684 123.976 414.98 124.392C414.276 124.792 413.716 125.36 413.3 126.096C412.884 126.832 412.676 127.696 412.676 128.688C412.676 129.664 412.884 130.528 413.3 131.28C413.716 132.016 414.276 132.592 414.98 133.008C415.684 133.408 416.476 133.608 417.356 133.608ZM432.283 139.776C431.131 139.776 430.027 139.608 428.971 139.272C427.915 138.936 427.059 138.456 426.403 137.832L427.267 136.536C427.859 137.064 428.587 137.48 429.451 137.784C430.331 138.104 431.259 138.264 432.235 138.264C433.835 138.264 435.011 137.888 435.763 137.136C436.515 136.4 436.891 135.248 436.891 133.68V130.536L437.131 128.376L436.963 126.216V122.4H438.595V133.464C438.595 135.64 438.059 137.232 436.987 138.24C435.931 139.264 434.363 139.776 432.283 139.776ZM431.971 134.52C430.771 134.52 429.691 134.264 428.731 133.752C427.771 133.224 427.011 132.496 426.451 131.568C425.907 130.64 425.635 129.576 425.635 128.376C425.635 127.176 425.907 126.12 426.451 125.208C427.011 124.28 427.771 123.56 428.731 123.048C429.691 122.536 430.771 122.28 431.971 122.28C433.091 122.28 434.099 122.512 434.995 122.976C435.891 123.44 436.603 124.128 437.131 125.04C437.659 125.952 437.923 127.064 437.923 128.376C437.923 129.688 437.659 130.8 437.131 131.712C436.603 132.624 435.891 133.32 434.995 133.8C434.099 134.28 433.091 134.52 431.971 134.52ZM432.139 133.008C433.067 133.008 433.891 132.816 434.611 132.432C435.331 132.032 435.899 131.488 436.315 130.8C436.731 130.096 436.939 129.288 436.939 128.376C436.939 127.464 436.731 126.664 436.315 125.976C435.899 125.288 435.331 124.752 434.611 124.368C433.891 123.968 433.067 123.768 432.139 123.768C431.227 123.768 430.403 123.968 429.667 124.368C428.947 124.752 428.379 125.288 427.963 125.976C427.563 126.664 427.363 127.464 427.363 128.376C427.363 129.288 427.563 130.096 427.963 130.8C428.379 131.488 428.947 132.032 429.667 132.432C430.403 132.816 431.227 133.008 432.139 133.008ZM450.873 135V132.216L450.801 131.76V127.104C450.801 126.032 450.497 125.208 449.889 124.632C449.297 124.056 448.409 123.768 447.225 123.768C446.409 123.768 445.633 123.904 444.897 124.176C444.161 124.448 443.537 124.808 443.025 125.256L442.257 123.984C442.897 123.44 443.665 123.024 444.561 122.736C445.457 122.432 446.401 122.28 447.393 122.28C449.025 122.28 450.281 122.688 451.161 123.504C452.057 124.304 452.505 125.528 452.505 127.176V135H450.873ZM446.529 135.12C445.585 135.12 444.761 134.968 444.057 134.664C443.369 134.344 442.841 133.912 442.473 133.368C442.105 132.808 441.921 132.168 441.921 131.448C441.921 130.792 442.073 130.2 442.377 129.672C442.697 129.128 443.209 128.696 443.913 128.376C444.633 128.04 445.593 127.872 446.793 127.872H451.137V129.144H446.841C445.625 129.144 444.777 129.36 444.297 129.792C443.833 130.224 443.601 130.76 443.601 131.4C443.601 132.12 443.881 132.696 444.441 133.128C445.001 133.56 445.785 133.776 446.793 133.776C447.753 133.776 448.577 133.56 449.265 133.128C449.969 132.68 450.481 132.04 450.801 131.208L451.185 132.384C450.865 133.216 450.305 133.88 449.505 134.376C448.721 134.872 447.729 135.12 446.529 135.12ZM456.773 135V122.4H458.405V125.832L458.237 125.232C458.589 124.272 459.181 123.544 460.013 123.048C460.845 122.536 461.877 122.28 463.109 122.28V123.936C463.045 123.936 462.981 123.936 462.917 123.936C462.853 123.92 462.789 123.912 462.725 123.912C461.397 123.912 460.357 124.32 459.605 125.136C458.853 125.936 458.477 127.08 458.477 128.568V135H456.773ZM478.399 122.28C479.423 122.28 480.319 122.48 481.087 122.88C481.871 123.264 482.479 123.856 482.911 124.656C483.359 125.456 483.583 126.464 483.583 127.68V135H481.879V127.848C481.879 126.52 481.543 125.52 480.871 124.848C480.215 124.16 479.287 123.816 478.087 123.816C477.191 123.816 476.407 124 475.735 124.368C475.079 124.72 474.567 125.24 474.199 125.928C473.847 126.6 473.671 127.416 473.671 128.376V135H471.967V117.192H473.671V125.856L473.335 125.208C473.735 124.296 474.375 123.584 475.255 123.072C476.135 122.544 477.183 122.28 478.399 122.28ZM492.962 135.12C491.746 135.12 490.65 134.848 489.674 134.304C488.714 133.744 487.954 132.984 487.394 132.024C486.834 131.048 486.554 129.936 486.554 128.688C486.554 127.424 486.834 126.312 487.394 125.352C487.954 124.392 488.714 123.64 489.674 123.096C490.634 122.552 491.73 122.28 492.962 122.28C494.21 122.28 495.314 122.552 496.274 123.096C497.25 123.64 498.01 124.392 498.554 125.352C499.114 126.312 499.394 127.424 499.394 128.688C499.394 129.936 499.114 131.048 498.554 132.024C498.01 132.984 497.25 133.744 496.274 134.304C495.298 134.848 494.194 135.12 492.962 135.12ZM492.962 133.608C493.874 133.608 494.682 133.408 495.386 133.008C496.09 132.592 496.642 132.016 497.042 131.28C497.458 130.528 497.666 129.664 497.666 128.688C497.666 127.696 497.458 126.832 497.042 126.096C496.642 125.36 496.09 124.792 495.386 124.392C494.682 123.976 493.882 123.768 492.986 123.768C492.09 123.768 491.29 123.976 490.586 124.392C489.882 124.792 489.322 125.36 488.906 126.096C488.49 126.832 488.282 127.696 488.282 128.688C488.282 129.664 488.49 130.528 488.906 131.28C489.322 132.016 489.882 132.592 490.586 133.008C491.29 133.408 492.082 133.608 492.962 133.608ZM500.641 139.776C500.129 139.776 499.641 139.704 499.177 139.56C498.697 139.432 498.297 139.232 497.977 138.96L498.577 137.664C499.089 138.096 499.745 138.312 500.545 138.312C501.217 138.312 501.729 138.112 502.081 137.712C502.449 137.312 502.633 136.72 502.633 135.936V122.4H504.337V135.936C504.337 137.104 504.017 138.032 503.377 138.72C502.753 139.424 501.841 139.776 500.641 139.776ZM503.497 119.616C503.145 119.616 502.849 119.496 502.609 119.256C502.369 119.016 502.249 118.728 502.249 118.392C502.249 118.056 502.369 117.776 502.609 117.552C502.849 117.312 503.145 117.192 503.497 117.192C503.849 117.192 504.145 117.304 504.385 117.528C504.625 117.752 504.745 118.032 504.745 118.368C504.745 118.72 504.625 119.016 504.385 119.256C504.161 119.496 503.865 119.616 503.497 119.616ZM514.09 135.12C512.778 135.12 511.626 134.848 510.634 134.304C509.642 133.744 508.866 132.984 508.306 132.024C507.746 131.048 507.466 129.936 507.466 128.688C507.466 127.44 507.73 126.336 508.258 125.376C508.802 124.416 509.538 123.664 510.466 123.12C511.41 122.56 512.466 122.28 513.634 122.28C514.818 122.28 515.866 122.552 516.778 123.096C517.706 123.624 518.434 124.376 518.962 125.352C519.49 126.312 519.754 127.424 519.754 128.688C519.754 128.768 519.746 128.856 519.73 128.952C519.73 129.032 519.73 129.12 519.73 129.216H508.762V127.944H518.818L518.146 128.448C518.146 127.536 517.946 126.728 517.546 126.024C517.162 125.304 516.634 124.744 515.962 124.344C515.29 123.944 514.514 123.744 513.634 123.744C512.77 123.744 511.994 123.944 511.306 124.344C510.618 124.744 510.082 125.304 509.698 126.024C509.314 126.744 509.122 127.568 509.122 128.496V128.76C509.122 129.72 509.33 130.568 509.746 131.304C510.178 132.024 510.77 132.592 511.522 133.008C512.29 133.408 513.162 133.608 514.138 133.608C514.906 133.608 515.618 133.472 516.274 133.2C516.946 132.928 517.522 132.512 518.002 131.952L518.962 133.056C518.402 133.728 517.698 134.24 516.85 134.592C516.018 134.944 515.098 135.12 514.09 135.12ZM524.978 129.96C524.978 129.288 525.082 128.712 525.29 128.232C525.514 127.752 525.786 127.328 526.106 126.96C526.442 126.592 526.794 126.248 527.162 125.928C527.546 125.608 527.906 125.288 528.242 124.968C528.578 124.632 528.85 124.272 529.058 123.888C529.266 123.488 529.37 123.024 529.37 122.496C529.37 121.632 529.034 120.928 528.362 120.384C527.69 119.84 526.738 119.568 525.506 119.568C524.482 119.568 523.594 119.736 522.842 120.072C522.09 120.392 521.45 120.872 520.922 121.512L519.65 120.552C520.29 119.752 521.114 119.136 522.122 118.704C523.13 118.272 524.298 118.056 525.626 118.056C526.746 118.056 527.714 118.224 528.53 118.56C529.362 118.896 530.002 119.376 530.45 120C530.914 120.624 531.146 121.368 531.146 122.232C531.146 122.92 531.034 123.512 530.81 124.008C530.602 124.488 530.33 124.92 529.994 125.304C529.674 125.672 529.322 126.024 528.938 126.36C528.57 126.68 528.218 127.008 527.882 127.344C527.546 127.68 527.274 128.056 527.066 128.472C526.858 128.888 526.754 129.384 526.754 129.96H524.978ZM525.866 135.12C525.53 135.12 525.234 135 524.978 134.76C524.738 134.504 524.618 134.208 524.618 133.872C524.618 133.52 524.738 133.232 524.978 133.008C525.234 132.768 525.53 132.648 525.866 132.648C526.234 132.648 526.538 132.768 526.778 133.008C527.018 133.232 527.138 133.52 527.138 133.872C527.138 134.208 527.018 134.504 526.778 134.76C526.538 135 526.234 135.12 525.866 135.12Z" fill="white"/>
</svg>