<svg width="189" height="169" viewBox="0 0 189 169" fill="none" xmlns="http://www.w3.org/2000/svg">
    <g clip-path="url(#clip0_0_1)" filter="url(#filter0_f_0_1)">
        <path d="M120.781 73.4707H109.1C103.912 73.4707 100.999 77.6351 98.6579 80.9808C97.2238 83.0311 95.7407 85.151 94.5 85.151C93.2594 85.151 91.7763 83.0311 90.3422 80.9808C88.0014 77.6347 85.0882 73.4707 79.8996 73.4707H68.2193C66.7074 73.4707 65.4817 74.6964 65.4817 76.2083C65.4817 77.7202 66.7074 78.9459 68.2193 78.9459H79.8996C82.074 78.9459 83.6694 80.9943 85.8555 84.1192C87.989 87.1692 90.4075 90.6262 94.5 90.6262C98.5925 90.6262 101.011 87.1692 103.145 84.1192C105.331 80.9939 106.926 78.9459 109.1 78.9459H120.781C122.293 78.9459 123.518 77.7202 123.518 76.2083C123.518 74.6964 122.293 73.4707 120.781 73.4707Z" fill="#00B2FF"/>
        <path d="M153.708 28.7453C146.741 24.7915 140.16 21.0574 137.81 16.543C137.227 15.4242 135.955 14.8479 134.73 15.1479C133.505 15.4476 132.644 16.5459 132.644 17.807C132.644 24.9912 137.522 30.5773 142.24 35.9798C146.354 40.6892 150.239 45.1376 150.164 49.8853C150.027 58.6893 133.148 61.7908 129.541 61.7908C129.471 61.7908 129.403 61.7959 129.336 61.801C126.708 59.4456 122.814 58.5612 119.004 57.6965C116.999 57.2417 114.927 56.7712 112.886 56.0908C110.793 55.3933 109.02 54.5063 107.305 53.6485C103.829 51.9089 100.233 50.1105 94.4996 50.1105C88.766 50.1105 85.1707 51.9092 81.694 53.6485C79.9795 54.5063 78.2066 55.3933 76.1137 56.0908C74.0725 56.7712 72 57.2417 69.9954 57.6965C66.1857 58.5608 62.2914 59.4456 59.6637 61.801C59.5958 61.7959 59.5279 61.7908 59.4586 61.7908C55.8512 61.7908 38.9727 58.6893 38.8351 49.8853C38.761 45.1376 42.6458 40.6892 46.7588 35.9798C51.4776 30.5773 56.3564 24.9908 56.3564 17.8067C56.3564 16.5452 55.4946 15.4472 54.2696 15.1475C53.0439 14.8479 51.7729 15.4235 51.1904 16.5426C48.8404 21.0574 42.2593 24.7915 35.2916 28.7453C23.4368 35.4721 10 43.0964 10 58.3228C10 67.527 16.046 76.0073 27.4844 82.8468C35.6687 87.7405 45.0476 90.8709 51.5331 92.3057C51.1309 95.0707 50.8816 97.5772 50.8816 99.5691C50.8816 110.531 61.9608 117.795 68.5799 122.135C69.9052 123.003 71.4748 124.033 72.3373 124.728C71.8967 125.751 71.5485 126.949 71.3477 128.393C70.5604 134.062 73.6473 139.041 79.4039 141.387C79.4787 141.417 79.5568 141.444 79.6327 141.473C79.4886 142.028 79.3462 142.665 79.2371 143.351C78.718 146.611 79.2174 149.174 80.7212 150.969C84.475 155.449 88.8482 153.781 91.4606 152.784C92.5877 152.354 93.6521 151.948 94.5 151.948C95.3479 151.948 96.4123 152.354 97.5394 152.784C98.8279 153.276 100.545 153.931 102.404 153.931C104.315 153.931 106.376 153.239 108.279 150.969C109.783 149.174 110.282 146.611 109.763 143.351C109.654 142.665 109.511 142.028 109.367 141.473C109.443 141.444 109.521 141.417 109.596 141.387C115.353 139.041 118.44 134.063 117.652 128.393C117.452 126.949 117.103 125.751 116.663 124.728C117.526 124.034 119.095 123.004 120.42 122.135C127.04 117.795 138.119 110.531 138.119 99.5691C138.119 97.5772 137.869 95.071 137.467 92.3057C143.953 90.8709 153.331 87.7405 161.516 82.8468C172.954 76.0076 179 67.5273 179 58.3228C179 43.0964 165.563 35.4721 153.708 28.7453ZM30.2942 78.1477C23.5339 74.1056 15.4752 67.385 15.4752 58.3228C15.4752 46.2848 26.923 39.7891 37.9938 33.5069C40.5598 32.0508 43.0776 30.6222 45.4097 29.1432C44.5249 30.2141 43.5861 31.2891 42.6353 32.3779C38.023 37.6589 33.2537 43.1198 33.3607 49.9703C33.5494 62.0522 49.6143 66.125 56.7433 67.0451C56.5031 68.1212 56.2169 69.3692 55.9001 70.7515C54.8321 75.4061 53.4728 81.3317 52.4383 86.9003C46.4241 85.5461 37.8222 82.649 30.2942 78.1477ZM104.082 147.453C102.933 148.824 102.285 148.735 99.4908 147.669C98.0216 147.108 96.3564 146.473 94.5 146.473C92.6436 146.473 90.9784 147.108 89.5092 147.669C86.7154 148.734 86.0675 148.824 84.9181 147.452C84.245 146.649 84.498 144.383 84.9969 142.584C85.2072 142.593 85.4174 142.6 85.627 142.6C87.5801 142.6 89.4895 142.228 91.093 141.402C91.9095 142.429 92.9739 143.188 94.5004 143.188C96.0265 143.188 97.0912 142.429 97.9074 141.402C99.5109 142.228 101.42 142.6 103.373 142.6C103.584 142.6 103.795 142.593 104.006 142.584C104.51 144.401 104.74 146.667 104.082 147.453ZM117.418 117.556C115.829 118.599 114.508 119.465 113.477 120.273C113.333 120.127 113.19 119.983 113.049 119.841C110.832 117.616 108.918 115.695 108.918 108.33C108.918 106.158 108.969 104.151 109.095 102.307C109.097 102.307 109.099 102.307 109.1 102.307C113.628 102.307 117.176 101.047 119.646 98.5609C122.876 95.3109 123.426 90.8815 123.509 87.7066H123.701C125.213 87.7066 126.438 86.4809 126.438 84.969C126.438 83.4571 125.213 82.2314 123.701 82.2314H120.781C105.543 82.2314 103.443 94.7747 103.443 108.33C103.443 117.956 106.619 121.144 109.171 123.705C110.782 125.323 111.846 126.391 112.229 129.147C112.83 133.475 109.543 135.497 107.53 136.317C104.879 137.397 102.081 137.332 100.546 136.603C101.41 135.09 102.144 134.428 103.26 134.428C104.772 134.428 105.997 133.202 105.997 131.69C105.997 130.179 104.772 128.953 103.26 128.953C98.0662 128.953 95.929 133.431 94.6518 136.107C94.6044 136.207 94.5529 136.314 94.4996 136.425C94.4463 136.314 94.3949 136.207 94.3474 136.107C93.0703 133.431 90.9331 128.953 85.7394 128.953C84.2275 128.953 83.0018 130.179 83.0018 131.69C83.0018 133.202 84.2275 134.428 85.7394 134.428C86.8552 134.428 87.5896 135.09 88.4532 136.603C86.9191 137.332 84.1206 137.397 81.4698 136.317C79.4568 135.497 76.1699 133.475 76.7707 129.147C77.1536 126.391 78.218 125.323 79.8291 123.705C82.3809 121.144 85.5569 117.956 85.5569 108.33C85.5569 94.7747 83.4566 82.2314 68.2189 82.2314H65.2988C63.7869 82.2314 62.5612 83.4571 62.5612 84.969C62.5612 86.4809 63.7869 87.7066 65.2988 87.7066H65.4904C65.5736 90.8815 66.1237 95.3109 69.3533 98.5609C71.819 101.042 75.3588 102.302 79.874 102.307C80.0113 104.097 80.0817 106.095 80.0817 108.33C80.0817 115.695 78.1672 117.616 75.9505 119.841C75.8093 119.983 75.6662 120.127 75.5227 120.273C74.4919 119.465 73.1706 118.599 71.5813 117.556C65.5189 113.581 56.3564 107.574 56.3564 99.5691C56.3564 93.2489 59.4115 79.9322 61.2369 71.9761C61.5757 70.5 61.8812 69.1688 62.1312 68.042C62.7583 65.2194 65.248 64.3879 71.2072 63.0359C73.2418 62.5741 75.5479 62.0507 77.8453 61.2853C80.308 60.4644 82.3462 59.4449 84.1443 58.5451C87.4491 56.8916 90.0596 55.5856 94.5004 55.5856C98.9411 55.5856 101.551 56.8916 104.856 58.5451C106.654 59.4449 108.693 60.4644 111.155 61.2853C113.452 62.0511 115.759 62.5745 117.794 63.0359C123.753 64.3882 126.242 65.2194 126.87 68.042C127.12 69.1684 127.425 70.5 127.764 71.9761C129.588 79.9326 132.644 93.2489 132.644 99.5691C132.644 107.574 123.481 113.581 117.418 117.556ZM109.828 96.8092C110.953 91.7556 113.328 88.7315 118.023 87.9271C117.929 90.2066 117.512 92.9416 115.763 94.7009C114.475 95.9974 112.475 96.7001 109.828 96.8092ZM79.1093 96.8074C76.4933 96.6899 74.5153 95.9872 73.237 94.7009C71.4784 92.9313 71.0663 90.1752 70.9761 87.8876C74.9964 88.4848 77.7522 90.7124 79.1093 96.8074ZM158.706 78.1477C151.178 82.649 142.576 85.5461 136.562 86.9006C135.527 81.332 134.168 75.4065 133.1 70.7518C132.783 69.3695 132.497 68.1212 132.257 67.0455C139.386 66.1253 155.451 62.0522 155.639 49.9707C155.746 43.1198 150.977 37.6592 146.365 32.3782C145.414 31.2894 144.475 30.2145 143.59 29.1435C145.922 30.6225 148.441 32.0512 151.006 33.5072C162.077 39.7891 173.525 46.2848 173.525 58.3232C173.525 67.385 165.466 74.1056 158.706 78.1477Z" fill="#00B2FF"/>
    </g>
    <g clip-path="url(#clip1_0_1)">
        <path d="M120.781 73.4707H109.1C103.912 73.4707 100.999 77.6351 98.6579 80.9808C97.2238 83.0311 95.7407 85.151 94.5 85.151C93.2594 85.151 91.7763 83.0311 90.3422 80.9808C88.0014 77.6347 85.0882 73.4707 79.8996 73.4707H68.2193C66.7074 73.4707 65.4817 74.6964 65.4817 76.2083C65.4817 77.7202 66.7074 78.9459 68.2193 78.9459H79.8996C82.074 78.9459 83.6694 80.9943 85.8555 84.1192C87.989 87.1692 90.4075 90.6262 94.5 90.6262C98.5925 90.6262 101.011 87.1692 103.145 84.1192C105.331 80.9939 106.926 78.9459 109.1 78.9459H120.781C122.293 78.9459 123.518 77.7202 123.518 76.2083C123.518 74.6964 122.293 73.4707 120.781 73.4707Z" fill="#00B2FF"/>
        <path d="M153.708 28.7453C146.741 24.7915 140.16 21.0574 137.81 16.543C137.227 15.4242 135.955 14.8479 134.73 15.1479C133.505 15.4476 132.644 16.5459 132.644 17.807C132.644 24.9912 137.522 30.5773 142.24 35.9798C146.354 40.6892 150.239 45.1376 150.164 49.8853C150.027 58.6893 133.148 61.7908 129.541 61.7908C129.471 61.7908 129.403 61.7959 129.336 61.801C126.708 59.4456 122.814 58.5612 119.004 57.6965C116.999 57.2417 114.927 56.7712 112.886 56.0908C110.793 55.3933 109.02 54.5063 107.305 53.6485C103.829 51.9089 100.233 50.1105 94.4996 50.1105C88.766 50.1105 85.1707 51.9092 81.694 53.6485C79.9795 54.5063 78.2066 55.3933 76.1137 56.0908C74.0725 56.7712 72 57.2417 69.9954 57.6965C66.1857 58.5608 62.2914 59.4456 59.6637 61.801C59.5958 61.7959 59.5279 61.7908 59.4586 61.7908C55.8512 61.7908 38.9727 58.6893 38.8351 49.8853C38.761 45.1376 42.6458 40.6892 46.7588 35.9798C51.4776 30.5773 56.3564 24.9908 56.3564 17.8067C56.3564 16.5452 55.4946 15.4472 54.2696 15.1475C53.0439 14.8479 51.7729 15.4235 51.1904 16.5426C48.8404 21.0574 42.2593 24.7915 35.2916 28.7453C23.4368 35.4721 10 43.0964 10 58.3228C10 67.527 16.046 76.0073 27.4844 82.8468C35.6687 87.7405 45.0476 90.8709 51.5331 92.3057C51.1309 95.0707 50.8816 97.5772 50.8816 99.5691C50.8816 110.531 61.9608 117.795 68.5799 122.135C69.9052 123.003 71.4748 124.033 72.3373 124.728C71.8967 125.751 71.5485 126.949 71.3477 128.393C70.5604 134.062 73.6473 139.041 79.4039 141.387C79.4787 141.417 79.5568 141.444 79.6327 141.473C79.4886 142.028 79.3462 142.665 79.2371 143.351C78.718 146.611 79.2174 149.174 80.7212 150.969C84.475 155.449 88.8482 153.781 91.4606 152.784C92.5877 152.354 93.6521 151.948 94.5 151.948C95.3479 151.948 96.4123 152.354 97.5394 152.784C98.8279 153.276 100.545 153.931 102.404 153.931C104.315 153.931 106.376 153.239 108.279 150.969C109.783 149.174 110.282 146.611 109.763 143.351C109.654 142.665 109.511 142.028 109.367 141.473C109.443 141.444 109.521 141.417 109.596 141.387C115.353 139.041 118.44 134.063 117.652 128.393C117.452 126.949 117.103 125.751 116.663 124.728C117.526 124.034 119.095 123.004 120.42 122.135C127.04 117.795 138.119 110.531 138.119 99.5691C138.119 97.5772 137.869 95.071 137.467 92.3057C143.953 90.8709 153.331 87.7405 161.516 82.8468C172.954 76.0076 179 67.5273 179 58.3228C179 43.0964 165.563 35.4721 153.708 28.7453ZM30.2942 78.1477C23.5339 74.1056 15.4752 67.385 15.4752 58.3228C15.4752 46.2848 26.923 39.7891 37.9938 33.5069C40.5598 32.0508 43.0776 30.6222 45.4097 29.1432C44.5249 30.2141 43.5861 31.2891 42.6353 32.3779C38.023 37.6589 33.2537 43.1198 33.3607 49.9703C33.5494 62.0522 49.6143 66.125 56.7433 67.0451C56.5031 68.1212 56.2169 69.3692 55.9001 70.7515C54.8321 75.4061 53.4728 81.3317 52.4383 86.9003C46.4241 85.5461 37.8222 82.649 30.2942 78.1477ZM104.082 147.453C102.933 148.824 102.285 148.735 99.4908 147.669C98.0216 147.108 96.3564 146.473 94.5 146.473C92.6436 146.473 90.9784 147.108 89.5092 147.669C86.7154 148.734 86.0675 148.824 84.9181 147.452C84.245 146.649 84.498 144.383 84.9969 142.584C85.2072 142.593 85.4174 142.6 85.627 142.6C87.5801 142.6 89.4895 142.228 91.093 141.402C91.9095 142.429 92.9739 143.188 94.5004 143.188C96.0265 143.188 97.0912 142.429 97.9074 141.402C99.5109 142.228 101.42 142.6 103.373 142.6C103.584 142.6 103.795 142.593 104.006 142.584C104.51 144.401 104.74 146.667 104.082 147.453ZM117.418 117.556C115.829 118.599 114.508 119.465 113.477 120.273C113.333 120.127 113.19 119.983 113.049 119.841C110.832 117.616 108.918 115.695 108.918 108.33C108.918 106.158 108.969 104.151 109.095 102.307C109.097 102.307 109.099 102.307 109.1 102.307C113.628 102.307 117.176 101.047 119.646 98.5609C122.876 95.3109 123.426 90.8815 123.509 87.7066H123.701C125.213 87.7066 126.438 86.4809 126.438 84.969C126.438 83.4571 125.213 82.2314 123.701 82.2314H120.781C105.543 82.2314 103.443 94.7747 103.443 108.33C103.443 117.956 106.619 121.144 109.171 123.705C110.782 125.323 111.846 126.391 112.229 129.147C112.83 133.475 109.543 135.497 107.53 136.317C104.879 137.397 102.081 137.332 100.546 136.603C101.41 135.09 102.144 134.428 103.26 134.428C104.772 134.428 105.997 133.202 105.997 131.69C105.997 130.179 104.772 128.953 103.26 128.953C98.0662 128.953 95.929 133.431 94.6518 136.107C94.6044 136.207 94.5529 136.314 94.4996 136.425C94.4463 136.314 94.3949 136.207 94.3474 136.107C93.0703 133.431 90.9331 128.953 85.7394 128.953C84.2275 128.953 83.0018 130.179 83.0018 131.69C83.0018 133.202 84.2275 134.428 85.7394 134.428C86.8552 134.428 87.5896 135.09 88.4532 136.603C86.9191 137.332 84.1206 137.397 81.4698 136.317C79.4568 135.497 76.1699 133.475 76.7707 129.147C77.1536 126.391 78.218 125.323 79.8291 123.705C82.3809 121.144 85.5569 117.956 85.5569 108.33C85.5569 94.7747 83.4566 82.2314 68.2189 82.2314H65.2988C63.7869 82.2314 62.5612 83.4571 62.5612 84.969C62.5612 86.4809 63.7869 87.7066 65.2988 87.7066H65.4904C65.5736 90.8815 66.1237 95.3109 69.3533 98.5609C71.819 101.042 75.3588 102.302 79.874 102.307C80.0113 104.097 80.0817 106.095 80.0817 108.33C80.0817 115.695 78.1672 117.616 75.9505 119.841C75.8093 119.983 75.6662 120.127 75.5227 120.273C74.4919 119.465 73.1706 118.599 71.5813 117.556C65.5189 113.581 56.3564 107.574 56.3564 99.5691C56.3564 93.2489 59.4115 79.9322 61.2369 71.9761C61.5757 70.5 61.8812 69.1688 62.1312 68.042C62.7583 65.2194 65.248 64.3879 71.2072 63.0359C73.2418 62.5741 75.5479 62.0507 77.8453 61.2853C80.308 60.4644 82.3462 59.4449 84.1443 58.5451C87.4491 56.8916 90.0596 55.5856 94.5004 55.5856C98.9411 55.5856 101.551 56.8916 104.856 58.5451C106.654 59.4449 108.693 60.4644 111.155 61.2853C113.452 62.0511 115.759 62.5745 117.794 63.0359C123.753 64.3882 126.242 65.2194 126.87 68.042C127.12 69.1684 127.425 70.5 127.764 71.9761C129.588 79.9326 132.644 93.2489 132.644 99.5691C132.644 107.574 123.481 113.581 117.418 117.556ZM109.828 96.8092C110.953 91.7556 113.328 88.7315 118.023 87.9271C117.929 90.2066 117.512 92.9416 115.763 94.7009C114.475 95.9974 112.475 96.7001 109.828 96.8092ZM79.1093 96.8074C76.4933 96.6899 74.5153 95.9872 73.237 94.7009C71.4784 92.9313 71.0663 90.1752 70.9761 87.8876C74.9964 88.4848 77.7522 90.7124 79.1093 96.8074ZM158.706 78.1477C151.178 82.649 142.576 85.5461 136.562 86.9006C135.527 81.332 134.168 75.4065 133.1 70.7518C132.783 69.3695 132.497 68.1212 132.257 67.0455C139.386 66.1253 155.451 62.0522 155.639 49.9707C155.746 43.1198 150.977 37.6592 146.365 32.3782C145.414 31.2894 144.475 30.2145 143.59 29.1435C145.922 30.6225 148.441 32.0512 151.006 33.5072C162.077 39.7891 173.525 46.2848 173.525 58.3232C173.525 67.385 165.466 74.1056 158.706 78.1477Z" fill="#00B2FF"/>
    </g>
    <defs>
        <filter id="filter0_f_0_1" x="0" y="-10" width="189" height="189" filterUnits="userSpaceOnUse" color-interpolation-filters="sRGB">
            <feFlood flood-opacity="0" result="BackgroundImageFix"/>
            <feBlend mode="normal" in="SourceGraphic" in2="BackgroundImageFix" result="shape"/>
            <feGaussianBlur stdDeviation="5" result="effect1_foregroundBlur_0_1"/>
        </filter>
        <clipPath id="clip0_0_1">
            <rect width="169" height="169" fill="white" transform="translate(10)"/>
        </clipPath>
        <clipPath id="clip1_0_1">
            <rect width="169" height="169" fill="white" transform="translate(10)"/>
        </clipPath>
    </defs>
</svg>
