<svg width="162" height="160" viewBox="0 0 162 160" fill="none" xmlns="http://www.w3.org/2000/svg">
    <path d="M149.029 26.0679C147.389 26.0679 146.059 27.3978 146.059 29.0386V44.6866C146.059 71.9314 123.893 94.0973 96.648 94.0973H83.9709V81.4205C83.9709 54.5938 104.961 32.9014 131.756 32.0361C133.396 31.9831 134.682 30.6108 134.629 28.9709C134.576 27.331 133.206 26.0469 131.564 26.0976C117.162 26.5627 103.697 32.5242 93.6474 42.8838C92.4917 44.0753 91.3987 45.312 90.3637 46.5869L99.7027 14.2581C100.158 12.6819 99.2492 11.0348 97.6731 10.5794C96.0955 10.124 94.4498 11.0329 93.9944 12.609L81 57.5911L68.0056 12.609C67.5505 11.0329 65.9025 10.124 64.3272 10.5794C62.7511 11.0348 61.8422 12.6817 62.2976 14.2581L71.6566 46.6549C61.5005 34.1065 45.9817 26.0679 28.6189 26.0679H12.9706C11.3299 26.0679 10 27.3981 10 29.0388V44.6869C10 72.6425 30.8332 95.8204 57.7888 99.5197C40.4679 108.1 28.5293 125.964 28.5293 146.568C28.5293 148.208 29.8592 149.538 31.5 149.538C45.5144 149.538 58.6905 144.08 68.6019 134.169C72.4284 130.343 75.5882 126.027 78.0294 121.367V136.084C78.0294 137.725 79.3592 139.055 81 139.055C82.6405 139.055 83.9706 137.725 83.9706 136.084V121.367C86.4118 126.028 89.5713 130.343 93.3978 134.169C103.309 144.08 116.485 149.538 130.5 149.538C132.14 149.538 133.47 148.208 133.47 146.568C133.47 125.964 121.532 108.1 104.211 99.5197C131.167 95.8204 152 72.6425 152 44.6866V29.0388C152 27.3981 150.67 26.0679 149.029 26.0679ZM64.4004 129.968C56.3397 138.029 45.8428 142.768 34.571 143.498C36.0911 120.284 54.7156 101.659 77.9304 100.139C77.2004 111.411 72.4614 121.908 64.4004 129.968ZM78.0294 94.0976H65.3523C38.1074 94.0973 15.9415 71.932 15.9415 44.6866V32.0095H28.6186C55.8635 32.0095 78.0294 54.1751 78.0294 81.4205V94.0976ZM127.429 143.498C116.157 142.768 105.661 138.029 97.5996 129.968C89.5389 121.908 84.7996 111.411 84.0696 100.139C107.284 101.659 125.909 120.284 127.429 143.498Z" fill="#00B2FF"/>
    <path d="M140.728 26.0679H139.563C137.923 26.0679 136.593 27.3977 136.593 29.0385C136.593 30.6793 137.922 32.0091 139.563 32.0091H140.728C142.369 32.0091 143.699 30.6793 143.699 29.0385C143.699 27.3977 142.369 26.0679 140.728 26.0679Z" fill="#00B2FF"/>
    <g filter="url(#filter0_f_0_1)">
        <path d="M149.029 26.0679C147.389 26.0679 146.059 27.3978 146.059 29.0386V44.6866C146.059 71.9314 123.893 94.0973 96.648 94.0973H83.9709V81.4205C83.9709 54.5938 104.961 32.9014 131.756 32.0361C133.396 31.9831 134.682 30.6108 134.629 28.9709C134.576 27.331 133.206 26.0469 131.564 26.0976C117.162 26.5627 103.697 32.5242 93.6474 42.8838C92.4917 44.0753 91.3987 45.312 90.3637 46.5869L99.7027 14.2581C100.158 12.6819 99.2492 11.0348 97.6731 10.5794C96.0955 10.124 94.4498 11.0329 93.9944 12.609L81 57.5911L68.0056 12.609C67.5505 11.0329 65.9025 10.124 64.3272 10.5794C62.7511 11.0348 61.8422 12.6817 62.2976 14.2581L71.6566 46.6549C61.5005 34.1065 45.9817 26.0679 28.6189 26.0679H12.9706C11.3299 26.0679 10 27.3981 10 29.0388V44.6869C10 72.6425 30.8332 95.8204 57.7888 99.5197C40.4679 108.1 28.5293 125.964 28.5293 146.568C28.5293 148.208 29.8592 149.538 31.5 149.538C45.5144 149.538 58.6905 144.08 68.6019 134.169C72.4284 130.343 75.5882 126.027 78.0294 121.367V136.084C78.0294 137.725 79.3592 139.055 81 139.055C82.6405 139.055 83.9706 137.725 83.9706 136.084V121.367C86.4118 126.028 89.5713 130.343 93.3978 134.169C103.309 144.08 116.485 149.538 130.5 149.538C132.14 149.538 133.47 148.208 133.47 146.568C133.47 125.964 121.532 108.1 104.211 99.5197C131.167 95.8204 152 72.6425 152 44.6866V29.0388C152 27.3981 150.67 26.0679 149.029 26.0679ZM64.4004 129.968C56.3397 138.029 45.8428 142.768 34.571 143.498C36.0911 120.284 54.7156 101.659 77.9304 100.139C77.2004 111.411 72.4614 121.908 64.4004 129.968ZM78.0294 94.0976H65.3523C38.1074 94.0973 15.9415 71.932 15.9415 44.6866V32.0095H28.6186C55.8635 32.0095 78.0294 54.1751 78.0294 81.4205V94.0976ZM127.429 143.498C116.157 142.768 105.661 138.029 97.5996 129.968C89.5389 121.908 84.7996 111.411 84.0696 100.139C107.284 101.659 125.909 120.284 127.429 143.498Z" fill="#00B2FF"/>
        <path d="M140.728 26.0679H139.563C137.923 26.0679 136.593 27.3977 136.593 29.0385C136.593 30.6793 137.922 32.0091 139.563 32.0091H140.728C142.369 32.0091 143.699 30.6793 143.699 29.0385C143.699 27.3977 142.369 26.0679 140.728 26.0679Z" fill="#00B2FF"/>
    </g>
    <defs>
        <filter id="filter0_f_0_1" x="0" y="-1" width="162" height="162" filterUnits="userSpaceOnUse" color-interpolation-filters="sRGB">
            <feFlood flood-opacity="0" result="BackgroundImageFix"/>
            <feBlend mode="normal" in="SourceGraphic" in2="BackgroundImageFix" result="shape"/>
            <feGaussianBlur stdDeviation="5" result="effect1_foregroundBlur_0_1"/>
        </filter>
    </defs>
</svg>
