<svg width="146" height="166" viewBox="0 0 146 166" fill="none" xmlns="http://www.w3.org/2000/svg">
    <path d="M111.433 12.8923L95.3596 24.9479C80.0795 17.6311 70.9219 16.6878 51.2444 25.4056L34.5625 12.8943C24.4417 5.30402 10.1499 13.6585 11.7639 26.23C12.3947 31.1446 13.7717 35.0909 15.9745 38.2944C17.7804 40.921 20.176 43.0753 23.1254 44.7329C21.8003 47.5386 21.0135 50.898 21.0135 55.012V84.5277C21.0135 96.0329 29.2431 105.659 40.1045 107.872V127.697C40.1045 136.331 45.9337 143.618 53.8847 145.8C58.3143 152.136 65.6272 156 73.4265 156C81.2255 156 88.5386 152.136 92.968 145.8C100.919 143.618 106.78 136.331 106.78 127.697V107.872C117.641 105.659 125.839 96.0332 125.839 84.5277V55.012C125.839 51.2542 124.973 47.6544 123.385 44.4364C129.592 40.7407 133.157 34.7179 134.241 26.1436C135.824 13.6095 121.523 5.32512 111.433 12.8923ZM21.216 25.0169C20.6756 20.8083 25.4677 17.9847 28.8448 20.518L41.5257 30.0288C37.3134 32.1182 32.9228 34.171 29.2457 37.1486C24.3416 35.035 22.0501 31.5145 21.216 25.0169ZM73.4262 146.471C70.7554 146.471 68.1827 145.71 65.9682 144.354C69.5044 142.024 70.2992 139.554 73.4262 133.301C76.5572 139.564 77.3482 142.025 80.8836 144.354C78.6694 145.71 76.0967 146.471 73.4262 146.471ZM88.0063 136.941H87.9618C86.6903 136.941 85.5471 136.234 84.9785 135.097L78.1909 121.522V110.326L86.3247 102.192C88.1856 100.331 88.1856 97.3144 86.3247 95.4538C84.4643 93.5928 81.4471 93.5928 79.5864 95.4538L73.4259 101.614L67.2654 95.4538C65.405 93.5928 62.3878 93.5928 60.5271 95.4538C58.6662 97.3147 58.6662 100.331 60.5271 102.192L68.6926 110.326V121.522L61.8728 135.097C61.3045 136.235 60.161 136.941 58.8895 136.941H58.845C53.7478 136.941 49.6013 132.794 49.6013 127.697V103.587C49.6013 90.4507 60.2887 79.7633 73.4253 79.7633C86.5619 79.7633 97.281 90.4507 97.281 103.587V127.697H97.2821C97.2818 132.794 93.1031 136.941 88.0063 136.941ZM116.341 84.528C116.341 90.9047 112.112 96.3181 106.335 98.1536C103.732 82.338 89.9673 70.2334 73.4262 70.2334C56.8851 70.2334 43.12 82.338 40.5177 98.1536C34.741 96.3178 30.5432 90.9047 30.5432 84.528V55.0123C30.5432 45.6252 36.4243 43.2373 46.4375 38.2305C77.0015 22.9481 78.4869 27.2668 108.408 42.227C113.282 44.6639 116.341 49.5632 116.341 55.0123V84.528ZM124.786 24.949C123.994 31.2171 121.891 34.6814 117.431 36.8364C114.636 34.479 113.353 34.0957 104.862 29.7328L117.152 20.516C120.51 17.9969 125.313 20.7783 124.786 24.949Z" fill="#00B2FF"/>
    <path d="M44.554 70.2779C47.1855 70.2779 49.3187 68.1447 49.3187 65.5132C49.3187 62.8818 47.1855 60.7485 44.554 60.7485C41.9225 60.7485 39.7893 62.8818 39.7893 65.5132C39.7893 68.1447 41.9225 70.2779 44.554 70.2779Z" fill="#00B2FF"/>
    <path d="M101.732 70.2779C104.363 70.2779 106.496 68.1447 106.496 65.5132C106.496 62.8818 104.363 60.7485 101.732 60.7485C99.1003 60.7485 96.967 62.8818 96.967 65.5132C96.967 68.1447 99.1003 70.2779 101.732 70.2779Z" fill="#00B2FF"/>
    <g filter="url(#filter0_f_0_1)">
        <path d="M111.433 12.8923L95.3596 24.9479C80.0795 17.6311 70.9219 16.6878 51.2444 25.4056L34.5625 12.8943C24.4417 5.30402 10.1499 13.6585 11.7639 26.23C12.3947 31.1446 13.7717 35.0909 15.9745 38.2944C17.7804 40.921 20.176 43.0753 23.1254 44.7329C21.8003 47.5386 21.0135 50.898 21.0135 55.012V84.5277C21.0135 96.0329 29.2431 105.659 40.1045 107.872V127.697C40.1045 136.331 45.9337 143.618 53.8847 145.8C58.3143 152.136 65.6272 156 73.4265 156C81.2255 156 88.5386 152.136 92.968 145.8C100.919 143.618 106.78 136.331 106.78 127.697V107.872C117.641 105.659 125.839 96.0332 125.839 84.5277V55.012C125.839 51.2542 124.973 47.6544 123.385 44.4364C129.592 40.7407 133.157 34.7179 134.241 26.1436C135.824 13.6095 121.523 5.32512 111.433 12.8923ZM21.216 25.0169C20.6756 20.8083 25.4677 17.9847 28.8448 20.518L41.5257 30.0288C37.3134 32.1182 32.9228 34.171 29.2457 37.1486C24.3416 35.035 22.0501 31.5145 21.216 25.0169ZM73.4262 146.471C70.7554 146.471 68.1827 145.71 65.9682 144.354C69.5044 142.024 70.2992 139.554 73.4262 133.301C76.5572 139.564 77.3482 142.025 80.8836 144.354C78.6694 145.71 76.0967 146.471 73.4262 146.471ZM88.0063 136.941H87.9618C86.6903 136.941 85.5471 136.234 84.9785 135.097L78.1909 121.522V110.326L86.3247 102.192C88.1856 100.331 88.1856 97.3144 86.3247 95.4538C84.4643 93.5928 81.4471 93.5928 79.5864 95.4538L73.4259 101.614L67.2654 95.4538C65.405 93.5928 62.3878 93.5928 60.5271 95.4538C58.6662 97.3147 58.6662 100.331 60.5271 102.192L68.6926 110.326V121.522L61.8728 135.097C61.3045 136.235 60.161 136.941 58.8895 136.941H58.845C53.7478 136.941 49.6013 132.794 49.6013 127.697V103.587C49.6013 90.4507 60.2887 79.7633 73.4253 79.7633C86.5619 79.7633 97.281 90.4507 97.281 103.587V127.697H97.2821C97.2818 132.794 93.1031 136.941 88.0063 136.941ZM116.341 84.528C116.341 90.9047 112.112 96.3181 106.335 98.1536C103.732 82.338 89.9673 70.2334 73.4262 70.2334C56.8851 70.2334 43.12 82.338 40.5177 98.1536C34.741 96.3178 30.5432 90.9047 30.5432 84.528V55.0123C30.5432 45.6252 36.4243 43.2373 46.4375 38.2305C77.0015 22.9481 78.4869 27.2668 108.408 42.227C113.282 44.6639 116.341 49.5632 116.341 55.0123V84.528ZM124.786 24.949C123.994 31.2171 121.891 34.6814 117.431 36.8364C114.636 34.479 113.353 34.0957 104.862 29.7328L117.152 20.516C120.51 17.9969 125.313 20.7783 124.786 24.949Z" fill="#00B2FF"/>
        <path d="M44.554 70.2779C47.1855 70.2779 49.3187 68.1447 49.3187 65.5132C49.3187 62.8818 47.1855 60.7485 44.554 60.7485C41.9225 60.7485 39.7893 62.8818 39.7893 65.5132C39.7893 68.1447 41.9225 70.2779 44.554 70.2779Z" fill="#00B2FF"/>
        <path d="M101.732 70.2779C104.363 70.2779 106.496 68.1447 106.496 65.5132C106.496 62.8818 104.363 60.7485 101.732 60.7485C99.1003 60.7485 96.967 62.8818 96.967 65.5132C96.967 68.1447 99.1003 70.2779 101.732 70.2779Z" fill="#00B2FF"/>
    </g>
    <defs>
        <filter id="filter0_f_0_1" x="-10" y="0" width="166" height="166" filterUnits="userSpaceOnUse" color-interpolation-filters="sRGB">
            <feFlood flood-opacity="0" result="BackgroundImageFix"/>
            <feBlend mode="normal" in="SourceGraphic" in2="BackgroundImageFix" result="shape"/>
            <feGaussianBlur stdDeviation="5" result="effect1_foregroundBlur_0_1"/>
        </filter>
    </defs>
</svg>
