<svg width="162" height="162" viewBox="0 0 162 162" fill="none" xmlns="http://www.w3.org/2000/svg">
    <path d="M115.661 75.4945C110.464 75.2621 105.021 75.8919 100.111 78.0186C95.1302 80.1754 88.5736 85.9032 91.0198 93.3049C92.1175 96.6242 94.9585 98.7694 98.2567 98.7694C99.447 98.7694 100.626 98.4973 101.763 97.962C106.154 95.8913 108.478 90.4351 106.944 85.7971C106.582 84.7029 106.03 83.7377 105.336 82.9336C108.008 82.1306 111.347 81.6352 115.464 81.8197C116.921 81.8787 118.156 80.5215 118.211 78.7747C118.266 77.0282 117.124 75.5602 115.661 75.4945ZM99.2605 90.3932C98.9291 90.55 98.5816 90.6318 98.2569 90.6318C97.6866 90.6318 97.3915 90.3866 97.3578 90.3162C97.3203 90.135 97.649 89.2073 98.7038 88.7104C99.0352 88.553 99.3827 88.4713 99.7073 88.4713C100.277 88.4713 100.573 88.7165 100.606 88.7889C100.644 88.9684 100.315 89.895 99.2605 90.3932Z" fill="#00B2FF"/>
    <path d="M61.8792 78.0188C56.9679 75.8921 51.5264 75.2606 46.3292 75.4948C44.8665 75.5604 43.7245 77.0285 43.7795 78.775C43.8345 80.5218 45.0691 81.8773 46.5264 81.82C50.6435 81.6338 53.9819 82.1306 56.6537 82.9339C55.9599 83.738 55.407 84.7031 55.046 85.7973C53.5123 90.4353 55.8377 95.8935 60.2271 97.9622C61.3638 98.4992 62.5432 98.7697 63.7335 98.7697C67.0318 98.7697 69.8727 96.6244 70.9704 93.3052C73.4183 85.9032 66.8603 80.1757 61.8792 78.0188ZM64.6328 90.3167C64.5992 90.3888 64.3041 90.6323 63.7337 90.6323C63.4091 90.6323 63.0616 90.5489 62.73 90.3937C61.6754 89.8953 61.3467 88.9687 61.384 88.788C61.4177 88.716 61.7128 88.4704 62.2831 88.4704C62.6077 88.4704 62.9553 88.5538 63.2869 88.7096C64.3416 89.2078 64.6704 90.1338 64.6328 90.3167Z" fill="#00B2FF"/>
    <path d="M62.9621 45.3573C62.9621 45.3573 65.8406 33.965 58.6144 27.997C57.8698 27.3815 47.0514 42.2692 47.9598 56.1166C47.9598 56.1185 57.0566 47.7996 62.9621 45.3573Z" fill="#00B2FF"/>
    <path d="M114.031 56.1185C114.939 42.2708 104.121 27.3835 103.376 27.9989C96.1499 33.9667 99.0284 45.359 99.0284 45.359C104.934 47.7996 114.031 56.1185 114.031 56.1185Z" fill="#00B2FF"/>
    <path d="M152 73.1803L148.895 72.7203C148.778 72.7029 137.116 70.7813 129.389 59.807C128.584 58.6629 127.722 57.5363 126.819 56.4448C126.718 47.0827 124.129 23.5495 102.001 11.0466L100.15 10L98.5078 11.4614C98.0999 11.8252 89.1868 19.9454 87.8812 36.4049H74.1146C72.8239 19.6071 63.8356 11.7609 63.4252 11.4101L61.7973 10.0241L59.9898 11.0449C37.8631 23.5495 35.2734 47.0827 35.1714 56.4448C34.2681 57.536 33.4068 58.6626 32.6003 59.807C24.8736 70.781 13.2124 72.7026 13.1038 72.7187L10 73.1789L10.1195 76.9128C10.7664 97.0884 16.3995 113.727 26.8597 126.391C25.9996 126.812 25.1462 127.256 24.3035 127.726C22.9777 128.466 22.4046 130.349 23.0246 131.933C23.4742 133.083 24.4295 133.758 25.4279 133.758C25.8038 133.758 26.1848 133.662 26.5483 133.46C28.0702 132.61 29.6361 131.851 31.2209 131.168C38.5408 138.418 47.5987 143.932 58.2227 147.599C65.4475 150.519 73.1097 152 80.9961 152C88.8824 152 96.5448 150.519 103.769 147.599C114.395 143.934 123.452 138.418 130.771 131.17C132.356 131.853 133.922 132.612 135.444 133.461C135.807 133.664 136.189 133.76 136.564 133.76C137.561 133.76 138.517 133.084 138.968 131.935C139.588 130.351 139.014 128.468 137.689 127.728C136.846 127.258 135.992 126.814 135.132 126.393C145.592 113.729 151.225 97.0887 151.872 76.9147L152 73.1803ZM101.806 139.807L101.653 139.865C95.113 142.519 88.1631 143.865 80.9947 143.865C73.8276 143.865 66.8766 142.519 60.3374 139.865L60.1842 139.807C52.2148 137.065 45.2408 133.221 39.3471 128.33C47.8012 125.974 55.6943 125.412 59.4476 125.284C61.7182 130.859 66.593 134.722 72.2306 134.722C74.2165 134.722 76.1328 134.253 77.931 133.327C78.7872 133.064 79.7171 132.452 80.9664 131.509C80.9731 131.504 80.9798 131.5 80.9865 131.495C80.9933 131.5 81 131.504 81.0053 131.509C82.256 132.451 83.1845 133.064 84.0421 133.327C85.8401 134.253 87.7564 134.722 89.7423 134.722C95.3796 134.722 100.256 130.857 102.527 125.282C106.272 125.407 114.172 125.963 122.646 128.327C116.752 133.219 109.777 137.066 101.806 139.807ZM129.883 121.159C129.236 121.925 128.569 122.673 127.883 123.403C118.279 120.105 108.885 119.22 103.869 118.991C103.878 118.741 103.883 118.491 103.883 118.237C103.883 117.292 103.812 116.356 103.678 115.439C108.385 114.062 117.997 111.885 126.618 113.887C128.054 114.218 129.445 113.1 129.724 111.383C130.003 109.667 129.066 108.006 127.628 107.673C117.501 105.322 106.599 107.988 101.726 109.489C101.604 109.262 101.477 109.035 101.345 108.814C99.7382 106.132 97.5119 104.083 94.906 102.891L93.7143 106.607L92.5227 110.322C95.3756 111.626 97.2193 114.736 97.2193 118.24C97.2193 122.942 93.8645 126.766 89.7409 126.766C88.5817 126.766 87.4705 126.472 86.4399 125.892L85.5326 125.383L85.4173 125.402C84.7959 124.977 83.7815 124.202 82.8903 123.46L82.8219 123.404L86.9577 118.464C88.384 116.761 87.3738 113.846 85.3556 113.846H76.6131C74.5949 113.846 73.5844 116.76 75.0109 118.464L79.1466 123.404L79.0795 123.46C78.1871 124.202 77.1727 124.979 76.5514 125.404L76.4358 125.385L75.5288 125.894C74.4982 126.474 73.3884 126.767 72.2276 126.767C68.104 126.767 64.7491 122.942 64.7491 118.242C64.7491 114.737 66.593 111.63 69.4458 110.324L68.2541 106.609L67.0624 102.893C64.4565 104.085 62.2302 106.133 60.6239 108.816C60.4924 109.035 60.3675 109.26 60.2455 109.485C55.3648 107.984 44.4754 105.327 34.3574 107.675C32.9202 108.008 31.9822 109.67 32.2613 111.385C32.5404 113.101 33.9319 114.221 35.3679 113.888C43.9788 111.89 53.5775 114.059 58.2916 115.436C58.1575 116.356 58.0863 117.292 58.0863 118.239C58.0863 118.492 58.0916 118.742 58.1009 118.992C53.0808 119.221 43.6969 120.109 34.1038 123.402C33.4179 122.671 32.7511 121.924 32.1042 121.159C23.2236 110.641 18.1805 96.8227 17.0937 80.0456C21.8361 78.6338 30.9517 74.7941 37.8155 65.0441C38.771 63.6869 39.8216 62.3549 40.9367 61.0875L42.0359 59.8375L41.9929 58.0251C41.9096 54.5506 42.1767 47.5878 44.8833 39.9916C47.9938 31.2674 53.3764 24.4196 60.9017 19.6057C61.6358 20.5112 62.5644 21.8091 63.4834 23.5063C66.1176 28.3684 67.4527 34.0765 67.4527 40.474V44.5429H94.5348V40.474C94.5348 34.2082 95.8768 28.5336 98.5242 23.6088C99.4475 21.8909 100.381 20.5625 101.121 19.6281C108.627 24.4407 114 31.2818 117.106 39.9933C119.814 47.5878 120.079 54.5509 119.996 58.0267L119.953 59.8394L121.052 61.0894C122.167 62.3571 123.216 63.6888 124.173 65.046C131.037 74.7958 140.153 78.6354 144.895 80.0475C143.809 96.8229 138.766 110.641 129.883 121.159Z" fill="#00B2FF"/>
    <g filter="url(#filter0_f_0_1)">
        <path d="M115.661 75.4945C110.464 75.2621 105.021 75.8919 100.111 78.0186C95.1302 80.1754 88.5736 85.9032 91.0198 93.3049C92.1175 96.6242 94.9585 98.7694 98.2567 98.7694C99.447 98.7694 100.626 98.4973 101.763 97.962C106.154 95.8913 108.478 90.4351 106.944 85.7971C106.582 84.7029 106.03 83.7377 105.336 82.9336C108.008 82.1306 111.347 81.6352 115.464 81.8197C116.921 81.8787 118.156 80.5215 118.211 78.7747C118.266 77.0282 117.124 75.5602 115.661 75.4945ZM99.2605 90.3932C98.9291 90.55 98.5816 90.6318 98.2569 90.6318C97.6866 90.6318 97.3915 90.3866 97.3578 90.3162C97.3203 90.135 97.649 89.2073 98.7038 88.7104C99.0352 88.553 99.3827 88.4713 99.7073 88.4713C100.277 88.4713 100.573 88.7165 100.606 88.7889C100.644 88.9684 100.315 89.895 99.2605 90.3932Z" fill="#00B2FF"/>
        <path d="M61.8792 78.0188C56.9679 75.8921 51.5264 75.2606 46.3292 75.4948C44.8665 75.5604 43.7245 77.0285 43.7795 78.775C43.8345 80.5218 45.0691 81.8773 46.5264 81.82C50.6435 81.6338 53.9819 82.1306 56.6537 82.9339C55.9599 83.738 55.407 84.7031 55.046 85.7973C53.5123 90.4353 55.8377 95.8935 60.2271 97.9622C61.3638 98.4992 62.5432 98.7697 63.7335 98.7697C67.0318 98.7697 69.8727 96.6244 70.9704 93.3052C73.4183 85.9032 66.8603 80.1757 61.8792 78.0188ZM64.6328 90.3167C64.5992 90.3888 64.3041 90.6323 63.7337 90.6323C63.4091 90.6323 63.0616 90.5489 62.73 90.3937C61.6754 89.8953 61.3467 88.9687 61.384 88.788C61.4177 88.716 61.7128 88.4704 62.2831 88.4704C62.6077 88.4704 62.9553 88.5538 63.2869 88.7096C64.3416 89.2078 64.6704 90.1338 64.6328 90.3167Z" fill="#00B2FF"/>
        <path d="M62.9621 45.3573C62.9621 45.3573 65.8406 33.965 58.6144 27.997C57.8698 27.3815 47.0514 42.2692 47.9598 56.1166C47.9598 56.1185 57.0566 47.7996 62.9621 45.3573Z" fill="#00B2FF"/>
        <path d="M114.031 56.1185C114.939 42.2708 104.121 27.3835 103.376 27.9989C96.1499 33.9667 99.0284 45.359 99.0284 45.359C104.934 47.7996 114.031 56.1185 114.031 56.1185Z" fill="#00B2FF"/>
        <path d="M152 73.1803L148.895 72.7203C148.778 72.7029 137.116 70.7813 129.389 59.807C128.584 58.6629 127.722 57.5363 126.819 56.4448C126.718 47.0827 124.129 23.5495 102.001 11.0466L100.15 10L98.5078 11.4614C98.0999 11.8252 89.1868 19.9454 87.8812 36.4049H74.1146C72.8239 19.6071 63.8356 11.7609 63.4252 11.4101L61.7973 10.0241L59.9898 11.0449C37.8631 23.5495 35.2734 47.0827 35.1714 56.4448C34.2681 57.536 33.4068 58.6626 32.6003 59.807C24.8736 70.781 13.2124 72.7026 13.1038 72.7187L10 73.1789L10.1195 76.9128C10.7664 97.0884 16.3995 113.727 26.8597 126.391C25.9996 126.812 25.1462 127.256 24.3035 127.726C22.9777 128.466 22.4046 130.349 23.0246 131.933C23.4742 133.083 24.4295 133.758 25.4279 133.758C25.8038 133.758 26.1848 133.662 26.5483 133.46C28.0702 132.61 29.6361 131.851 31.2209 131.168C38.5408 138.418 47.5987 143.932 58.2227 147.599C65.4475 150.519 73.1097 152 80.9961 152C88.8824 152 96.5448 150.519 103.769 147.599C114.395 143.934 123.452 138.418 130.771 131.17C132.356 131.853 133.922 132.612 135.444 133.461C135.807 133.664 136.189 133.76 136.564 133.76C137.561 133.76 138.517 133.084 138.968 131.935C139.588 130.351 139.014 128.468 137.689 127.728C136.846 127.258 135.992 126.814 135.132 126.393C145.592 113.729 151.225 97.0887 151.872 76.9147L152 73.1803ZM101.806 139.807L101.653 139.865C95.113 142.519 88.1631 143.865 80.9947 143.865C73.8276 143.865 66.8766 142.519 60.3374 139.865L60.1842 139.807C52.2148 137.065 45.2408 133.221 39.3471 128.33C47.8012 125.974 55.6943 125.412 59.4476 125.284C61.7182 130.859 66.593 134.722 72.2306 134.722C74.2165 134.722 76.1328 134.253 77.931 133.327C78.7872 133.064 79.7171 132.452 80.9664 131.509C80.9731 131.504 80.9798 131.5 80.9865 131.495C80.9933 131.5 81 131.504 81.0053 131.509C82.256 132.451 83.1845 133.064 84.0421 133.327C85.8401 134.253 87.7564 134.722 89.7423 134.722C95.3796 134.722 100.256 130.857 102.527 125.282C106.272 125.407 114.172 125.963 122.646 128.327C116.752 133.219 109.777 137.066 101.806 139.807ZM129.883 121.159C129.236 121.925 128.569 122.673 127.883 123.403C118.279 120.105 108.885 119.22 103.869 118.991C103.878 118.741 103.883 118.491 103.883 118.237C103.883 117.292 103.812 116.356 103.678 115.439C108.385 114.062 117.997 111.885 126.618 113.887C128.054 114.218 129.445 113.1 129.724 111.383C130.003 109.667 129.066 108.006 127.628 107.673C117.501 105.322 106.599 107.988 101.726 109.489C101.604 109.262 101.477 109.035 101.345 108.814C99.7382 106.132 97.5119 104.083 94.906 102.891L93.7143 106.607L92.5227 110.322C95.3756 111.626 97.2193 114.736 97.2193 118.24C97.2193 122.942 93.8645 126.766 89.7409 126.766C88.5817 126.766 87.4705 126.472 86.4399 125.892L85.5326 125.383L85.4173 125.402C84.7959 124.977 83.7815 124.202 82.8903 123.46L82.8219 123.404L86.9577 118.464C88.384 116.761 87.3738 113.846 85.3556 113.846H76.6131C74.5949 113.846 73.5844 116.76 75.0109 118.464L79.1466 123.404L79.0795 123.46C78.1871 124.202 77.1727 124.979 76.5514 125.404L76.4358 125.385L75.5288 125.894C74.4982 126.474 73.3884 126.767 72.2276 126.767C68.104 126.767 64.7491 122.942 64.7491 118.242C64.7491 114.737 66.593 111.63 69.4458 110.324L68.2541 106.609L67.0624 102.893C64.4565 104.085 62.2302 106.133 60.6239 108.816C60.4924 109.035 60.3675 109.26 60.2455 109.485C55.3648 107.984 44.4754 105.327 34.3574 107.675C32.9202 108.008 31.9822 109.67 32.2613 111.385C32.5404 113.101 33.9319 114.221 35.3679 113.888C43.9788 111.89 53.5775 114.059 58.2916 115.436C58.1575 116.356 58.0863 117.292 58.0863 118.239C58.0863 118.492 58.0916 118.742 58.1009 118.992C53.0808 119.221 43.6969 120.109 34.1038 123.402C33.4179 122.671 32.7511 121.924 32.1042 121.159C23.2236 110.641 18.1805 96.8227 17.0937 80.0456C21.8361 78.6338 30.9517 74.7941 37.8155 65.0441C38.771 63.6869 39.8216 62.3549 40.9367 61.0875L42.0359 59.8375L41.9929 58.0251C41.9096 54.5506 42.1767 47.5878 44.8833 39.9916C47.9938 31.2674 53.3764 24.4196 60.9017 19.6057C61.6358 20.5112 62.5644 21.8091 63.4834 23.5063C66.1176 28.3684 67.4527 34.0765 67.4527 40.474V44.5429H94.5348V40.474C94.5348 34.2082 95.8768 28.5336 98.5242 23.6088C99.4475 21.8909 100.381 20.5625 101.121 19.6281C108.627 24.4407 114 31.2818 117.106 39.9933C119.814 47.5878 120.079 54.5509 119.996 58.0267L119.953 59.8394L121.052 61.0894C122.167 62.3571 123.216 63.6888 124.173 65.046C131.037 74.7958 140.153 78.6354 144.895 80.0475C143.809 96.8229 138.766 110.641 129.883 121.159Z" fill="#00B2FF"/>
    </g>
    <defs>
        <filter id="filter0_f_0_1" x="0" y="0" width="162" height="162" filterUnits="userSpaceOnUse" color-interpolation-filters="sRGB">
            <feFlood flood-opacity="0" result="BackgroundImageFix"/>
            <feBlend mode="normal" in="SourceGraphic" in2="BackgroundImageFix" result="shape"/>
            <feGaussianBlur stdDeviation="5" result="effect1_foregroundBlur_0_1"/>
        </filter>
    </defs>
</svg>
