<svg width="162" height="148" viewBox="0 0 162 148" fill="none" xmlns="http://www.w3.org/2000/svg">
    <g filter="url(#filter0_f_0_1)">
        <path d="M68.5345 100.027C66.1014 100.027 64.1287 102 64.1287 104.433V114.978C64.1287 117.411 66.1014 119.383 68.5345 119.383C70.9677 119.383 72.9404 117.411 72.9404 114.978V104.433C72.9407 102 70.968 100.027 68.5345 100.027Z" fill="#00B2FF"/>
        <path d="M93.4652 100.027C91.0321 100.027 89.0593 102 89.0593 104.433V114.978C89.0593 117.411 91.0321 119.383 93.4652 119.383C95.8984 119.383 97.8711 117.411 97.8711 114.978V104.433C97.8714 102 95.8986 100.027 93.4652 100.027Z" fill="#00B2FF"/>
        <path d="M152 45.6214C152 43.1883 150.027 41.2155 147.594 41.2155H119.293C117.333 37.6863 114.869 34.4084 111.936 31.4747C111.831 31.3701 111.724 31.2703 111.619 31.1668V15.2548C111.619 12.8216 109.646 10.8489 107.213 10.8489C104.78 10.8489 102.807 12.8216 102.807 15.2548V24.4543C89.1963 16.609 72.4656 16.865 59.193 24.4221V15.2548C59.193 12.8216 57.2203 10.8489 54.7871 10.8489C52.354 10.8489 50.3813 12.8216 50.3813 15.2548V31.0794C47.3188 34.0895 44.7448 37.5324 42.7163 41.2161H14.4059C11.9727 41.2158 10 43.1885 10 45.6217C10 59.6123 24.0921 69.374 37.2487 64.2836V86.1666C30.5284 90.5525 26.4545 97.9792 26.4545 106.149V113.261C26.4545 126.434 37.1714 137.151 50.3449 137.151H111.655C124.829 137.151 135.546 126.434 135.546 113.261V106.149C135.546 97.9784 131.47 90.5511 124.752 86.1663V64.2836C137.92 69.3784 152 59.5948 152 45.6214ZM81.0613 27.4695C78.1866 43.3813 63.575 54.7036 47.2695 53.283C51.3761 38.0397 65.2502 27.4512 81.0613 27.4695ZM46.0605 62.4107C46.0605 62.2798 46.0636 62.1489 46.0649 62.018C67.2568 64.0983 86.32 49.335 89.812 28.5601C104.552 32.3671 115.939 45.9345 115.939 62.4107V82.6396C110.883 81.726 48.1994 82.2519 46.0605 82.6396V62.4107ZM19.7145 50.0273H39.0276C38.7228 51.0632 38.4383 52.1856 38.2114 53.2503C32.715 59.1713 22.912 57.4742 19.7145 50.0273ZM126.733 106.149V113.261C126.733 121.575 119.97 128.339 111.655 128.339H50.3446C42.0302 128.339 35.266 121.576 35.266 113.261V106.149C35.266 97.6805 42.1247 91.0711 50.3446 91.0711H111.655C119.859 91.0714 126.733 97.6655 126.733 106.149ZM123.794 53.2561C123.564 52.1675 123.292 51.0903 122.98 50.0273H142.285C139.085 57.4809 129.286 59.1641 123.794 53.2561Z" fill="#00B2FF"/>
        <path d="M59.8986 75.5487C63.1175 75.5487 65.7269 72.9393 65.7269 69.7203C65.7269 66.5014 63.1175 63.892 59.8986 63.892C56.6796 63.892 54.0702 66.5014 54.0702 69.7203C54.0702 72.9393 56.6796 75.5487 59.8986 75.5487Z" fill="#00B2FF"/>
        <path d="M102.28 75.5487C105.499 75.5487 108.109 72.9393 108.109 69.7203C108.109 66.5014 105.499 63.892 102.28 63.892C99.0614 63.892 96.4519 66.5014 96.4519 69.7203C96.4519 72.9393 99.0614 75.5487 102.28 75.5487Z" fill="#00B2FF"/>
    </g>
    <path d="M68.5345 100.027C66.1014 100.027 64.1287 102 64.1287 104.433V114.978C64.1287 117.411 66.1014 119.383 68.5345 119.383C70.9677 119.383 72.9404 117.411 72.9404 114.978V104.433C72.9407 102 70.968 100.027 68.5345 100.027Z" fill="#00B2FF"/>
    <path d="M93.4652 100.027C91.0321 100.027 89.0593 102 89.0593 104.433V114.978C89.0593 117.411 91.0321 119.383 93.4652 119.383C95.8984 119.383 97.8711 117.411 97.8711 114.978V104.433C97.8714 102 95.8986 100.027 93.4652 100.027Z" fill="#00B2FF"/>
    <path d="M152 45.6214C152 43.1883 150.027 41.2155 147.594 41.2155H119.293C117.333 37.6863 114.869 34.4084 111.936 31.4747C111.831 31.3701 111.724 31.2703 111.619 31.1668V15.2548C111.619 12.8216 109.646 10.8489 107.213 10.8489C104.78 10.8489 102.807 12.8216 102.807 15.2548V24.4543C89.1963 16.609 72.4656 16.865 59.193 24.4221V15.2548C59.193 12.8216 57.2203 10.8489 54.7871 10.8489C52.354 10.8489 50.3813 12.8216 50.3813 15.2548V31.0794C47.3188 34.0895 44.7448 37.5324 42.7163 41.2161H14.4059C11.9727 41.2158 10 43.1885 10 45.6217C10 59.6123 24.0921 69.374 37.2487 64.2836V86.1666C30.5284 90.5525 26.4545 97.9792 26.4545 106.149V113.261C26.4545 126.434 37.1714 137.151 50.3449 137.151H111.655C124.829 137.151 135.546 126.434 135.546 113.261V106.149C135.546 97.9784 131.47 90.5511 124.752 86.1663V64.2836C137.92 69.3784 152 59.5948 152 45.6214ZM81.0613 27.4695C78.1866 43.3813 63.575 54.7036 47.2695 53.283C51.3761 38.0397 65.2502 27.4512 81.0613 27.4695ZM46.0605 62.4107C46.0605 62.2798 46.0636 62.1489 46.0649 62.018C67.2568 64.0983 86.32 49.335 89.812 28.5601C104.552 32.3671 115.939 45.9345 115.939 62.4107V82.6396C110.883 81.726 48.1994 82.2519 46.0605 82.6396V62.4107ZM19.7145 50.0273H39.0276C38.7228 51.0632 38.4383 52.1856 38.2114 53.2503C32.715 59.1713 22.912 57.4742 19.7145 50.0273ZM126.733 106.149V113.261C126.733 121.575 119.97 128.339 111.655 128.339H50.3446C42.0302 128.339 35.266 121.576 35.266 113.261V106.149C35.266 97.6805 42.1247 91.0711 50.3446 91.0711H111.655C119.859 91.0714 126.733 97.6655 126.733 106.149ZM123.794 53.2561C123.564 52.1675 123.292 51.0903 122.98 50.0273H142.285C139.085 57.4809 129.286 59.1641 123.794 53.2561Z" fill="#00B2FF"/>
    <path d="M59.8986 75.5487C63.1175 75.5487 65.7269 72.9393 65.7269 69.7203C65.7269 66.5014 63.1175 63.892 59.8986 63.892C56.6796 63.892 54.0702 66.5014 54.0702 69.7203C54.0702 72.9393 56.6796 75.5487 59.8986 75.5487Z" fill="#00B2FF"/>
    <path d="M102.28 75.5487C105.499 75.5487 108.109 72.9393 108.109 69.7203C108.109 66.5014 105.499 63.892 102.28 63.892C99.0614 63.892 96.4519 66.5014 96.4519 69.7203C96.4519 72.9393 99.0614 75.5487 102.28 75.5487Z" fill="#00B2FF"/>
    <defs>
        <filter id="filter0_f_0_1" x="0" y="-7" width="162" height="162" filterUnits="userSpaceOnUse" color-interpolation-filters="sRGB">
            <feFlood flood-opacity="0" result="BackgroundImageFix"/>
            <feBlend mode="normal" in="SourceGraphic" in2="BackgroundImageFix" result="shape"/>
            <feGaussianBlur stdDeviation="5" result="effect1_foregroundBlur_0_1"/>
        </filter>
    </defs>
</svg>
