<svg width="162" height="154" viewBox="0 0 162 154" fill="none" xmlns="http://www.w3.org/2000/svg">
    <g clip-path="url(#clip0_0_1)" filter="url(#filter0_f_0_1)">
        <path d="M13.6343 37.2737C13.6304 37.2712 13.6304 37.2712 13.6304 37.2662L13.6268 37.2637L13.6343 37.2737Z" fill="#00B2FF"/>
        <path d="M48.6945 56.4373L48.766 56.4594C48.7624 56.4545 48.7588 56.4545 48.7549 56.452L48.6945 56.4373Z" fill="#00B2FF"/>
        <path d="M33.4059 51.235C33.3898 51.2278 33.3748 51.22 33.3565 51.2153L33.2725 51.1831L33.4059 51.235Z" fill="#00B2FF"/>
        <path d="M152 23.8412C152 21.3129 151.7 18.6759 151.125 15.9077L151.096 15.7619L150.928 15.2873H150.924C150.57 13.8712 149.779 12.6404 148.696 11.82C147.54 10.9303 146.111 10.4854 144.651 10.4854C144.148 10.4854 143.635 10.5373 143.126 10.6435C141.537 10.9721 140.175 11.8447 139.229 13.0259C138.278 14.1999 137.723 15.685 137.723 17.267C137.723 17.7194 137.769 18.1817 137.863 18.6412C138.282 20.6581 138.453 22.3707 138.453 23.8362C138.449 25.2944 138.293 26.4609 138.024 27.4569C137.753 28.4526 137.377 29.2907 136.871 30.1086C135.891 31.6856 134.324 33.1979 131.871 34.7105L131.852 34.723L131.841 34.7302C131.673 34.8365 131.492 34.9479 131.312 35.0539V29.9286C131.312 28.2132 130.609 26.6387 129.484 25.5216C128.363 24.3972 126.792 23.7003 125.084 23.7003C123.37 23.6978 121.796 24.3972 120.678 25.5216C119.553 26.6437 118.854 28.2182 118.854 29.9286V40.3456C116.465 41.171 113.915 42.0113 111.226 42.8786V38.7071C111.226 36.9942 110.526 35.4175 109.402 34.3003C108.28 33.176 106.709 32.4765 104.999 32.4765C103.288 32.4765 101.717 33.176 100.596 34.3003C99.4706 35.4175 98.7711 36.9942 98.7711 38.7071V48.4074C94.0607 51.4521 90.7561 55.0459 88.6877 58.5751C87.8399 60.0112 87.1973 61.4124 86.703 62.7297C84.6085 62.7297 82.5856 62.7297 81.0003 62.7297C79.415 62.7297 77.392 62.7297 75.2937 62.7297C74.7994 61.4124 74.1568 60.0112 73.3129 58.5751C71.2406 55.0459 67.9363 51.4524 63.2292 48.4074V38.7071C63.2292 36.9942 62.5261 35.4175 61.4004 34.3003C60.2785 33.176 58.7088 32.4765 57.0012 32.4765C55.2911 32.4765 53.7202 33.176 52.5983 34.3003C51.4737 35.4175 50.7695 36.9942 50.7695 38.7071V42.8789C48.0818 42.0116 45.5313 41.171 43.1426 40.3459V29.9289C43.1426 28.2185 42.447 26.644 41.3221 25.5219C40.2002 24.3975 38.6258 23.6981 36.9157 23.7005C35.2042 23.7005 33.6336 24.3975 32.5128 25.5219C31.3907 26.639 30.6876 28.2132 30.6876 29.9289V35.0544C30.5046 34.9432 30.3182 34.837 30.1476 34.7261L30.1293 34.7111C27.6796 33.1982 26.1126 31.693 25.1291 30.1138C24.6263 29.2935 24.2505 28.4528 23.9762 27.4572C23.7069 26.4562 23.551 25.2894 23.5435 23.8364C23.5435 22.371 23.718 20.6584 24.1318 18.6365C24.2269 18.182 24.2727 17.7196 24.2727 17.2673C24.2727 15.6856 23.718 14.1954 22.7711 13.0214C21.8246 11.8449 20.4592 10.9724 18.87 10.6415C18.3536 10.5375 17.8322 10.481 17.3155 10.481C15.8711 10.481 14.4486 10.9061 13.2885 11.7811C12.1217 12.6484 11.258 13.9833 10.9466 15.5303V15.5428L10.8711 15.9177L10.875 15.9077C10.3001 18.6759 10 21.3132 10 23.8412V23.9055C9.99613 28.8755 11.232 33.4525 13.6304 37.2663C15.4138 40.1257 17.7368 42.4762 20.3144 44.4065C24.1737 47.3003 28.6003 49.3665 33.3565 51.2153L33.4098 51.235C38.1845 53.076 43.3525 54.6951 48.7549 56.4521L48.766 56.4546V56.4596C52.755 57.7719 55.5418 59.3265 57.5448 60.886C58.7085 61.7979 59.6057 62.7073 60.3324 63.5973C59.3167 63.9778 58.2528 64.5017 57.2147 65.1812C53.8722 64.0718 49.9636 62.8656 46.428 61.8251C42.8541 60.7745 39.6786 59.8997 37.789 59.4599C37.071 59.2918 36.3482 59.2053 35.6341 59.2053C34.0102 59.2053 32.3789 59.6526 31.0828 60.7476C30.4402 61.2912 29.9003 62.0006 29.543 62.8138C29.1847 63.627 29.0105 64.5389 29.0105 65.4854C29.0141 67.0128 29.4479 68.6413 30.2957 70.4061C31.764 73.4385 33.4816 77.0099 36.0975 80.193C38.7023 83.3736 42.2909 86.1689 47.2301 87.3923C47.9295 87.5675 48.6143 87.6987 49.2913 87.8025C49.0281 89.1642 48.7885 90.4347 48.5868 91.5072C48.2757 93.1754 48.0557 94.3741 47.9717 94.8683C47.8616 95.5231 47.8122 96.1658 47.8122 96.7887C47.8122 98.998 48.4351 100.955 49.184 102.641C49.9375 104.327 50.8308 105.78 51.4812 106.993C51.507 107.043 51.5874 107.206 51.6862 107.423C52.0706 108.251 52.7736 109.902 53.6104 111.902C54.8645 114.909 56.4279 118.73 57.7736 122.007C58.4459 123.646 59.0624 125.149 59.5605 126.35C60.0583 127.553 60.4264 128.433 60.6441 128.908C61.0471 129.798 61.6858 131.068 62.2405 132.148C62.5408 132.741 62.8113 133.262 62.9968 133.619C62.9968 133.846 62.9968 134.061 62.9968 134.239C62.9968 134.36 62.9968 134.474 62.9968 134.577C62.9968 135.176 63.0661 135.934 63.26 136.822C63.5604 138.136 64.13 139.725 65.3817 141.112C66.0046 141.802 66.8067 142.422 67.7765 142.852C68.7467 143.285 69.871 143.519 71.0919 143.519C76.1867 143.519 81 143.519 81 143.519C81.0036 143.519 82.2012 143.519 84.0411 143.519C85.8824 143.519 88.3613 143.519 90.9042 143.519C92.5353 143.527 93.9911 143.094 95.1365 142.363C95.9952 141.819 96.6724 141.127 97.1891 140.41C97.9651 139.323 98.3978 138.173 98.6571 137.155C98.9153 136.132 98.9993 135.247 99.0032 134.577C99.0032 134.474 99.0032 134.36 99.0032 134.239C99.0032 134.061 99.0032 133.846 99.0032 133.619C99.1849 133.263 99.4556 132.741 99.7595 132.148C100.311 131.068 100.949 129.798 101.356 128.908C101.512 128.567 101.74 128.03 102.04 127.306C103.093 124.795 105.006 120.099 106.77 115.814C107.652 113.674 108.496 111.635 109.173 110.036C109.511 109.235 109.808 108.543 110.048 108.012C110.279 107.488 110.466 107.087 110.519 106.994C111.169 105.78 112.059 104.327 112.816 102.641C113.569 100.956 114.188 98.9983 114.188 96.7889C114.188 96.1613 114.138 95.5234 114.028 94.8686C113.948 94.3744 113.724 93.1732 113.413 91.5075C113.212 90.435 112.972 89.1645 112.709 87.8027C113.382 87.699 114.07 87.5678 114.77 87.3925C119.706 86.1692 123.298 83.3738 125.903 80.1933C128.515 77.0099 130.236 73.4385 131.704 70.4063C132.552 68.6416 132.986 67.013 132.989 65.4907C132.989 64.5391 132.815 63.6319 132.457 62.8166C131.921 61.5882 130.974 60.6266 129.887 60.0459C128.799 59.4551 127.587 59.2055 126.366 59.2055C125.648 59.2055 124.925 59.2921 124.207 59.4601C122.316 59.9 119.146 60.7747 115.572 61.8253C112.036 62.8631 108.131 64.0718 104.794 65.1815C103.752 64.497 102.676 63.9828 101.664 63.5998C102.39 62.7103 103.287 61.7981 104.455 60.8862C106.458 59.3267 109.241 57.7722 113.23 56.4598C118.636 54.6951 123.808 53.0762 128.586 51.2352H128.594C133.366 49.3817 137.81 47.313 141.685 44.4068C144.259 42.4764 146.586 40.126 148.365 37.2665C150.753 33.475 152 28.9177 152 23.9674V23.8412ZM60.1915 57.4927C57.7461 55.5895 54.492 53.8101 50.1078 52.369H50.1039C44.678 50.6046 39.5757 49.0007 34.9873 47.2309L34.9598 47.221C30.3518 45.4365 26.2765 43.5062 22.9004 40.9657C20.6564 39.285 18.7286 37.3154 17.2803 34.9898L17.2731 34.9773C15.3489 31.9177 14.3033 28.1708 14.3033 23.9052V23.8459V23.8409C14.3033 21.656 14.5618 19.3058 15.0868 16.7797V16.765L15.1622 16.3967C15.2881 15.8232 15.5277 15.487 15.8739 15.2202C16.22 14.9584 16.7056 14.7853 17.315 14.7853C17.5277 14.7853 17.7598 14.805 17.9994 14.8569C18.5877 14.9778 19.0708 15.2895 19.4205 15.7241C19.7703 16.1568 19.9719 16.7004 19.9719 17.2664C19.9719 17.4295 19.9536 17.5976 19.9187 17.7684C19.4516 20.0271 19.2389 22.0365 19.2389 23.8406V23.8456C19.2464 25.6103 19.4402 27.1671 19.8235 28.5785C20.2004 29.9899 20.7715 31.2404 21.4632 32.3648L21.4743 32.3847L21.4707 32.377C22.8918 34.6656 25.0171 36.6156 27.8457 38.3604C27.8507 38.3654 27.8543 38.3676 27.8582 38.3676C27.8621 38.3676 27.8654 38.3726 27.8654 38.3726C29.1123 39.1583 30.478 39.8653 31.9113 40.5522L34.9909 42.0177V29.9286C34.9909 28.8608 35.8496 28.0058 36.9148 28.0058C37.4623 28.0058 37.9255 28.2182 38.2791 28.5643C38.6288 28.9177 38.8377 29.3822 38.8377 29.9289V43.403L40.2746 43.9098C43.7583 45.1378 47.5715 46.3687 51.6174 47.6739L51.6013 47.6689C51.7003 47.701 51.8944 47.7851 52.2403 47.9013L55.0725 48.8479V38.7071C55.0764 37.6393 55.9362 36.7792 57.0001 36.7792C57.5364 36.7842 58.0049 36.9942 58.3618 37.3425C58.7116 37.7009 58.9243 38.1635 58.9243 38.7071V50.8023L59.966 51.4252C64.6692 54.2552 67.761 57.6164 69.6009 60.7523C69.9964 61.4246 70.3264 62.0869 70.6279 62.7297C68.2813 62.7297 66.2248 62.7297 65.0114 62.7297C63.9284 61.0418 62.3997 59.2127 60.1915 57.4927ZM103.136 69.2839L104.139 70.0896L105.326 69.5829C105.607 69.4617 105.839 69.3677 106.059 69.2961C109.353 68.1962 113.261 66.9931 116.786 65.9547C120.306 64.9191 123.466 64.0493 125.184 63.6489H125.188C125.603 63.5551 126.002 63.508 126.366 63.508C127.207 63.5055 127.807 63.7454 128.131 64.0272C128.298 64.1703 128.416 64.3261 128.515 64.5436C128.61 64.7635 128.686 65.06 128.686 65.4902C128.69 66.1699 128.477 67.2003 127.831 68.5398C126.379 71.5551 124.777 74.7925 122.577 77.462C121.482 78.7915 120.242 79.9877 118.796 80.9662C117.348 81.9499 115.698 82.7235 113.725 83.218C112.462 83.5341 111.235 83.6972 110.036 83.7665L107.581 83.9024L108.044 86.3198C108.474 88.5488 108.873 90.6472 109.185 92.3007C109.492 93.9514 109.717 95.1723 109.785 95.5753C109.855 95.9855 109.884 96.3885 109.884 96.7889C109.884 98.1754 109.492 99.5272 108.884 100.891C108.28 102.251 107.467 103.595 106.729 104.959C106.627 105.153 106.528 105.357 106.406 105.617C105.965 106.571 105.265 108.222 104.421 110.244C103.154 113.271 101.589 117.1 100.247 120.372C99.5732 122.013 98.9613 123.513 98.4671 124.699C97.9765 125.886 97.596 126.78 97.4404 127.126C97.0982 127.875 96.4666 129.141 95.9267 130.189C95.661 130.715 95.4138 131.19 95.2358 131.535C95.0566 131.879 94.9465 132.091 94.9429 132.091L94.6994 132.561V133.09C94.6994 133.554 94.6994 133.93 94.6994 134.239C94.6994 134.36 94.6994 134.474 94.6994 134.578C94.6994 134.83 94.6611 135.339 94.5349 135.885C94.3569 136.723 93.9764 137.635 93.4328 138.221C93.1635 138.518 92.8595 138.75 92.4715 138.92C92.0835 139.096 91.5929 139.216 90.9045 139.216C88.3613 139.216 85.8824 139.216 84.0414 139.216C82.2015 139.216 81.0039 139.216 81.0003 139.216C81.0003 139.216 76.1873 139.216 71.0922 139.216C70.1753 139.212 69.6128 139.006 69.168 138.73C68.8293 138.517 68.5525 138.243 68.3093 137.899C67.9399 137.395 67.6703 136.73 67.5111 136.097C67.3467 135.467 67.2973 134.859 67.3009 134.578C67.3009 134.474 67.3009 134.36 67.3009 134.239C67.3009 133.93 67.3009 133.554 67.3009 133.09V132.561L67.0538 132.091C67.0538 132.091 66.9437 131.878 66.7645 131.535C66.4952 131.019 66.0775 130.206 65.6549 129.372C65.2372 128.542 64.8145 127.684 64.5599 127.126C64.4501 126.881 64.2213 126.352 63.9284 125.65C62.8903 123.172 60.9786 118.468 59.2066 114.175C58.3244 112.028 57.4765 109.981 56.7882 108.358C56.4423 107.544 56.1384 106.838 55.8874 106.267C55.6328 105.696 55.4464 105.29 55.2672 104.959C54.5331 103.595 53.7199 102.251 53.1159 100.891C52.5077 99.5269 52.1163 98.1798 52.1163 96.7887C52.1163 96.3932 52.146 95.9905 52.2151 95.575C52.2833 95.172 52.5079 93.9464 52.8158 92.3004C53.1272 90.6469 53.5263 88.5485 53.9562 86.3195L54.4197 83.9022L51.9643 83.7663C50.7657 83.6969 49.5387 83.5339 48.2757 83.2177C46.3021 82.7235 44.6488 81.9497 43.2042 80.9659C41.0403 79.5004 39.3252 77.5457 37.8769 75.3633C36.4325 73.1884 35.261 70.8007 34.1733 68.5346C33.5235 67.195 33.3108 66.1696 33.3146 65.4849C33.3146 65.0597 33.3898 64.7632 33.4816 64.5433C33.6297 64.2243 33.8202 64.0216 34.1622 63.8291C34.5008 63.6411 35.0062 63.5077 35.6341 63.5077C35.9946 63.5077 36.394 63.5548 36.8128 63.6486C38.5304 64.0491 41.6901 64.9188 45.2107 65.9544C48.7352 66.9925 52.6474 68.1959 55.937 69.2959C56.1569 69.3674 56.393 69.4614 56.6747 69.5826L57.8612 70.0893L58.8647 69.2837C59.7999 68.5348 60.9591 67.9419 62.0045 67.5611C62.5259 67.3708 63.0165 67.2349 63.4195 67.1459C63.815 67.0594 64.1422 67.0297 64.2448 67.0322C66.2825 67.0322 75.9052 67.0322 81 67.0322C86.0948 67.0322 95.7175 67.0322 97.7552 67.0322C97.8578 67.0297 98.1815 67.0594 98.5806 67.1459C99.8017 67.3983 101.74 68.1543 103.136 69.2839ZM147.696 23.8462V23.9674C147.692 28.206 146.643 31.9279 144.723 34.9779L144.716 34.9904C143.271 37.3159 141.339 39.2856 139.099 40.9663C135.719 43.507 131.644 45.4371 127.04 47.2215H127.044C122.443 48.9937 117.333 50.5973 111.896 52.3693H111.889C107.508 53.8104 104.251 55.5898 101.809 57.4929C99.5967 59.213 98.0719 61.0418 96.9883 62.73C95.7711 62.73 93.7148 62.73 91.3718 62.73C91.6686 62.0874 92.0033 61.4251 92.395 60.7526C94.2387 57.6164 97.3306 54.2552 102.03 51.4255L103.075 50.8026V38.7071C103.075 38.1635 103.284 37.7011 103.638 37.3425C103.991 36.9942 104.459 36.784 104.999 36.7792C106.063 36.7792 106.923 37.6393 106.923 38.7071V48.8473L109.759 47.9007C110.091 47.787 110.272 47.708 110.378 47.6758L110.382 47.6736C114.428 46.3684 118.241 45.1378 121.725 43.9095L123.157 43.4028V29.9286C123.157 29.3822 123.371 28.9174 123.721 28.564C124.074 28.2182 124.538 28.0055 125.085 28.0055C126.146 28.0055 127.005 28.8605 127.009 29.9283V42.0185L130.085 40.5531C131.514 39.8711 132.887 39.1641 134.13 38.3734V38.3781C134.137 38.3734 134.141 38.3681 134.145 38.3659C134.149 38.3609 134.154 38.3609 134.157 38.3584C136.982 36.6137 139.104 34.6662 140.529 32.3775L140.533 32.3728C141.233 31.2457 141.803 29.9854 142.18 28.5765C142.559 27.1654 142.753 25.6056 142.757 23.8462V23.8412C142.757 22.037 142.544 20.0277 142.081 17.769C142.043 17.5934 142.028 17.4304 142.028 17.267C142.028 16.7012 142.225 16.1574 142.575 15.7247C142.929 15.2898 143.412 14.9784 144 14.8574L144.005 14.8524C144.228 14.8081 144.441 14.7881 144.651 14.7881C145.248 14.7881 145.726 14.9637 146.076 15.2305C146.418 15.5025 146.665 15.8534 146.791 16.4341L146.821 16.5875L146.936 16.9062C147.441 19.3829 147.696 21.6934 147.696 23.8412V23.8462Z" fill="#00B2FF"/>
        <path d="M148.373 37.2637C148.37 37.2662 148.37 37.2662 148.366 37.2662C148.366 37.2712 148.366 37.2712 148.366 37.2712L148.373 37.2637Z" fill="#00B2FF"/>
        <path d="M40.7253 71.9061C42.69 75.4156 44.9146 78.0279 48.6563 78.967C49.6558 79.2144 50.6975 79.3453 51.7503 79.36C52.3017 76.5721 52.8156 74.0414 53.1195 72.7068C49.7734 71.5919 45.8459 70.4007 42.7011 69.5087C41.2453 69.0886 40.1321 70.8458 40.7253 71.9061Z" fill="#00B2FF"/>
        <path d="M62.7805 94.4409H57.5337L59.2291 96.7468C59.0128 97.2338 58.8866 97.7649 58.8866 98.3309C58.8866 100.481 60.6288 102.226 62.7805 102.226C64.9243 102.226 66.6655 100.481 66.6655 98.3309C66.6655 96.1832 64.9243 94.4409 62.7805 94.4409Z" fill="#00B2FF"/>
        <path d="M82.7487 123.451H79.2514C76.2361 123.451 73.7908 125.9 73.7908 128.913C73.7908 131.931 76.2364 134.38 79.2514 134.38H82.7487C85.764 134.38 88.2093 131.931 88.2093 128.913C88.2093 125.9 85.7637 123.451 82.7487 123.451Z" fill="#00B2FF"/>
        <path d="M95.3346 98.3313C95.3346 100.481 97.0758 102.226 99.2235 102.226C101.371 102.226 103.117 100.481 103.117 98.3313C103.117 97.7652 102.987 97.2339 102.767 96.7471L104.466 94.4413H99.2232C97.0758 94.441 95.3346 96.1833 95.3346 98.3313Z" fill="#00B2FF"/>
        <path d="M113.348 78.967C117.086 78.0279 119.31 75.4156 121.271 71.9061C121.868 70.8458 120.755 69.0886 119.299 69.5087C116.151 70.4007 112.227 71.5921 108.877 72.7068C109.181 74.0414 109.699 76.5721 110.246 79.36C111.303 79.3453 112.344 79.2144 113.348 78.967Z" fill="#00B2FF"/>
    </g>
    <g clip-path="url(#clip1_0_1)">
        <path d="M13.6343 37.2737C13.6304 37.2712 13.6304 37.2712 13.6304 37.2662L13.6268 37.2637L13.6343 37.2737Z" fill="#00B2FF"/>
        <path d="M48.6945 56.4373L48.766 56.4594C48.7624 56.4545 48.7588 56.4545 48.7549 56.452L48.6945 56.4373Z" fill="#00B2FF"/>
        <path d="M33.4059 51.235C33.3898 51.2278 33.3748 51.22 33.3565 51.2153L33.2725 51.1831L33.4059 51.235Z" fill="#00B2FF"/>
        <path d="M152 23.8412C152 21.3129 151.7 18.6759 151.125 15.9077L151.096 15.7619L150.928 15.2873H150.924C150.57 13.8712 149.779 12.6404 148.696 11.82C147.54 10.9303 146.111 10.4854 144.651 10.4854C144.148 10.4854 143.635 10.5373 143.126 10.6435C141.537 10.9721 140.175 11.8447 139.229 13.0259C138.278 14.1999 137.723 15.685 137.723 17.267C137.723 17.7194 137.769 18.1817 137.863 18.6412C138.282 20.6581 138.453 22.3707 138.453 23.8362C138.449 25.2944 138.293 26.4609 138.024 27.4569C137.753 28.4526 137.377 29.2907 136.871 30.1086C135.891 31.6856 134.324 33.1979 131.871 34.7105L131.852 34.723L131.841 34.7302C131.673 34.8365 131.492 34.9479 131.312 35.0539V29.9286C131.312 28.2132 130.609 26.6387 129.484 25.5216C128.363 24.3972 126.792 23.7003 125.084 23.7003C123.37 23.6978 121.796 24.3972 120.678 25.5216C119.553 26.6437 118.854 28.2182 118.854 29.9286V40.3456C116.465 41.171 113.915 42.0113 111.226 42.8786V38.7071C111.226 36.9942 110.526 35.4175 109.402 34.3003C108.28 33.176 106.709 32.4765 104.999 32.4765C103.288 32.4765 101.717 33.176 100.596 34.3003C99.4706 35.4175 98.7711 36.9942 98.7711 38.7071V48.4074C94.0607 51.4521 90.7561 55.0459 88.6877 58.5751C87.8399 60.0112 87.1973 61.4124 86.703 62.7297C84.6085 62.7297 82.5856 62.7297 81.0003 62.7297C79.415 62.7297 77.392 62.7297 75.2937 62.7297C74.7994 61.4124 74.1568 60.0112 73.3129 58.5751C71.2406 55.0459 67.9363 51.4524 63.2292 48.4074V38.7071C63.2292 36.9942 62.5261 35.4175 61.4004 34.3003C60.2785 33.176 58.7088 32.4765 57.0012 32.4765C55.2911 32.4765 53.7202 33.176 52.5983 34.3003C51.4737 35.4175 50.7695 36.9942 50.7695 38.7071V42.8789C48.0818 42.0116 45.5313 41.171 43.1426 40.3459V29.9289C43.1426 28.2185 42.447 26.644 41.3221 25.5219C40.2002 24.3975 38.6258 23.6981 36.9157 23.7005C35.2042 23.7005 33.6336 24.3975 32.5128 25.5219C31.3907 26.639 30.6876 28.2132 30.6876 29.9289V35.0544C30.5046 34.9432 30.3182 34.837 30.1476 34.7261L30.1293 34.7111C27.6796 33.1982 26.1126 31.693 25.1291 30.1138C24.6263 29.2935 24.2505 28.4528 23.9762 27.4572C23.7069 26.4562 23.551 25.2894 23.5435 23.8364C23.5435 22.371 23.718 20.6584 24.1318 18.6365C24.2269 18.182 24.2727 17.7196 24.2727 17.2673C24.2727 15.6856 23.718 14.1954 22.7711 13.0214C21.8246 11.8449 20.4592 10.9724 18.87 10.6415C18.3536 10.5375 17.8322 10.481 17.3155 10.481C15.8711 10.481 14.4486 10.9061 13.2885 11.7811C12.1217 12.6484 11.258 13.9833 10.9466 15.5303V15.5428L10.8711 15.9177L10.875 15.9077C10.3001 18.6759 10 21.3132 10 23.8412V23.9055C9.99613 28.8755 11.232 33.4525 13.6304 37.2663C15.4138 40.1257 17.7368 42.4762 20.3144 44.4065C24.1737 47.3003 28.6003 49.3665 33.3565 51.2153L33.4098 51.235C38.1845 53.076 43.3525 54.6951 48.7549 56.4521L48.766 56.4546V56.4596C52.755 57.7719 55.5418 59.3265 57.5448 60.886C58.7085 61.7979 59.6057 62.7073 60.3324 63.5973C59.3167 63.9778 58.2528 64.5017 57.2147 65.1812C53.8722 64.0718 49.9636 62.8656 46.428 61.8251C42.8541 60.7745 39.6786 59.8997 37.789 59.4599C37.071 59.2918 36.3482 59.2053 35.6341 59.2053C34.0102 59.2053 32.3789 59.6526 31.0828 60.7476C30.4402 61.2912 29.9003 62.0006 29.543 62.8138C29.1847 63.627 29.0105 64.5389 29.0105 65.4854C29.0141 67.0128 29.4479 68.6413 30.2957 70.4061C31.764 73.4385 33.4816 77.0099 36.0975 80.193C38.7023 83.3736 42.2909 86.1689 47.2301 87.3923C47.9295 87.5675 48.6143 87.6987 49.2913 87.8025C49.0281 89.1642 48.7885 90.4347 48.5868 91.5072C48.2757 93.1754 48.0557 94.3741 47.9717 94.8683C47.8616 95.5231 47.8122 96.1658 47.8122 96.7887C47.8122 98.998 48.4351 100.955 49.184 102.641C49.9375 104.327 50.8308 105.78 51.4812 106.993C51.507 107.043 51.5874 107.206 51.6862 107.423C52.0706 108.251 52.7736 109.902 53.6104 111.902C54.8645 114.909 56.4279 118.73 57.7736 122.007C58.4459 123.646 59.0624 125.149 59.5605 126.35C60.0583 127.553 60.4264 128.433 60.6441 128.908C61.0471 129.798 61.6858 131.068 62.2405 132.148C62.5408 132.741 62.8113 133.262 62.9968 133.619C62.9968 133.846 62.9968 134.061 62.9968 134.239C62.9968 134.36 62.9968 134.474 62.9968 134.577C62.9968 135.176 63.0661 135.934 63.26 136.822C63.5604 138.136 64.13 139.725 65.3817 141.112C66.0046 141.802 66.8067 142.422 67.7765 142.852C68.7467 143.285 69.871 143.519 71.0919 143.519C76.1867 143.519 81 143.519 81 143.519C81.0036 143.519 82.2012 143.519 84.0411 143.519C85.8824 143.519 88.3613 143.519 90.9042 143.519C92.5353 143.527 93.9911 143.094 95.1365 142.363C95.9952 141.819 96.6724 141.127 97.1891 140.41C97.9651 139.323 98.3978 138.173 98.6571 137.155C98.9153 136.132 98.9993 135.247 99.0032 134.577C99.0032 134.474 99.0032 134.36 99.0032 134.239C99.0032 134.061 99.0032 133.846 99.0032 133.619C99.1849 133.263 99.4556 132.741 99.7595 132.148C100.311 131.068 100.949 129.798 101.356 128.908C101.512 128.567 101.74 128.03 102.04 127.306C103.093 124.795 105.006 120.099 106.77 115.814C107.652 113.674 108.496 111.635 109.173 110.036C109.511 109.235 109.808 108.543 110.048 108.012C110.279 107.488 110.466 107.087 110.519 106.994C111.169 105.78 112.059 104.327 112.816 102.641C113.569 100.956 114.188 98.9983 114.188 96.7889C114.188 96.1613 114.138 95.5234 114.028 94.8686C113.948 94.3744 113.724 93.1732 113.413 91.5075C113.212 90.435 112.972 89.1645 112.709 87.8027C113.382 87.699 114.07 87.5678 114.77 87.3925C119.706 86.1692 123.298 83.3738 125.903 80.1933C128.515 77.0099 130.236 73.4385 131.704 70.4063C132.552 68.6416 132.986 67.013 132.989 65.4907C132.989 64.5391 132.815 63.6319 132.457 62.8166C131.921 61.5882 130.974 60.6266 129.887 60.0459C128.799 59.4551 127.587 59.2055 126.366 59.2055C125.648 59.2055 124.925 59.2921 124.207 59.4601C122.316 59.9 119.146 60.7747 115.572 61.8253C112.036 62.8631 108.131 64.0718 104.794 65.1815C103.752 64.497 102.676 63.9828 101.664 63.5998C102.39 62.7103 103.287 61.7981 104.455 60.8862C106.458 59.3267 109.241 57.7722 113.23 56.4598C118.636 54.6951 123.808 53.0762 128.586 51.2352H128.594C133.366 49.3817 137.81 47.313 141.685 44.4068C144.259 42.4764 146.586 40.126 148.365 37.2665C150.753 33.475 152 28.9177 152 23.9674V23.8412ZM60.1915 57.4927C57.7461 55.5895 54.492 53.8101 50.1078 52.369H50.1039C44.678 50.6046 39.5757 49.0007 34.9873 47.2309L34.9598 47.221C30.3518 45.4365 26.2765 43.5062 22.9004 40.9657C20.6564 39.285 18.7286 37.3154 17.2803 34.9898L17.2731 34.9773C15.3489 31.9177 14.3033 28.1708 14.3033 23.9052V23.8459V23.8409C14.3033 21.656 14.5618 19.3058 15.0868 16.7797V16.765L15.1622 16.3967C15.2881 15.8232 15.5277 15.487 15.8739 15.2202C16.22 14.9584 16.7056 14.7853 17.315 14.7853C17.5277 14.7853 17.7598 14.805 17.9994 14.8569C18.5877 14.9778 19.0708 15.2895 19.4205 15.7241C19.7703 16.1568 19.9719 16.7004 19.9719 17.2664C19.9719 17.4295 19.9536 17.5976 19.9187 17.7684C19.4516 20.0271 19.2389 22.0365 19.2389 23.8406V23.8456C19.2464 25.6103 19.4402 27.1671 19.8235 28.5785C20.2004 29.9899 20.7715 31.2404 21.4632 32.3648L21.4743 32.3847L21.4707 32.377C22.8918 34.6656 25.0171 36.6156 27.8457 38.3604C27.8507 38.3654 27.8543 38.3676 27.8582 38.3676C27.8621 38.3676 27.8654 38.3726 27.8654 38.3726C29.1123 39.1583 30.478 39.8653 31.9113 40.5522L34.9909 42.0177V29.9286C34.9909 28.8608 35.8496 28.0058 36.9148 28.0058C37.4623 28.0058 37.9255 28.2182 38.2791 28.5643C38.6288 28.9177 38.8377 29.3822 38.8377 29.9289V43.403L40.2746 43.9098C43.7583 45.1378 47.5715 46.3687 51.6174 47.6739L51.6013 47.6689C51.7003 47.701 51.8944 47.7851 52.2403 47.9013L55.0725 48.8479V38.7071C55.0764 37.6393 55.9362 36.7792 57.0001 36.7792C57.5364 36.7842 58.0049 36.9942 58.3618 37.3425C58.7116 37.7009 58.9243 38.1635 58.9243 38.7071V50.8023L59.966 51.4252C64.6692 54.2552 67.761 57.6164 69.6009 60.7523C69.9964 61.4246 70.3264 62.0869 70.6279 62.7297C68.2813 62.7297 66.2248 62.7297 65.0114 62.7297C63.9284 61.0418 62.3997 59.2127 60.1915 57.4927ZM103.136 69.2839L104.139 70.0896L105.326 69.5829C105.607 69.4617 105.839 69.3677 106.059 69.2961C109.353 68.1962 113.261 66.9931 116.786 65.9547C120.306 64.9191 123.466 64.0493 125.184 63.6489H125.188C125.603 63.5551 126.002 63.508 126.366 63.508C127.207 63.5055 127.807 63.7454 128.131 64.0272C128.298 64.1703 128.416 64.3261 128.515 64.5436C128.61 64.7635 128.686 65.06 128.686 65.4902C128.69 66.1699 128.477 67.2003 127.831 68.5398C126.379 71.5551 124.777 74.7925 122.577 77.462C121.482 78.7915 120.242 79.9877 118.796 80.9662C117.348 81.9499 115.698 82.7235 113.725 83.218C112.462 83.5341 111.235 83.6972 110.036 83.7665L107.581 83.9024L108.044 86.3198C108.474 88.5488 108.873 90.6472 109.185 92.3007C109.492 93.9514 109.717 95.1723 109.785 95.5753C109.855 95.9855 109.884 96.3885 109.884 96.7889C109.884 98.1754 109.492 99.5272 108.884 100.891C108.28 102.251 107.467 103.595 106.729 104.959C106.627 105.153 106.528 105.357 106.406 105.617C105.965 106.571 105.265 108.222 104.421 110.244C103.154 113.271 101.589 117.1 100.247 120.372C99.5732 122.013 98.9613 123.513 98.4671 124.699C97.9765 125.886 97.596 126.78 97.4404 127.126C97.0982 127.875 96.4666 129.141 95.9267 130.189C95.661 130.715 95.4138 131.19 95.2358 131.535C95.0566 131.879 94.9465 132.091 94.9429 132.091L94.6994 132.561V133.09C94.6994 133.554 94.6994 133.93 94.6994 134.239C94.6994 134.36 94.6994 134.474 94.6994 134.578C94.6994 134.83 94.6611 135.339 94.5349 135.885C94.3569 136.723 93.9764 137.635 93.4328 138.221C93.1635 138.518 92.8595 138.75 92.4715 138.92C92.0835 139.096 91.5929 139.216 90.9045 139.216C88.3613 139.216 85.8824 139.216 84.0414 139.216C82.2015 139.216 81.0039 139.216 81.0003 139.216C81.0003 139.216 76.1873 139.216 71.0922 139.216C70.1753 139.212 69.6128 139.006 69.168 138.73C68.8293 138.517 68.5525 138.243 68.3093 137.899C67.9399 137.395 67.6703 136.73 67.5111 136.097C67.3467 135.467 67.2973 134.859 67.3009 134.578C67.3009 134.474 67.3009 134.36 67.3009 134.239C67.3009 133.93 67.3009 133.554 67.3009 133.09V132.561L67.0538 132.091C67.0538 132.091 66.9437 131.878 66.7645 131.535C66.4952 131.019 66.0775 130.206 65.6549 129.372C65.2372 128.542 64.8145 127.684 64.5599 127.126C64.4501 126.881 64.2213 126.352 63.9284 125.65C62.8903 123.172 60.9786 118.468 59.2066 114.175C58.3244 112.028 57.4765 109.981 56.7882 108.358C56.4423 107.544 56.1384 106.838 55.8874 106.267C55.6328 105.696 55.4464 105.29 55.2672 104.959C54.5331 103.595 53.7199 102.251 53.1159 100.891C52.5077 99.5269 52.1163 98.1798 52.1163 96.7887C52.1163 96.3932 52.146 95.9905 52.2151 95.575C52.2833 95.172 52.5079 93.9464 52.8158 92.3004C53.1272 90.6469 53.5263 88.5485 53.9562 86.3195L54.4197 83.9022L51.9643 83.7663C50.7657 83.6969 49.5387 83.5339 48.2757 83.2177C46.3021 82.7235 44.6488 81.9497 43.2042 80.9659C41.0403 79.5004 39.3252 77.5457 37.8769 75.3633C36.4325 73.1884 35.261 70.8007 34.1733 68.5346C33.5235 67.195 33.3108 66.1696 33.3146 65.4849C33.3146 65.0597 33.3898 64.7632 33.4816 64.5433C33.6297 64.2243 33.8202 64.0216 34.1622 63.8291C34.5008 63.6411 35.0062 63.5077 35.6341 63.5077C35.9946 63.5077 36.394 63.5548 36.8128 63.6486C38.5304 64.0491 41.6901 64.9188 45.2107 65.9544C48.7352 66.9925 52.6474 68.1959 55.937 69.2959C56.1569 69.3674 56.393 69.4614 56.6747 69.5826L57.8612 70.0893L58.8647 69.2837C59.7999 68.5348 60.9591 67.9419 62.0045 67.5611C62.5259 67.3708 63.0165 67.2349 63.4195 67.1459C63.815 67.0594 64.1422 67.0297 64.2448 67.0322C66.2825 67.0322 75.9052 67.0322 81 67.0322C86.0948 67.0322 95.7175 67.0322 97.7552 67.0322C97.8578 67.0297 98.1815 67.0594 98.5806 67.1459C99.8017 67.3983 101.74 68.1543 103.136 69.2839ZM147.696 23.8462V23.9674C147.692 28.206 146.643 31.9279 144.723 34.9779L144.716 34.9904C143.271 37.3159 141.339 39.2856 139.099 40.9663C135.719 43.507 131.644 45.4371 127.04 47.2215H127.044C122.443 48.9937 117.333 50.5973 111.896 52.3693H111.889C107.508 53.8104 104.251 55.5898 101.809 57.4929C99.5967 59.213 98.0719 61.0418 96.9883 62.73C95.7711 62.73 93.7148 62.73 91.3718 62.73C91.6686 62.0874 92.0033 61.4251 92.395 60.7526C94.2387 57.6164 97.3306 54.2552 102.03 51.4255L103.075 50.8026V38.7071C103.075 38.1635 103.284 37.7011 103.638 37.3425C103.991 36.9942 104.459 36.784 104.999 36.7792C106.063 36.7792 106.923 37.6393 106.923 38.7071V48.8473L109.759 47.9007C110.091 47.787 110.272 47.708 110.378 47.6758L110.382 47.6736C114.428 46.3684 118.241 45.1378 121.725 43.9095L123.157 43.4028V29.9286C123.157 29.3822 123.371 28.9174 123.721 28.564C124.074 28.2182 124.538 28.0055 125.085 28.0055C126.146 28.0055 127.005 28.8605 127.009 29.9283V42.0185L130.085 40.5531C131.514 39.8711 132.887 39.1641 134.13 38.3734V38.3781C134.137 38.3734 134.141 38.3681 134.145 38.3659C134.149 38.3609 134.154 38.3609 134.157 38.3584C136.982 36.6137 139.104 34.6662 140.529 32.3775L140.533 32.3728C141.233 31.2457 141.803 29.9854 142.18 28.5765C142.559 27.1654 142.753 25.6056 142.757 23.8462V23.8412C142.757 22.037 142.544 20.0277 142.081 17.769C142.043 17.5934 142.028 17.4304 142.028 17.267C142.028 16.7012 142.225 16.1574 142.575 15.7247C142.929 15.2898 143.412 14.9784 144 14.8574L144.005 14.8524C144.228 14.8081 144.441 14.7881 144.651 14.7881C145.248 14.7881 145.726 14.9637 146.076 15.2305C146.418 15.5025 146.665 15.8534 146.791 16.4341L146.821 16.5875L146.936 16.9062C147.441 19.3829 147.696 21.6934 147.696 23.8412V23.8462Z" fill="#00B2FF"/>
        <path d="M148.373 37.2637C148.37 37.2662 148.37 37.2662 148.366 37.2662C148.366 37.2712 148.366 37.2712 148.366 37.2712L148.373 37.2637Z" fill="#00B2FF"/>
        <path d="M40.7253 71.9061C42.69 75.4156 44.9146 78.0279 48.6563 78.967C49.6558 79.2144 50.6975 79.3453 51.7503 79.36C52.3017 76.5721 52.8156 74.0414 53.1195 72.7068C49.7734 71.5919 45.8459 70.4007 42.7011 69.5087C41.2453 69.0886 40.1321 70.8458 40.7253 71.9061Z" fill="#00B2FF"/>
        <path d="M62.7805 94.4409H57.5337L59.2291 96.7468C59.0128 97.2338 58.8866 97.7649 58.8866 98.3309C58.8866 100.481 60.6288 102.226 62.7805 102.226C64.9243 102.226 66.6655 100.481 66.6655 98.3309C66.6655 96.1832 64.9243 94.4409 62.7805 94.4409Z" fill="#00B2FF"/>
        <path d="M82.7487 123.451H79.2514C76.2361 123.451 73.7908 125.9 73.7908 128.913C73.7908 131.931 76.2364 134.38 79.2514 134.38H82.7487C85.764 134.38 88.2093 131.931 88.2093 128.913C88.2093 125.9 85.7637 123.451 82.7487 123.451Z" fill="#00B2FF"/>
        <path d="M95.3346 98.3313C95.3346 100.481 97.0758 102.226 99.2235 102.226C101.371 102.226 103.117 100.481 103.117 98.3313C103.117 97.7652 102.987 97.2339 102.767 96.7471L104.466 94.4413H99.2232C97.0758 94.441 95.3346 96.1833 95.3346 98.3313Z" fill="#00B2FF"/>
        <path d="M113.348 78.967C117.086 78.0279 119.31 75.4156 121.271 71.9061C121.868 70.8458 120.755 69.0886 119.299 69.5087C116.151 70.4007 112.227 71.5921 108.877 72.7068C109.181 74.0414 109.699 76.5721 110.246 79.36C111.303 79.3453 112.344 79.2144 113.348 78.967Z" fill="#00B2FF"/>
    </g>
    <defs>
        <filter id="filter0_f_0_1" x="0" y="-4" width="162" height="162" filterUnits="userSpaceOnUse" color-interpolation-filters="sRGB">
            <feFlood flood-opacity="0" result="BackgroundImageFix"/>
            <feBlend mode="normal" in="SourceGraphic" in2="BackgroundImageFix" result="shape"/>
            <feGaussianBlur stdDeviation="5" result="effect1_foregroundBlur_0_1"/>
        </filter>
        <clipPath id="clip0_0_1">
            <rect width="142" height="142" fill="white" transform="translate(10 6)"/>
        </clipPath>
        <clipPath id="clip1_0_1">
            <rect width="142" height="142" fill="white" transform="translate(10 6)"/>
        </clipPath>
    </defs>
</svg>
