<svg width="146" height="157" viewBox="0 0 146 157" fill="none" xmlns="http://www.w3.org/2000/svg">
    <path fill-rule="evenodd" clip-rule="evenodd" d="M20.6642 10.9875C32.2925 12.8125 44.4561 18.2972 53.6292 25.685C59.71 23.78 66.2301 22.7498 73 22.7498C79.8154 22.7498 86.3775 23.7939 92.493 25.7232C101.885 18.4598 113.486 12.7709 125.276 10.996C127.786 10.6264 130.396 11.8951 131.542 14.1871C136.142 25.0551 136.298 38.0144 133.469 49.3306L133.426 49.5061C132.668 52.5427 131.688 56.4673 128.543 57.7876C130.881 63.5346 132.167 69.7675 132.167 76.3113C132.167 92.7147 125.432 109.591 119.394 124.723L118.783 126.254C115.116 135.454 106.912 141.791 97.4062 143.557L83.9748 146.052C79.8331 146.821 75.6991 145.327 73 142.315C70.3008 145.327 66.1674 146.821 62.0257 146.052L48.5941 143.557C39.0887 141.791 30.8845 135.454 27.2176 126.254L26.6068 124.723C20.5684 109.591 13.8335 92.7147 13.8335 76.3113C13.8335 69.7675 15.1194 63.5346 17.4572 57.7876C14.3093 56.466 13.355 52.6366 12.5961 49.5916L12.531 49.3306C9.82835 38.5196 9.30887 24.5062 14.4581 14.1871C15.598 11.9073 18.1469 10.5964 20.6642 10.9875ZM40.9599 31.2732C34.2763 35.1791 28.4755 40.2942 23.9729 46.3063C22.2096 39.1074 22.1897 31.1017 23.7435 23.8597C29.7398 25.5918 35.6077 28.0477 40.9599 31.2732ZM122.027 46.3063C117.554 40.3335 111.8 35.2458 105.171 31.3498C110.49 28.0781 116.217 25.4569 122.24 23.7829C123.815 31.0452 123.796 39.0841 122.027 46.3063ZM54.384 37.9379C60.0826 35.7837 66.3715 34.5832 73 34.5832C79.629 34.5832 85.9178 35.7837 91.6161 37.9379C108.828 44.4442 120.333 59.4228 120.333 76.3113C120.333 90.6001 114.352 105.51 109.011 118.825C108.599 119.85 108.191 120.867 107.791 121.873C105.714 127.083 100.992 130.855 95.2448 131.922L81.8134 134.417L78.396 126.822C77.4404 124.698 75.3282 123.333 73 123.333C70.6717 123.333 68.5601 124.698 67.6045 126.822L64.1865 134.417L50.7552 131.922C45.0087 130.855 40.2867 127.083 38.21 121.873C37.8098 120.869 37.4027 119.854 36.9919 118.83C31.6504 105.515 25.6669 90.6001 25.6669 76.3113C25.6669 59.4228 37.1729 44.4442 54.384 37.9379ZM64.125 99.6662C61.8837 99.6662 59.8352 100.932 58.8329 102.937C57.8307 104.942 58.047 107.34 59.3916 109.133L68.2666 120.966C69.3843 122.456 71.1374 123.333 73 123.333C74.8625 123.333 76.6156 122.456 77.7333 120.966L86.6083 109.133C87.9531 107.34 88.1691 104.942 87.1668 102.937C86.1645 100.932 84.1162 99.6662 81.875 99.6662H64.125ZM58.9262 70.8006C58.9262 75.7025 54.9528 79.6756 50.0512 79.6756C45.1497 79.6756 41.1762 75.7025 41.1762 70.8006C41.1762 65.8992 45.1497 61.9259 50.0512 61.9259C54.9528 61.9259 58.9262 65.8992 58.9262 70.8006ZM96.6666 78.9579C101.568 78.9579 105.542 74.9848 105.542 70.0829C105.542 65.1815 101.568 61.2081 96.6666 61.2081C91.7653 61.2081 87.7916 65.1815 87.7916 70.0829C87.7916 74.9848 91.7653 78.9579 96.6666 78.9579Z" fill="#00B2FF"/>
    <g filter="url(#filter0_f_0_1)">
        <path fill-rule="evenodd" clip-rule="evenodd" d="M20.6642 10.9875C32.2925 12.8125 44.4561 18.2972 53.6292 25.685C59.71 23.78 66.2301 22.7498 73 22.7498C79.8154 22.7498 86.3775 23.7939 92.493 25.7232C101.885 18.4598 113.486 12.7709 125.276 10.996C127.786 10.6264 130.396 11.8951 131.542 14.1871C136.142 25.0551 136.298 38.0144 133.469 49.3306L133.426 49.5061C132.668 52.5427 131.688 56.4673 128.543 57.7876C130.881 63.5346 132.167 69.7675 132.167 76.3113C132.167 92.7147 125.432 109.591 119.394 124.723L118.783 126.254C115.116 135.454 106.912 141.791 97.4062 143.557L83.9748 146.052C79.8331 146.821 75.6991 145.327 73 142.315C70.3008 145.327 66.1674 146.821 62.0257 146.052L48.5941 143.557C39.0887 141.791 30.8845 135.454 27.2176 126.254L26.6068 124.723C20.5684 109.591 13.8335 92.7147 13.8335 76.3113C13.8335 69.7675 15.1194 63.5346 17.4572 57.7876C14.3093 56.466 13.355 52.6366 12.5961 49.5916L12.531 49.3306C9.82835 38.5196 9.30887 24.5062 14.4581 14.1871C15.598 11.9073 18.1469 10.5964 20.6642 10.9875ZM40.9599 31.2732C34.2763 35.1791 28.4755 40.2942 23.9729 46.3063C22.2096 39.1074 22.1897 31.1017 23.7435 23.8597C29.7398 25.5918 35.6077 28.0477 40.9599 31.2732ZM122.027 46.3063C117.554 40.3335 111.8 35.2458 105.171 31.3498C110.49 28.0781 116.217 25.4569 122.24 23.7829C123.815 31.0452 123.796 39.0841 122.027 46.3063ZM54.384 37.9379C60.0826 35.7837 66.3715 34.5832 73 34.5832C79.629 34.5832 85.9178 35.7837 91.6161 37.9379C108.828 44.4442 120.333 59.4228 120.333 76.3113C120.333 90.6001 114.352 105.51 109.011 118.825C108.599 119.85 108.191 120.867 107.791 121.873C105.714 127.083 100.992 130.855 95.2448 131.922L81.8134 134.417L78.396 126.822C77.4404 124.698 75.3282 123.333 73 123.333C70.6717 123.333 68.5601 124.698 67.6045 126.822L64.1865 134.417L50.7552 131.922C45.0087 130.855 40.2867 127.083 38.21 121.873C37.8098 120.869 37.4027 119.854 36.9919 118.83C31.6504 105.515 25.6669 90.6001 25.6669 76.3113C25.6669 59.4228 37.1729 44.4442 54.384 37.9379ZM64.125 99.6662C61.8837 99.6662 59.8352 100.932 58.8329 102.937C57.8307 104.942 58.047 107.34 59.3916 109.133L68.2666 120.966C69.3843 122.456 71.1374 123.333 73 123.333C74.8625 123.333 76.6156 122.456 77.7333 120.966L86.6083 109.133C87.9531 107.34 88.1691 104.942 87.1668 102.937C86.1645 100.932 84.1162 99.6662 81.875 99.6662H64.125ZM58.9262 70.8006C58.9262 75.7025 54.9528 79.6756 50.0512 79.6756C45.1497 79.6756 41.1762 75.7025 41.1762 70.8006C41.1762 65.8992 45.1497 61.9259 50.0512 61.9259C54.9528 61.9259 58.9262 65.8992 58.9262 70.8006ZM96.6666 78.9579C101.568 78.9579 105.542 74.9848 105.542 70.0829C105.542 65.1815 101.568 61.2081 96.6666 61.2081C91.7653 61.2081 87.7916 65.1815 87.7916 70.0829C87.7916 74.9848 91.7653 78.9579 96.6666 78.9579Z" fill="#00B2FF"/>
    </g>
    <defs>
        <filter id="filter0_f_0_1" x="-8" y="-5" width="162" height="162" filterUnits="userSpaceOnUse" color-interpolation-filters="sRGB">
            <feFlood flood-opacity="0" result="BackgroundImageFix"/>
            <feBlend mode="normal" in="SourceGraphic" in2="BackgroundImageFix" result="shape"/>
            <feGaussianBlur stdDeviation="5" result="effect1_foregroundBlur_0_1"/>
        </filter>
    </defs>
</svg>
