<svg width="143" height="163" viewBox="0 0 143 163" fill="none" xmlns="http://www.w3.org/2000/svg">
    <path d="M109.488 10.4605C105.27 8.79286 100.265 11.6623 94.615 18.9872C89.8433 25.173 85.0885 33.9675 81.2261 43.7513C79.142 49.0353 77.4171 54.3894 76.1686 59.4058C74.6749 59.2472 73.1142 59.1662 71.5002 59.1662C69.8859 59.1662 68.3254 59.2475 66.8323 59.4058C65.5847 54.3919 63.8592 49.0375 61.7737 43.7501C57.9116 33.9672 53.1568 25.173 48.3851 18.9869C42.7343 11.6618 37.7302 8.79342 33.5137 10.4597C29.2932 12.1243 27.5968 17.6379 28.4712 26.8474C29.2103 34.6261 31.7438 44.2973 35.605 54.0785C38.5212 61.4734 41.9378 68.286 45.5371 73.9038C42.1718 81.6353 41.8311 92.3106 44.5311 105.678C46.0211 113.057 47.9184 119.375 50.1723 124.48C50.1159 125.114 50.0857 125.76 50.0857 126.411C50.0857 129.67 50.8049 132.57 52.219 135.049C52.4513 140.69 54.4525 145.306 58.042 148.433C61.2238 151.205 65.597 152.766 70.7196 152.973C70.8444 152.989 70.9706 153 71.0997 153C71.236 153 71.372 153 71.5055 152.997H71.527C71.5329 152.997 71.5393 152.997 71.5454 152.997C71.663 152.999 71.7812 153 71.9004 153C72.0295 153 72.156 152.989 72.2805 152.973C77.4034 152.765 81.7761 151.205 84.957 148.434C88.5454 145.308 90.5471 140.691 90.7808 135.049C92.1952 132.569 92.9141 129.668 92.9141 126.411C92.9141 125.76 92.8839 125.114 92.8275 124.48C95.0815 119.374 96.9787 113.056 98.4688 105.678C101.168 92.3114 100.828 81.6367 97.4622 73.9038C101.061 68.2866 104.478 61.474 107.394 54.0796C111.256 44.2976 113.789 34.6266 114.528 26.8474C115.403 17.6379 113.707 12.1243 109.488 10.4605ZM41.1664 51.8841C37.5051 42.6098 35.1104 33.5176 34.423 26.2824C33.6818 18.4758 35.2472 16.2026 35.7089 16.0205C36.167 15.8409 38.8619 16.4299 43.6516 22.6393C48.0901 28.393 52.5511 36.6705 56.2123 45.9454C58.1604 50.8848 59.7742 55.871 60.9523 60.5426C59.8762 60.8556 58.8419 61.2201 57.8543 61.6391C56.5805 57.303 54.7594 52.0709 52.6505 46.7255C47.6678 34.1013 43.0706 25.857 40.7248 23.2872C39.6121 22.0675 37.7218 21.9821 36.5018 23.0945C35.2824 24.2075 35.1961 26.0981 36.3094 27.3175C37.414 28.5277 41.5038 34.7677 47.0894 48.9199C49.3791 54.7234 51.3099 60.3554 52.5254 64.7448C51.235 65.7506 50.067 66.8935 49.023 68.1637C46.1982 63.3903 43.5178 57.8476 41.1664 51.8841ZM71.5063 147.018C67.4188 146.95 62.7962 145.861 60.2077 141.912C63.1973 143.204 66.7633 143.934 70.781 144.048C70.8857 144.059 70.9919 144.065 71.0994 144.065C71.2173 144.065 71.3351 144.065 71.4533 144.062H71.5865C71.5938 144.062 71.6005 144.062 71.6077 144.062C71.7052 144.063 71.8029 144.065 71.9004 144.065C72.0079 144.065 72.1141 144.059 72.2188 144.048C76.2357 143.934 79.8012 143.204 82.7902 141.913C80.2042 145.857 75.5891 146.948 71.5063 147.018ZM85.3125 132.544C83.0457 136.026 78.1642 137.993 71.5664 138.084H71.4432C64.8448 137.995 59.9625 136.03 57.6918 132.549C57.684 132.537 57.6773 132.524 57.6692 132.512C56.6048 130.865 56.064 128.813 56.064 126.411C56.064 125.719 56.1076 125.04 56.1934 124.391C56.1961 124.373 56.1984 124.353 56.2006 124.334C57.2025 116.672 63.7668 110.775 71.5002 110.585C79.2328 110.775 85.7971 116.671 86.7998 124.332C86.8017 124.352 86.8045 124.372 86.807 124.391C86.893 125.039 86.9363 125.718 86.9363 126.41C86.9361 128.827 86.3903 130.889 85.3125 132.544ZM92.6088 104.494C91.8103 108.448 90.8948 112.059 89.8726 115.307C88.7615 113.431 87.3692 111.714 85.7256 110.228C82.0375 106.893 77.3255 104.928 72.3783 104.64C72.2222 104.615 72.0635 104.598 71.9004 104.598H71.0994C70.9363 104.598 70.7774 104.615 70.6215 104.64C65.6746 104.929 60.9623 106.894 57.2745 110.228C55.6309 111.714 54.2386 113.431 53.1275 115.307C52.1053 112.059 51.1898 108.448 50.3913 104.494C47.7776 91.5525 48.1848 81.6501 51.6006 75.0629C51.6031 75.0581 51.6054 75.0534 51.6081 75.0484C53.0415 72.2959 55.0373 70.0987 57.5432 68.5162C59.6524 67.1809 62.1935 66.2307 65.0979 65.6919C67.0465 65.3289 69.2005 65.1445 71.5002 65.1445C73.7996 65.1445 75.9538 65.3286 77.9045 65.6922C80.8055 66.2304 83.3471 67.1803 85.458 68.5137C87.9633 70.0981 89.9603 72.297 91.3919 75.0478C91.3922 75.0484 91.3925 75.0489 91.3928 75.0495C91.3947 75.0534 91.3964 75.0573 91.3984 75.0609C94.8153 81.6501 95.2228 91.5525 92.6088 104.494ZM108.577 26.2821C107.89 33.5176 105.495 42.6098 101.833 51.8849C99.4818 57.8476 96.8016 63.3903 93.9768 68.1629C92.9331 66.8926 91.7648 65.7495 90.4742 64.7423C91.69 60.3512 93.621 54.7198 95.9104 48.9196C98.0286 43.5532 100.235 38.598 102.292 34.5892C103.045 33.1204 102.465 31.3187 100.997 30.5651C99.5276 29.8116 97.7261 30.3914 96.9726 31.8602C94.798 36.0994 92.5695 41.1005 90.3496 46.7249C88.2406 52.0684 86.4194 57.3005 85.1452 61.6377C84.1576 61.219 83.1237 60.8545 82.0484 60.5423C83.227 55.8682 84.8405 50.882 86.7875 45.9457C90.4493 36.6703 94.9102 28.3925 99.3488 22.6387C104.138 16.4294 106.833 15.8381 107.293 16.021C107.753 16.2023 109.319 18.4755 108.577 26.2821Z" fill="#00B2FF"/>
    <path d="M106.498 23.0935C105.278 21.981 103.388 22.0673 102.275 23.2865C101.964 23.6272 101.635 24.0372 101.27 24.5402C100.301 25.8764 100.598 27.7457 101.935 28.7152C102.465 29.0995 103.079 29.2849 103.687 29.2849C104.612 29.2849 105.525 28.8565 106.109 28.0507C106.395 27.6577 106.583 27.4343 106.691 27.3164C107.804 26.0973 107.717 24.2068 106.498 23.0935Z" fill="#00B2FF"/>
    <path d="M58.8257 85.4233C54.293 85.4233 50.6055 89.1095 50.6055 93.6405C50.6055 95.2912 51.9439 96.6298 53.5948 96.6298C55.2457 96.6298 56.5841 95.2912 56.5841 93.6405C56.5841 92.406 57.5896 91.4017 58.826 91.4017C60.0605 91.4017 61.0648 92.406 61.0648 93.6405C61.0648 95.2912 62.4032 96.6298 64.0541 96.6298C65.7051 96.6298 67.0435 95.2912 67.0435 93.6405C67.0432 89.1095 63.3567 85.4233 58.8257 85.4233Z" fill="#00B2FF"/>
    <path d="M68.7242 128.059L66.1086 123.701C65.259 122.285 63.4226 121.826 62.0074 122.676C60.592 123.526 60.1331 125.362 60.9827 126.777L63.5983 131.135C64.1588 132.07 65.1487 132.587 66.1639 132.587C66.6873 132.587 67.218 132.449 67.6995 132.16C69.115 131.311 69.5738 129.474 68.7242 128.059Z" fill="#00B2FF"/>
    <path d="M84.1741 85.4233C79.6431 85.4233 75.9569 89.1095 75.9569 93.6405C75.9569 95.2912 77.2953 96.6298 78.9462 96.6298C80.5971 96.6298 81.9355 95.2912 81.9355 93.6405C81.9355 92.406 82.9399 91.4017 84.1744 91.4017C85.4108 91.4017 86.4163 92.406 86.4163 93.6405C86.4163 95.2912 87.7547 96.6298 89.4056 96.6298C91.0565 96.6298 92.3949 95.2912 92.3949 93.6405C92.3943 89.1095 88.7068 85.4233 84.1741 85.4233Z" fill="#00B2FF"/>
    <path d="M80.9923 122.676C79.5769 121.827 77.7408 122.285 76.8911 123.701L74.2755 128.06C73.4256 129.475 73.8848 131.311 75.3003 132.161C75.7818 132.45 76.3122 132.587 76.8358 132.587C77.8511 132.587 78.8409 132.07 79.4015 131.136L82.0171 126.778C82.8667 125.362 82.4078 123.526 80.9923 122.676Z" fill="#00B2FF"/>
    <g filter="url(#filter0_f_0_1)">
        <path d="M109.488 10.4605C105.27 8.79286 100.265 11.6623 94.615 18.9872C89.8433 25.173 85.0885 33.9675 81.2261 43.7513C79.142 49.0353 77.4171 54.3894 76.1686 59.4058C74.6749 59.2472 73.1142 59.1662 71.5002 59.1662C69.8859 59.1662 68.3254 59.2475 66.8323 59.4058C65.5847 54.3919 63.8592 49.0375 61.7737 43.7501C57.9116 33.9672 53.1568 25.173 48.3851 18.9869C42.7343 11.6618 37.7302 8.79342 33.5137 10.4597C29.2932 12.1243 27.5968 17.6379 28.4712 26.8474C29.2103 34.6261 31.7438 44.2973 35.605 54.0785C38.5212 61.4734 41.9378 68.286 45.5371 73.9038C42.1718 81.6353 41.8311 92.3106 44.5311 105.678C46.0211 113.057 47.9184 119.375 50.1723 124.48C50.1159 125.114 50.0857 125.76 50.0857 126.411C50.0857 129.67 50.8049 132.57 52.219 135.049C52.4513 140.69 54.4525 145.306 58.042 148.433C61.2238 151.205 65.597 152.766 70.7196 152.973C70.8444 152.989 70.9706 153 71.0997 153C71.236 153 71.372 153 71.5055 152.997H71.527C71.5329 152.997 71.5393 152.997 71.5454 152.997C71.663 152.999 71.7812 153 71.9004 153C72.0295 153 72.156 152.989 72.2805 152.973C77.4034 152.765 81.7761 151.205 84.957 148.434C88.5454 145.308 90.5471 140.691 90.7808 135.049C92.1952 132.569 92.9141 129.668 92.9141 126.411C92.9141 125.76 92.8839 125.114 92.8275 124.48C95.0815 119.374 96.9787 113.056 98.4688 105.678C101.168 92.3114 100.828 81.6367 97.4622 73.9038C101.061 68.2866 104.478 61.474 107.394 54.0796C111.256 44.2976 113.789 34.6266 114.528 26.8474C115.403 17.6379 113.707 12.1243 109.488 10.4605ZM41.1664 51.8841C37.5051 42.6098 35.1104 33.5176 34.423 26.2824C33.6818 18.4758 35.2472 16.2026 35.7089 16.0205C36.167 15.8409 38.8619 16.4299 43.6516 22.6393C48.0901 28.393 52.5511 36.6705 56.2123 45.9454C58.1604 50.8848 59.7742 55.871 60.9523 60.5426C59.8762 60.8556 58.8419 61.2201 57.8543 61.6391C56.5805 57.303 54.7594 52.0709 52.6505 46.7255C47.6678 34.1013 43.0706 25.857 40.7248 23.2872C39.6121 22.0675 37.7218 21.9821 36.5018 23.0945C35.2824 24.2075 35.1961 26.0981 36.3094 27.3175C37.414 28.5277 41.5038 34.7677 47.0894 48.9199C49.3791 54.7234 51.3099 60.3554 52.5254 64.7448C51.235 65.7506 50.067 66.8935 49.023 68.1637C46.1982 63.3903 43.5178 57.8476 41.1664 51.8841ZM71.5063 147.018C67.4188 146.95 62.7962 145.861 60.2077 141.912C63.1973 143.204 66.7633 143.934 70.781 144.048C70.8857 144.059 70.9919 144.065 71.0994 144.065C71.2173 144.065 71.3351 144.065 71.4533 144.062H71.5865C71.5938 144.062 71.6005 144.062 71.6077 144.062C71.7052 144.063 71.8029 144.065 71.9004 144.065C72.0079 144.065 72.1141 144.059 72.2188 144.048C76.2357 143.934 79.8012 143.204 82.7902 141.913C80.2042 145.857 75.5891 146.948 71.5063 147.018ZM85.3125 132.544C83.0457 136.026 78.1642 137.993 71.5664 138.084H71.4432C64.8448 137.995 59.9625 136.03 57.6918 132.549C57.684 132.537 57.6773 132.524 57.6692 132.512C56.6048 130.865 56.064 128.813 56.064 126.411C56.064 125.719 56.1076 125.04 56.1934 124.391C56.1961 124.373 56.1984 124.353 56.2006 124.334C57.2025 116.672 63.7668 110.775 71.5002 110.585C79.2328 110.775 85.7971 116.671 86.7998 124.332C86.8017 124.352 86.8045 124.372 86.807 124.391C86.893 125.039 86.9363 125.718 86.9363 126.41C86.9361 128.827 86.3903 130.889 85.3125 132.544ZM92.6088 104.494C91.8103 108.448 90.8948 112.059 89.8726 115.307C88.7615 113.431 87.3692 111.714 85.7256 110.228C82.0375 106.893 77.3255 104.928 72.3783 104.64C72.2222 104.615 72.0635 104.598 71.9004 104.598H71.0994C70.9363 104.598 70.7774 104.615 70.6215 104.64C65.6746 104.929 60.9623 106.894 57.2745 110.228C55.6309 111.714 54.2386 113.431 53.1275 115.307C52.1053 112.059 51.1898 108.448 50.3913 104.494C47.7776 91.5525 48.1848 81.6501 51.6006 75.0629C51.6031 75.0581 51.6054 75.0534 51.6081 75.0484C53.0415 72.2959 55.0373 70.0987 57.5432 68.5162C59.6524 67.1809 62.1935 66.2307 65.0979 65.6919C67.0465 65.3289 69.2005 65.1445 71.5002 65.1445C73.7996 65.1445 75.9538 65.3286 77.9045 65.6922C80.8055 66.2304 83.3471 67.1803 85.458 68.5137C87.9633 70.0981 89.9603 72.297 91.3919 75.0478C91.3922 75.0484 91.3925 75.0489 91.3928 75.0495C91.3947 75.0534 91.3964 75.0573 91.3984 75.0609C94.8153 81.6501 95.2228 91.5525 92.6088 104.494ZM108.577 26.2821C107.89 33.5176 105.495 42.6098 101.833 51.8849C99.4818 57.8476 96.8016 63.3903 93.9768 68.1629C92.9331 66.8926 91.7648 65.7495 90.4742 64.7423C91.69 60.3512 93.621 54.7198 95.9104 48.9196C98.0286 43.5532 100.235 38.598 102.292 34.5892C103.045 33.1204 102.465 31.3187 100.997 30.5651C99.5276 29.8116 97.7261 30.3914 96.9726 31.8602C94.798 36.0994 92.5695 41.1005 90.3496 46.7249C88.2406 52.0684 86.4194 57.3005 85.1452 61.6377C84.1576 61.219 83.1237 60.8545 82.0484 60.5423C83.227 55.8682 84.8405 50.882 86.7875 45.9457C90.4493 36.6703 94.9102 28.3925 99.3488 22.6387C104.138 16.4294 106.833 15.8381 107.293 16.021C107.753 16.2023 109.319 18.4755 108.577 26.2821Z" fill="#00B2FF"/>
        <path d="M106.498 23.0935C105.278 21.981 103.388 22.0673 102.275 23.2865C101.964 23.6272 101.635 24.0372 101.27 24.5402C100.301 25.8764 100.598 27.7457 101.935 28.7152C102.465 29.0995 103.079 29.2849 103.687 29.2849C104.612 29.2849 105.525 28.8565 106.109 28.0507C106.395 27.6577 106.583 27.4343 106.691 27.3164C107.804 26.0973 107.717 24.2068 106.498 23.0935Z" fill="#00B2FF"/>
        <path d="M58.8257 85.4233C54.293 85.4233 50.6055 89.1095 50.6055 93.6405C50.6055 95.2912 51.9439 96.6298 53.5948 96.6298C55.2457 96.6298 56.5841 95.2912 56.5841 93.6405C56.5841 92.406 57.5896 91.4017 58.826 91.4017C60.0605 91.4017 61.0648 92.406 61.0648 93.6405C61.0648 95.2912 62.4032 96.6298 64.0541 96.6298C65.7051 96.6298 67.0435 95.2912 67.0435 93.6405C67.0432 89.1095 63.3567 85.4233 58.8257 85.4233Z" fill="#00B2FF"/>
        <path d="M68.7242 128.059L66.1086 123.701C65.259 122.285 63.4226 121.826 62.0074 122.676C60.592 123.526 60.1331 125.362 60.9827 126.777L63.5983 131.135C64.1588 132.07 65.1487 132.587 66.1639 132.587C66.6873 132.587 67.218 132.449 67.6995 132.16C69.115 131.311 69.5738 129.474 68.7242 128.059Z" fill="#00B2FF"/>
        <path d="M84.1741 85.4233C79.6431 85.4233 75.9569 89.1095 75.9569 93.6405C75.9569 95.2912 77.2953 96.6298 78.9462 96.6298C80.5971 96.6298 81.9355 95.2912 81.9355 93.6405C81.9355 92.406 82.9399 91.4017 84.1744 91.4017C85.4108 91.4017 86.4163 92.406 86.4163 93.6405C86.4163 95.2912 87.7547 96.6298 89.4056 96.6298C91.0565 96.6298 92.3949 95.2912 92.3949 93.6405C92.3943 89.1095 88.7068 85.4233 84.1741 85.4233Z" fill="#00B2FF"/>
        <path d="M80.9923 122.676C79.5769 121.827 77.7408 122.285 76.8911 123.701L74.2755 128.06C73.4256 129.475 73.8848 131.311 75.3003 132.161C75.7818 132.45 76.3122 132.587 76.8358 132.587C77.8511 132.587 78.8409 132.07 79.4015 131.136L82.0171 126.778C82.8667 125.362 82.4078 123.526 80.9923 122.676Z" fill="#00B2FF"/>
    </g>
    <defs>
        <filter id="filter0_f_0_1" x="-10" y="0" width="163" height="163" filterUnits="userSpaceOnUse" color-interpolation-filters="sRGB">
            <feFlood flood-opacity="0" result="BackgroundImageFix"/>
            <feBlend mode="normal" in="SourceGraphic" in2="BackgroundImageFix" result="shape"/>
            <feGaussianBlur stdDeviation="5" result="effect1_foregroundBlur_0_1"/>
        </filter>
    </defs>
</svg>
