<svg width="142" height="158" viewBox="0 0 142 158" fill="none" xmlns="http://www.w3.org/2000/svg">
    <path d="M113.372 142.988L115.989 142.395V111.808C119.793 112.718 122.877 112.882 123.053 112.892L132.228 113.345L125.512 107.077C120.835 102.712 117.775 96.1129 115.989 91.1536V60.4137C115.989 53.8359 114.65 47.398 112.115 41.7982C109.403 35.8073 105.458 31.1628 100.683 28.3275C99.3418 26.561 99.6687 20.7209 100.86 16.2991L101.292 14.6939L99.1818 11.9373L97.3725 12.0695C86.9598 12.8273 77.6681 14.3218 69.1276 16.6168C69.2544 15.5587 69.3811 14.8289 69.3838 14.8141L70.594 8L64.4898 11.2623C58.7071 14.3524 54.5041 19.5186 52.5548 22.2512C44.7441 25.9804 38.5907 30.705 34.2569 36.3035C29.016 43.0734 26.3581 51.1846 26.3581 60.4121V90.8131C24.5636 95.8834 21.4732 102.633 16.7141 107.075L10 113.344L19.173 112.891C19.3532 112.882 22.4994 112.715 26.3581 111.78V142.394L28.9772 142.988C29.0787 143.011 31.5083 143.554 34.6092 143.554C36.1742 143.554 37.638 143.423 38.9937 143.164C38.3212 144.213 38.2865 145.365 38.5613 146.254C39.5166 149.359 43.506 149.359 45.0083 149.359C50.1572 149.359 57.4063 147.689 62.0814 143.472C64.0295 147.015 66.9354 149.219 70.5674 149.888L71.1758 150L71.7843 149.888C75.4163 149.22 78.3208 147.015 80.2701 143.472C84.9452 147.689 92.1943 149.359 97.3432 149.359C98.8455 149.359 102.835 149.359 103.79 146.254C104.064 145.365 104.03 144.212 103.358 143.163C104.714 143.422 106.177 143.553 107.742 143.553C110.842 143.554 113.27 143.011 113.372 142.988ZM39.5737 40.4199C43.3936 35.4858 48.9908 31.2936 56.2092 27.9632L57.0604 27.5696L57.586 26.7917C58.3745 25.6255 59.9663 23.4479 62.1733 21.3011L62.3293 25.6842L66.5362 24.3686C74.6485 21.8296 83.492 20.1124 93.455 19.1463C93.3455 19.9068 93.2495 20.7233 93.1828 21.5679C93.0268 23.544 93.0573 25.3239 93.2762 26.9009L81.7696 25.3986L96.9162 33.9138C100.648 36.0113 103.786 39.6965 105.992 44.5706C106.984 46.7641 107.765 49.1698 108.316 51.6795C104.887 50.6307 100.068 49.6299 94.1636 49.6299C87.427 49.6299 83.7323 51.8716 80.474 53.8503C77.6655 55.5541 75.448 56.9002 71.1756 56.9002C66.9033 56.9002 64.6844 55.5539 61.8759 53.8503C58.6176 51.8702 54.9243 49.6285 48.1865 49.6285C42.3358 49.6285 37.5513 50.6106 34.1275 51.6499C35.1706 47.5155 36.9893 43.7583 39.5737 40.4199ZM91.3204 57.2929C91.7647 57.1167 92.2329 57.0246 92.6747 57.0246C93.4192 57.0246 94.0677 57.2983 94.2157 57.6757C94.3398 57.9907 94.1396 58.4029 94.0476 58.5657C93.722 59.1407 93.1083 59.6384 92.3623 59.9334C91.9179 60.1096 91.4498 60.2016 91.008 60.2016C90.2634 60.2016 89.6149 59.928 89.4655 59.5505C89.2588 59.0261 89.8925 57.8573 91.3204 57.2929ZM65.2382 73.5549C65.3475 73.3599 65.4609 73.1558 65.5743 72.9451C66.7339 73.2521 69.0609 73.4069 68.8901 69.6267C68.8901 69.6267 68.0896 69.5814 67.2091 69.8348C67.8656 68.598 68.5714 67.3343 69.3052 66.251C70.267 64.8314 70.8915 64.2963 71.176 64.1042C71.46 64.2963 72.0845 64.83 73.0464 66.251C73.7921 67.3519 74.5087 68.6393 75.1744 69.895C74.2205 69.5748 73.2984 69.6267 73.2984 69.6267C73.1208 73.5669 75.6561 73.2319 76.7556 72.9064C76.8744 73.1267 76.9919 73.34 77.1065 73.5441L78.0005 75.1305L79.8179 75.2479C81.8473 75.3787 84.9015 75.5347 87.9183 75.5347C88.1677 75.5347 88.412 75.5335 88.6521 75.5321C86.6321 76.8918 84.217 78.0632 82.0434 78.186L79.044 78.3556L78.8772 81.355C78.6398 85.6261 77.4029 95.5836 71.176 101.9C64.9462 95.5795 63.7107 85.6167 63.4745 81.343L63.3117 78.3955L60.367 78.1766C58.2309 78.0179 55.8692 76.8651 53.8852 75.5321C54.1215 75.5335 54.3601 75.5347 54.6044 75.5347C57.5545 75.5347 60.5405 75.3853 62.5246 75.2585L64.3444 75.1439L65.2382 73.5549ZM48.133 57.6757C48.2824 57.2983 48.9309 57.0246 49.674 57.0246C50.1156 57.0246 50.584 57.1167 51.0284 57.2929C51.7741 57.5877 52.3881 58.0854 52.7136 58.6606C52.8057 58.8233 53.0072 59.2356 52.8832 59.5505C52.7338 59.9282 52.0853 60.2016 51.3407 60.2016C50.8991 60.2016 50.4308 60.1082 49.9864 59.9334C49.2406 59.6384 48.6267 59.1409 48.3012 58.5657C48.2103 58.4029 48.009 57.9907 48.133 57.6757ZM99.6727 133.456L93.8808 122.945L93.3711 134.936C93.3469 135.519 93.2589 139.048 94.5505 142.427C92.6104 142.158 90.3315 141.613 88.2486 140.676C84.9864 139.208 83.0638 137.236 82.5356 134.811L77.6855 112.536L75.9016 135.25C75.895 135.318 75.2836 141.792 71.1756 143.123C67.0689 141.793 66.4563 135.319 66.4509 135.264L64.667 112.551L59.8155 134.811C59.2871 137.236 57.3646 139.208 54.1023 140.676C52.0196 141.612 49.7406 142.157 47.8006 142.427C49.0923 139.048 49.0056 135.519 48.9802 134.936L48.4705 122.945L42.6786 133.456C41.1415 136.245 37.4428 136.831 34.6116 136.831C34.0699 136.831 33.5549 136.81 33.0839 136.776V102.276L28.4887 104.091C28.095 104.246 27.6988 104.39 27.3025 104.523C29.8644 100.392 31.6815 96.0172 32.901 92.4802L33.0839 91.9477V60.4137C33.0839 59.9827 33.0919 59.5571 33.1053 59.1329C34.741 58.4499 37.5896 57.457 41.4483 56.8607C41.2148 58.5337 41.5563 60.2925 42.4543 61.8775C43.539 63.7948 45.3389 65.3253 47.5204 66.1873C48.7613 66.677 50.0475 66.9251 51.3431 66.9251C54.9016 66.9251 57.9611 64.9998 59.1379 62.0203C59.3568 61.4679 59.5008 60.8943 59.5783 60.3099C60.8405 61.053 62.2068 61.7882 63.808 62.3766C62.5551 64.2045 61.473 66.2834 60.487 68.1819C60.4041 68.3421 60.3214 68.4995 60.2402 68.6557C58.5711 68.7398 56.5737 68.8119 54.6044 68.8119C51.0765 68.8119 49.162 68.581 48.1771 68.3875C47.7475 68.3034 47.3527 68.262 46.9684 68.262C44.6694 68.262 42.9416 69.8512 42.8601 72.0394C42.8082 73.4498 43.4551 74.8946 44.8975 76.5853C45.8929 77.7514 47.2059 78.9655 48.6974 80.0956C50.4038 81.3898 53.4594 83.4074 56.9777 84.3692C57.2899 87.2538 57.925 90.851 59.194 94.5577C61.33 100.793 64.6792 105.667 69.1462 109.042L71.173 110.574L73.1995 109.042C77.6641 105.668 81.0115 100.798 83.1489 94.5683C84.4153 90.879 85.0505 87.2952 85.3652 84.4172C88.9077 83.4873 91.9992 81.4659 93.7298 80.1635C95.2389 79.0279 96.5716 77.806 97.583 76.6264C99.0388 74.9306 99.6979 73.4842 99.658 72.0739C99.5952 69.8644 97.8672 68.2606 95.5499 68.2606C95.1656 68.2606 94.7708 68.302 94.341 68.3861C93.3561 68.5796 91.4416 68.8105 87.9137 68.8105C85.8829 68.8105 83.8202 68.7344 82.1044 68.6451C82.0245 68.4929 81.9442 68.3381 81.8629 68.1807C80.8757 66.2834 79.7948 64.2033 78.5419 62.3754C80.1417 61.787 81.5092 61.0518 82.7702 60.3087C82.8475 60.8931 82.9929 61.4669 83.2104 62.0191C84.3874 64.9984 87.4467 66.9239 91.0052 66.9239C92.302 66.9239 93.5884 66.6756 94.8279 66.1861C97.0108 65.3243 98.8093 63.7938 99.8954 61.8779C100.791 60.2955 101.134 58.5409 100.901 56.8705C104.732 57.4708 107.594 58.4622 109.242 59.1441C109.255 59.5671 109.264 59.9913 109.264 60.4143V92.3056L109.454 92.8447C111.007 97.2771 112.827 101.176 114.898 104.513C114.545 104.394 114.193 104.267 113.845 104.131L109.264 102.35V136.777C108.794 136.81 108.278 136.831 107.737 136.831C104.908 136.831 101.21 136.245 99.6727 133.456Z" fill="#00B2FF"/>
    <g filter="url(#filter0_f_0_1)">
        <path d="M113.372 142.988L115.989 142.395V111.808C119.793 112.718 122.877 112.882 123.053 112.892L132.228 113.345L125.512 107.077C120.835 102.712 117.775 96.1129 115.989 91.1536V60.4137C115.989 53.8359 114.65 47.398 112.115 41.7982C109.403 35.8073 105.458 31.1628 100.683 28.3275C99.3418 26.561 99.6687 20.7209 100.86 16.2991L101.292 14.6939L99.1818 11.9373L97.3725 12.0695C86.9598 12.8273 77.6681 14.3218 69.1276 16.6168C69.2544 15.5587 69.3811 14.8289 69.3838 14.8141L70.594 8L64.4898 11.2623C58.7071 14.3524 54.5041 19.5186 52.5548 22.2512C44.7441 25.9804 38.5907 30.705 34.2569 36.3035C29.016 43.0734 26.3581 51.1846 26.3581 60.4121V90.8131C24.5636 95.8834 21.4732 102.633 16.7141 107.075L10 113.344L19.173 112.891C19.3532 112.882 22.4994 112.715 26.3581 111.78V142.394L28.9772 142.988C29.0787 143.011 31.5083 143.554 34.6092 143.554C36.1742 143.554 37.638 143.423 38.9937 143.164C38.3212 144.213 38.2865 145.365 38.5613 146.254C39.5166 149.359 43.506 149.359 45.0083 149.359C50.1572 149.359 57.4063 147.689 62.0814 143.472C64.0295 147.015 66.9354 149.219 70.5674 149.888L71.1758 150L71.7843 149.888C75.4163 149.22 78.3208 147.015 80.2701 143.472C84.9452 147.689 92.1943 149.359 97.3432 149.359C98.8455 149.359 102.835 149.359 103.79 146.254C104.064 145.365 104.03 144.212 103.358 143.163C104.714 143.422 106.177 143.553 107.742 143.553C110.842 143.554 113.27 143.011 113.372 142.988ZM39.5737 40.4199C43.3936 35.4858 48.9908 31.2936 56.2092 27.9632L57.0604 27.5696L57.586 26.7917C58.3745 25.6255 59.9663 23.4479 62.1733 21.3011L62.3293 25.6842L66.5362 24.3686C74.6485 21.8296 83.492 20.1124 93.455 19.1463C93.3455 19.9068 93.2495 20.7233 93.1828 21.5679C93.0268 23.544 93.0573 25.3239 93.2762 26.9009L81.7696 25.3986L96.9162 33.9138C100.648 36.0113 103.786 39.6965 105.992 44.5706C106.984 46.7641 107.765 49.1698 108.316 51.6795C104.887 50.6307 100.068 49.6299 94.1636 49.6299C87.427 49.6299 83.7323 51.8716 80.474 53.8503C77.6655 55.5541 75.448 56.9002 71.1756 56.9002C66.9033 56.9002 64.6844 55.5539 61.8759 53.8503C58.6176 51.8702 54.9243 49.6285 48.1865 49.6285C42.3358 49.6285 37.5513 50.6106 34.1275 51.6499C35.1706 47.5155 36.9893 43.7583 39.5737 40.4199ZM91.3204 57.2929C91.7647 57.1167 92.2329 57.0246 92.6747 57.0246C93.4192 57.0246 94.0677 57.2983 94.2157 57.6757C94.3398 57.9907 94.1396 58.4029 94.0476 58.5657C93.722 59.1407 93.1083 59.6384 92.3623 59.9334C91.9179 60.1096 91.4498 60.2016 91.008 60.2016C90.2634 60.2016 89.6149 59.928 89.4655 59.5505C89.2588 59.0261 89.8925 57.8573 91.3204 57.2929ZM65.2382 73.5549C65.3475 73.3599 65.4609 73.1558 65.5743 72.9451C66.7339 73.2521 69.0609 73.4069 68.8901 69.6267C68.8901 69.6267 68.0896 69.5814 67.2091 69.8348C67.8656 68.598 68.5714 67.3343 69.3052 66.251C70.267 64.8314 70.8915 64.2963 71.176 64.1042C71.46 64.2963 72.0845 64.83 73.0464 66.251C73.7921 67.3519 74.5087 68.6393 75.1744 69.895C74.2205 69.5748 73.2984 69.6267 73.2984 69.6267C73.1208 73.5669 75.6561 73.2319 76.7556 72.9064C76.8744 73.1267 76.9919 73.34 77.1065 73.5441L78.0005 75.1305L79.8179 75.2479C81.8473 75.3787 84.9015 75.5347 87.9183 75.5347C88.1677 75.5347 88.412 75.5335 88.6521 75.5321C86.6321 76.8918 84.217 78.0632 82.0434 78.186L79.044 78.3556L78.8772 81.355C78.6398 85.6261 77.4029 95.5836 71.176 101.9C64.9462 95.5795 63.7107 85.6167 63.4745 81.343L63.3117 78.3955L60.367 78.1766C58.2309 78.0179 55.8692 76.8651 53.8852 75.5321C54.1215 75.5335 54.3601 75.5347 54.6044 75.5347C57.5545 75.5347 60.5405 75.3853 62.5246 75.2585L64.3444 75.1439L65.2382 73.5549ZM48.133 57.6757C48.2824 57.2983 48.9309 57.0246 49.674 57.0246C50.1156 57.0246 50.584 57.1167 51.0284 57.2929C51.7741 57.5877 52.3881 58.0854 52.7136 58.6606C52.8057 58.8233 53.0072 59.2356 52.8832 59.5505C52.7338 59.9282 52.0853 60.2016 51.3407 60.2016C50.8991 60.2016 50.4308 60.1082 49.9864 59.9334C49.2406 59.6384 48.6267 59.1409 48.3012 58.5657C48.2103 58.4029 48.009 57.9907 48.133 57.6757ZM99.6727 133.456L93.8808 122.945L93.3711 134.936C93.3469 135.519 93.2589 139.048 94.5505 142.427C92.6104 142.158 90.3315 141.613 88.2486 140.676C84.9864 139.208 83.0638 137.236 82.5356 134.811L77.6855 112.536L75.9016 135.25C75.895 135.318 75.2836 141.792 71.1756 143.123C67.0689 141.793 66.4563 135.319 66.4509 135.264L64.667 112.551L59.8155 134.811C59.2871 137.236 57.3646 139.208 54.1023 140.676C52.0196 141.612 49.7406 142.157 47.8006 142.427C49.0923 139.048 49.0056 135.519 48.9802 134.936L48.4705 122.945L42.6786 133.456C41.1415 136.245 37.4428 136.831 34.6116 136.831C34.0699 136.831 33.5549 136.81 33.0839 136.776V102.276L28.4887 104.091C28.095 104.246 27.6988 104.39 27.3025 104.523C29.8644 100.392 31.6815 96.0172 32.901 92.4802L33.0839 91.9477V60.4137C33.0839 59.9827 33.0919 59.5571 33.1053 59.1329C34.741 58.4499 37.5896 57.457 41.4483 56.8607C41.2148 58.5337 41.5563 60.2925 42.4543 61.8775C43.539 63.7948 45.3389 65.3253 47.5204 66.1873C48.7613 66.677 50.0475 66.9251 51.3431 66.9251C54.9016 66.9251 57.9611 64.9998 59.1379 62.0203C59.3568 61.4679 59.5008 60.8943 59.5783 60.3099C60.8405 61.053 62.2068 61.7882 63.808 62.3766C62.5551 64.2045 61.473 66.2834 60.487 68.1819C60.4041 68.3421 60.3214 68.4995 60.2402 68.6557C58.5711 68.7398 56.5737 68.8119 54.6044 68.8119C51.0765 68.8119 49.162 68.581 48.1771 68.3875C47.7475 68.3034 47.3527 68.262 46.9684 68.262C44.6694 68.262 42.9416 69.8512 42.8601 72.0394C42.8082 73.4498 43.4551 74.8946 44.8975 76.5853C45.8929 77.7514 47.2059 78.9655 48.6974 80.0956C50.4038 81.3898 53.4594 83.4074 56.9777 84.3692C57.2899 87.2538 57.925 90.851 59.194 94.5577C61.33 100.793 64.6792 105.667 69.1462 109.042L71.173 110.574L73.1995 109.042C77.6641 105.668 81.0115 100.798 83.1489 94.5683C84.4153 90.879 85.0505 87.2952 85.3652 84.4172C88.9077 83.4873 91.9992 81.4659 93.7298 80.1635C95.2389 79.0279 96.5716 77.806 97.583 76.6264C99.0388 74.9306 99.6979 73.4842 99.658 72.0739C99.5952 69.8644 97.8672 68.2606 95.5499 68.2606C95.1656 68.2606 94.7708 68.302 94.341 68.3861C93.3561 68.5796 91.4416 68.8105 87.9137 68.8105C85.8829 68.8105 83.8202 68.7344 82.1044 68.6451C82.0245 68.4929 81.9442 68.3381 81.8629 68.1807C80.8757 66.2834 79.7948 64.2033 78.5419 62.3754C80.1417 61.787 81.5092 61.0518 82.7702 60.3087C82.8475 60.8931 82.9929 61.4669 83.2104 62.0191C84.3874 64.9984 87.4467 66.9239 91.0052 66.9239C92.302 66.9239 93.5884 66.6756 94.8279 66.1861C97.0108 65.3243 98.8093 63.7938 99.8954 61.8779C100.791 60.2955 101.134 58.5409 100.901 56.8705C104.732 57.4708 107.594 58.4622 109.242 59.1441C109.255 59.5671 109.264 59.9913 109.264 60.4143V92.3056L109.454 92.8447C111.007 97.2771 112.827 101.176 114.898 104.513C114.545 104.394 114.193 104.267 113.845 104.131L109.264 102.35V136.777C108.794 136.81 108.278 136.831 107.737 136.831C104.908 136.831 101.21 136.245 99.6727 133.456Z" fill="#00B2FF"/>
    </g>
    <defs>
        <filter id="filter0_f_0_1" x="-8" y="0" width="158" height="158" filterUnits="userSpaceOnUse" color-interpolation-filters="sRGB">
            <feFlood flood-opacity="0" result="BackgroundImageFix"/>
            <feBlend mode="normal" in="SourceGraphic" in2="BackgroundImageFix" result="shape"/>
            <feGaussianBlur stdDeviation="4" result="effect1_foregroundBlur_0_1"/>
        </filter>
    </defs>
</svg>
