<svg width="160" height="162" viewBox="0 0 160 162" fill="none" xmlns="http://www.w3.org/2000/svg">
    <path d="M117.043 19.2608H109.251C100.968 13.4294 90.8775 10 80 10C69.1226 10 59.032 13.4294 50.7486 19.2608H42.9566C25.084 19.2608 10.5435 33.8014 10.5435 51.674V84.0871C10.5435 94.3 18.8524 102.609 29.0653 102.609C34.5833 102.609 39.7014 100.115 43.1535 96.0858C44.5303 97.53 45.991 98.8931 47.5259 100.166C47.1903 104.339 45.3656 108.339 42.3956 111.308C36.9799 116.724 36.9799 125.536 42.3956 130.952C47.824 136.381 56.6083 136.384 62.0384 130.953C63.515 129.477 64.8704 127.923 66.109 126.3V147.369C66.109 149.927 68.1822 152 70.7395 152H89.2614C91.8185 152 93.8919 149.927 93.8919 147.369V126.3C95.13 127.923 96.4854 129.477 97.9614 130.952C103.391 136.382 112.175 136.383 117.605 130.952C123.021 125.537 123.021 116.724 117.605 111.309C114.635 108.338 112.811 104.339 112.475 100.166C114.01 98.8931 115.471 97.5302 116.847 96.0861C120.299 100.115 125.417 102.609 130.935 102.609C141.148 102.609 149.457 94.3 149.457 84.0871V51.674C149.457 33.8014 134.916 19.2608 117.043 19.2608ZM29.0653 93.3479C23.9589 93.3479 19.8045 89.1936 19.8045 84.0871V51.674C19.8045 39.6885 28.9596 29.8021 40.6436 28.6375C33.4124 37.4335 29.0653 48.6858 29.0653 60.9347C29.0653 69.0823 30.9327 76.8679 34.6158 84.076C35.3946 85.6 36.2571 87.083 37.1884 88.5229C35.5879 91.4353 32.4819 93.3479 29.0653 93.3479ZM55.4909 124.404C53.6801 126.214 50.755 126.215 48.9436 124.404C47.1331 122.593 47.1329 119.668 48.9436 117.856C53.0569 113.743 55.7308 108.334 56.5656 102.608H65.8544C64.9156 111.051 61.3817 118.517 55.4909 124.404ZM111.056 124.404C109.246 126.213 106.321 126.215 104.508 124.403C98.6181 118.517 95.0842 111.051 94.1454 102.609H103.434C104.269 108.334 106.943 113.744 111.056 117.857C112.867 119.668 112.867 122.593 111.056 124.404ZM112.219 87.3939C111.649 85.4819 109.88 84.0868 107.783 84.0868C105.226 84.0868 103.152 86.16 103.152 88.7174V93.3479H93.8914V79.4566C93.8914 76.8995 91.8182 74.826 89.2608 74.826C86.7034 74.826 84.6303 76.8992 84.6303 79.4566V142.739H75.3695V79.4566C75.3695 76.8995 73.2964 74.826 70.739 74.826C68.1816 74.826 66.1085 76.8992 66.1085 79.4566V93.3479H56.8477V88.7174C56.8477 86.1603 54.7745 84.0868 52.2171 84.0868C50.1199 84.0868 48.3507 85.4819 47.7813 87.3939C41.7016 80.0371 38.3258 70.8079 38.3258 60.9347C38.3258 37.9557 57.0207 19.2608 79.9998 19.2608C102.979 19.2608 121.674 37.9557 121.674 60.9347C121.674 70.3492 118.58 79.6968 112.219 87.3939ZM140.196 84.0868C140.196 89.1933 136.041 93.3476 130.935 93.3476C127.518 93.3476 124.412 91.4353 122.812 88.5229C123.743 87.083 124.606 85.6003 125.384 84.076C129.067 76.8676 130.935 69.082 130.935 60.9347C130.935 48.6856 126.588 37.4335 119.357 28.6375C131.041 29.8018 140.196 39.6885 140.196 51.674V84.0868Z" fill="#00B2FF"/>
    <path d="M61.4782 65.5653C64.0356 65.5653 66.1087 63.4921 66.1087 60.9347C66.1087 58.3774 64.0356 56.3042 61.4782 56.3042C58.9208 56.3042 56.8477 58.3774 56.8477 60.9347C56.8477 63.4921 58.9208 65.5653 61.4782 65.5653Z" fill="#00B2FF"/>
    <path d="M98.5219 65.5653C101.079 65.5653 103.152 63.4921 103.152 60.9347C103.152 58.3774 101.079 56.3042 98.5219 56.3042C95.9645 56.3042 93.8914 58.3774 93.8914 60.9347C93.8914 63.4921 95.9645 65.5653 98.5219 65.5653Z" fill="#00B2FF"/>
    <g filter="url(#filter0_f_0_1)">
        <path d="M117.043 19.2608H109.251C100.968 13.4294 90.8775 10 80 10C69.1226 10 59.032 13.4294 50.7486 19.2608H42.9566C25.084 19.2608 10.5435 33.8014 10.5435 51.674V84.0871C10.5435 94.3 18.8524 102.609 29.0653 102.609C34.5833 102.609 39.7014 100.115 43.1535 96.0858C44.5303 97.53 45.991 98.8931 47.5259 100.166C47.1903 104.339 45.3656 108.339 42.3956 111.308C36.9799 116.724 36.9799 125.536 42.3956 130.952C47.824 136.381 56.6083 136.384 62.0384 130.953C63.515 129.477 64.8704 127.923 66.109 126.3V147.369C66.109 149.927 68.1822 152 70.7395 152H89.2614C91.8185 152 93.8919 149.927 93.8919 147.369V126.3C95.13 127.923 96.4854 129.477 97.9614 130.952C103.391 136.382 112.175 136.383 117.605 130.952C123.021 125.537 123.021 116.724 117.605 111.309C114.635 108.338 112.811 104.339 112.475 100.166C114.01 98.8931 115.471 97.5302 116.847 96.0861C120.299 100.115 125.417 102.609 130.935 102.609C141.148 102.609 149.457 94.3 149.457 84.0871V51.674C149.457 33.8014 134.916 19.2608 117.043 19.2608ZM29.0653 93.3479C23.9589 93.3479 19.8045 89.1936 19.8045 84.0871V51.674C19.8045 39.6885 28.9596 29.8021 40.6436 28.6375C33.4124 37.4335 29.0653 48.6858 29.0653 60.9347C29.0653 69.0823 30.9327 76.8679 34.6158 84.076C35.3946 85.6 36.2571 87.083 37.1884 88.5229C35.5879 91.4353 32.4819 93.3479 29.0653 93.3479ZM55.4909 124.404C53.6801 126.214 50.755 126.215 48.9436 124.404C47.1331 122.593 47.1329 119.668 48.9436 117.856C53.0569 113.743 55.7308 108.334 56.5656 102.608H65.8544C64.9156 111.051 61.3817 118.517 55.4909 124.404ZM111.056 124.404C109.246 126.213 106.321 126.215 104.508 124.403C98.6181 118.517 95.0842 111.051 94.1454 102.609H103.434C104.269 108.334 106.943 113.744 111.056 117.857C112.867 119.668 112.867 122.593 111.056 124.404ZM112.219 87.3939C111.649 85.4819 109.88 84.0868 107.783 84.0868C105.226 84.0868 103.152 86.16 103.152 88.7174V93.3479H93.8914V79.4566C93.8914 76.8995 91.8182 74.826 89.2608 74.826C86.7034 74.826 84.6303 76.8992 84.6303 79.4566V142.739H75.3695V79.4566C75.3695 76.8995 73.2964 74.826 70.739 74.826C68.1816 74.826 66.1085 76.8992 66.1085 79.4566V93.3479H56.8477V88.7174C56.8477 86.1603 54.7745 84.0868 52.2171 84.0868C50.1199 84.0868 48.3507 85.4819 47.7813 87.3939C41.7016 80.0371 38.3258 70.8079 38.3258 60.9347C38.3258 37.9557 57.0207 19.2608 79.9998 19.2608C102.979 19.2608 121.674 37.9557 121.674 60.9347C121.674 70.3492 118.58 79.6968 112.219 87.3939ZM140.196 84.0868C140.196 89.1933 136.041 93.3476 130.935 93.3476C127.518 93.3476 124.412 91.4353 122.812 88.5229C123.743 87.083 124.606 85.6003 125.384 84.076C129.067 76.8676 130.935 69.082 130.935 60.9347C130.935 48.6856 126.588 37.4335 119.357 28.6375C131.041 29.8018 140.196 39.6885 140.196 51.674V84.0868Z" fill="#00B2FF"/>
        <path d="M61.4782 65.5653C64.0356 65.5653 66.1087 63.4921 66.1087 60.9347C66.1087 58.3774 64.0356 56.3042 61.4782 56.3042C58.9208 56.3042 56.8477 58.3774 56.8477 60.9347C56.8477 63.4921 58.9208 65.5653 61.4782 65.5653Z" fill="#00B2FF"/>
        <path d="M98.5219 65.5653C101.079 65.5653 103.152 63.4921 103.152 60.9347C103.152 58.3774 101.079 56.3042 98.5219 56.3042C95.9645 56.3042 93.8914 58.3774 93.8914 60.9347C93.8914 63.4921 95.9645 65.5653 98.5219 65.5653Z" fill="#00B2FF"/>
    </g>
    <defs>
        <filter id="filter0_f_0_1" x="-1" y="0" width="162" height="162" filterUnits="userSpaceOnUse" color-interpolation-filters="sRGB">
            <feFlood flood-opacity="0" result="BackgroundImageFix"/>
            <feBlend mode="normal" in="SourceGraphic" in2="BackgroundImageFix" result="shape"/>
            <feGaussianBlur stdDeviation="5" result="effect1_foregroundBlur_0_1"/>
        </filter>
    </defs>
</svg>
