<svg width="148" height="162" viewBox="0 0 148 162" fill="none" xmlns="http://www.w3.org/2000/svg">
    <path d="M128.526 62.3547C127.35 61.2406 125.494 61.2916 124.38 62.4678C124.281 62.5718 124.18 62.6758 124.078 62.7782C122.932 63.9236 122.932 65.781 124.078 66.9267C124.651 67.4994 125.401 67.7859 126.152 67.7859C126.903 67.7859 127.654 67.4994 128.226 66.9267C128.367 66.786 128.504 66.6446 128.64 66.5012C129.753 65.3247 129.703 63.4682 128.526 62.3547Z" fill="#00B2FF"/>
    <path d="M57.63 75.7021C56.01 75.7021 54.6968 77.0156 54.6968 78.6353V80.0501C54.6968 81.6697 56.01 82.9832 57.63 82.9832C59.2499 82.9832 60.5631 81.6697 60.5631 80.0501V78.6353C60.5631 77.0154 59.2499 75.7021 57.63 75.7021Z" fill="#00B2FF"/>
    <path d="M69.8453 112.008L68.8882 110.52C68.0115 109.158 66.1963 108.764 64.834 109.641C63.4714 110.517 63.0778 112.332 63.9542 113.694L64.9113 115.182C65.4721 116.053 66.4165 116.528 67.3808 116.528C67.9244 116.528 68.4744 116.377 68.9653 116.061C70.3281 115.185 70.7217 113.37 69.8453 112.008Z" fill="#00B2FF"/>
    <path d="M87.0665 44.7105C87.064 44.7092 87.0611 44.7073 87.0586 44.7061C87.0608 44.707 87.0633 44.7089 87.0665 44.7105Z" fill="#00B2FF"/>
    <path d="M135.316 11.3401C134.998 11.2264 127.414 8.59521 117.445 11.0306C108.806 13.142 96.6863 19.5949 87.0076 38.1594C85.1086 37.4558 83.2266 37.1727 81.4765 37.0983L83.3458 35.229C84.4912 34.0836 84.4912 32.2262 83.3458 31.0805C82.2004 29.9354 80.343 29.9354 79.1973 31.0805L76.9373 33.3406V29.8952C76.9373 28.2755 75.624 26.962 74.0041 26.962C72.3841 26.962 71.0709 28.2755 71.0709 29.8952V33.3409L68.8108 31.0808C67.6654 29.9357 65.808 29.9357 64.6623 31.0808C63.5169 32.2262 63.5169 34.0836 64.6623 35.2293L66.5316 37.0986C64.7816 37.1729 62.8995 37.4555 61.0006 38.1592C51.3218 19.5949 39.2017 13.142 30.5627 11.0308C20.5944 8.59438 13.0102 11.2264 12.6924 11.3401C11.4019 11.7994 10.5929 13.0901 10.7551 14.4502C10.9176 15.8106 11.9912 16.8764 13.3533 17.019C13.3996 17.0245 18.0709 17.6086 24.3527 21.591C29.957 25.1437 37.9819 32.181 44.9612 45.6582C42.4629 43.9343 39.5461 42.6488 36.4022 41.9418C31.8809 40.9232 27.292 41.2338 23.4799 42.8163C19.4731 44.4798 16.5616 47.4169 15.2805 51.0872C15.2789 51.0928 15.2769 51.0983 15.2753 51.1036C15.2705 51.1172 15.2664 51.1308 15.2619 51.1446C15.0046 51.894 14.8138 52.68 14.6959 53.4868C14.0771 57.7632 15.5587 62.1907 18.868 65.9528C22.0064 69.5209 26.4644 72.1002 31.42 73.2151C33.1719 73.6095 34.9253 73.8039 36.6376 73.8039C39.1875 73.8039 41.6439 73.3726 43.858 72.5306C43.8932 72.8953 43.9284 73.26 43.9706 73.6269C43.9711 73.6314 43.9714 73.6358 43.972 73.64C43.9725 73.6455 43.9731 73.6508 43.9736 73.6563C44.606 79.123 46.0479 84.7184 48.0331 89.4111C48.8926 91.4448 49.7437 93.3116 50.4948 94.9591C53.38 101.287 54.7187 104.465 53.6357 107.515C50.9763 115.009 54.4666 119.965 57.8491 123.185C58.0868 127.514 59.8354 140.92 72.1095 151.306C72.6562 151.768 73.3304 152 74.0041 152C74.6777 152 75.352 151.768 75.8986 151.306C88.1724 140.92 89.9214 127.515 90.159 123.185C93.5401 119.966 97.0319 115.011 94.3722 107.515C93.2894 104.466 94.6281 101.288 97.5131 94.9591C98.2641 93.3116 99.1153 91.4446 99.9748 89.4105C101.957 84.7159 103.399 79.1214 104.033 73.6588C104.034 73.6527 104.035 73.6466 104.035 73.6402C104.036 73.6355 104.036 73.6311 104.037 73.6264C104.079 73.26 104.114 72.8953 104.15 72.5311C106.363 73.3729 108.818 73.8039 111.369 73.8039C113.08 73.8039 114.835 73.6097 116.587 73.2151C118.096 72.8756 119.576 72.3947 120.989 71.7859C122.476 71.1447 123.162 69.4191 122.521 67.9311C121.88 66.444 120.154 65.7581 118.666 66.3985C117.587 66.8636 116.454 67.2317 115.298 67.4918C112.393 68.1466 109.532 68.077 107.087 67.3387C110.454 62.2256 116.795 54.2637 122.707 53.0547C124.423 52.703 125.939 52.9613 127.415 53.8621C127.448 54.016 127.482 54.1696 127.506 54.3266C127.64 55.2579 127.594 56.2253 127.369 57.2018C127.004 58.7805 127.989 60.3555 129.567 60.7196C129.789 60.771 130.011 60.7956 130.23 60.7956C131.564 60.7956 132.772 59.8782 133.085 58.5217C133.475 56.8341 133.551 55.1403 133.311 53.4821C133.194 52.6792 133.002 51.8935 132.745 51.1424C132.741 51.13 132.737 51.1172 132.733 51.1047C132.731 51.0986 132.729 51.0922 132.727 51.0859C131.447 47.4163 128.535 44.4795 124.528 42.816C120.716 41.2335 116.127 40.9229 111.607 41.9413C108.462 42.6485 105.545 43.9343 103.047 45.658C110.026 32.1805 118.051 25.1434 123.655 21.5907C129.937 17.6083 134.608 17.0242 134.637 17.0203C136 16.8778 137.082 15.8111 137.244 14.451C137.407 13.0909 136.606 11.7996 135.316 11.3401ZM32.7088 67.4915C25.3007 65.825 19.7111 59.7964 20.5018 54.331C20.5254 54.1721 20.5595 54.0171 20.5928 53.8621C22.0674 52.9621 23.5822 52.7033 25.2971 53.0539C31.1928 54.2562 37.5431 62.2237 40.9179 67.339C38.472 68.0767 35.6128 68.1455 32.7088 67.4915ZM43.9917 61.4904C43.2645 60.4864 42.4474 59.4117 41.5524 58.3184C36.8057 52.5194 32.1435 48.9287 27.6736 47.613C29.9071 47.0874 32.4764 47.0705 35.1142 47.6651C39.5661 48.6663 43.4897 51.2517 45.666 54.5413C44.8883 56.6818 44.3292 59.0037 43.9917 61.4904ZM26.9495 16.2732C27.6703 16.3938 28.4108 16.5441 29.1699 16.73C39.603 19.2796 48.6796 27.4465 55.5588 40.4201L49.8999 42.4405C42.4765 28.3007 33.8767 20.5279 26.9495 16.2732ZM74.0041 145.107C68.1824 139.434 65.6394 133.095 64.5306 128.478C65.8854 129.487 67.1415 130.466 68.1538 131.466C68.7029 132.008 69.4432 132.312 70.2145 132.312H77.794C78.5655 132.312 79.3058 132.008 79.8546 131.466C80.8666 130.467 82.1227 129.487 83.4778 128.478C82.3688 133.095 79.8258 139.434 74.0041 145.107ZM81.4707 79.4869C81.9106 79.7221 82.3837 79.8336 82.8502 79.8336C83.898 79.8336 84.912 79.2706 85.44 78.2819C87.5057 74.4149 90.4952 72.0264 93.4375 71.8924C95.2 71.8087 96.7823 72.5761 98.0611 74.1114C97.4321 78.6704 96.2073 83.2521 94.5705 87.1274C93.7429 89.0858 92.9458 90.8344 92.1748 92.5254C89.1232 99.2193 86.9183 104.056 88.843 109.478C90.2256 113.373 89.2399 116.226 85.3294 119.651C84.0572 120.764 82.5851 121.847 81.1609 122.895C79.62 124.029 78.0361 125.194 76.6352 126.445H71.3718C69.9712 125.194 68.3873 124.029 66.8461 122.895C65.4222 121.847 63.9498 120.763 62.6796 119.653C58.7671 116.226 57.7817 113.373 59.1637 109.478C61.0885 104.056 58.8836 99.2193 55.832 92.5254C55.0612 90.8344 54.2639 89.0855 53.436 87.1263C51.7975 83.2532 50.5725 78.6726 49.9454 74.1117C51.2239 72.5755 52.8048 71.8051 54.5698 71.8924C57.5121 72.0264 60.5016 74.4154 62.5673 78.2819C63.0956 79.2706 64.109 79.8336 65.1571 79.8336C65.6233 79.8336 66.0967 79.7221 66.5366 79.4869C67.9658 78.7237 68.5052 76.9467 67.7419 75.5176C64.692 69.8074 59.8676 66.261 54.8374 66.0316C52.9493 65.9467 51.1319 66.3408 49.4747 67.1529C49.5019 62.6541 50.2205 58.71 51.6166 55.4268C51.6275 55.4013 51.638 55.3755 51.648 55.3497C51.7586 55.091 51.8607 54.8649 51.9592 54.6591C51.9703 54.6356 51.9786 54.6117 51.9891 54.5879C52.0135 54.5332 52.0371 54.4786 52.0585 54.4226C52.0726 54.3854 52.0851 54.3471 52.0976 54.3091C52.1148 54.2567 52.1317 54.2037 52.1458 54.1502C52.1572 54.1072 52.1672 54.0637 52.1769 54.0199C52.1874 53.9716 52.1977 53.9228 52.206 53.8737C52.2143 53.8243 52.2207 53.7747 52.2262 53.7248C52.2312 53.6807 52.236 53.6371 52.2387 53.5928C52.2426 53.5376 52.244 53.4818 52.2446 53.4261C52.2448 53.3861 52.2454 53.3465 52.2443 53.3063C52.2426 53.2466 52.2379 53.187 52.2326 53.1271C52.2304 53.1013 52.2307 53.0761 52.2276 53.0503L51.6419 48.047L60.6611 44.8268C60.7066 44.8104 60.7515 44.7893 60.7967 44.7705C60.8289 44.7569 60.8613 44.745 60.8929 44.7305C60.9093 44.7233 60.9268 44.7169 60.9426 44.7095H60.9429C60.9451 44.7083 60.9476 44.7067 60.9498 44.7056C61.0377 44.6631 61.1231 44.6171 61.205 44.5669C61.2122 44.5625 61.2191 44.5572 61.226 44.5525C61.2294 44.5505 61.2324 44.5492 61.2357 44.5472C64.4443 42.5306 67.9633 42.8621 71.0703 43.1613V46.7385C71.0703 48.3582 72.3836 49.6717 74.0035 49.6717C75.6235 49.6717 76.9367 48.3582 76.9367 46.7385V43.1613C80.0446 42.8621 83.563 42.5304 86.7713 44.5472C86.7746 44.5492 86.7777 44.5505 86.781 44.5525C86.7882 44.5569 86.7949 44.5622 86.8021 44.5669C86.8842 44.6171 86.9693 44.6631 87.0572 44.7056C87.0594 44.7067 87.0619 44.7083 87.0644 44.7095C87.0805 44.7169 87.0983 44.7233 87.1144 44.7308C87.1463 44.7455 87.1787 44.7574 87.2106 44.7708C87.2156 44.7727 87.2206 44.7749 87.2256 44.7769C87.2652 44.7929 87.3046 44.8118 87.3443 44.8262C87.3448 44.8262 87.3451 44.8265 87.3457 44.8268L96.1727 47.9779L95.3748 51.9359C95.2322 52.6426 95.3581 53.3404 95.6798 53.9261C95.9294 54.4004 96.1635 54.8935 96.3782 55.4008C96.3848 55.4171 96.3921 55.4332 96.399 55.4499C97.7885 58.7272 98.504 62.6613 98.5315 67.1523C96.8744 66.3403 95.0569 65.9462 93.1688 66.0316C88.1386 66.261 83.3145 69.8074 80.2643 75.5176C79.5021 76.9467 80.0418 78.7239 81.4707 79.4869ZM112.895 47.6648C115.533 47.0705 118.102 47.0877 120.335 47.6127C115.865 48.929 111.202 52.5192 106.456 58.3181C105.561 59.4114 104.744 60.4861 104.017 61.4901C103.679 59.0021 103.12 56.6799 102.343 54.5415C104.518 51.2517 108.441 48.6663 112.895 47.6648ZM98.1082 42.44L92.446 40.4187C99.3094 27.4168 108.074 19.4773 118.532 16.8065C119.395 16.586 120.236 16.4116 121.053 16.2765C114.128 20.5315 105.53 28.3041 98.1082 42.44Z" fill="#00B2FF"/>
    <path d="M90.3778 75.7021C88.7578 75.7021 87.4446 77.0156 87.4446 78.6353V80.0501C87.4446 81.6697 88.7578 82.9832 90.3778 82.9832C91.9977 82.9832 93.3109 81.6697 93.3109 80.0501V78.6353C93.3112 77.0154 91.998 75.7021 90.3778 75.7021Z" fill="#00B2FF"/>
    <path d="M83.1738 109.641C81.8109 108.764 79.9965 109.158 79.1196 110.52L78.1625 112.008C77.2861 113.37 77.6796 115.185 79.0422 116.061C79.5334 116.377 80.0831 116.528 80.6267 116.528C81.591 116.528 82.5353 116.054 83.0961 115.182L84.0532 113.694C84.9299 112.332 84.5361 110.518 83.1738 109.641Z" fill="#00B2FF"/>
    <g filter="url(#filter0_f_0_1)">
        <path d="M128.526 62.3547C127.35 61.2406 125.494 61.2916 124.38 62.4678C124.281 62.5718 124.18 62.6758 124.078 62.7782C122.932 63.9236 122.932 65.781 124.078 66.9267C124.651 67.4994 125.401 67.7859 126.152 67.7859C126.903 67.7859 127.654 67.4994 128.226 66.9267C128.367 66.786 128.504 66.6446 128.64 66.5012C129.753 65.3247 129.703 63.4682 128.526 62.3547Z" fill="#00B2FF"/>
        <path d="M57.63 75.7021C56.01 75.7021 54.6968 77.0156 54.6968 78.6353V80.0501C54.6968 81.6697 56.01 82.9832 57.63 82.9832C59.2499 82.9832 60.5631 81.6697 60.5631 80.0501V78.6353C60.5631 77.0154 59.2499 75.7021 57.63 75.7021Z" fill="#00B2FF"/>
        <path d="M69.8453 112.008L68.8882 110.52C68.0115 109.158 66.1963 108.764 64.834 109.641C63.4714 110.517 63.0778 112.332 63.9542 113.694L64.9113 115.182C65.4721 116.053 66.4165 116.528 67.3808 116.528C67.9244 116.528 68.4744 116.377 68.9653 116.061C70.3281 115.185 70.7217 113.37 69.8453 112.008Z" fill="#00B2FF"/>
        <path d="M87.0665 44.7105C87.064 44.7092 87.0611 44.7073 87.0586 44.7061C87.0608 44.707 87.0633 44.7089 87.0665 44.7105Z" fill="#00B2FF"/>
        <path d="M135.316 11.3401C134.998 11.2264 127.414 8.59521 117.445 11.0306C108.806 13.142 96.6863 19.5949 87.0076 38.1594C85.1086 37.4558 83.2266 37.1727 81.4765 37.0983L83.3458 35.229C84.4912 34.0836 84.4912 32.2262 83.3458 31.0805C82.2004 29.9354 80.343 29.9354 79.1973 31.0805L76.9373 33.3406V29.8952C76.9373 28.2755 75.624 26.962 74.0041 26.962C72.3841 26.962 71.0709 28.2755 71.0709 29.8952V33.3409L68.8108 31.0808C67.6654 29.9357 65.808 29.9357 64.6623 31.0808C63.5169 32.2262 63.5169 34.0836 64.6623 35.2293L66.5316 37.0986C64.7816 37.1729 62.8995 37.4555 61.0006 38.1592C51.3218 19.5949 39.2017 13.142 30.5627 11.0308C20.5944 8.59438 13.0102 11.2264 12.6924 11.3401C11.4019 11.7994 10.5929 13.0901 10.7551 14.4502C10.9176 15.8106 11.9912 16.8764 13.3533 17.019C13.3996 17.0245 18.0709 17.6086 24.3527 21.591C29.957 25.1437 37.9819 32.181 44.9612 45.6582C42.4629 43.9343 39.5461 42.6488 36.4022 41.9418C31.8809 40.9232 27.292 41.2338 23.4799 42.8163C19.4731 44.4798 16.5616 47.4169 15.2805 51.0872C15.2789 51.0928 15.2769 51.0983 15.2753 51.1036C15.2705 51.1172 15.2664 51.1308 15.2619 51.1446C15.0046 51.894 14.8138 52.68 14.6959 53.4868C14.0771 57.7632 15.5587 62.1907 18.868 65.9528C22.0064 69.5209 26.4644 72.1002 31.42 73.2151C33.1719 73.6095 34.9253 73.8039 36.6376 73.8039C39.1875 73.8039 41.6439 73.3726 43.858 72.5306C43.8932 72.8953 43.9284 73.26 43.9706 73.6269C43.9711 73.6314 43.9714 73.6358 43.972 73.64C43.9725 73.6455 43.9731 73.6508 43.9736 73.6563C44.606 79.123 46.0479 84.7184 48.0331 89.4111C48.8926 91.4448 49.7437 93.3116 50.4948 94.9591C53.38 101.287 54.7187 104.465 53.6357 107.515C50.9763 115.009 54.4666 119.965 57.8491 123.185C58.0868 127.514 59.8354 140.92 72.1095 151.306C72.6562 151.768 73.3304 152 74.0041 152C74.6777 152 75.352 151.768 75.8986 151.306C88.1724 140.92 89.9214 127.515 90.159 123.185C93.5401 119.966 97.0319 115.011 94.3722 107.515C93.2894 104.466 94.6281 101.288 97.5131 94.9591C98.2641 93.3116 99.1153 91.4446 99.9748 89.4105C101.957 84.7159 103.399 79.1214 104.033 73.6588C104.034 73.6527 104.035 73.6466 104.035 73.6402C104.036 73.6355 104.036 73.6311 104.037 73.6264C104.079 73.26 104.114 72.8953 104.15 72.5311C106.363 73.3729 108.818 73.8039 111.369 73.8039C113.08 73.8039 114.835 73.6097 116.587 73.2151C118.096 72.8756 119.576 72.3947 120.989 71.7859C122.476 71.1447 123.162 69.4191 122.521 67.9311C121.88 66.444 120.154 65.7581 118.666 66.3985C117.587 66.8636 116.454 67.2317 115.298 67.4918C112.393 68.1466 109.532 68.077 107.087 67.3387C110.454 62.2256 116.795 54.2637 122.707 53.0547C124.423 52.703 125.939 52.9613 127.415 53.8621C127.448 54.016 127.482 54.1696 127.506 54.3266C127.64 55.2579 127.594 56.2253 127.369 57.2018C127.004 58.7805 127.989 60.3555 129.567 60.7196C129.789 60.771 130.011 60.7956 130.23 60.7956C131.564 60.7956 132.772 59.8782 133.085 58.5217C133.475 56.8341 133.551 55.1403 133.311 53.4821C133.194 52.6792 133.002 51.8935 132.745 51.1424C132.741 51.13 132.737 51.1172 132.733 51.1047C132.731 51.0986 132.729 51.0922 132.727 51.0859C131.447 47.4163 128.535 44.4795 124.528 42.816C120.716 41.2335 116.127 40.9229 111.607 41.9413C108.462 42.6485 105.545 43.9343 103.047 45.658C110.026 32.1805 118.051 25.1434 123.655 21.5907C129.937 17.6083 134.608 17.0242 134.637 17.0203C136 16.8778 137.082 15.8111 137.244 14.451C137.407 13.0909 136.606 11.7996 135.316 11.3401ZM32.7088 67.4915C25.3007 65.825 19.7111 59.7964 20.5018 54.331C20.5254 54.1721 20.5595 54.0171 20.5928 53.8621C22.0674 52.9621 23.5822 52.7033 25.2971 53.0539C31.1928 54.2562 37.5431 62.2237 40.9179 67.339C38.472 68.0767 35.6128 68.1455 32.7088 67.4915ZM43.9917 61.4904C43.2645 60.4864 42.4474 59.4117 41.5524 58.3184C36.8057 52.5194 32.1435 48.9287 27.6736 47.613C29.9071 47.0874 32.4764 47.0705 35.1142 47.6651C39.5661 48.6663 43.4897 51.2517 45.666 54.5413C44.8883 56.6818 44.3292 59.0037 43.9917 61.4904ZM26.9495 16.2732C27.6703 16.3938 28.4108 16.5441 29.1699 16.73C39.603 19.2796 48.6796 27.4465 55.5588 40.4201L49.8999 42.4405C42.4765 28.3007 33.8767 20.5279 26.9495 16.2732ZM74.0041 145.107C68.1824 139.434 65.6394 133.095 64.5306 128.478C65.8854 129.487 67.1415 130.466 68.1538 131.466C68.7029 132.008 69.4432 132.312 70.2145 132.312H77.794C78.5655 132.312 79.3058 132.008 79.8546 131.466C80.8666 130.467 82.1227 129.487 83.4778 128.478C82.3688 133.095 79.8258 139.434 74.0041 145.107ZM81.4707 79.4869C81.9106 79.7221 82.3837 79.8336 82.8502 79.8336C83.898 79.8336 84.912 79.2706 85.44 78.2819C87.5057 74.4149 90.4952 72.0264 93.4375 71.8924C95.2 71.8087 96.7823 72.5761 98.0611 74.1114C97.4321 78.6704 96.2073 83.2521 94.5705 87.1274C93.7429 89.0858 92.9458 90.8344 92.1748 92.5254C89.1232 99.2193 86.9183 104.056 88.843 109.478C90.2256 113.373 89.2399 116.226 85.3294 119.651C84.0572 120.764 82.5851 121.847 81.1609 122.895C79.62 124.029 78.0361 125.194 76.6352 126.445H71.3718C69.9712 125.194 68.3873 124.029 66.8461 122.895C65.4222 121.847 63.9498 120.763 62.6796 119.653C58.7671 116.226 57.7817 113.373 59.1637 109.478C61.0885 104.056 58.8836 99.2193 55.832 92.5254C55.0612 90.8344 54.2639 89.0855 53.436 87.1263C51.7975 83.2532 50.5725 78.6726 49.9454 74.1117C51.2239 72.5755 52.8048 71.8051 54.5698 71.8924C57.5121 72.0264 60.5016 74.4154 62.5673 78.2819C63.0956 79.2706 64.109 79.8336 65.1571 79.8336C65.6233 79.8336 66.0967 79.7221 66.5366 79.4869C67.9658 78.7237 68.5052 76.9467 67.7419 75.5176C64.692 69.8074 59.8676 66.261 54.8374 66.0316C52.9493 65.9467 51.1319 66.3408 49.4747 67.1529C49.5019 62.6541 50.2205 58.71 51.6166 55.4268C51.6275 55.4013 51.638 55.3755 51.648 55.3497C51.7586 55.091 51.8607 54.8649 51.9592 54.6591C51.9703 54.6356 51.9786 54.6117 51.9891 54.5879C52.0135 54.5332 52.0371 54.4786 52.0585 54.4226C52.0726 54.3854 52.0851 54.3471 52.0976 54.3091C52.1148 54.2567 52.1317 54.2037 52.1458 54.1502C52.1572 54.1072 52.1672 54.0637 52.1769 54.0199C52.1874 53.9716 52.1977 53.9228 52.206 53.8737C52.2143 53.8243 52.2207 53.7747 52.2262 53.7248C52.2312 53.6807 52.236 53.6371 52.2387 53.5928C52.2426 53.5376 52.244 53.4818 52.2446 53.4261C52.2448 53.3861 52.2454 53.3465 52.2443 53.3063C52.2426 53.2466 52.2379 53.187 52.2326 53.1271C52.2304 53.1013 52.2307 53.0761 52.2276 53.0503L51.6419 48.047L60.6611 44.8268C60.7066 44.8104 60.7515 44.7893 60.7967 44.7705C60.8289 44.7569 60.8613 44.745 60.8929 44.7305C60.9093 44.7233 60.9268 44.7169 60.9426 44.7095H60.9429C60.9451 44.7083 60.9476 44.7067 60.9498 44.7056C61.0377 44.6631 61.1231 44.6171 61.205 44.5669C61.2122 44.5625 61.2191 44.5572 61.226 44.5525C61.2294 44.5505 61.2324 44.5492 61.2357 44.5472C64.4443 42.5306 67.9633 42.8621 71.0703 43.1613V46.7385C71.0703 48.3582 72.3836 49.6717 74.0035 49.6717C75.6235 49.6717 76.9367 48.3582 76.9367 46.7385V43.1613C80.0446 42.8621 83.563 42.5304 86.7713 44.5472C86.7746 44.5492 86.7777 44.5505 86.781 44.5525C86.7882 44.5569 86.7949 44.5622 86.8021 44.5669C86.8842 44.6171 86.9693 44.6631 87.0572 44.7056C87.0594 44.7067 87.0619 44.7083 87.0644 44.7095C87.0805 44.7169 87.0983 44.7233 87.1144 44.7308C87.1463 44.7455 87.1787 44.7574 87.2106 44.7708C87.2156 44.7727 87.2206 44.7749 87.2256 44.7769C87.2652 44.7929 87.3046 44.8118 87.3443 44.8262C87.3448 44.8262 87.3451 44.8265 87.3457 44.8268L96.1727 47.9779L95.3748 51.9359C95.2322 52.6426 95.3581 53.3404 95.6798 53.9261C95.9294 54.4004 96.1635 54.8935 96.3782 55.4008C96.3848 55.4171 96.3921 55.4332 96.399 55.4499C97.7885 58.7272 98.504 62.6613 98.5315 67.1523C96.8744 66.3403 95.0569 65.9462 93.1688 66.0316C88.1386 66.261 83.3145 69.8074 80.2643 75.5176C79.5021 76.9467 80.0418 78.7239 81.4707 79.4869ZM112.895 47.6648C115.533 47.0705 118.102 47.0877 120.335 47.6127C115.865 48.929 111.202 52.5192 106.456 58.3181C105.561 59.4114 104.744 60.4861 104.017 61.4901C103.679 59.0021 103.12 56.6799 102.343 54.5415C104.518 51.2517 108.441 48.6663 112.895 47.6648ZM98.1082 42.44L92.446 40.4187C99.3094 27.4168 108.074 19.4773 118.532 16.8065C119.395 16.586 120.236 16.4116 121.053 16.2765C114.128 20.5315 105.53 28.3041 98.1082 42.44Z" fill="#00B2FF"/>
        <path d="M90.3778 75.7021C88.7578 75.7021 87.4446 77.0156 87.4446 78.6353V80.0501C87.4446 81.6697 88.7578 82.9832 90.3778 82.9832C91.9977 82.9832 93.3109 81.6697 93.3109 80.0501V78.6353C93.3112 77.0154 91.998 75.7021 90.3778 75.7021Z" fill="#00B2FF"/>
        <path d="M83.1738 109.641C81.8109 108.764 79.9965 109.158 79.1196 110.52L78.1625 112.008C77.2861 113.37 77.6796 115.185 79.0422 116.061C79.5334 116.377 80.0831 116.528 80.6267 116.528C81.591 116.528 82.5353 116.054 83.0961 115.182L84.0532 113.694C84.9299 112.332 84.5361 110.518 83.1738 109.641Z" fill="#00B2FF"/>
    </g>
    <defs>
        <filter id="filter0_f_0_1" x="-7" y="0" width="162" height="162" filterUnits="userSpaceOnUse" color-interpolation-filters="sRGB">
            <feFlood flood-opacity="0" result="BackgroundImageFix"/>
            <feBlend mode="normal" in="SourceGraphic" in2="BackgroundImageFix" result="shape"/>
            <feGaussianBlur stdDeviation="5" result="effect1_foregroundBlur_0_1"/>
        </filter>
    </defs>
</svg>
