<svg width="142" height="162" viewBox="0 0 142 162" fill="none" xmlns="http://www.w3.org/2000/svg">
    <g clip-path="url(#clip0_0_1)">
        <path d="M105.387 66.633C104.706 64.5527 104.052 62.5932 103.583 60.7384C103.111 58.8796 102.823 57.1379 102.825 55.4605C102.829 53.6678 103.134 51.9482 103.942 50.095C106.273 44.7661 107.114 39.5213 107.112 34.7895C107.11 28.7171 105.748 23.4722 104.394 19.7201C103.037 15.9682 101.681 13.7009 101.607 13.578L99.4522 10L81.8813 32.3631H60.1792L42.6103 10.0019L40.455 13.5766C40.3818 13.7012 39.0248 15.9684 37.668 19.7203C36.3129 23.4725 34.9523 28.7135 34.9503 34.7898C34.9487 39.5216 35.789 44.7664 38.1204 50.0934C38.8986 51.8789 39.2098 53.6478 39.2117 55.5304C39.2261 59.0979 37.9994 63.088 36.626 67.3403C35.2745 71.598 33.7783 76.1174 33.7655 80.9939C33.7655 82.2372 33.8681 83.5044 34.1044 84.7771C34.7454 88.2253 36.0347 92.4191 37.6075 96.9165C39.9661 103.652 42.9714 111.028 45.3812 116.98C46.5843 119.952 47.641 122.569 48.379 124.537C48.7471 125.517 49.0363 126.337 49.216 126.92C49.3056 127.209 49.3697 127.44 49.3991 127.572L49.4063 127.608C49.4027 127.801 49.3844 128.11 49.3478 128.516C49.2269 129.954 48.9504 132.267 48.9484 134.818C48.952 136.807 49.1115 138.96 49.7119 141.086C50.3091 143.2 51.3913 145.346 53.2994 146.981C54.9512 148.391 56.8793 149.319 58.8205 150.012C61.7376 151.037 64.7354 151.51 67.0426 151.755C69.3482 151.997 70.9579 152 71.0311 152C71.1301 151.997 73.9537 152 77.5284 151.423C79.3156 151.131 81.2936 150.696 83.24 150.011C85.1828 149.319 87.1095 148.391 88.763 146.981C90.6695 145.345 91.7517 143.199 92.3505 141.086C92.9512 138.96 93.1104 136.804 93.1121 134.816C93.1121 133.113 92.9875 131.527 92.8702 130.223C92.8117 129.571 92.7532 128.99 92.7146 128.516C92.678 128.113 92.6597 127.809 92.6561 127.615C92.68 127.509 92.731 127.302 92.8117 127.044C93.0222 126.344 93.4105 125.249 93.9158 123.918C95.6903 119.233 98.9025 111.555 101.808 104.047C103.262 100.291 104.642 96.5684 105.738 93.2392C106.835 89.8988 107.654 86.9984 107.98 84.6398C108.155 83.343 108.234 82.0778 108.234 80.8472C108.231 75.4614 106.74 70.7899 105.387 66.633ZM59.2506 38.1299H82.9962C83.0822 38.2727 83.1665 38.423 83.2508 38.5914C83.8388 39.7778 84.2801 41.5287 84.5291 43.411C84.7854 45.2937 84.8697 47.3077 84.8697 49.0916C84.8697 50.2526 84.835 51.3128 84.7909 52.1829L79.7405 51.3403L74.1936 63.3532C70.0712 61.1777 67.5845 58.2165 66.0555 55.6455C65.1858 54.1786 64.6416 52.8438 64.3213 51.895C64.1621 51.4227 64.0575 51.0455 63.9935 50.7984L63.9314 50.5271L63.9205 50.4722L63.4332 47.8061L56.3025 50.8624C56.0753 49.998 55.8756 48.8828 55.8776 47.5626C55.8903 45.0299 56.5626 41.7941 59.2506 38.1299ZM102.267 83.8669C102.129 84.8942 101.794 86.3647 101.301 88.0786C99.5839 94.1145 96.022 103.126 92.9016 110.872C91.3396 114.752 89.8855 118.327 88.8088 121.129C88.2705 122.53 87.8253 123.735 87.4995 124.722C87.3364 125.22 87.201 125.66 87.0948 126.077C87.0435 126.289 86.9958 126.491 86.9592 126.71C86.9226 126.934 86.8876 127.165 86.886 127.496C86.8879 127.988 86.9229 128.47 86.9686 129.007C87.1059 130.595 87.3475 132.677 87.3475 134.815C87.3494 136.475 87.1955 138.141 86.8036 139.511C86.4098 140.891 85.8201 141.91 85.0089 142.606C84.1411 143.356 82.8243 144.049 81.3211 144.572C79.0685 145.372 76.4407 145.812 74.4152 146.022C73.4026 146.129 72.5365 146.182 71.9358 146.209C71.6354 146.22 71.3991 146.228 71.2435 146.232L71.0713 146.235H71.0311H71.0183C70.7987 146.235 68.1908 146.2 65.1655 145.682C63.6548 145.426 62.0435 145.045 60.6002 144.525C59.1552 144.005 57.8955 143.333 57.0513 142.604C56.2417 141.91 55.6521 140.892 55.2566 139.511C54.8666 138.143 54.7108 136.475 54.7147 134.817C54.7147 133.395 54.8209 131.985 54.9327 130.743C54.9895 130.12 55.048 129.54 55.0919 129.007C55.1379 128.47 55.1745 127.992 55.1762 127.496C55.1723 127.139 55.134 126.888 55.0919 126.643C55.0075 126.181 54.8886 125.751 54.7368 125.257C54.1727 123.44 53.1144 120.744 51.7684 117.395C49.7558 112.39 47.1263 106.021 44.8096 99.8535C42.4952 93.7007 40.4991 87.6942 39.7739 83.7316C39.6072 82.8324 39.532 81.9222 39.532 80.9939C39.5173 77.3626 40.7443 73.3486 42.1177 69.0997C43.4656 64.8458 44.9635 60.3573 44.9782 55.5304C44.9802 52.996 44.5334 50.3646 43.4015 47.7845C41.4257 43.2649 40.7168 38.8515 40.7152 34.7898C40.7135 29.5874 41.8981 24.9705 43.0904 21.6801C43.2387 21.2679 43.3871 20.876 43.5336 20.508L55.5722 35.8318C52.5031 40.1262 51.5416 44.2847 51.5543 47.5629C51.5615 51.839 53.067 54.591 53.1751 54.7943L54.1236 56.5011L60.4157 53.8056C60.8243 54.9261 61.4267 56.3145 62.335 57.849C64.4281 61.3979 68.1564 65.6318 74.4138 68.2322L76.3364 69.0343L82.2826 56.1497L88.6884 57.2155L88.9283 54.93C88.9317 54.8823 89.1938 52.3845 89.1938 49.0919C89.1918 46.5317 89.0418 43.5028 88.4483 40.6903C88.1482 39.2839 87.7377 37.9268 87.1317 36.6871C86.967 36.3538 86.7836 36.0259 86.5859 35.7092L98.5256 20.5135C99.8385 23.8264 101.36 28.9337 101.346 34.7901C101.346 38.8498 100.637 43.2613 98.6589 47.7848C97.5182 50.3812 97.0551 52.98 97.0603 55.4611C97.0603 57.7905 97.4503 60.0117 97.9925 62.1542C98.8109 65.37 99.9683 68.4263 100.879 71.4974C101.794 74.5684 102.47 77.6244 102.47 80.8477C102.47 81.8304 102.408 82.8341 102.267 83.8669Z" fill="#00B2FF"/>
        <path d="M63.2832 132.541C62.0892 132.541 61.1205 134.316 61.1205 136.504C61.1205 138.694 62.0892 140.469 63.2832 140.469C64.4772 140.469 65.4459 138.694 65.4459 136.504C65.4459 134.316 64.4772 132.541 63.2832 132.541Z" fill="#00B2FF"/>
        <path d="M78.7792 132.541C77.5852 132.541 76.6165 134.316 76.6165 136.504C76.6165 138.694 77.5852 140.469 78.7792 140.469C79.9731 140.469 80.94 138.694 80.94 136.504C80.94 134.316 79.9731 132.541 78.7792 132.541Z" fill="#00B2FF"/>
        <path d="M50.1384 77.3186C47.8989 77.3186 46.0842 79.1316 46.0842 81.3712C46.0842 83.6126 47.8989 85.4256 50.1384 85.4256C52.3783 85.4256 54.191 83.6126 54.191 81.3712C54.191 79.1313 52.378 77.3186 50.1384 77.3186Z" fill="#00B2FF"/>
        <path d="M91.9236 77.3186C89.6841 77.3186 87.8711 79.1316 87.8711 81.3712C87.8711 83.6126 89.6841 85.4256 91.9236 85.4256C94.1635 85.4256 95.9781 83.6126 95.9781 81.3712C95.9781 79.1313 94.1635 77.3186 91.9236 77.3186Z" fill="#00B2FF"/>
    </g>
    <g clip-path="url(#clip1_0_1)" filter="url(#filter0_f_0_1)">
        <path d="M105.387 66.633C104.706 64.5527 104.052 62.5932 103.583 60.7384C103.111 58.8796 102.823 57.1379 102.825 55.4605C102.829 53.6678 103.134 51.9482 103.942 50.095C106.273 44.7661 107.114 39.5213 107.112 34.7895C107.11 28.7171 105.748 23.4722 104.394 19.7201C103.037 15.9682 101.681 13.7009 101.607 13.578L99.4522 10L81.8813 32.3631H60.1792L42.6103 10.0019L40.455 13.5766C40.3818 13.7012 39.0248 15.9684 37.668 19.7203C36.3129 23.4725 34.9523 28.7135 34.9503 34.7898C34.9487 39.5216 35.789 44.7664 38.1204 50.0934C38.8986 51.8789 39.2098 53.6478 39.2117 55.5304C39.2261 59.0979 37.9994 63.088 36.626 67.3403C35.2745 71.598 33.7783 76.1174 33.7655 80.9939C33.7655 82.2372 33.8681 83.5044 34.1044 84.7771C34.7454 88.2253 36.0347 92.4191 37.6075 96.9165C39.9661 103.652 42.9714 111.028 45.3812 116.98C46.5843 119.952 47.641 122.569 48.379 124.537C48.7471 125.517 49.0363 126.337 49.216 126.92C49.3056 127.209 49.3697 127.44 49.3991 127.572L49.4063 127.608C49.4027 127.801 49.3844 128.11 49.3478 128.516C49.2269 129.954 48.9504 132.267 48.9484 134.818C48.952 136.807 49.1115 138.96 49.7119 141.086C50.3091 143.2 51.3913 145.346 53.2994 146.981C54.9512 148.391 56.8793 149.319 58.8205 150.012C61.7376 151.037 64.7354 151.51 67.0426 151.755C69.3482 151.997 70.9579 152 71.0311 152C71.1301 151.997 73.9537 152 77.5284 151.423C79.3156 151.131 81.2936 150.696 83.24 150.011C85.1828 149.319 87.1095 148.391 88.763 146.981C90.6695 145.345 91.7517 143.199 92.3505 141.086C92.9512 138.96 93.1104 136.804 93.1121 134.816C93.1121 133.113 92.9875 131.527 92.8702 130.223C92.8117 129.571 92.7532 128.99 92.7146 128.516C92.678 128.113 92.6597 127.809 92.6561 127.615C92.68 127.509 92.731 127.302 92.8117 127.044C93.0222 126.344 93.4105 125.249 93.9158 123.918C95.6903 119.233 98.9025 111.555 101.808 104.047C103.262 100.291 104.642 96.5684 105.738 93.2392C106.835 89.8988 107.654 86.9984 107.98 84.6398C108.155 83.343 108.234 82.0778 108.234 80.8472C108.231 75.4614 106.74 70.7899 105.387 66.633ZM59.2506 38.1299H82.9962C83.0822 38.2727 83.1665 38.423 83.2508 38.5914C83.8388 39.7778 84.2801 41.5287 84.5291 43.411C84.7854 45.2937 84.8697 47.3077 84.8697 49.0916C84.8697 50.2526 84.835 51.3128 84.7909 52.1829L79.7405 51.3403L74.1936 63.3532C70.0712 61.1777 67.5845 58.2165 66.0555 55.6455C65.1858 54.1786 64.6416 52.8438 64.3213 51.895C64.1621 51.4227 64.0575 51.0455 63.9935 50.7984L63.9314 50.5271L63.9205 50.4722L63.4332 47.8061L56.3025 50.8624C56.0753 49.998 55.8756 48.8828 55.8776 47.5626C55.8903 45.0299 56.5626 41.7941 59.2506 38.1299ZM102.267 83.8669C102.129 84.8942 101.794 86.3647 101.301 88.0786C99.5839 94.1145 96.022 103.126 92.9016 110.872C91.3396 114.752 89.8855 118.327 88.8088 121.129C88.2705 122.53 87.8253 123.735 87.4995 124.722C87.3364 125.22 87.201 125.66 87.0948 126.077C87.0435 126.289 86.9958 126.491 86.9592 126.71C86.9226 126.934 86.8876 127.165 86.886 127.496C86.8879 127.988 86.9229 128.47 86.9686 129.007C87.1059 130.595 87.3475 132.677 87.3475 134.815C87.3494 136.475 87.1955 138.141 86.8036 139.511C86.4098 140.891 85.8201 141.91 85.0089 142.606C84.1411 143.356 82.8243 144.049 81.3211 144.572C79.0685 145.372 76.4407 145.812 74.4152 146.022C73.4026 146.129 72.5365 146.182 71.9358 146.209C71.6354 146.22 71.3991 146.228 71.2435 146.232L71.0713 146.235H71.0311H71.0183C70.7987 146.235 68.1908 146.2 65.1655 145.682C63.6548 145.426 62.0435 145.045 60.6002 144.525C59.1552 144.005 57.8955 143.333 57.0513 142.604C56.2417 141.91 55.6521 140.892 55.2566 139.511C54.8666 138.143 54.7108 136.475 54.7147 134.817C54.7147 133.395 54.8209 131.985 54.9327 130.743C54.9895 130.12 55.048 129.54 55.0919 129.007C55.1379 128.47 55.1745 127.992 55.1762 127.496C55.1723 127.139 55.134 126.888 55.0919 126.643C55.0075 126.181 54.8886 125.751 54.7368 125.257C54.1727 123.44 53.1144 120.744 51.7684 117.395C49.7558 112.39 47.1263 106.021 44.8096 99.8535C42.4952 93.7007 40.4991 87.6942 39.7739 83.7316C39.6072 82.8324 39.532 81.9222 39.532 80.9939C39.5173 77.3626 40.7443 73.3486 42.1177 69.0997C43.4656 64.8458 44.9635 60.3573 44.9782 55.5304C44.9802 52.996 44.5334 50.3646 43.4015 47.7845C41.4257 43.2649 40.7168 38.8515 40.7152 34.7898C40.7135 29.5874 41.8981 24.9705 43.0904 21.6801C43.2387 21.2679 43.3871 20.876 43.5336 20.508L55.5722 35.8318C52.5031 40.1262 51.5416 44.2847 51.5543 47.5629C51.5615 51.839 53.067 54.591 53.1751 54.7943L54.1236 56.5011L60.4157 53.8056C60.8243 54.9261 61.4267 56.3145 62.335 57.849C64.4281 61.3979 68.1564 65.6318 74.4138 68.2322L76.3364 69.0343L82.2826 56.1497L88.6884 57.2155L88.9283 54.93C88.9317 54.8823 89.1938 52.3845 89.1938 49.0919C89.1918 46.5317 89.0418 43.5028 88.4483 40.6903C88.1482 39.2839 87.7377 37.9268 87.1317 36.6871C86.967 36.3538 86.7836 36.0259 86.5859 35.7092L98.5256 20.5135C99.8385 23.8264 101.36 28.9337 101.346 34.7901C101.346 38.8498 100.637 43.2613 98.6589 47.7848C97.5182 50.3812 97.0551 52.98 97.0603 55.4611C97.0603 57.7905 97.4503 60.0117 97.9925 62.1542C98.8109 65.37 99.9683 68.4263 100.879 71.4974C101.794 74.5684 102.47 77.6244 102.47 80.8477C102.47 81.8304 102.408 82.8341 102.267 83.8669Z" fill="#00B2FF"/>
        <path d="M63.2832 132.541C62.0892 132.541 61.1205 134.316 61.1205 136.504C61.1205 138.694 62.0892 140.469 63.2832 140.469C64.4772 140.469 65.4459 138.694 65.4459 136.504C65.4459 134.316 64.4772 132.541 63.2832 132.541Z" fill="#00B2FF"/>
        <path d="M78.7792 132.541C77.5852 132.541 76.6165 134.316 76.6165 136.504C76.6165 138.694 77.5852 140.469 78.7792 140.469C79.9731 140.469 80.94 138.694 80.94 136.504C80.94 134.316 79.9731 132.541 78.7792 132.541Z" fill="#00B2FF"/>
        <path d="M50.1384 77.3186C47.8989 77.3186 46.0842 79.1316 46.0842 81.3712C46.0842 83.6126 47.8989 85.4256 50.1384 85.4256C52.3783 85.4256 54.191 83.6126 54.191 81.3712C54.191 79.1313 52.378 77.3186 50.1384 77.3186Z" fill="#00B2FF"/>
        <path d="M91.9236 77.3186C89.6841 77.3186 87.8711 79.1316 87.8711 81.3712C87.8711 83.6126 89.6841 85.4256 91.9236 85.4256C94.1635 85.4256 95.9781 83.6126 95.9781 81.3712C95.9781 79.1313 94.1635 77.3186 91.9236 77.3186Z" fill="#00B2FF"/>
    </g>
    <defs>
        <filter id="filter0_f_0_1" x="-10" y="0" width="162" height="162" filterUnits="userSpaceOnUse" color-interpolation-filters="sRGB">
            <feFlood flood-opacity="0" result="BackgroundImageFix"/>
            <feBlend mode="normal" in="SourceGraphic" in2="BackgroundImageFix" result="shape"/>
            <feGaussianBlur stdDeviation="5" result="effect1_foregroundBlur_0_1"/>
        </filter>
        <clipPath id="clip0_0_1">
            <rect width="142" height="142" fill="white" transform="translate(0 10)"/>
        </clipPath>
        <clipPath id="clip1_0_1">
            <rect width="142" height="142" fill="white" transform="translate(0 10)"/>
        </clipPath>
    </defs>
</svg>
