<svg width="162" height="162" viewBox="0 0 162 162" fill="none" xmlns="http://www.w3.org/2000/svg">
    <g clip-path="url(#clip0_0_1)" filter="url(#filter0_f_0_1)">
        <path d="M100.364 35.8181C92.9407 35.8181 86.1635 37.7545 80.9999 41.3045C75.8363 37.7545 69.0589 35.8181 61.6364 35.8181C59.6999 35.8181 58.4092 37.1091 58.4092 39.0453C58.4092 40.9814 59.7002 42.2725 61.6364 42.2725C68.4135 42.2725 74.8681 44.5314 78.741 47.7589C79.3863 48.4043 80.032 48.7271 80.9999 48.7271C81.9679 48.7271 82.6135 48.4043 83.2589 47.7589C87.1317 44.2089 93.5861 42.2725 100.364 42.2725C102.3 42.2725 103.591 40.9814 103.591 39.0453C103.591 37.1091 102.3 35.8181 100.364 35.8181Z" fill="#00B2FF"/>
        <path d="M93.9093 97.1364C90.0365 97.1364 86.8093 95.5229 84.2275 92.6182V85.8411L92.6185 80.3547C93.9096 79.7093 94.2321 78.0957 93.9096 76.8047C93.587 75.5136 92.296 74.5454 90.6824 74.5454H71.3188C70.0278 74.5454 68.737 75.5136 68.0916 76.8047C67.7688 78.0957 68.0916 79.7093 69.3827 80.3547L77.7737 85.8411V92.6182C75.1919 95.5229 71.9647 97.1364 68.0919 97.1364C66.1555 97.1364 64.8647 98.4275 64.8647 100.364C64.8647 102.3 66.1558 103.591 68.0919 103.591C72.9329 103.591 77.4509 101.654 81.0009 98.7498C84.5509 101.977 89.0691 103.591 93.9098 103.591C95.8463 103.591 97.137 102.3 97.137 100.364C97.137 98.4275 95.8454 97.1364 93.9093 97.1364Z" fill="#00B2FF"/>
        <path d="M97.7818 68.0911C101.347 68.0911 104.236 65.2013 104.236 61.6365C104.236 58.0717 101.347 55.1819 97.7818 55.1819C94.217 55.1819 91.3271 58.0717 91.3271 61.6365C91.3271 65.2013 94.217 68.0911 97.7818 68.0911Z" fill="#00B2FF"/>
        <path d="M65.5091 68.0911C69.0739 68.0911 71.9637 65.2013 71.9637 61.6365C71.9637 58.0717 69.0739 55.1819 65.5091 55.1819C61.9443 55.1819 59.0544 58.0717 59.0544 61.6365C59.0544 65.2013 61.9443 68.0911 65.5091 68.0911Z" fill="#00B2FF"/>
        <path d="M117.145 12.259C113.273 10.9682 108.432 10 103.914 10H58.0865C53.2454 10 48.7275 10.9682 44.2093 12.259C42.5957 12.9043 41.9503 14.8408 42.5957 16.4543C42.9185 18.0679 44.8547 19.0361 46.4685 18.3908C50.3414 17.0997 54.2139 16.4543 58.0867 16.4543H103.591C107.464 16.4543 111.337 17.0997 115.21 18.3908C115.532 18.3908 115.855 18.7136 116.178 18.7136C117.469 18.7136 118.76 17.7454 119.082 16.4546C119.727 14.841 118.759 12.9046 117.145 12.259Z" fill="#00B2FF"/>
        <path d="M152 35.8183C152 26.7819 144.9 19.6819 135.864 19.6819C126.827 19.6819 119.727 26.7819 119.727 35.8183C119.727 37.7547 121.018 39.0455 122.954 39.0455C124.891 39.0455 126.182 37.7544 126.182 35.8183C126.182 30.3319 130.377 26.1365 135.863 26.1365C141.35 26.1365 145.545 30.3319 145.545 35.8183C145.545 39.3683 143.609 42.5955 140.704 44.2093C139.413 44.8547 138.768 46.7911 139.413 48.0822L140.058 49.6958C141.672 53.5686 142.318 57.764 142.318 61.9593V64.2183C139.413 63.5729 137.154 61.9593 135.218 59.3773C134.249 58.0862 131.99 57.7637 130.699 58.7319C129.408 59.7001 129.086 61.9591 130.054 63.2501C132.959 67.4455 137.477 70.0273 142.318 70.6729C142.318 75.1911 141.672 79.3865 141.027 83.5819C137.477 83.2591 134.249 81.3229 131.99 78.7409C131.022 77.4498 128.763 77.1273 127.472 78.0955C126.181 79.0637 125.858 81.3226 126.827 82.6137C129.731 86.8091 134.249 89.3909 139.09 90.0365C137.477 94.5547 135.54 99.0729 132.958 103.268H132.636C128.44 103.268 124.89 101.332 122.308 98.1047C121.34 96.8137 119.081 96.4911 117.79 97.4593C116.499 98.4275 116.177 100.687 117.145 101.978C120.049 105.85 124.245 108.432 129.086 109.4C127.795 111.014 126.504 112.305 125.213 113.919L120.05 119.727H119.727C115.532 119.727 111.982 117.791 109.4 114.564C108.432 113.273 106.173 112.95 104.882 113.918C103.591 114.887 103.268 117.145 104.236 118.437C106.818 121.987 110.368 124.245 114.564 125.537L105.85 134.895C105.527 135.218 105.205 135.541 104.882 135.864H103.591C99.3954 135.864 95.8454 133.927 93.2636 130.7C92.2954 129.409 90.0364 129.087 88.7454 130.055C87.4543 131.023 87.1318 133.282 88.1 134.573C90.3592 137.8 93.909 140.059 97.459 141.35C92.2954 143.932 86.809 145.545 81 145.545C75.191 145.545 69.7046 143.932 64.541 141.35C68.091 140.059 71.3182 137.8 73.9 134.573C74.8682 133.282 74.5454 131.023 73.2546 130.055C71.9636 129.087 69.7046 129.409 68.7364 130.7C66.1546 133.927 62.6046 135.864 58.4092 135.864H57.441C57.1182 135.541 56.7957 135.218 56.4728 134.895L47.7592 125.537C51.9546 124.568 55.5046 121.987 58.0864 118.437C59.0546 117.145 58.7318 114.887 57.441 113.918C56.15 112.95 53.891 113.273 52.9228 114.564C50.341 117.791 46.791 119.727 42.5957 119.727H41.95L36.7864 114.241C35.4954 112.95 34.2046 111.336 32.9136 109.723C37.7546 108.754 41.95 106.173 44.8546 102.3C45.8228 101.009 45.5 98.7498 44.2092 97.7816C42.9182 96.8134 40.6592 97.1362 39.691 98.427C37.1092 101.654 33.5592 103.591 29.3639 103.591H28.7185C26.1367 99.3952 24.2003 94.877 22.5867 90.3588C27.4277 89.7134 31.9457 86.8088 34.8503 82.936C35.8185 81.6449 35.4957 79.386 34.2049 78.4177C32.9141 77.4495 30.6549 77.7724 29.6867 79.0631C27.4272 81.9683 24.2 83.5819 20.65 83.9047C19.6818 79.7093 19.359 75.1911 19.359 70.9957C24.2 70.0275 28.7179 67.4458 31.6226 63.5729C32.5908 62.2819 32.2679 60.0229 30.9772 59.0547C29.6864 58.0865 27.4272 58.4093 26.459 59.7001C24.5226 61.9591 22.2636 63.5729 19.359 64.5411V62.2822C19.359 58.0868 20.0043 53.8911 21.6179 50.0186L22.2633 48.405C22.5861 47.4368 22.5861 46.146 21.9405 45.1778C21.6177 44.855 21.2951 44.5324 20.6494 44.2096C18.3902 42.2732 16.4541 39.046 16.4541 35.8186C16.4541 30.3322 20.6494 26.1368 26.1359 26.1368C31.6223 26.1368 35.8177 30.3322 35.8177 35.8186C35.8177 37.755 37.1087 39.0457 39.0448 39.0457C40.981 39.0457 42.272 37.7547 42.272 35.8186C42.272 26.7822 35.172 19.6822 26.1356 19.6822C17.1 19.6819 10 26.7819 10 35.8183C10 40.6593 12.259 45.1773 15.809 48.0819C14.1954 52.6001 13.2272 57.4408 13.2272 61.9591V70.6726C13.2272 88.4226 20.0043 105.527 32.2682 118.436L51.6318 139.091C59.3772 147.159 70.0272 152 81 152C91.9728 152 102.945 147.482 110.368 139.091L129.732 118.437C141.995 105.528 148.773 88.4229 148.773 70.6729V61.9593C148.773 57.1183 147.805 52.6004 146.191 48.0822C149.741 45.1773 152 40.6591 152 35.8183Z" fill="#00B2FF"/>
        <path d="M124.245 59.0546L122.955 48.0818C122.632 46.4682 121.018 45.1772 119.082 45.5C117.468 45.8228 116.177 47.4364 116.5 49.3728L118.436 60.3457C119.082 65.1867 118.436 70.0275 116.177 74.2228L101.332 103.914C97.459 111.659 89.7136 116.5 81 116.5C72.2865 116.5 64.5411 111.659 60.6682 103.914L45.8229 74.2226C43.5639 69.7043 42.9182 65.1861 43.5639 60.3454L45.5 49.3728C45.8229 47.7592 44.5318 45.8228 42.9183 45.5C41.3047 45.1772 39.3682 46.4682 39.0454 48.0818L37.109 59.0546C36.1408 65.1864 37.109 71.3182 39.6908 77.1275L54.5362 106.818C59.3772 116.823 69.7044 122.955 80.6772 122.955C91.65 122.955 101.977 116.823 106.818 106.818L121.664 77.1275C124.568 71.641 125.536 65.1864 124.245 59.0546Z" fill="#00B2FF"/>
    </g>
    <g clip-path="url(#clip1_0_1)">
        <path d="M100.364 35.8181C92.9407 35.8181 86.1635 37.7545 80.9999 41.3045C75.8363 37.7545 69.0589 35.8181 61.6364 35.8181C59.6999 35.8181 58.4092 37.1091 58.4092 39.0453C58.4092 40.9814 59.7002 42.2725 61.6364 42.2725C68.4135 42.2725 74.8681 44.5314 78.741 47.7589C79.3863 48.4043 80.032 48.7271 80.9999 48.7271C81.9679 48.7271 82.6135 48.4043 83.2589 47.7589C87.1317 44.2089 93.5861 42.2725 100.364 42.2725C102.3 42.2725 103.591 40.9814 103.591 39.0453C103.591 37.1091 102.3 35.8181 100.364 35.8181Z" fill="#00B2FF"/>
        <path d="M93.9093 97.1364C90.0365 97.1364 86.8093 95.5229 84.2275 92.6182V85.8411L92.6185 80.3547C93.9096 79.7093 94.2321 78.0957 93.9096 76.8047C93.587 75.5136 92.296 74.5454 90.6824 74.5454H71.3188C70.0278 74.5454 68.737 75.5136 68.0916 76.8047C67.7688 78.0957 68.0916 79.7093 69.3827 80.3547L77.7737 85.8411V92.6182C75.1919 95.5229 71.9647 97.1364 68.0919 97.1364C66.1555 97.1364 64.8647 98.4275 64.8647 100.364C64.8647 102.3 66.1558 103.591 68.0919 103.591C72.9329 103.591 77.4509 101.654 81.0009 98.7498C84.5509 101.977 89.0691 103.591 93.9098 103.591C95.8463 103.591 97.137 102.3 97.137 100.364C97.137 98.4275 95.8454 97.1364 93.9093 97.1364Z" fill="#00B2FF"/>
        <path d="M97.7818 68.0911C101.347 68.0911 104.236 65.2013 104.236 61.6365C104.236 58.0717 101.347 55.1819 97.7818 55.1819C94.217 55.1819 91.3271 58.0717 91.3271 61.6365C91.3271 65.2013 94.217 68.0911 97.7818 68.0911Z" fill="#00B2FF"/>
        <path d="M65.5091 68.0911C69.0739 68.0911 71.9637 65.2013 71.9637 61.6365C71.9637 58.0717 69.0739 55.1819 65.5091 55.1819C61.9443 55.1819 59.0544 58.0717 59.0544 61.6365C59.0544 65.2013 61.9443 68.0911 65.5091 68.0911Z" fill="#00B2FF"/>
        <path d="M117.145 12.259C113.273 10.9682 108.432 10 103.914 10H58.0865C53.2454 10 48.7275 10.9682 44.2093 12.259C42.5957 12.9043 41.9503 14.8408 42.5957 16.4543C42.9185 18.0679 44.8547 19.0361 46.4685 18.3908C50.3414 17.0997 54.2139 16.4543 58.0867 16.4543H103.591C107.464 16.4543 111.337 17.0997 115.21 18.3908C115.532 18.3908 115.855 18.7136 116.178 18.7136C117.469 18.7136 118.76 17.7454 119.082 16.4546C119.727 14.841 118.759 12.9046 117.145 12.259Z" fill="#00B2FF"/>
        <path d="M152 35.8183C152 26.7819 144.9 19.6819 135.864 19.6819C126.827 19.6819 119.727 26.7819 119.727 35.8183C119.727 37.7547 121.018 39.0455 122.954 39.0455C124.891 39.0455 126.182 37.7544 126.182 35.8183C126.182 30.3319 130.377 26.1365 135.863 26.1365C141.35 26.1365 145.545 30.3319 145.545 35.8183C145.545 39.3683 143.609 42.5955 140.704 44.2093C139.413 44.8547 138.768 46.7911 139.413 48.0822L140.058 49.6958C141.672 53.5686 142.318 57.764 142.318 61.9593V64.2183C139.413 63.5729 137.154 61.9593 135.218 59.3773C134.249 58.0862 131.99 57.7637 130.699 58.7319C129.408 59.7001 129.086 61.9591 130.054 63.2501C132.959 67.4455 137.477 70.0273 142.318 70.6729C142.318 75.1911 141.672 79.3865 141.027 83.5819C137.477 83.2591 134.249 81.3229 131.99 78.7409C131.022 77.4498 128.763 77.1273 127.472 78.0955C126.181 79.0637 125.858 81.3226 126.827 82.6137C129.731 86.8091 134.249 89.3909 139.09 90.0365C137.477 94.5547 135.54 99.0729 132.958 103.268H132.636C128.44 103.268 124.89 101.332 122.308 98.1047C121.34 96.8137 119.081 96.4911 117.79 97.4593C116.499 98.4275 116.177 100.687 117.145 101.978C120.049 105.85 124.245 108.432 129.086 109.4C127.795 111.014 126.504 112.305 125.213 113.919L120.05 119.727H119.727C115.532 119.727 111.982 117.791 109.4 114.564C108.432 113.273 106.173 112.95 104.882 113.918C103.591 114.887 103.268 117.145 104.236 118.437C106.818 121.987 110.368 124.245 114.564 125.537L105.85 134.895C105.527 135.218 105.205 135.541 104.882 135.864H103.591C99.3954 135.864 95.8454 133.927 93.2636 130.7C92.2954 129.409 90.0364 129.087 88.7454 130.055C87.4543 131.023 87.1318 133.282 88.1 134.573C90.3592 137.8 93.909 140.059 97.459 141.35C92.2954 143.932 86.809 145.545 81 145.545C75.191 145.545 69.7046 143.932 64.541 141.35C68.091 140.059 71.3182 137.8 73.9 134.573C74.8682 133.282 74.5454 131.023 73.2546 130.055C71.9636 129.087 69.7046 129.409 68.7364 130.7C66.1546 133.927 62.6046 135.864 58.4092 135.864H57.441C57.1182 135.541 56.7957 135.218 56.4728 134.895L47.7592 125.537C51.9546 124.568 55.5046 121.987 58.0864 118.437C59.0546 117.145 58.7318 114.887 57.441 113.918C56.15 112.95 53.891 113.273 52.9228 114.564C50.341 117.791 46.791 119.727 42.5957 119.727H41.95L36.7864 114.241C35.4954 112.95 34.2046 111.336 32.9136 109.723C37.7546 108.754 41.95 106.173 44.8546 102.3C45.8228 101.009 45.5 98.7498 44.2092 97.7816C42.9182 96.8134 40.6592 97.1362 39.691 98.427C37.1092 101.654 33.5592 103.591 29.3639 103.591H28.7185C26.1367 99.3952 24.2003 94.877 22.5867 90.3588C27.4277 89.7134 31.9457 86.8088 34.8503 82.936C35.8185 81.6449 35.4957 79.386 34.2049 78.4177C32.9141 77.4495 30.6549 77.7724 29.6867 79.0631C27.4272 81.9683 24.2 83.5819 20.65 83.9047C19.6818 79.7093 19.359 75.1911 19.359 70.9957C24.2 70.0275 28.7179 67.4458 31.6226 63.5729C32.5908 62.2819 32.2679 60.0229 30.9772 59.0547C29.6864 58.0865 27.4272 58.4093 26.459 59.7001C24.5226 61.9591 22.2636 63.5729 19.359 64.5411V62.2822C19.359 58.0868 20.0043 53.8911 21.6179 50.0186L22.2633 48.405C22.5861 47.4368 22.5861 46.146 21.9405 45.1778C21.6177 44.855 21.2951 44.5324 20.6494 44.2096C18.3902 42.2732 16.4541 39.046 16.4541 35.8186C16.4541 30.3322 20.6494 26.1368 26.1359 26.1368C31.6223 26.1368 35.8177 30.3322 35.8177 35.8186C35.8177 37.755 37.1087 39.0457 39.0448 39.0457C40.981 39.0457 42.272 37.7547 42.272 35.8186C42.272 26.7822 35.172 19.6822 26.1356 19.6822C17.1 19.6819 10 26.7819 10 35.8183C10 40.6593 12.259 45.1773 15.809 48.0819C14.1954 52.6001 13.2272 57.4408 13.2272 61.9591V70.6726C13.2272 88.4226 20.0043 105.527 32.2682 118.436L51.6318 139.091C59.3772 147.159 70.0272 152 81 152C91.9728 152 102.945 147.482 110.368 139.091L129.732 118.437C141.995 105.528 148.773 88.4229 148.773 70.6729V61.9593C148.773 57.1183 147.805 52.6004 146.191 48.0822C149.741 45.1773 152 40.6591 152 35.8183Z" fill="#00B2FF"/>
        <path d="M124.245 59.0546L122.955 48.0818C122.632 46.4682 121.018 45.1772 119.082 45.5C117.468 45.8228 116.177 47.4364 116.5 49.3728L118.436 60.3457C119.082 65.1867 118.436 70.0275 116.177 74.2228L101.332 103.914C97.459 111.659 89.7136 116.5 81 116.5C72.2865 116.5 64.5411 111.659 60.6682 103.914L45.8229 74.2226C43.5639 69.7043 42.9182 65.1861 43.5639 60.3454L45.5 49.3728C45.8229 47.7592 44.5318 45.8228 42.9183 45.5C41.3047 45.1772 39.3682 46.4682 39.0454 48.0818L37.109 59.0546C36.1408 65.1864 37.109 71.3182 39.6908 77.1275L54.5362 106.818C59.3772 116.823 69.7044 122.955 80.6772 122.955C91.65 122.955 101.977 116.823 106.818 106.818L121.664 77.1275C124.568 71.641 125.536 65.1864 124.245 59.0546Z" fill="#00B2FF"/>
    </g>
    <defs>
        <filter id="filter0_f_0_1" x="0" y="0" width="162" height="162" filterUnits="userSpaceOnUse" color-interpolation-filters="sRGB">
            <feFlood flood-opacity="0" result="BackgroundImageFix"/>
            <feBlend mode="normal" in="SourceGraphic" in2="BackgroundImageFix" result="shape"/>
            <feGaussianBlur stdDeviation="5" result="effect1_foregroundBlur_0_1"/>
        </filter>
        <clipPath id="clip0_0_1">
            <rect width="142" height="142" fill="white" transform="translate(10 10)"/>
        </clipPath>
        <clipPath id="clip1_0_1">
            <rect width="142" height="142" fill="white" transform="translate(10 10)"/>
        </clipPath>
    </defs>
</svg>
