<svg width="197" height="150" viewBox="0 0 197 150" fill="none" xmlns="http://www.w3.org/2000/svg">
    <g filter="url(#filter0_f_0_1)">
        <path d="M150.509 35.8784C138.648 20.0735 119.965 10 98.4155 10C77.2132 10 58.1832 20.4208 46.6696 36.2258C26.2059 37.3113 10 54.2017 10 75C10 95.7983 26.1625 112.732 46.6696 113.774C58.5308 129.579 77.2132 140 98.4155 140C119.618 140 138.648 129.579 150.161 113.774C170.625 112.689 186.831 95.7983 186.831 75C187.135 53.8544 170.973 36.9639 150.509 35.8784ZM98.3721 16.513C115.968 16.513 131.436 24.4155 142.211 36.2692C143.992 38.0494 145.426 40.2204 146.903 42.3914C149.075 45.6045 150.857 49.2084 152.638 53.1596L146.164 57.1109C144.73 52.0741 142.211 47.7756 138.604 44.1717C136.823 42.3914 134.651 40.9586 132.478 39.4823C128.177 37.3113 123.485 35.8784 118.097 35.8784C110.928 35.8784 104.064 38.3968 99.0672 42.6954C94.0273 38.3968 87.2061 35.8784 80.0372 35.8784C74.6498 35.8784 69.6099 37.3113 65.3086 39.8297C63.1362 40.9152 61.0073 42.6954 59.1825 44.519C55.5763 47.7321 53.0564 52.0741 52.0136 56.7201L44.8448 52.7689C46.2786 49.165 48.0599 45.9519 50.2323 43.0862C51.6661 40.9152 53.0999 38.7876 54.9247 36.9639C65.3086 24.0247 81.1235 16.513 98.3721 16.513ZM16.4302 74.696C16.4302 59.2385 27.5528 46.3427 41.9339 43.0862C36.5464 52.4215 33.6789 63.1897 33.6789 74.696C33.6789 86.2024 36.5464 96.9706 41.9339 106.306C27.2052 103.44 16.4302 90.1536 16.4302 74.696ZM54.5336 113.123C52.7523 111.343 51.3185 109.172 49.8413 107.001C43.7152 97.6653 40.1525 86.5498 40.1525 74.696C40.1525 68.9646 40.8911 63.5805 42.6725 58.153L50.9275 62.8423C50.9275 62.8423 50.9275 62.8423 50.9275 63.1897C50.9275 64.2752 50.9275 65.3607 51.2751 66.7936V67.1409C52.0137 73.6105 55.2288 78.9946 59.1825 82.9459L62.3976 76.8236L74.6063 55.2872L77.4739 50.5979C76.0401 50.5979 74.6063 50.5979 72.7815 50.5979C72.0429 50.5979 71.3478 50.5979 70.2616 50.5979C67.0465 50.5979 63.7879 50.5979 61.268 50.9452C62.3542 49.5124 63.7879 48.0795 65.2217 46.994C67.003 45.5611 69.1754 44.4756 71.6954 43.3901C74.2153 42.652 76.7352 41.9572 79.6028 41.9572C85.3378 41.9572 90.7253 44.1283 94.6791 47.3413L98.9804 50.9452L103.282 47.3413C107.235 44.1283 112.623 41.9572 118.358 41.9572C120.878 41.9572 123.398 42.3046 125.527 43.0427C128.047 43.7809 130.219 44.823 132 46.6466C133.782 48.0795 135.215 49.5124 136.302 50.9452C134.129 50.5979 131.609 50.5979 128.742 50.5979L115.795 73.2198L110.407 82.5551C112.927 84.7261 115.447 86.159 118.314 87.2445C120.096 87.9826 122.268 87.9826 124.05 87.9826C124.788 87.9826 125.831 87.9826 126.569 87.9826L126.917 89.0681C128.003 91.9339 128.351 95.1904 128.351 98.4035C128.351 99.1416 128.351 99.8363 128.351 100.184C128.351 102.702 127.612 104.873 126.917 107.001C122.963 118.507 111.841 127.104 98.1549 127.104C84.5124 127.104 73.3463 118.464 69.3926 107.001C68.654 104.83 68.3065 102.311 67.9589 100.184C67.9589 99.4455 67.9589 98.7508 67.9589 98.4035C67.9589 94.7996 68.6975 91.5865 69.7402 88.7208L70.0878 87.9826C71.174 87.9826 71.8692 88.33 72.9553 88.33C74.7367 88.33 76.5615 87.9826 78.3428 87.5918C81.5579 86.8537 84.0779 85.0735 86.5978 82.9025C90.8991 78.9512 94.1577 73.2198 94.8529 66.7502H102.022C102.369 70.7014 103.803 74.6526 105.628 77.8657L109.234 71.7435L112.101 66.7067L115.708 60.2371L121.095 50.9018C119.661 50.9018 118.575 50.9018 117.141 50.9018C109.234 50.9018 103.108 51.9873 101.674 60.2371H94.5053C93.4191 54.1149 89.813 51.9873 84.4255 51.2492L82.2531 55.2004L78.2993 62.0174L67.1768 81.0354L64.6569 85.334L62.8755 88.9379C61.7893 92.5417 61.4418 94.322 61.4418 98.2732C61.4418 100.053 61.7893 102.224 61.7893 104.005C62.1369 106.176 62.8755 108.303 63.5707 110.474C67.1768 119.81 74.3457 127.017 83.3393 130.925C72.5209 128.19 62.4411 121.72 54.5336 113.123ZM113.101 131.099C122.442 127.148 129.654 119.593 132.869 110.648C133.608 108.477 134.303 106.349 134.651 104.178C134.998 102.398 134.998 100.574 134.998 98.4469C134.998 94.4957 134.26 90.5444 132.826 86.9405C141.081 82.2512 146.468 73.654 146.468 63.9713L154.376 59.2819C155.81 64.3186 156.548 69.3554 156.548 74.7395C156.548 86.5932 152.942 97.7087 146.859 107.044C145.426 109.215 143.992 111.343 142.167 113.166C134.694 121.72 124.614 128.19 113.101 131.099ZM155.158 106.306C160.545 96.9706 163.413 86.2024 163.413 74.696C163.413 63.1897 160.545 52.4215 155.158 43.0862C169.887 46.2993 180.662 59.2385 180.662 74.696C180.705 90.1536 169.887 103.44 155.158 106.306Z" fill="#00B2FF"/>
        <path d="M107.018 107.739C105.237 109.172 101.978 110.257 98.7631 110.257C95.548 110.257 92.2895 109.172 90.5081 107.739C89.4219 107 88.7268 106.306 88.3357 105.568H81.8621C82.9482 111.299 90.1171 115.988 98.7631 115.988C107.409 115.988 114.578 111.69 115.664 105.568H109.191C108.799 106.306 108.104 107 107.018 107.739Z" fill="#00B2FF"/>
    </g>
    <path d="M150.509 35.8784C138.648 20.0735 119.965 10 98.4155 10C77.2132 10 58.1832 20.4208 46.6696 36.2258C26.2059 37.3113 10 54.2017 10 75C10 95.7983 26.1625 112.732 46.6696 113.774C58.5308 129.579 77.2132 140 98.4155 140C119.618 140 138.648 129.579 150.161 113.774C170.625 112.689 186.831 95.7983 186.831 75C187.135 53.8544 170.973 36.9639 150.509 35.8784ZM98.3721 16.513C115.968 16.513 131.436 24.4155 142.211 36.2692C143.992 38.0494 145.426 40.2204 146.903 42.3914C149.075 45.6045 150.857 49.2084 152.638 53.1596L146.164 57.1109C144.73 52.0741 142.211 47.7756 138.604 44.1717C136.823 42.3914 134.651 40.9586 132.478 39.4823C128.177 37.3113 123.485 35.8784 118.097 35.8784C110.928 35.8784 104.064 38.3968 99.0672 42.6954C94.0273 38.3968 87.2061 35.8784 80.0372 35.8784C74.6498 35.8784 69.6099 37.3113 65.3086 39.8297C63.1362 40.9152 61.0073 42.6954 59.1825 44.519C55.5763 47.7321 53.0564 52.0741 52.0136 56.7201L44.8448 52.7689C46.2786 49.165 48.0599 45.9519 50.2323 43.0862C51.6661 40.9152 53.0999 38.7876 54.9247 36.9639C65.3086 24.0247 81.1235 16.513 98.3721 16.513ZM16.4302 74.696C16.4302 59.2385 27.5528 46.3427 41.9339 43.0862C36.5464 52.4215 33.6789 63.1897 33.6789 74.696C33.6789 86.2024 36.5464 96.9706 41.9339 106.306C27.2052 103.44 16.4302 90.1536 16.4302 74.696ZM54.5336 113.123C52.7523 111.343 51.3185 109.172 49.8413 107.001C43.7152 97.6653 40.1525 86.5498 40.1525 74.696C40.1525 68.9646 40.8911 63.5805 42.6725 58.153L50.9275 62.8423C50.9275 62.8423 50.9275 62.8423 50.9275 63.1897C50.9275 64.2752 50.9275 65.3607 51.2751 66.7936V67.1409C52.0137 73.6105 55.2288 78.9946 59.1825 82.9459L62.3976 76.8236L74.6063 55.2872L77.4739 50.5979C76.0401 50.5979 74.6063 50.5979 72.7815 50.5979C72.0429 50.5979 71.3478 50.5979 70.2616 50.5979C67.0465 50.5979 63.7879 50.5979 61.268 50.9452C62.3542 49.5124 63.7879 48.0795 65.2217 46.994C67.003 45.5611 69.1754 44.4756 71.6954 43.3901C74.2153 42.652 76.7352 41.9572 79.6028 41.9572C85.3378 41.9572 90.7253 44.1283 94.6791 47.3413L98.9804 50.9452L103.282 47.3413C107.235 44.1283 112.623 41.9572 118.358 41.9572C120.878 41.9572 123.398 42.3046 125.527 43.0427C128.047 43.7809 130.219 44.823 132 46.6466C133.782 48.0795 135.215 49.5124 136.302 50.9452C134.129 50.5979 131.609 50.5979 128.742 50.5979L115.795 73.2198L110.407 82.5551C112.927 84.7261 115.447 86.159 118.314 87.2445C120.096 87.9826 122.268 87.9826 124.05 87.9826C124.788 87.9826 125.831 87.9826 126.569 87.9826L126.917 89.0681C128.003 91.9339 128.351 95.1904 128.351 98.4035C128.351 99.1416 128.351 99.8363 128.351 100.184C128.351 102.702 127.612 104.873 126.917 107.001C122.963 118.507 111.841 127.104 98.1549 127.104C84.5124 127.104 73.3463 118.464 69.3926 107.001C68.654 104.83 68.3065 102.311 67.9589 100.184C67.9589 99.4455 67.9589 98.7508 67.9589 98.4035C67.9589 94.7996 68.6975 91.5865 69.7402 88.7208L70.0878 87.9826C71.174 87.9826 71.8692 88.33 72.9553 88.33C74.7367 88.33 76.5615 87.9826 78.3428 87.5918C81.5579 86.8537 84.0779 85.0735 86.5978 82.9025C90.8991 78.9512 94.1577 73.2198 94.8529 66.7502H102.022C102.369 70.7014 103.803 74.6526 105.628 77.8657L109.234 71.7435L112.101 66.7067L115.708 60.2371L121.095 50.9018C119.661 50.9018 118.575 50.9018 117.141 50.9018C109.234 50.9018 103.108 51.9873 101.674 60.2371H94.5053C93.4191 54.1149 89.813 51.9873 84.4255 51.2492L82.2531 55.2004L78.2993 62.0174L67.1768 81.0354L64.6569 85.334L62.8755 88.9379C61.7893 92.5417 61.4418 94.322 61.4418 98.2732C61.4418 100.053 61.7893 102.224 61.7893 104.005C62.1369 106.176 62.8755 108.303 63.5707 110.474C67.1768 119.81 74.3457 127.017 83.3393 130.925C72.5209 128.19 62.4411 121.72 54.5336 113.123ZM113.101 131.099C122.442 127.148 129.654 119.593 132.869 110.648C133.608 108.477 134.303 106.349 134.651 104.178C134.998 102.398 134.998 100.574 134.998 98.4469C134.998 94.4957 134.26 90.5444 132.826 86.9405C141.081 82.2512 146.468 73.654 146.468 63.9713L154.376 59.2819C155.81 64.3186 156.548 69.3554 156.548 74.7395C156.548 86.5932 152.942 97.7087 146.859 107.044C145.426 109.215 143.992 111.343 142.167 113.166C134.694 121.72 124.614 128.19 113.101 131.099ZM155.158 106.306C160.545 96.9706 163.413 86.2024 163.413 74.696C163.413 63.1897 160.545 52.4215 155.158 43.0862C169.887 46.2993 180.662 59.2385 180.662 74.696C180.705 90.1536 169.887 103.44 155.158 106.306Z" fill="#00FFFF"/>
    <path d="M107.018 107.739C105.237 109.172 101.978 110.257 98.7631 110.257C95.548 110.257 92.2895 109.172 90.5081 107.739C89.4219 107 88.7268 106.306 88.3357 105.568H81.8621C82.9482 111.299 90.1171 115.988 98.7631 115.988C107.409 115.988 114.578 111.69 115.664 105.568H109.191C108.799 106.306 108.104 107 107.018 107.739Z" fill="#00FFFF"/>
    <path d="M150.509 35.8784C138.648 20.0735 119.965 10 98.4155 10C77.2132 10 58.1832 20.4208 46.6696 36.2258C26.2059 37.3113 10 54.2017 10 75C10 95.7983 26.1625 112.732 46.6696 113.774C58.5308 129.579 77.2132 140 98.4155 140C119.618 140 138.648 129.579 150.161 113.774C170.625 112.689 186.831 95.7983 186.831 75C187.135 53.8544 170.973 36.9639 150.509 35.8784ZM98.3721 16.513C115.968 16.513 131.436 24.4155 142.211 36.2692C143.992 38.0494 145.426 40.2204 146.903 42.3914C149.075 45.6045 150.857 49.2084 152.638 53.1596L146.164 57.1109C144.73 52.0741 142.211 47.7756 138.604 44.1717C136.823 42.3914 134.651 40.9586 132.478 39.4823C128.177 37.3113 123.485 35.8784 118.097 35.8784C110.928 35.8784 104.064 38.3968 99.0672 42.6954C94.0273 38.3968 87.2061 35.8784 80.0372 35.8784C74.6498 35.8784 69.6099 37.3113 65.3086 39.8297C63.1362 40.9152 61.0073 42.6954 59.1825 44.519C55.5763 47.7321 53.0564 52.0741 52.0136 56.7201L44.8448 52.7689C46.2786 49.165 48.0599 45.9519 50.2323 43.0862C51.6661 40.9152 53.0999 38.7876 54.9247 36.9639C65.3086 24.0247 81.1235 16.513 98.3721 16.513ZM16.4302 74.696C16.4302 59.2385 27.5528 46.3427 41.9339 43.0862C36.5464 52.4215 33.6789 63.1897 33.6789 74.696C33.6789 86.2024 36.5464 96.9706 41.9339 106.306C27.2052 103.44 16.4302 90.1536 16.4302 74.696ZM54.5336 113.123C52.7523 111.343 51.3185 109.172 49.8413 107.001C43.7152 97.6653 40.1525 86.5498 40.1525 74.696C40.1525 68.9646 40.8911 63.5805 42.6725 58.153L50.9275 62.8423C50.9275 62.8423 50.9275 62.8423 50.9275 63.1897C50.9275 64.2752 50.9275 65.3607 51.2751 66.7936V67.1409C52.0137 73.6105 55.2288 78.9946 59.1825 82.9459L62.3976 76.8236L74.6063 55.2872L77.4739 50.5979C76.0401 50.5979 74.6063 50.5979 72.7815 50.5979C72.0429 50.5979 71.3478 50.5979 70.2616 50.5979C67.0465 50.5979 63.7879 50.5979 61.268 50.9452C62.3542 49.5124 63.7879 48.0795 65.2217 46.994C67.003 45.5611 69.1754 44.4756 71.6954 43.3901C74.2153 42.652 76.7352 41.9572 79.6028 41.9572C85.3378 41.9572 90.7253 44.1283 94.6791 47.3413L98.9804 50.9452L103.282 47.3413C107.235 44.1283 112.623 41.9572 118.358 41.9572C120.878 41.9572 123.398 42.3046 125.527 43.0427C128.047 43.7809 130.219 44.823 132 46.6466C133.782 48.0795 135.215 49.5124 136.302 50.9452C134.129 50.5979 131.609 50.5979 128.742 50.5979L115.795 73.2198L110.407 82.5551C112.927 84.7261 115.447 86.159 118.314 87.2445C120.096 87.9826 122.268 87.9826 124.05 87.9826C124.788 87.9826 125.831 87.9826 126.569 87.9826L126.917 89.0681C128.003 91.9339 128.351 95.1904 128.351 98.4035C128.351 99.1416 128.351 99.8363 128.351 100.184C128.351 102.702 127.612 104.873 126.917 107.001C122.963 118.507 111.841 127.104 98.1549 127.104C84.5124 127.104 73.3463 118.464 69.3926 107.001C68.654 104.83 68.3065 102.311 67.9589 100.184C67.9589 99.4455 67.9589 98.7508 67.9589 98.4035C67.9589 94.7996 68.6975 91.5865 69.7402 88.7208L70.0878 87.9826C71.174 87.9826 71.8692 88.33 72.9553 88.33C74.7367 88.33 76.5615 87.9826 78.3428 87.5918C81.5579 86.8537 84.0779 85.0735 86.5978 82.9025C90.8991 78.9512 94.1577 73.2198 94.8529 66.7502H102.022C102.369 70.7014 103.803 74.6526 105.628 77.8657L109.234 71.7435L112.101 66.7067L115.708 60.2371L121.095 50.9018C119.661 50.9018 118.575 50.9018 117.141 50.9018C109.234 50.9018 103.108 51.9873 101.674 60.2371H94.5053C93.4191 54.1149 89.813 51.9873 84.4255 51.2492L82.2531 55.2004L78.2993 62.0174L67.1768 81.0354L64.6569 85.334L62.8755 88.9379C61.7893 92.5417 61.4418 94.322 61.4418 98.2732C61.4418 100.053 61.7893 102.224 61.7893 104.005C62.1369 106.176 62.8755 108.303 63.5707 110.474C67.1768 119.81 74.3457 127.017 83.3393 130.925C72.5209 128.19 62.4411 121.72 54.5336 113.123ZM113.101 131.099C122.442 127.148 129.654 119.593 132.869 110.648C133.608 108.477 134.303 106.349 134.651 104.178C134.998 102.398 134.998 100.574 134.998 98.4469C134.998 94.4957 134.26 90.5444 132.826 86.9405C141.081 82.2512 146.468 73.654 146.468 63.9713L154.376 59.2819C155.81 64.3186 156.548 69.3554 156.548 74.7395C156.548 86.5932 152.942 97.7087 146.859 107.044C145.426 109.215 143.992 111.343 142.167 113.166C134.694 121.72 124.614 128.19 113.101 131.099ZM155.158 106.306C160.545 96.9706 163.413 86.2024 163.413 74.696C163.413 63.1897 160.545 52.4215 155.158 43.0862C169.887 46.2993 180.662 59.2385 180.662 74.696C180.705 90.1536 169.887 103.44 155.158 106.306Z" fill="#00FFFF"/>
    <path d="M107.018 107.739C105.237 109.172 101.978 110.257 98.7631 110.257C95.548 110.257 92.2895 109.172 90.5081 107.739C89.4219 107 88.7268 106.306 88.3357 105.568H81.8621C82.9482 111.299 90.1171 115.988 98.7631 115.988C107.409 115.988 114.578 111.69 115.664 105.568H109.191C108.799 106.306 108.104 107 107.018 107.739Z" fill="#00FFFF"/>
    <path d="M150.509 35.8784C138.648 20.0735 119.965 10 98.4155 10C77.2132 10 58.1832 20.4208 46.6696 36.2258C26.2059 37.3113 10 54.2017 10 75C10 95.7983 26.1625 112.732 46.6696 113.774C58.5308 129.579 77.2132 140 98.4155 140C119.618 140 138.648 129.579 150.161 113.774C170.625 112.689 186.831 95.7983 186.831 75C187.135 53.8544 170.973 36.9639 150.509 35.8784ZM98.3721 16.513C115.968 16.513 131.436 24.4155 142.211 36.2692C143.992 38.0494 145.426 40.2204 146.903 42.3914C149.075 45.6045 150.857 49.2084 152.638 53.1596L146.164 57.1109C144.73 52.0741 142.211 47.7756 138.604 44.1717C136.823 42.3914 134.651 40.9586 132.478 39.4823C128.177 37.3113 123.485 35.8784 118.097 35.8784C110.928 35.8784 104.064 38.3968 99.0672 42.6954C94.0273 38.3968 87.2061 35.8784 80.0372 35.8784C74.6498 35.8784 69.6099 37.3113 65.3086 39.8297C63.1362 40.9152 61.0073 42.6954 59.1825 44.519C55.5763 47.7321 53.0564 52.0741 52.0136 56.7201L44.8448 52.7689C46.2786 49.165 48.0599 45.9519 50.2323 43.0862C51.6661 40.9152 53.0999 38.7876 54.9247 36.9639C65.3086 24.0247 81.1235 16.513 98.3721 16.513ZM16.4302 74.696C16.4302 59.2385 27.5528 46.3427 41.9339 43.0862C36.5464 52.4215 33.6789 63.1897 33.6789 74.696C33.6789 86.2024 36.5464 96.9706 41.9339 106.306C27.2052 103.44 16.4302 90.1536 16.4302 74.696ZM54.5336 113.123C52.7523 111.343 51.3185 109.172 49.8413 107.001C43.7152 97.6653 40.1525 86.5498 40.1525 74.696C40.1525 68.9646 40.8911 63.5805 42.6725 58.153L50.9275 62.8423C50.9275 62.8423 50.9275 62.8423 50.9275 63.1897C50.9275 64.2752 50.9275 65.3607 51.2751 66.7936V67.1409C52.0137 73.6105 55.2288 78.9946 59.1825 82.9459L62.3976 76.8236L74.6063 55.2872L77.4739 50.5979C76.0401 50.5979 74.6063 50.5979 72.7815 50.5979C72.0429 50.5979 71.3478 50.5979 70.2616 50.5979C67.0465 50.5979 63.7879 50.5979 61.268 50.9452C62.3542 49.5124 63.7879 48.0795 65.2217 46.994C67.003 45.5611 69.1754 44.4756 71.6954 43.3901C74.2153 42.652 76.7352 41.9572 79.6028 41.9572C85.3378 41.9572 90.7253 44.1283 94.6791 47.3413L98.9804 50.9452L103.282 47.3413C107.235 44.1283 112.623 41.9572 118.358 41.9572C120.878 41.9572 123.398 42.3046 125.527 43.0427C128.047 43.7809 130.219 44.823 132 46.6466C133.782 48.0795 135.215 49.5124 136.302 50.9452C134.129 50.5979 131.609 50.5979 128.742 50.5979L115.795 73.2198L110.407 82.5551C112.927 84.7261 115.447 86.159 118.314 87.2445C120.096 87.9826 122.268 87.9826 124.05 87.9826C124.788 87.9826 125.831 87.9826 126.569 87.9826L126.917 89.0681C128.003 91.9339 128.351 95.1904 128.351 98.4035C128.351 99.1416 128.351 99.8363 128.351 100.184C128.351 102.702 127.612 104.873 126.917 107.001C122.963 118.507 111.841 127.104 98.1549 127.104C84.5124 127.104 73.3463 118.464 69.3926 107.001C68.654 104.83 68.3065 102.311 67.9589 100.184C67.9589 99.4455 67.9589 98.7508 67.9589 98.4035C67.9589 94.7996 68.6975 91.5865 69.7402 88.7208L70.0878 87.9826C71.174 87.9826 71.8692 88.33 72.9553 88.33C74.7367 88.33 76.5615 87.9826 78.3428 87.5918C81.5579 86.8537 84.0779 85.0735 86.5978 82.9025C90.8991 78.9512 94.1577 73.2198 94.8529 66.7502H102.022C102.369 70.7014 103.803 74.6526 105.628 77.8657L109.234 71.7435L112.101 66.7067L115.708 60.2371L121.095 50.9018C119.661 50.9018 118.575 50.9018 117.141 50.9018C109.234 50.9018 103.108 51.9873 101.674 60.2371H94.5053C93.4191 54.1149 89.813 51.9873 84.4255 51.2492L82.2531 55.2004L78.2993 62.0174L67.1768 81.0354L64.6569 85.334L62.8755 88.9379C61.7893 92.5417 61.4418 94.322 61.4418 98.2732C61.4418 100.053 61.7893 102.224 61.7893 104.005C62.1369 106.176 62.8755 108.303 63.5707 110.474C67.1768 119.81 74.3457 127.017 83.3393 130.925C72.5209 128.19 62.4411 121.72 54.5336 113.123ZM113.101 131.099C122.442 127.148 129.654 119.593 132.869 110.648C133.608 108.477 134.303 106.349 134.651 104.178C134.998 102.398 134.998 100.574 134.998 98.4469C134.998 94.4957 134.26 90.5444 132.826 86.9405C141.081 82.2512 146.468 73.654 146.468 63.9713L154.376 59.2819C155.81 64.3186 156.548 69.3554 156.548 74.7395C156.548 86.5932 152.942 97.7087 146.859 107.044C145.426 109.215 143.992 111.343 142.167 113.166C134.694 121.72 124.614 128.19 113.101 131.099ZM155.158 106.306C160.545 96.9706 163.413 86.2024 163.413 74.696C163.413 63.1897 160.545 52.4215 155.158 43.0862C169.887 46.2993 180.662 59.2385 180.662 74.696C180.705 90.1536 169.887 103.44 155.158 106.306Z" fill="#00B2FF"/>
    <path d="M107.018 107.739C105.237 109.172 101.978 110.257 98.7631 110.257C95.548 110.257 92.2895 109.172 90.5081 107.739C89.4219 107 88.7268 106.306 88.3357 105.568H81.8621C82.9482 111.299 90.1171 115.988 98.7631 115.988C107.409 115.988 114.578 111.69 115.664 105.568H109.191C108.799 106.306 108.104 107 107.018 107.739Z" fill="#00B2FF"/>
    <defs>
        <filter id="filter0_f_0_1" x="0" y="0" width="196.835" height="150" filterUnits="userSpaceOnUse" color-interpolation-filters="sRGB">
            <feFlood flood-opacity="0" result="BackgroundImageFix"/>
            <feBlend mode="normal" in="SourceGraphic" in2="BackgroundImageFix" result="shape"/>
            <feGaussianBlur stdDeviation="5" result="effect1_foregroundBlur_0_1"/>
        </filter>
    </defs>
</svg>
