<?xml version="1.0" encoding="utf-8"?>
<!-- Generator: Adobe Illustrator 26.0.0, SVG Export Plug-In . SVG Version: 6.00 Build 0)  -->
<svg version="1.1" id="Layer_1" xmlns="http://www.w3.org/2000/svg" xmlns:xlink="http://www.w3.org/1999/xlink" x="0px" y="0px"
	 viewBox="0 0 52 38" style="enable-background:new 0 0 52 38;" xml:space="preserve">
<style type="text/css">
	.st0{fill:#FFFFFF;}
</style>
<g>
	<path class="st0" d="M40.5,8.6C37.2,4.2,32,1.4,26,1.4c-5.9,0-11.2,2.9-14.4,7.3C5.9,9,1.4,13.7,1.4,19.5S5.9,30,11.6,30.3
		c3.3,4.4,8.5,7.3,14.4,7.3s11.2-2.9,14.4-7.3c5.7-0.3,10.2-5,10.2-10.8C50.7,13.6,46.2,8.9,40.5,8.6z M26,3.2
		c4.9,0,9.2,2.2,12.2,5.5c0.5,0.5,0.9,1.1,1.3,1.7c0.6,0.9,1.1,1.9,1.6,3l-1.8,1.1c-0.4-1.4-1.1-2.6-2.1-3.6
		c-0.5-0.5-1.1-0.9-1.7-1.3c-1.2-0.6-2.5-1-4-1c-2,0-3.9,0.7-5.3,1.9c-1.4-1.2-3.3-1.9-5.3-1.9c-1.5,0-2.9,0.4-4.1,1.1
		c-0.6,0.3-1.2,0.8-1.7,1.3c-1,0.9-1.7,2.1-2,3.4l-2-1.1c0.4-1,0.9-1.9,1.5-2.7c0.4-0.6,0.8-1.2,1.3-1.7C16.8,5.3,21.2,3.2,26,3.2z
		 M3.2,19.4c0-4.3,3.1-7.9,7.1-8.8C8.8,13.2,8,16.2,8,19.4s0.8,6.2,2.3,8.8C6.2,27.4,3.2,23.7,3.2,19.4z M13.8,30.1
		c-0.5-0.5-0.9-1.1-1.3-1.7c-1.7-2.6-2.7-5.7-2.7-9c0-1.6,0.2-3.1,0.7-4.6l2.3,1.3c0,0,0,0,0,0.1c0,0.3,0,0.6,0.1,1v0.1
		c0.2,1.8,1.1,3.3,2.2,4.4l0,0L16,20l3.4-6l0.8-1.3c-0.4,0-0.8,0-1.3,0c-0.2,0-0.4,0-0.7,0c-0.9,0-1.8,0-2.5,0.1
		c0.3-0.4,0.7-0.8,1.1-1.1c0.5-0.4,1.1-0.7,1.8-1c0.7-0.2,1.4-0.4,2.2-0.4c1.6,0,3.1,0.6,4.2,1.5l1.2,1l1.2-1
		c1.1-0.9,2.6-1.5,4.2-1.5c0.7,0,1.4,0.1,2,0.3c0.7,0.2,1.3,0.5,1.8,1c0.5,0.4,0.9,0.8,1.2,1.2c-0.6-0.1-1.3-0.1-2.1-0.1L30.9,19
		l-1.5,2.6c0.7,0.6,1.4,1,2.2,1.3c0.5,0.2,1.1,0.2,1.6,0.2c0.2,0,0.5,0,0.7,0l0.1,0.3c0.3,0.8,0.4,1.7,0.4,2.6c0,0.2,0,0.4,0,0.5
		c0,0.7-0.2,1.3-0.4,1.9c-1.1,3.2-4.2,5.6-8,5.6s-6.9-2.4-8-5.6c-0.2-0.6-0.3-1.3-0.4-1.9c0-0.2,0-0.4,0-0.5c0-1,0.2-1.9,0.5-2.7
		l0.1-0.2c0.3,0,0.5,0.1,0.8,0.1c0.5,0,1-0.1,1.5-0.2c0.9-0.2,1.6-0.7,2.3-1.3c1.2-1.1,2.1-2.7,2.3-4.5h2c0.1,1.1,0.5,2.2,1,3.1
		l1-1.7l0.8-1.4l1-1.8l1.5-2.6c-0.4,0-0.7,0-1.1,0c-2.2,0-3.9,0.3-4.3,2.6h-2c-0.3-1.7-1.3-2.3-2.8-2.5L21.6,14l-1.1,1.9l-3.1,5.3
		l-0.7,1.2l-0.5,1c-0.3,1-0.4,1.5-0.4,2.6c0,0.5,0.1,1.1,0.1,1.6c0.1,0.6,0.3,1.2,0.5,1.8c1,2.6,3,4.6,5.5,5.7
		C18.8,34.3,16,32.5,13.8,30.1z M30.1,35.1c2.6-1.1,4.6-3.2,5.5-5.7c0.2-0.6,0.4-1.2,0.5-1.8c0.1-0.5,0.1-1,0.1-1.6
		c0-1.1-0.2-2.2-0.6-3.2c2.3-1.3,3.8-3.7,3.8-6.4l2.2-1.3c0.4,1.4,0.6,2.8,0.6,4.3c0,3.3-1,6.4-2.7,9c-0.4,0.6-0.8,1.2-1.3,1.7
		C36.1,32.5,33.3,34.3,30.1,35.1z M41.8,28.2c1.5-2.6,2.3-5.6,2.3-8.8s-0.8-6.2-2.3-8.8c4.1,0.9,7.1,4.5,7.1,8.8
		C48.9,23.7,45.9,27.4,41.8,28.2z"/>
	<path class="st0" d="M28.4,28.6c-0.5,0.4-1.4,0.7-2.3,0.7s-1.8-0.3-2.3-0.7c-0.3-0.2-0.5-0.4-0.6-0.6h-1.8c0.3,1.6,2.3,2.9,4.7,2.9
		s4.4-1.2,4.7-2.9H29C28.9,28.2,28.7,28.4,28.4,28.6z"/>
</g>
</svg>
