<svg width="424" height="106" viewBox="0 0 424 106" fill="none" xmlns="http://www.w3.org/2000/svg">
<mask id="path-1-outside-1_0_1" maskUnits="userSpaceOnUse" x="8" y="8" width="408" height="90" fill="black">
<rect fill="white" x="8" y="8" width="408" height="90"/>
<path d="M27.284 58.96L22.004 48.4H21.524L23.06 58.96V94H10.58V26.32H20.18L45.62 62.128L50.708 72.4H51.188L49.652 62.128V26.8H62.132V94.48H52.532L27.284 58.96ZM108.714 26.8H121.194V70.192C121.194 74.544 120.618 78.288 119.466 81.424C118.314 84.56 116.714 87.152 114.666 89.2C112.618 91.248 110.122 92.752 107.178 93.712C104.234 94.672 101.002 95.152 97.4818 95.152C80.4578 95.152 71.9458 87.376 71.9458 71.824V26.8H85.0978V69.232C85.0978 71.856 85.3218 74.096 85.7698 75.952C86.2818 77.744 87.0498 79.216 88.0738 80.368C89.0978 81.456 90.3778 82.256 91.9138 82.768C93.4498 83.216 95.2418 83.44 97.2898 83.44C101.322 83.44 104.234 82.32 106.026 80.08C107.818 77.84 108.714 74.224 108.714 69.232V26.8ZM101.514 10.48H116.778V13.36L101.418 21.808H91.5298L101.514 10.48ZM183.109 59.152L184.549 45.808H183.973L179.845 56.56L165.541 81.616H161.317L146.245 56.464L142.021 45.808H141.541L143.461 59.056V94H130.981V26.8H142.981L160.933 57.52L164.101 65.2H164.485L167.365 57.328L184.357 26.8H196.261V94H183.109V59.152ZM206.323 26.8H246.163V38.512H219.475V54.16H243.763V65.872H219.475V82.288H246.643V94H206.323V26.8ZM255.039 27.472C256.511 27.216 258.079 26.992 259.743 26.8C261.471 26.544 263.167 26.352 264.831 26.224C266.559 26.096 268.223 26 269.823 25.936C271.423 25.872 272.895 25.84 274.239 25.84C277.375 25.84 280.447 26.128 283.455 26.704C286.527 27.28 289.247 28.272 291.615 29.68C294.047 31.088 295.967 33.04 297.375 35.536C298.847 37.968 299.583 41.04 299.583 44.752C299.583 50.256 298.303 54.736 295.743 58.192C293.183 61.648 289.759 64.048 285.471 65.392L290.175 68.368L305.535 94H290.367L275.103 67.696L268.191 66.448V94H255.039V27.472ZM275.199 37.552C273.855 37.552 272.511 37.584 271.167 37.648C269.887 37.712 268.895 37.84 268.191 38.032V57.52H273.759C277.407 57.52 280.319 56.688 282.495 55.024C284.671 53.36 285.759 50.608 285.759 46.768C285.759 43.888 284.863 41.648 283.071 40.048C281.279 38.384 278.655 37.552 275.199 37.552ZM306.049 60.4C306.049 49.2 308.513 40.592 313.441 34.576C318.369 28.496 325.409 25.456 334.561 25.456C339.361 25.456 343.553 26.288 347.137 27.952C350.721 29.616 353.697 31.984 356.065 35.056C358.433 38.128 360.193 41.808 361.345 46.096C362.497 50.384 363.073 55.152 363.073 60.4C363.073 71.6 360.577 80.24 355.585 86.32C350.657 92.336 343.649 95.344 334.561 95.344C329.697 95.344 325.473 94.512 321.889 92.848C318.305 91.184 315.329 88.816 312.961 85.744C310.657 82.672 308.929 78.992 307.777 74.704C306.625 70.416 306.049 65.648 306.049 60.4ZM319.873 60.4C319.873 63.792 320.161 66.928 320.737 69.808C321.313 72.624 322.177 75.056 323.329 77.104C324.545 79.152 326.081 80.752 327.937 81.904C329.793 83.056 332.001 83.632 334.561 83.632C339.233 83.632 342.849 81.808 345.409 78.16C347.969 74.512 349.249 68.592 349.249 60.4C349.249 57.136 348.961 54.096 348.385 51.28C347.873 48.464 347.041 46 345.889 43.888C344.737 41.776 343.233 40.144 341.377 38.992C339.521 37.776 337.249 37.168 334.561 37.168C329.889 37.168 326.273 39.056 323.713 42.832C321.153 46.544 319.873 52.4 319.873 60.4ZM400.026 75.952C400.026 73.904 399.258 72.24 397.722 70.96C396.25 69.68 394.362 68.528 392.058 67.504C389.818 66.416 387.354 65.328 384.666 64.24C382.042 63.088 379.578 61.712 377.274 60.112C375.034 58.448 373.146 56.4 371.61 53.968C370.138 51.536 369.402 48.432 369.402 44.656C369.402 41.392 369.946 38.576 371.034 36.208C372.122 33.776 373.658 31.76 375.642 30.16C377.69 28.56 380.09 27.376 382.842 26.608C385.594 25.84 388.666 25.456 392.058 25.456C395.962 25.456 399.642 25.808 403.098 26.512C406.554 27.152 409.402 28.112 411.642 29.392L407.514 40.432C406.106 39.536 403.994 38.736 401.178 38.032C398.362 37.264 395.322 36.88 392.058 36.88C388.986 36.88 386.618 37.488 384.954 38.704C383.354 39.92 382.554 41.552 382.554 43.6C382.554 45.52 383.29 47.12 384.762 48.4C386.298 49.68 388.186 50.864 390.426 51.952C392.73 53.04 395.194 54.16 397.818 55.312C400.506 56.464 402.97 57.872 405.21 59.536C407.514 61.136 409.402 63.152 410.874 65.584C412.41 67.952 413.178 70.928 413.178 74.512C413.178 78.096 412.57 81.2 411.354 83.824C410.202 86.384 408.538 88.528 406.362 90.256C404.25 91.984 401.658 93.264 398.586 94.096C395.578 94.928 392.25 95.344 388.602 95.344C383.802 95.344 379.578 94.896 375.93 94C372.282 93.104 369.594 92.208 367.866 91.312L372.09 80.08C372.794 80.464 373.69 80.88 374.778 81.328C375.93 81.776 377.21 82.192 378.618 82.576C380.026 82.96 381.498 83.28 383.034 83.536C384.634 83.792 386.266 83.92 387.93 83.92C391.834 83.92 394.81 83.28 396.858 82C398.97 80.656 400.026 78.64 400.026 75.952Z"/>
</mask>
<path d="M27.284 58.96L25.4952 59.8544L25.5643 59.9927L25.6539 60.1187L27.284 58.96ZM22.004 48.4L23.7929 47.5056L23.2401 46.4H22.004V48.4ZM21.524 48.4V46.4H19.2121L19.5448 48.6879L21.524 48.4ZM23.06 58.96H25.06V58.8153L25.0392 58.6721L23.06 58.96ZM23.06 94V96H25.06V94H23.06ZM10.58 94H8.58001V96H10.58V94ZM10.58 26.32V24.32H8.58001V26.32H10.58ZM20.18 26.32L21.8104 25.1617L21.2125 24.32H20.18V26.32ZM45.62 62.128L47.4122 61.2403L47.342 61.0986L47.2504 60.9697L45.62 62.128ZM50.708 72.4L48.9158 73.2877L49.4668 74.4H50.708V72.4ZM51.188 72.4V74.4H53.5093L53.166 72.1042L51.188 72.4ZM49.652 62.128H47.652V62.2767L47.674 62.4238L49.652 62.128ZM49.652 26.8V24.8H47.652V26.8H49.652ZM62.132 26.8H64.132V24.8H62.132V26.8ZM62.132 94.48V96.48H64.132V94.48H62.132ZM52.532 94.48L50.9019 95.6387L51.4999 96.48H52.532V94.48ZM29.0729 58.0656L23.7929 47.5056L20.2152 49.2944L25.4952 59.8544L29.0729 58.0656ZM22.004 46.4H21.524V50.4H22.004V46.4ZM19.5448 48.6879L21.0808 59.2479L25.0392 58.6721L23.5032 48.1121L19.5448 48.6879ZM21.06 58.96V94H25.06V58.96H21.06ZM23.06 92H10.58V96H23.06V92ZM12.58 94V26.32H8.58001V94H12.58ZM10.58 28.32H20.18V24.32H10.58V28.32ZM18.5496 27.4783L43.9896 63.2863L47.2504 60.9697L21.8104 25.1617L18.5496 27.4783ZM43.8278 63.0157L48.9158 73.2877L52.5002 71.5123L47.4122 61.2403L43.8278 63.0157ZM50.708 74.4H51.188V70.4H50.708V74.4ZM53.166 72.1042L51.63 61.8322L47.674 62.4238L49.21 72.6958L53.166 72.1042ZM51.652 62.128V26.8H47.652V62.128H51.652ZM49.652 28.8H62.132V24.8H49.652V28.8ZM60.132 26.8V94.48H64.132V26.8H60.132ZM62.132 92.48H52.532V96.48H62.132V92.48ZM54.1622 93.3213L28.9142 57.8013L25.6539 60.1187L50.9019 95.6387L54.1622 93.3213ZM108.714 26.8V24.8H106.714V26.8H108.714ZM121.194 26.8H123.194V24.8H121.194V26.8ZM119.466 81.424L117.588 80.7344L119.466 81.424ZM114.666 89.2L116.08 90.6142L114.666 89.2ZM107.178 93.712L107.798 95.6135L107.178 93.712ZM71.9458 26.8V24.8H69.9458V26.8H71.9458ZM85.0978 26.8H87.0978V24.8H85.0978V26.8ZM85.7698 75.952L83.8256 76.4213L83.8353 76.4616L83.8467 76.5014L85.7698 75.952ZM88.0738 80.368L86.5789 81.6967L86.5978 81.718L86.6174 81.7387L88.0738 80.368ZM91.9138 82.768L91.2813 84.6654L91.3173 84.6774L91.3538 84.688L91.9138 82.768ZM106.026 80.08L107.587 81.3294V81.3294L106.026 80.08ZM101.514 10.48V8.47999H100.611L100.013 9.15759L101.514 10.48ZM116.778 10.48H118.778V8.47999H116.778V10.48ZM116.778 13.36L117.742 15.1124L118.778 14.5425V13.36H116.778ZM101.418 21.808V23.808H101.931L102.382 23.5604L101.418 21.808ZM91.5298 21.808L90.0293 20.4856L87.1011 23.808H91.5298V21.808ZM108.714 28.8H121.194V24.8H108.714V28.8ZM119.194 26.8V70.192H123.194V26.8H119.194ZM119.194 70.192C119.194 74.3762 118.639 77.8748 117.588 80.7344L121.343 82.1136C122.597 78.7012 123.194 74.7118 123.194 70.192H119.194ZM117.588 80.7344C116.521 83.6398 115.065 85.9721 113.252 87.7858L116.08 90.6142C118.362 88.3319 120.106 85.4802 121.343 82.1136L117.588 80.7344ZM113.252 87.7858C111.441 89.5959 109.224 90.9413 106.558 91.8105L107.798 95.6135C111.02 94.5628 113.794 92.9001 116.08 90.6142L113.252 87.7858ZM106.558 91.8105C103.839 92.697 100.82 93.152 97.4818 93.152V97.152C101.184 97.152 104.628 96.647 107.798 95.6135L106.558 91.8105ZM97.4818 93.152C89.2355 93.152 83.424 91.2648 79.6787 87.8434C75.9677 84.4532 73.9458 79.2428 73.9458 71.824H69.9458C69.9458 79.9572 72.1798 86.4108 76.9808 90.7966C81.7475 95.1512 88.704 97.152 97.4818 97.152V93.152ZM73.9458 71.824V26.8H69.9458V71.824H73.9458ZM71.9458 28.8H85.0978V24.8H71.9458V28.8ZM83.0978 26.8V69.232H87.0978V26.8H83.0978ZM83.0978 69.232C83.0978 71.9597 83.3296 74.3665 83.8256 76.4213L87.7139 75.4827C87.3139 73.8255 87.0978 71.7523 87.0978 69.232H83.0978ZM83.8467 76.5014C84.4242 78.5226 85.3182 80.2784 86.5789 81.6967L89.5686 79.0393C88.7813 78.1536 88.1393 76.9654 87.6928 75.4026L83.8467 76.5014ZM86.6174 81.7387C87.8869 83.0876 89.4582 84.0577 91.2813 84.6654L92.5462 80.8706C91.2973 80.4543 90.3086 79.8244 89.5302 78.9973L86.6174 81.7387ZM91.3538 84.688C93.1143 85.2015 95.1024 85.44 97.2898 85.44V81.44C95.3811 81.44 93.7852 81.2305 92.4738 80.848L91.3538 84.688ZM97.2898 85.44C101.67 85.44 105.279 84.2147 107.587 81.3294L104.464 78.8306C103.188 80.4253 100.973 81.44 97.2898 81.44V85.44ZM107.587 81.3294C109.807 78.5546 110.714 74.3756 110.714 69.232H106.714C106.714 74.0724 105.828 77.1254 104.464 78.8306L107.587 81.3294ZM110.714 69.232V26.8H106.714V69.232H110.714ZM101.514 12.48H116.778V8.47999H101.514V12.48ZM114.778 10.48V13.36H118.778V10.48H114.778ZM115.814 11.6076L100.454 20.0556L102.382 23.5604L117.742 15.1124L115.814 11.6076ZM101.418 19.808H91.5298V23.808H101.418V19.808ZM93.0302 23.1304L103.014 11.8024L100.013 9.15759L90.0293 20.4856L93.0302 23.1304ZM183.109 59.152L181.121 58.9374L181.109 59.0444V59.152H183.109ZM184.549 45.808L186.538 46.0226L186.777 43.808H184.549V45.808ZM183.973 45.808V43.808H182.599L182.106 45.0912L183.973 45.808ZM179.845 56.56L181.582 57.5516L181.658 57.4192L181.712 57.2768L179.845 56.56ZM165.541 81.616V83.616H166.702L167.278 82.6076L165.541 81.616ZM161.317 81.616L159.602 82.644L160.184 83.616H161.317V81.616ZM146.245 56.464L144.386 57.201L144.446 57.3524L144.53 57.492L146.245 56.464ZM142.021 45.808L143.881 45.071L143.38 43.808H142.021V45.808ZM141.541 45.808V43.808H139.23L139.562 46.0949L141.541 45.808ZM143.461 59.056H145.461V58.9118L145.441 58.7691L143.461 59.056ZM143.461 94V96H145.461V94H143.461ZM130.981 94H128.981V96H130.981V94ZM130.981 26.8V24.8H128.981V26.8H130.981ZM142.981 26.8L144.708 25.7909L144.129 24.8H142.981V26.8ZM160.933 57.52L162.782 56.7573L162.73 56.6299L162.66 56.5109L160.933 57.52ZM164.101 65.2L162.252 65.9627L162.763 67.2H164.101V65.2ZM164.485 65.2V67.2H165.883L166.363 65.8872L164.485 65.2ZM167.365 57.328L165.618 56.3553L165.541 56.4929L165.487 56.6408L167.365 57.328ZM184.357 26.8V24.8H183.182L182.61 25.8273L184.357 26.8ZM196.261 26.8H198.261V24.8H196.261V26.8ZM196.261 94V96H198.261V94H196.261ZM183.109 94H181.109V96H183.109V94ZM185.098 59.3666L186.538 46.0226L182.561 45.5934L181.121 58.9374L185.098 59.3666ZM184.549 43.808H183.973V47.808H184.549V43.808ZM182.106 45.0912L177.978 55.8432L181.712 57.2768L185.84 46.5248L182.106 45.0912ZM178.108 55.5684L163.804 80.6244L167.278 82.6076L181.582 57.5516L178.108 55.5684ZM165.541 79.616H161.317V83.616H165.541V79.616ZM163.033 80.588L147.961 55.436L144.53 57.492L159.602 82.644L163.033 80.588ZM148.105 55.727L143.881 45.071L140.162 46.545L144.386 57.201L148.105 55.727ZM142.021 43.808H141.541V47.808H142.021V43.808ZM139.562 46.0949L141.482 59.3429L145.441 58.7691L143.521 45.5211L139.562 46.0949ZM141.461 59.056V94H145.461V59.056H141.461ZM143.461 92H130.981V96H143.461V92ZM132.981 94V26.8H128.981V94H132.981ZM130.981 28.8H142.981V24.8H130.981V28.8ZM141.254 27.8091L159.206 58.5291L162.66 56.5109L144.708 25.7909L141.254 27.8091ZM159.084 58.2827L162.252 65.9627L165.95 64.4373L162.782 56.7573L159.084 58.2827ZM164.101 67.2H164.485V63.2H164.101V67.2ZM166.363 65.8872L169.243 58.0152L165.487 56.6408L162.607 64.5128L166.363 65.8872ZM169.113 58.3007L186.105 27.7727L182.61 25.8273L165.618 56.3553L169.113 58.3007ZM184.357 28.8H196.261V24.8H184.357V28.8ZM194.261 26.8V94H198.261V26.8H194.261ZM196.261 92H183.109V96H196.261V92ZM185.109 94V59.152H181.109V94H185.109ZM206.322 26.8V24.8H204.322V26.8H206.322ZM246.163 26.8H248.163V24.8H246.163V26.8ZM246.163 38.512V40.512H248.163V38.512H246.163ZM219.475 38.512V36.512H217.475V38.512H219.475ZM219.475 54.16H217.475V56.16H219.475V54.16ZM243.762 54.16H245.762V52.16H243.762V54.16ZM243.762 65.872V67.872H245.762V65.872H243.762ZM219.475 65.872V63.872H217.475V65.872H219.475ZM219.475 82.288H217.475V84.288H219.475V82.288ZM246.643 82.288H248.643V80.288H246.643V82.288ZM246.643 94V96H248.643V94H246.643ZM206.322 94H204.322V96H206.322V94ZM206.322 28.8H246.163V24.8H206.322V28.8ZM244.163 26.8V38.512H248.163V26.8H244.163ZM246.163 36.512H219.475V40.512H246.163V36.512ZM217.475 38.512V54.16H221.475V38.512H217.475ZM219.475 56.16H243.762V52.16H219.475V56.16ZM241.762 54.16V65.872H245.762V54.16H241.762ZM243.762 63.872H219.475V67.872H243.762V63.872ZM217.475 65.872V82.288H221.475V65.872H217.475ZM219.475 84.288H246.643V80.288H219.475V84.288ZM244.643 82.288V94H248.643V82.288H244.643ZM246.643 92H206.322V96H246.643V92ZM208.322 94V26.8H204.322V94H208.322ZM255.039 27.472L254.696 25.5016L253.039 25.7898V27.472H255.039ZM259.743 26.8L259.972 28.7868L260.004 28.7831L260.036 28.7784L259.743 26.8ZM264.831 26.224L264.683 24.2295L264.677 24.2299L264.831 26.224ZM269.823 25.936L269.743 23.9376V23.9376L269.823 25.936ZM283.455 26.704L283.079 28.6683L283.086 28.6697L283.455 26.704ZM291.615 29.68L290.593 31.3991L290.603 31.405L290.613 31.4109L291.615 29.68ZM297.375 35.536L295.633 36.5186L295.648 36.5454L295.664 36.5716L297.375 35.536ZM295.743 58.192L294.136 57.0015L295.743 58.192ZM285.471 65.392L284.873 63.4835L280.754 64.7745L284.401 67.0822L285.471 65.392ZM290.175 68.368L291.89 67.34L291.646 66.9321L291.244 66.6778L290.175 68.368ZM305.535 94V96H309.065L307.25 92.972L305.535 94ZM290.367 94L288.637 95.0038L289.215 96H290.367V94ZM275.103 67.696L276.833 66.6922L276.368 65.8922L275.458 65.7278L275.103 67.696ZM268.191 66.448L268.546 64.4798L266.191 64.0546V66.448H268.191ZM268.191 94V96H270.191V94H268.191ZM255.039 94H253.039V96H255.039V94ZM271.167 37.648L271.072 35.6503L271.067 35.6505L271.167 37.648ZM268.191 38.032L267.665 36.1025L266.191 36.5044V38.032H268.191ZM268.191 57.52H266.191V59.52H268.191V57.52ZM283.071 40.048L281.71 41.5136L281.724 41.5269L281.739 41.5399L283.071 40.048ZM255.381 29.4424C256.812 29.1937 258.342 28.9749 259.972 28.7868L259.514 24.8132C257.816 25.009 256.21 25.2383 254.696 25.5016L255.381 29.4424ZM260.036 28.7784C261.72 28.529 263.369 28.3423 264.984 28.2181L264.677 24.2299C262.965 24.3616 261.222 24.559 259.45 24.8216L260.036 28.7784ZM264.979 28.2185C266.686 28.0921 268.327 27.9974 269.903 27.9344L269.743 23.9376C268.118 24.0026 266.432 24.0999 264.683 24.2295L264.979 28.2185ZM269.903 27.9344C271.481 27.8713 272.926 27.84 274.239 27.84V23.84C272.864 23.84 271.365 23.8727 269.743 23.9376L269.903 27.9344ZM274.239 27.84C277.252 27.84 280.198 28.1166 283.079 28.6683L283.831 24.7397C280.696 24.1394 277.498 23.84 274.239 23.84V27.84ZM283.086 28.6697C285.958 29.2083 288.452 30.126 290.593 31.3991L292.637 27.9609C290.042 26.418 287.095 25.3517 283.823 24.7383L283.086 28.6697ZM290.613 31.4109C292.729 32.6363 294.397 34.3272 295.633 36.5186L299.117 34.5534C297.537 31.7528 295.364 29.5397 292.617 27.9491L290.613 31.4109ZM295.664 36.5716C296.897 38.6095 297.583 41.2959 297.583 44.752H301.583C301.583 40.7841 300.796 37.3265 299.086 34.5004L295.664 36.5716ZM297.583 44.752C297.583 49.9479 296.377 53.9757 294.136 57.0015L297.35 59.3825C300.229 55.4963 301.583 50.5641 301.583 44.752H297.583ZM294.136 57.0015C291.839 60.1016 288.776 62.2601 284.873 63.4835L286.069 67.3005C290.741 65.8359 294.526 63.1944 297.35 59.3825L294.136 57.0015ZM284.401 67.0822L289.105 70.0582L291.244 66.6778L286.54 63.7018L284.401 67.0822ZM288.459 69.396L303.819 95.028L307.25 92.972L291.89 67.34L288.459 69.396ZM305.535 92H290.367V96H305.535V92ZM292.097 92.9962L276.833 66.6922L273.373 68.6998L288.637 95.0038L292.097 92.9962ZM275.458 65.7278L268.546 64.4798L267.835 68.4162L274.747 69.6642L275.458 65.7278ZM266.191 66.448V94H270.191V66.448H266.191ZM268.191 92H255.039V96H268.191V92ZM257.039 94V27.472H253.039V94H257.039ZM275.199 35.552C273.823 35.552 272.447 35.5848 271.072 35.6503L271.262 39.6457C272.574 39.5832 273.887 39.552 275.199 39.552V35.552ZM271.067 35.6505C269.733 35.7172 268.574 35.8544 267.665 36.1025L268.717 39.9615C269.215 39.8256 270.04 39.7068 271.267 39.6455L271.067 35.6505ZM266.191 38.032V57.52H270.191V38.032H266.191ZM268.191 59.52H273.759V55.52H268.191V59.52ZM273.759 59.52C277.701 59.52 281.085 58.6199 283.71 56.6127L281.28 53.4353C279.553 54.7561 277.113 55.52 273.759 55.52V59.52ZM283.71 56.6127C286.559 54.4339 287.759 50.9654 287.759 46.768H283.759C283.759 50.2506 282.783 52.2861 281.28 53.4353L283.71 56.6127ZM287.759 46.768C287.759 43.4418 286.704 40.6107 284.403 38.5561L281.739 41.5399C283.022 42.6853 283.759 44.3342 283.759 46.768H287.759ZM284.432 38.5824C282.141 36.4553 278.951 35.552 275.199 35.552V39.552C278.359 39.552 280.417 40.3127 281.71 41.5136L284.432 38.5824ZM313.441 34.576L314.988 35.8434L314.995 35.8353L313.441 34.576ZM347.137 27.952L346.295 29.766V29.766L347.137 27.952ZM356.065 35.056L354.481 36.277L356.065 35.056ZM361.345 46.096L359.414 46.6149L361.345 46.096ZM355.585 86.32L354.04 85.0509L354.038 85.0526L355.585 86.32ZM321.889 92.848L322.731 91.034L321.889 92.848ZM312.961 85.744L311.361 86.944L311.369 86.9546L311.377 86.965L312.961 85.744ZM320.737 69.808L318.776 70.2002L318.778 70.2088L320.737 69.808ZM323.329 77.104L321.586 78.0845L321.598 78.1049L321.61 78.1251L323.329 77.104ZM327.937 81.904L326.883 83.6033L327.937 81.904ZM345.409 78.16L343.772 77.0111L345.409 78.16ZM348.385 51.28L346.418 51.6378L346.421 51.6593L346.426 51.6808L348.385 51.28ZM345.889 43.888L344.133 44.8457V44.8457L345.889 43.888ZM341.377 38.992L340.281 40.6649L340.302 40.6784L340.323 40.6913L341.377 38.992ZM323.713 42.832L325.36 43.9675L325.364 43.9609L325.369 43.9543L323.713 42.832ZM308.049 60.4C308.049 49.4635 310.458 41.3737 314.988 35.8434L311.894 33.3086C306.568 39.8103 304.049 48.9365 304.049 60.4H308.049ZM314.995 35.8353C319.477 30.3059 325.898 27.456 334.561 27.456V23.456C324.92 23.456 317.262 26.6861 311.888 33.3167L314.995 35.8353ZM334.561 27.456C339.132 27.456 343.025 28.248 346.295 29.766L347.979 26.138C344.081 24.328 339.591 23.456 334.561 23.456V27.456ZM346.295 29.766C349.593 31.2974 352.313 33.4643 354.481 36.277L357.649 33.835C355.081 30.5037 351.849 27.9346 347.979 26.138L346.295 29.766ZM354.481 36.277C356.667 39.1121 358.32 42.545 359.414 46.6149L363.277 45.5771C362.066 41.071 360.2 37.1439 357.649 33.835L354.481 36.277ZM359.414 46.6149C360.513 50.7063 361.073 55.2964 361.073 60.4H365.073C365.073 55.0076 364.482 50.0617 363.277 45.5771L359.414 46.6149ZM361.073 60.4C361.073 71.3295 358.635 79.4534 354.04 85.0509L357.131 87.5891C362.519 81.0266 365.073 71.8705 365.073 60.4H361.073ZM354.038 85.0526C349.556 90.5242 343.163 93.344 334.561 93.344V97.344C344.136 97.344 351.758 94.1478 357.132 87.5874L354.038 85.0526ZM334.561 93.344C329.923 93.344 325.998 92.5505 322.731 91.034L321.047 94.662C324.949 96.4734 329.472 97.344 334.561 97.344V93.344ZM322.731 91.034C319.433 89.5026 316.713 87.3357 314.545 84.523L311.377 86.965C313.945 90.2963 317.177 92.8654 321.047 94.662L322.731 91.034ZM314.561 84.544C312.432 81.7051 310.805 78.265 309.709 74.1851L305.846 75.2229C307.054 79.719 308.882 83.6389 311.361 86.944L314.561 84.544ZM309.709 74.1851C308.61 70.0937 308.049 65.5036 308.049 60.4H304.049C304.049 65.7924 304.641 70.7383 305.846 75.2229L309.709 74.1851ZM317.873 60.4C317.873 63.9039 318.171 67.1731 318.776 70.2002L322.698 69.4158C322.152 66.6829 321.873 63.6801 321.873 60.4H317.873ZM318.778 70.2088C319.386 73.1844 320.313 75.8205 321.586 78.0845L325.072 76.1235C324.042 74.2915 323.24 72.0636 322.697 69.4072L318.778 70.2088ZM321.61 78.1251C322.974 80.4238 324.73 82.2669 326.883 83.6033L328.992 80.2047C327.433 79.2371 326.116 77.8802 325.049 76.0829L321.61 78.1251ZM326.883 83.6033C329.106 84.9835 331.694 85.632 334.561 85.632V81.632C332.309 81.632 330.48 81.1285 328.992 80.2047L326.883 83.6033ZM334.561 85.632C339.848 85.632 344.091 83.5202 347.046 79.3088L343.772 77.0111C341.607 80.0958 338.619 81.632 334.561 81.632V85.632ZM347.046 79.3088C349.97 75.143 351.249 68.7051 351.249 60.4H347.249C347.249 68.4789 345.969 73.881 343.772 77.0111L347.046 79.3088ZM351.249 60.4C351.249 57.0191 350.951 53.8434 350.345 50.8792L346.426 51.6808C346.971 54.3486 347.249 57.2528 347.249 60.4H351.249ZM350.353 50.9222C349.81 47.9349 348.917 45.2613 347.645 42.9303L344.133 44.8457C345.166 46.7387 345.937 48.9931 346.418 51.6378L350.353 50.9222ZM347.645 42.9303C346.345 40.5462 344.611 38.6452 342.432 37.2927L340.323 40.6913C341.856 41.6428 343.13 43.0058 344.133 44.8457L347.645 42.9303ZM342.473 37.3191C340.228 35.8483 337.555 35.168 334.561 35.168V39.168C336.943 39.168 338.814 39.7037 340.281 40.6649L342.473 37.3191ZM334.561 35.168C329.245 35.168 325.001 37.3691 322.058 41.7097L325.369 43.9543C327.546 40.7429 330.533 39.168 334.561 39.168V35.168ZM322.067 41.6965C319.158 45.9137 317.873 52.2699 317.873 60.4H321.873C321.873 52.5301 323.148 47.1743 325.36 43.9675L322.067 41.6965ZM397.722 70.96L396.409 72.4692L396.425 72.483L396.441 72.4964L397.722 70.96ZM392.058 67.504L391.184 69.303L391.214 69.3178L391.245 69.3316L392.058 67.504ZM384.666 64.24L383.862 66.0713L383.888 66.083L383.915 66.0939L384.666 64.24ZM377.274 60.112L376.081 61.7175L376.107 61.7365L376.133 61.7547L377.274 60.112ZM371.61 53.968L369.899 55.0036L369.909 55.0199L369.919 55.036L371.61 53.968ZM371.034 36.208L372.851 37.043L372.855 37.0339L372.859 37.0247L371.034 36.208ZM375.642 30.16L374.41 28.584L374.398 28.5935L374.386 28.6032L375.642 30.16ZM382.842 26.608L383.379 28.5344V28.5344L382.842 26.608ZM403.098 26.512L402.699 28.4718L402.716 28.4753L402.734 28.4786L403.098 26.512ZM411.642 29.392L413.515 30.0925L414.111 28.4994L412.634 27.6555L411.642 29.392ZM407.514 40.432L406.44 42.1193L408.523 43.4446L409.387 41.1325L407.514 40.432ZM401.178 38.032L400.652 39.9615L400.672 39.9671L400.693 39.9723L401.178 38.032ZM384.954 38.704L383.774 37.0892L383.759 37.1003L383.744 37.1117L384.954 38.704ZM384.762 48.4L383.449 49.9092L383.465 49.923L383.481 49.9364L384.762 48.4ZM390.426 51.952L389.552 53.751L389.562 53.7558L389.572 53.7605L390.426 51.952ZM397.818 55.312L397.014 57.1433L397.022 57.1468L397.03 57.1503L397.818 55.312ZM405.21 59.536L404.017 61.1415L404.043 61.1605L404.069 61.1787L405.21 59.536ZM410.874 65.584L409.163 66.6196L409.179 66.6463L409.196 66.6724L410.874 65.584ZM411.354 83.824L409.539 82.9831L409.534 82.9931L409.53 83.0033L411.354 83.824ZM406.362 90.256L405.118 88.6898L405.107 88.6989L405.095 88.7081L406.362 90.256ZM398.586 94.096L398.063 92.1655L398.053 92.1684L398.586 94.096ZM375.93 94L376.407 92.0577L375.93 94ZM367.866 91.312L365.994 90.608L365.369 92.2701L366.945 93.0875L367.866 91.312ZM372.09 80.08L373.047 78.3242L371.028 77.2225L370.218 79.376L372.09 80.08ZM374.778 81.328L374.016 83.1774L374.034 83.1849L374.053 83.192L374.778 81.328ZM378.618 82.576L379.144 80.6465L378.618 82.576ZM383.034 83.536L382.705 85.5088L382.718 85.5109L383.034 83.536ZM396.858 82L397.918 83.696L397.925 83.6917L397.931 83.6873L396.858 82ZM402.026 75.952C402.026 73.3271 401.007 71.0941 399.002 69.4236L396.441 72.4964C397.509 73.3859 398.026 74.4809 398.026 75.952H402.026ZM399.034 69.4508C397.376 68.0087 395.305 66.7588 392.87 65.6764L391.245 69.3316C393.418 70.2972 395.124 71.3513 396.409 72.4692L399.034 69.4508ZM392.932 65.705C390.645 64.5944 388.139 63.4883 385.416 62.3861L383.915 66.0939C386.568 67.1677 388.99 68.2376 391.184 69.303L392.932 65.705ZM385.47 62.4087C382.961 61.3074 380.61 59.9941 378.415 58.4693L376.133 61.7547C378.545 63.4299 381.122 64.8686 383.862 66.0713L385.47 62.4087ZM378.466 58.5065C376.43 56.994 374.709 55.1302 373.301 52.9L369.919 55.036C371.582 57.6698 373.637 59.902 376.081 61.7175L378.466 58.5065ZM373.321 52.9324C372.09 50.8993 371.402 48.1834 371.402 44.656H367.402C367.402 48.6806 368.185 52.1727 369.899 55.0036L373.321 52.9324ZM371.402 44.656C371.402 41.6096 371.91 39.0917 372.851 37.043L369.216 35.373C367.982 38.0603 367.402 41.1744 367.402 44.656H371.402ZM372.859 37.0247C373.824 34.8675 375.17 33.1095 376.897 31.7168L374.386 28.6032C372.145 30.4105 370.419 32.6845 369.208 35.3913L372.859 37.0247ZM376.873 31.736C378.695 30.3124 380.854 29.2391 383.379 28.5344L382.304 24.6816C379.325 25.5129 376.684 26.8076 374.41 28.584L376.873 31.736ZM383.379 28.5344C385.927 27.8233 388.815 27.456 392.058 27.456V23.456C388.517 23.456 385.26 23.8566 382.304 24.6816L383.379 28.5344ZM392.058 27.456C395.842 27.456 399.387 27.7972 402.699 28.4718L403.497 24.5522C399.896 23.8188 396.082 23.456 392.058 23.456V27.456ZM402.734 28.4786C406.043 29.0915 408.661 29.9921 410.649 31.1285L412.634 27.6555C410.143 26.2319 407.064 25.2125 403.462 24.5454L402.734 28.4786ZM409.768 28.6915L405.64 39.7315L409.387 41.1325L413.515 30.0925L409.768 28.6915ZM408.587 38.7447C406.912 37.6784 404.557 36.8153 401.663 36.0917L400.693 39.9723C403.43 40.6567 405.3 41.3936 406.44 42.1193L408.587 38.7447ZM401.704 36.1025C398.698 35.2826 395.479 34.88 392.058 34.88V38.88C395.165 38.88 398.026 39.2454 400.652 39.9615L401.704 36.1025ZM392.058 34.88C388.759 34.88 385.911 35.5271 383.774 37.0892L386.134 40.3188C387.324 39.4488 389.212 38.88 392.058 38.88V34.88ZM383.744 37.1117C381.635 38.7143 380.554 40.941 380.554 43.6H384.554C384.554 42.163 385.073 41.1257 386.164 40.2963L383.744 37.1117ZM380.554 43.6C380.554 46.1094 381.549 48.2563 383.449 49.9092L386.074 46.8908C385.031 45.9837 384.554 44.9306 384.554 43.6H380.554ZM383.481 49.9364C385.168 51.3418 387.2 52.6088 389.552 53.751L391.3 50.153C389.171 49.1192 387.428 48.0182 386.042 46.8636L383.481 49.9364ZM389.572 53.7605C391.894 54.8572 394.375 55.9848 397.014 57.1433L398.622 53.4807C396.012 52.3352 393.565 51.2228 391.28 50.1435L389.572 53.7605ZM397.03 57.1503C399.581 58.2437 401.908 59.575 404.017 61.1415L406.402 57.9305C404.031 56.169 401.43 54.6843 398.606 53.4737L397.03 57.1503ZM404.069 61.1787C406.139 62.6164 407.834 64.4244 409.163 66.6196L412.585 64.5484C410.969 61.8796 408.888 59.6556 406.351 57.8933L404.069 61.1787ZM409.196 66.6724C410.472 68.6392 411.178 71.2107 411.178 74.512H415.178C415.178 70.6453 414.348 67.2648 412.552 64.4956L409.196 66.6724ZM411.178 74.512C411.178 77.8733 410.607 80.6778 409.539 82.9831L413.168 84.6649C414.532 81.7222 415.178 78.3187 415.178 74.512H411.178ZM409.53 83.0033C408.508 85.2751 407.041 87.1625 405.118 88.6898L407.605 91.8222C410.034 89.8935 411.896 87.4929 413.178 84.6447L409.53 83.0033ZM405.095 88.7081C403.235 90.2303 400.908 91.3951 398.063 92.1656L399.109 96.0265C402.408 95.1329 405.265 93.7377 407.628 91.8039L405.095 88.7081ZM398.053 92.1684C395.245 92.9451 392.099 93.344 388.602 93.344V97.344C392.4 97.344 395.911 96.9109 399.119 96.0236L398.053 92.1684ZM388.602 93.344C383.92 93.344 379.863 92.9065 376.407 92.0577L375.453 95.9423C379.293 96.8855 383.683 97.344 388.602 97.344V93.344ZM376.407 92.0577C372.798 91.1715 370.298 90.3202 368.786 89.5365L366.945 93.0875C368.89 94.0958 371.765 95.0365 375.453 95.9423L376.407 92.0577ZM369.738 92.016L373.962 80.784L370.218 79.376L365.994 90.608L369.738 92.016ZM371.132 81.8358C371.922 82.2664 372.889 82.7132 374.016 83.1774L375.539 79.4786C374.49 79.0468 373.666 78.6616 373.047 78.3242L371.132 81.8358ZM374.053 83.192C375.28 83.6693 376.628 84.1063 378.092 84.5055L379.144 80.6465C377.792 80.2777 376.579 79.8827 375.503 79.464L374.053 83.192ZM378.092 84.5055C379.569 84.9084 381.107 85.2424 382.705 85.5088L383.363 81.5632C381.889 81.3176 380.483 81.0116 379.144 80.6465L378.092 84.5055ZM382.718 85.5109C384.425 85.784 386.163 85.92 387.93 85.92V81.92C386.369 81.92 384.842 81.8 383.35 81.5611L382.718 85.5109ZM387.93 85.92C392 85.92 395.412 85.2621 397.918 83.696L395.798 80.304C394.208 81.2979 391.668 81.92 387.93 81.92V85.92ZM397.931 83.6873C400.67 81.9449 402.026 79.2634 402.026 75.952H398.026C398.026 78.0166 397.27 79.3671 395.784 80.3127L397.931 83.6873Z" fill="#EA0FFD" mask="url(#path-1-outside-1_0_1)"/>
<g filter="url(#filter0_f_0_1)">
<mask id="path-3-outside-2_0_1" maskUnits="userSpaceOnUse" x="8" y="8" width="408" height="90" fill="black">
<rect fill="white" x="8" y="8" width="408" height="90"/>
<path d="M27.284 58.96L22.004 48.4H21.524L23.06 58.96V94H10.58V26.32H20.18L45.62 62.128L50.708 72.4H51.188L49.652 62.128V26.8H62.132V94.48H52.532L27.284 58.96ZM108.714 26.8H121.194V70.192C121.194 74.544 120.618 78.288 119.466 81.424C118.314 84.56 116.714 87.152 114.666 89.2C112.618 91.248 110.122 92.752 107.178 93.712C104.234 94.672 101.002 95.152 97.4818 95.152C80.4578 95.152 71.9458 87.376 71.9458 71.824V26.8H85.0978V69.232C85.0978 71.856 85.3218 74.096 85.7698 75.952C86.2818 77.744 87.0498 79.216 88.0738 80.368C89.0978 81.456 90.3778 82.256 91.9138 82.768C93.4498 83.216 95.2418 83.44 97.2898 83.44C101.322 83.44 104.234 82.32 106.026 80.08C107.818 77.84 108.714 74.224 108.714 69.232V26.8ZM101.514 10.48H116.778V13.36L101.418 21.808H91.5298L101.514 10.48ZM183.109 59.152L184.549 45.808H183.973L179.845 56.56L165.541 81.616H161.317L146.245 56.464L142.021 45.808H141.541L143.461 59.056V94H130.981V26.8H142.981L160.933 57.52L164.101 65.2H164.485L167.365 57.328L184.357 26.8H196.261V94H183.109V59.152ZM206.323 26.8H246.163V38.512H219.475V54.16H243.763V65.872H219.475V82.288H246.643V94H206.323V26.8ZM255.039 27.472C256.511 27.216 258.079 26.992 259.743 26.8C261.471 26.544 263.167 26.352 264.831 26.224C266.559 26.096 268.223 26 269.823 25.936C271.423 25.872 272.895 25.84 274.239 25.84C277.375 25.84 280.447 26.128 283.455 26.704C286.527 27.28 289.247 28.272 291.615 29.68C294.047 31.088 295.967 33.04 297.375 35.536C298.847 37.968 299.583 41.04 299.583 44.752C299.583 50.256 298.303 54.736 295.743 58.192C293.183 61.648 289.759 64.048 285.471 65.392L290.175 68.368L305.535 94H290.367L275.103 67.696L268.191 66.448V94H255.039V27.472ZM275.199 37.552C273.855 37.552 272.511 37.584 271.167 37.648C269.887 37.712 268.895 37.84 268.191 38.032V57.52H273.759C277.407 57.52 280.319 56.688 282.495 55.024C284.671 53.36 285.759 50.608 285.759 46.768C285.759 43.888 284.863 41.648 283.071 40.048C281.279 38.384 278.655 37.552 275.199 37.552ZM306.049 60.4C306.049 49.2 308.513 40.592 313.441 34.576C318.369 28.496 325.409 25.456 334.561 25.456C339.361 25.456 343.553 26.288 347.137 27.952C350.721 29.616 353.697 31.984 356.065 35.056C358.433 38.128 360.193 41.808 361.345 46.096C362.497 50.384 363.073 55.152 363.073 60.4C363.073 71.6 360.577 80.24 355.585 86.32C350.657 92.336 343.649 95.344 334.561 95.344C329.697 95.344 325.473 94.512 321.889 92.848C318.305 91.184 315.329 88.816 312.961 85.744C310.657 82.672 308.929 78.992 307.777 74.704C306.625 70.416 306.049 65.648 306.049 60.4ZM319.873 60.4C319.873 63.792 320.161 66.928 320.737 69.808C321.313 72.624 322.177 75.056 323.329 77.104C324.545 79.152 326.081 80.752 327.937 81.904C329.793 83.056 332.001 83.632 334.561 83.632C339.233 83.632 342.849 81.808 345.409 78.16C347.969 74.512 349.249 68.592 349.249 60.4C349.249 57.136 348.961 54.096 348.385 51.28C347.873 48.464 347.041 46 345.889 43.888C344.737 41.776 343.233 40.144 341.377 38.992C339.521 37.776 337.249 37.168 334.561 37.168C329.889 37.168 326.273 39.056 323.713 42.832C321.153 46.544 319.873 52.4 319.873 60.4ZM400.026 75.952C400.026 73.904 399.258 72.24 397.722 70.96C396.25 69.68 394.362 68.528 392.058 67.504C389.818 66.416 387.354 65.328 384.666 64.24C382.042 63.088 379.578 61.712 377.274 60.112C375.034 58.448 373.146 56.4 371.61 53.968C370.138 51.536 369.402 48.432 369.402 44.656C369.402 41.392 369.946 38.576 371.034 36.208C372.122 33.776 373.658 31.76 375.642 30.16C377.69 28.56 380.09 27.376 382.842 26.608C385.594 25.84 388.666 25.456 392.058 25.456C395.962 25.456 399.642 25.808 403.098 26.512C406.554 27.152 409.402 28.112 411.642 29.392L407.514 40.432C406.106 39.536 403.994 38.736 401.178 38.032C398.362 37.264 395.322 36.88 392.058 36.88C388.986 36.88 386.618 37.488 384.954 38.704C383.354 39.92 382.554 41.552 382.554 43.6C382.554 45.52 383.29 47.12 384.762 48.4C386.298 49.68 388.186 50.864 390.426 51.952C392.73 53.04 395.194 54.16 397.818 55.312C400.506 56.464 402.97 57.872 405.21 59.536C407.514 61.136 409.402 63.152 410.874 65.584C412.41 67.952 413.178 70.928 413.178 74.512C413.178 78.096 412.57 81.2 411.354 83.824C410.202 86.384 408.538 88.528 406.362 90.256C404.25 91.984 401.658 93.264 398.586 94.096C395.578 94.928 392.25 95.344 388.602 95.344C383.802 95.344 379.578 94.896 375.93 94C372.282 93.104 369.594 92.208 367.866 91.312L372.09 80.08C372.794 80.464 373.69 80.88 374.778 81.328C375.93 81.776 377.21 82.192 378.618 82.576C380.026 82.96 381.498 83.28 383.034 83.536C384.634 83.792 386.266 83.92 387.93 83.92C391.834 83.92 394.81 83.28 396.858 82C398.97 80.656 400.026 78.64 400.026 75.952Z"/>
</mask>
<path d="M27.284 58.96L25.4952 59.8544L25.5643 59.9927L25.6539 60.1187L27.284 58.96ZM22.004 48.4L23.7929 47.5056L23.2401 46.4H22.004V48.4ZM21.524 48.4V46.4H19.2121L19.5448 48.6879L21.524 48.4ZM23.06 58.96H25.06V58.8153L25.0392 58.6721L23.06 58.96ZM23.06 94V96H25.06V94H23.06ZM10.58 94H8.58001V96H10.58V94ZM10.58 26.32V24.32H8.58001V26.32H10.58ZM20.18 26.32L21.8104 25.1617L21.2125 24.32H20.18V26.32ZM45.62 62.128L47.4122 61.2403L47.342 61.0986L47.2504 60.9697L45.62 62.128ZM50.708 72.4L48.9158 73.2877L49.4668 74.4H50.708V72.4ZM51.188 72.4V74.4H53.5093L53.166 72.1042L51.188 72.4ZM49.652 62.128H47.652V62.2767L47.674 62.4238L49.652 62.128ZM49.652 26.8V24.8H47.652V26.8H49.652ZM62.132 26.8H64.132V24.8H62.132V26.8ZM62.132 94.48V96.48H64.132V94.48H62.132ZM52.532 94.48L50.9019 95.6387L51.4999 96.48H52.532V94.48ZM29.0729 58.0656L23.7929 47.5056L20.2152 49.2944L25.4952 59.8544L29.0729 58.0656ZM22.004 46.4H21.524V50.4H22.004V46.4ZM19.5448 48.6879L21.0808 59.2479L25.0392 58.6721L23.5032 48.1121L19.5448 48.6879ZM21.06 58.96V94H25.06V58.96H21.06ZM23.06 92H10.58V96H23.06V92ZM12.58 94V26.32H8.58001V94H12.58ZM10.58 28.32H20.18V24.32H10.58V28.32ZM18.5496 27.4783L43.9896 63.2863L47.2504 60.9697L21.8104 25.1617L18.5496 27.4783ZM43.8278 63.0157L48.9158 73.2877L52.5002 71.5123L47.4122 61.2403L43.8278 63.0157ZM50.708 74.4H51.188V70.4H50.708V74.4ZM53.166 72.1042L51.63 61.8322L47.674 62.4238L49.21 72.6958L53.166 72.1042ZM51.652 62.128V26.8H47.652V62.128H51.652ZM49.652 28.8H62.132V24.8H49.652V28.8ZM60.132 26.8V94.48H64.132V26.8H60.132ZM62.132 92.48H52.532V96.48H62.132V92.48ZM54.1622 93.3213L28.9142 57.8013L25.6539 60.1187L50.9019 95.6387L54.1622 93.3213ZM108.714 26.8V24.8H106.714V26.8H108.714ZM121.194 26.8H123.194V24.8H121.194V26.8ZM119.466 81.424L117.588 80.7344L119.466 81.424ZM114.666 89.2L116.08 90.6142L114.666 89.2ZM107.178 93.712L107.798 95.6135L107.178 93.712ZM71.9458 26.8V24.8H69.9458V26.8H71.9458ZM85.0978 26.8H87.0978V24.8H85.0978V26.8ZM85.7698 75.952L83.8256 76.4213L83.8353 76.4616L83.8467 76.5014L85.7698 75.952ZM88.0738 80.368L86.5789 81.6967L86.5978 81.718L86.6174 81.7387L88.0738 80.368ZM91.9138 82.768L91.2813 84.6654L91.3173 84.6774L91.3538 84.688L91.9138 82.768ZM106.026 80.08L107.587 81.3294V81.3294L106.026 80.08ZM101.514 10.48V8.47999H100.611L100.013 9.15759L101.514 10.48ZM116.778 10.48H118.778V8.47999H116.778V10.48ZM116.778 13.36L117.742 15.1124L118.778 14.5425V13.36H116.778ZM101.418 21.808V23.808H101.931L102.382 23.5604L101.418 21.808ZM91.5298 21.808L90.0293 20.4856L87.1011 23.808H91.5298V21.808ZM108.714 28.8H121.194V24.8H108.714V28.8ZM119.194 26.8V70.192H123.194V26.8H119.194ZM119.194 70.192C119.194 74.3762 118.639 77.8748 117.588 80.7344L121.343 82.1136C122.597 78.7012 123.194 74.7118 123.194 70.192H119.194ZM117.588 80.7344C116.521 83.6398 115.065 85.9721 113.252 87.7858L116.08 90.6142C118.362 88.3319 120.106 85.4802 121.343 82.1136L117.588 80.7344ZM113.252 87.7858C111.441 89.5959 109.224 90.9413 106.558 91.8105L107.798 95.6135C111.02 94.5628 113.794 92.9001 116.08 90.6142L113.252 87.7858ZM106.558 91.8105C103.839 92.697 100.82 93.152 97.4818 93.152V97.152C101.184 97.152 104.628 96.647 107.798 95.6135L106.558 91.8105ZM97.4818 93.152C89.2355 93.152 83.424 91.2648 79.6787 87.8434C75.9677 84.4532 73.9458 79.2428 73.9458 71.824H69.9458C69.9458 79.9572 72.1798 86.4108 76.9808 90.7966C81.7475 95.1512 88.704 97.152 97.4818 97.152V93.152ZM73.9458 71.824V26.8H69.9458V71.824H73.9458ZM71.9458 28.8H85.0978V24.8H71.9458V28.8ZM83.0978 26.8V69.232H87.0978V26.8H83.0978ZM83.0978 69.232C83.0978 71.9597 83.3296 74.3665 83.8256 76.4213L87.7139 75.4827C87.3139 73.8255 87.0978 71.7523 87.0978 69.232H83.0978ZM83.8467 76.5014C84.4242 78.5226 85.3182 80.2784 86.5789 81.6967L89.5686 79.0393C88.7813 78.1536 88.1393 76.9654 87.6928 75.4026L83.8467 76.5014ZM86.6174 81.7387C87.8869 83.0876 89.4582 84.0577 91.2813 84.6654L92.5462 80.8706C91.2973 80.4543 90.3086 79.8244 89.5302 78.9973L86.6174 81.7387ZM91.3538 84.688C93.1143 85.2015 95.1024 85.44 97.2898 85.44V81.44C95.3811 81.44 93.7852 81.2305 92.4738 80.848L91.3538 84.688ZM97.2898 85.44C101.67 85.44 105.279 84.2147 107.587 81.3294L104.464 78.8306C103.188 80.4253 100.973 81.44 97.2898 81.44V85.44ZM107.587 81.3294C109.807 78.5546 110.714 74.3756 110.714 69.232H106.714C106.714 74.0724 105.828 77.1254 104.464 78.8306L107.587 81.3294ZM110.714 69.232V26.8H106.714V69.232H110.714ZM101.514 12.48H116.778V8.47999H101.514V12.48ZM114.778 10.48V13.36H118.778V10.48H114.778ZM115.814 11.6076L100.454 20.0556L102.382 23.5604L117.742 15.1124L115.814 11.6076ZM101.418 19.808H91.5298V23.808H101.418V19.808ZM93.0302 23.1304L103.014 11.8024L100.013 9.15759L90.0293 20.4856L93.0302 23.1304ZM183.109 59.152L181.121 58.9374L181.109 59.0444V59.152H183.109ZM184.549 45.808L186.538 46.0226L186.777 43.808H184.549V45.808ZM183.973 45.808V43.808H182.599L182.106 45.0912L183.973 45.808ZM179.845 56.56L181.582 57.5516L181.658 57.4192L181.712 57.2768L179.845 56.56ZM165.541 81.616V83.616H166.702L167.278 82.6076L165.541 81.616ZM161.317 81.616L159.602 82.644L160.184 83.616H161.317V81.616ZM146.245 56.464L144.386 57.201L144.446 57.3524L144.53 57.492L146.245 56.464ZM142.021 45.808L143.881 45.071L143.38 43.808H142.021V45.808ZM141.541 45.808V43.808H139.23L139.562 46.0949L141.541 45.808ZM143.461 59.056H145.461V58.9118L145.441 58.7691L143.461 59.056ZM143.461 94V96H145.461V94H143.461ZM130.981 94H128.981V96H130.981V94ZM130.981 26.8V24.8H128.981V26.8H130.981ZM142.981 26.8L144.708 25.7909L144.129 24.8H142.981V26.8ZM160.933 57.52L162.782 56.7573L162.73 56.6299L162.66 56.5109L160.933 57.52ZM164.101 65.2L162.252 65.9627L162.763 67.2H164.101V65.2ZM164.485 65.2V67.2H165.883L166.363 65.8872L164.485 65.2ZM167.365 57.328L165.618 56.3553L165.541 56.4929L165.487 56.6408L167.365 57.328ZM184.357 26.8V24.8H183.182L182.61 25.8273L184.357 26.8ZM196.261 26.8H198.261V24.8H196.261V26.8ZM196.261 94V96H198.261V94H196.261ZM183.109 94H181.109V96H183.109V94ZM185.098 59.3666L186.538 46.0226L182.561 45.5934L181.121 58.9374L185.098 59.3666ZM184.549 43.808H183.973V47.808H184.549V43.808ZM182.106 45.0912L177.978 55.8432L181.712 57.2768L185.84 46.5248L182.106 45.0912ZM178.108 55.5684L163.804 80.6244L167.278 82.6076L181.582 57.5516L178.108 55.5684ZM165.541 79.616H161.317V83.616H165.541V79.616ZM163.033 80.588L147.961 55.436L144.53 57.492L159.602 82.644L163.033 80.588ZM148.105 55.727L143.881 45.071L140.162 46.545L144.386 57.201L148.105 55.727ZM142.021 43.808H141.541V47.808H142.021V43.808ZM139.562 46.0949L141.482 59.3429L145.441 58.7691L143.521 45.5211L139.562 46.0949ZM141.461 59.056V94H145.461V59.056H141.461ZM143.461 92H130.981V96H143.461V92ZM132.981 94V26.8H128.981V94H132.981ZM130.981 28.8H142.981V24.8H130.981V28.8ZM141.254 27.8091L159.206 58.5291L162.66 56.5109L144.708 25.7909L141.254 27.8091ZM159.084 58.2827L162.252 65.9627L165.95 64.4373L162.782 56.7573L159.084 58.2827ZM164.101 67.2H164.485V63.2H164.101V67.2ZM166.363 65.8872L169.243 58.0152L165.487 56.6408L162.607 64.5128L166.363 65.8872ZM169.113 58.3007L186.105 27.7727L182.61 25.8273L165.618 56.3553L169.113 58.3007ZM184.357 28.8H196.261V24.8H184.357V28.8ZM194.261 26.8V94H198.261V26.8H194.261ZM196.261 92H183.109V96H196.261V92ZM185.109 94V59.152H181.109V94H185.109ZM206.322 26.8V24.8H204.322V26.8H206.322ZM246.163 26.8H248.163V24.8H246.163V26.8ZM246.163 38.512V40.512H248.163V38.512H246.163ZM219.475 38.512V36.512H217.475V38.512H219.475ZM219.475 54.16H217.475V56.16H219.475V54.16ZM243.762 54.16H245.762V52.16H243.762V54.16ZM243.762 65.872V67.872H245.762V65.872H243.762ZM219.475 65.872V63.872H217.475V65.872H219.475ZM219.475 82.288H217.475V84.288H219.475V82.288ZM246.643 82.288H248.643V80.288H246.643V82.288ZM246.643 94V96H248.643V94H246.643ZM206.322 94H204.322V96H206.322V94ZM206.322 28.8H246.163V24.8H206.322V28.8ZM244.163 26.8V38.512H248.163V26.8H244.163ZM246.163 36.512H219.475V40.512H246.163V36.512ZM217.475 38.512V54.16H221.475V38.512H217.475ZM219.475 56.16H243.762V52.16H219.475V56.16ZM241.762 54.16V65.872H245.762V54.16H241.762ZM243.762 63.872H219.475V67.872H243.762V63.872ZM217.475 65.872V82.288H221.475V65.872H217.475ZM219.475 84.288H246.643V80.288H219.475V84.288ZM244.643 82.288V94H248.643V82.288H244.643ZM246.643 92H206.322V96H246.643V92ZM208.322 94V26.8H204.322V94H208.322ZM255.039 27.472L254.696 25.5016L253.039 25.7898V27.472H255.039ZM259.743 26.8L259.972 28.7868L260.004 28.7831L260.036 28.7784L259.743 26.8ZM264.831 26.224L264.683 24.2295L264.677 24.2299L264.831 26.224ZM269.823 25.936L269.743 23.9376V23.9376L269.823 25.936ZM283.455 26.704L283.079 28.6683L283.086 28.6697L283.455 26.704ZM291.615 29.68L290.593 31.3991L290.603 31.405L290.613 31.4109L291.615 29.68ZM297.375 35.536L295.633 36.5186L295.648 36.5454L295.664 36.5716L297.375 35.536ZM295.743 58.192L294.136 57.0015L295.743 58.192ZM285.471 65.392L284.873 63.4835L280.754 64.7745L284.401 67.0822L285.471 65.392ZM290.175 68.368L291.89 67.34L291.646 66.9321L291.244 66.6778L290.175 68.368ZM305.535 94V96H309.065L307.25 92.972L305.535 94ZM290.367 94L288.637 95.0038L289.215 96H290.367V94ZM275.103 67.696L276.833 66.6922L276.368 65.8922L275.458 65.7278L275.103 67.696ZM268.191 66.448L268.546 64.4798L266.191 64.0546V66.448H268.191ZM268.191 94V96H270.191V94H268.191ZM255.039 94H253.039V96H255.039V94ZM271.167 37.648L271.072 35.6503L271.067 35.6505L271.167 37.648ZM268.191 38.032L267.665 36.1025L266.191 36.5044V38.032H268.191ZM268.191 57.52H266.191V59.52H268.191V57.52ZM283.071 40.048L281.71 41.5136L281.724 41.5269L281.739 41.5399L283.071 40.048ZM255.381 29.4424C256.812 29.1937 258.342 28.9749 259.972 28.7868L259.514 24.8132C257.816 25.009 256.21 25.2383 254.696 25.5016L255.381 29.4424ZM260.036 28.7784C261.72 28.529 263.369 28.3423 264.984 28.2181L264.677 24.2299C262.965 24.3616 261.222 24.559 259.45 24.8216L260.036 28.7784ZM264.979 28.2185C266.686 28.0921 268.327 27.9974 269.903 27.9344L269.743 23.9376C268.118 24.0026 266.432 24.0999 264.683 24.2295L264.979 28.2185ZM269.903 27.9344C271.481 27.8713 272.926 27.84 274.239 27.84V23.84C272.864 23.84 271.365 23.8727 269.743 23.9376L269.903 27.9344ZM274.239 27.84C277.252 27.84 280.198 28.1166 283.079 28.6683L283.831 24.7397C280.696 24.1394 277.498 23.84 274.239 23.84V27.84ZM283.086 28.6697C285.958 29.2083 288.452 30.126 290.593 31.3991L292.637 27.9609C290.042 26.418 287.095 25.3517 283.823 24.7383L283.086 28.6697ZM290.613 31.4109C292.729 32.6363 294.397 34.3272 295.633 36.5186L299.117 34.5534C297.537 31.7528 295.364 29.5397 292.617 27.9491L290.613 31.4109ZM295.664 36.5716C296.897 38.6095 297.583 41.2959 297.583 44.752H301.583C301.583 40.7841 300.796 37.3265 299.086 34.5004L295.664 36.5716ZM297.583 44.752C297.583 49.9479 296.377 53.9757 294.136 57.0015L297.35 59.3825C300.229 55.4963 301.583 50.5641 301.583 44.752H297.583ZM294.136 57.0015C291.839 60.1016 288.776 62.2601 284.873 63.4835L286.069 67.3005C290.741 65.8359 294.526 63.1944 297.35 59.3825L294.136 57.0015ZM284.401 67.0822L289.105 70.0582L291.244 66.6778L286.54 63.7018L284.401 67.0822ZM288.459 69.396L303.819 95.028L307.25 92.972L291.89 67.34L288.459 69.396ZM305.535 92H290.367V96H305.535V92ZM292.097 92.9962L276.833 66.6922L273.373 68.6998L288.637 95.0038L292.097 92.9962ZM275.458 65.7278L268.546 64.4798L267.835 68.4162L274.747 69.6642L275.458 65.7278ZM266.191 66.448V94H270.191V66.448H266.191ZM268.191 92H255.039V96H268.191V92ZM257.039 94V27.472H253.039V94H257.039ZM275.199 35.552C273.823 35.552 272.447 35.5848 271.072 35.6503L271.262 39.6457C272.574 39.5832 273.887 39.552 275.199 39.552V35.552ZM271.067 35.6505C269.733 35.7172 268.574 35.8544 267.665 36.1025L268.717 39.9615C269.215 39.8256 270.04 39.7068 271.267 39.6455L271.067 35.6505ZM266.191 38.032V57.52H270.191V38.032H266.191ZM268.191 59.52H273.759V55.52H268.191V59.52ZM273.759 59.52C277.701 59.52 281.085 58.6199 283.71 56.6127L281.28 53.4353C279.553 54.7561 277.113 55.52 273.759 55.52V59.52ZM283.71 56.6127C286.559 54.4339 287.759 50.9654 287.759 46.768H283.759C283.759 50.2506 282.783 52.2861 281.28 53.4353L283.71 56.6127ZM287.759 46.768C287.759 43.4418 286.704 40.6107 284.403 38.5561L281.739 41.5399C283.022 42.6853 283.759 44.3342 283.759 46.768H287.759ZM284.432 38.5824C282.141 36.4553 278.951 35.552 275.199 35.552V39.552C278.359 39.552 280.417 40.3127 281.71 41.5136L284.432 38.5824ZM313.441 34.576L314.988 35.8434L314.995 35.8353L313.441 34.576ZM347.137 27.952L346.295 29.766V29.766L347.137 27.952ZM356.065 35.056L354.481 36.277L356.065 35.056ZM361.345 46.096L359.414 46.6149L361.345 46.096ZM355.585 86.32L354.04 85.0509L354.038 85.0526L355.585 86.32ZM321.889 92.848L322.731 91.034L321.889 92.848ZM312.961 85.744L311.361 86.944L311.369 86.9546L311.377 86.965L312.961 85.744ZM320.737 69.808L318.776 70.2002L318.778 70.2088L320.737 69.808ZM323.329 77.104L321.586 78.0845L321.598 78.1049L321.61 78.1251L323.329 77.104ZM327.937 81.904L326.883 83.6033L327.937 81.904ZM345.409 78.16L343.772 77.0111L345.409 78.16ZM348.385 51.28L346.418 51.6378L346.421 51.6593L346.426 51.6808L348.385 51.28ZM345.889 43.888L344.133 44.8457V44.8457L345.889 43.888ZM341.377 38.992L340.281 40.6649L340.302 40.6784L340.323 40.6913L341.377 38.992ZM323.713 42.832L325.36 43.9675L325.364 43.9609L325.369 43.9543L323.713 42.832ZM308.049 60.4C308.049 49.4635 310.458 41.3737 314.988 35.8434L311.894 33.3086C306.568 39.8103 304.049 48.9365 304.049 60.4H308.049ZM314.995 35.8353C319.477 30.3059 325.898 27.456 334.561 27.456V23.456C324.92 23.456 317.262 26.6861 311.888 33.3167L314.995 35.8353ZM334.561 27.456C339.132 27.456 343.025 28.248 346.295 29.766L347.979 26.138C344.081 24.328 339.591 23.456 334.561 23.456V27.456ZM346.295 29.766C349.593 31.2974 352.313 33.4643 354.481 36.277L357.649 33.835C355.081 30.5037 351.849 27.9346 347.979 26.138L346.295 29.766ZM354.481 36.277C356.667 39.1121 358.32 42.545 359.414 46.6149L363.277 45.5771C362.066 41.071 360.2 37.1439 357.649 33.835L354.481 36.277ZM359.414 46.6149C360.513 50.7063 361.073 55.2964 361.073 60.4H365.073C365.073 55.0076 364.482 50.0617 363.277 45.5771L359.414 46.6149ZM361.073 60.4C361.073 71.3295 358.635 79.4534 354.04 85.0509L357.131 87.5891C362.519 81.0266 365.073 71.8705 365.073 60.4H361.073ZM354.038 85.0526C349.556 90.5242 343.163 93.344 334.561 93.344V97.344C344.136 97.344 351.758 94.1478 357.132 87.5874L354.038 85.0526ZM334.561 93.344C329.923 93.344 325.998 92.5505 322.731 91.034L321.047 94.662C324.949 96.4734 329.472 97.344 334.561 97.344V93.344ZM322.731 91.034C319.433 89.5026 316.713 87.3357 314.545 84.523L311.377 86.965C313.945 90.2963 317.177 92.8654 321.047 94.662L322.731 91.034ZM314.561 84.544C312.432 81.7051 310.805 78.265 309.709 74.1851L305.846 75.2229C307.054 79.719 308.882 83.6389 311.361 86.944L314.561 84.544ZM309.709 74.1851C308.61 70.0937 308.049 65.5036 308.049 60.4H304.049C304.049 65.7924 304.641 70.7383 305.846 75.2229L309.709 74.1851ZM317.873 60.4C317.873 63.9039 318.171 67.1731 318.776 70.2002L322.698 69.4158C322.152 66.6829 321.873 63.6801 321.873 60.4H317.873ZM318.778 70.2088C319.386 73.1844 320.313 75.8205 321.586 78.0845L325.072 76.1235C324.042 74.2915 323.24 72.0636 322.697 69.4072L318.778 70.2088ZM321.61 78.1251C322.974 80.4238 324.73 82.2669 326.883 83.6033L328.992 80.2047C327.433 79.2371 326.116 77.8802 325.049 76.0829L321.61 78.1251ZM326.883 83.6033C329.106 84.9835 331.694 85.632 334.561 85.632V81.632C332.309 81.632 330.48 81.1285 328.992 80.2047L326.883 83.6033ZM334.561 85.632C339.848 85.632 344.091 83.5202 347.046 79.3088L343.772 77.0111C341.607 80.0958 338.619 81.632 334.561 81.632V85.632ZM347.046 79.3088C349.97 75.143 351.249 68.7051 351.249 60.4H347.249C347.249 68.4789 345.969 73.881 343.772 77.0111L347.046 79.3088ZM351.249 60.4C351.249 57.0191 350.951 53.8434 350.345 50.8792L346.426 51.6808C346.971 54.3486 347.249 57.2528 347.249 60.4H351.249ZM350.353 50.9222C349.81 47.9349 348.917 45.2613 347.645 42.9303L344.133 44.8457C345.166 46.7387 345.937 48.9931 346.418 51.6378L350.353 50.9222ZM347.645 42.9303C346.345 40.5462 344.611 38.6452 342.432 37.2927L340.323 40.6913C341.856 41.6428 343.13 43.0058 344.133 44.8457L347.645 42.9303ZM342.473 37.3191C340.228 35.8483 337.555 35.168 334.561 35.168V39.168C336.943 39.168 338.814 39.7037 340.281 40.6649L342.473 37.3191ZM334.561 35.168C329.245 35.168 325.001 37.3691 322.058 41.7097L325.369 43.9543C327.546 40.7429 330.533 39.168 334.561 39.168V35.168ZM322.067 41.6965C319.158 45.9137 317.873 52.2699 317.873 60.4H321.873C321.873 52.5301 323.148 47.1743 325.36 43.9675L322.067 41.6965ZM397.722 70.96L396.409 72.4692L396.425 72.483L396.441 72.4964L397.722 70.96ZM392.058 67.504L391.184 69.303L391.214 69.3178L391.245 69.3316L392.058 67.504ZM384.666 64.24L383.862 66.0713L383.888 66.083L383.915 66.0939L384.666 64.24ZM377.274 60.112L376.081 61.7175L376.107 61.7365L376.133 61.7547L377.274 60.112ZM371.61 53.968L369.899 55.0036L369.909 55.0199L369.919 55.036L371.61 53.968ZM371.034 36.208L372.851 37.043L372.855 37.0339L372.859 37.0247L371.034 36.208ZM375.642 30.16L374.41 28.584L374.398 28.5935L374.386 28.6032L375.642 30.16ZM382.842 26.608L383.379 28.5344V28.5344L382.842 26.608ZM403.098 26.512L402.699 28.4718L402.716 28.4753L402.734 28.4786L403.098 26.512ZM411.642 29.392L413.515 30.0925L414.111 28.4994L412.634 27.6555L411.642 29.392ZM407.514 40.432L406.44 42.1193L408.523 43.4446L409.387 41.1325L407.514 40.432ZM401.178 38.032L400.652 39.9615L400.672 39.9671L400.693 39.9723L401.178 38.032ZM384.954 38.704L383.774 37.0892L383.759 37.1003L383.744 37.1117L384.954 38.704ZM384.762 48.4L383.449 49.9092L383.465 49.923L383.481 49.9364L384.762 48.4ZM390.426 51.952L389.552 53.751L389.562 53.7558L389.572 53.7605L390.426 51.952ZM397.818 55.312L397.014 57.1433L397.022 57.1468L397.03 57.1503L397.818 55.312ZM405.21 59.536L404.017 61.1415L404.043 61.1605L404.069 61.1787L405.21 59.536ZM410.874 65.584L409.163 66.6196L409.179 66.6463L409.196 66.6724L410.874 65.584ZM411.354 83.824L409.539 82.9831L409.534 82.9931L409.53 83.0033L411.354 83.824ZM406.362 90.256L405.118 88.6898L405.107 88.6989L405.095 88.7081L406.362 90.256ZM398.586 94.096L398.063 92.1655L398.053 92.1684L398.586 94.096ZM375.93 94L376.407 92.0577L375.93 94ZM367.866 91.312L365.994 90.608L365.369 92.2701L366.945 93.0875L367.866 91.312ZM372.09 80.08L373.047 78.3242L371.028 77.2225L370.218 79.376L372.09 80.08ZM374.778 81.328L374.016 83.1774L374.034 83.1849L374.053 83.192L374.778 81.328ZM378.618 82.576L379.144 80.6465L378.618 82.576ZM383.034 83.536L382.705 85.5088L382.718 85.5109L383.034 83.536ZM396.858 82L397.918 83.696L397.925 83.6917L397.931 83.6873L396.858 82ZM402.026 75.952C402.026 73.3271 401.007 71.0941 399.002 69.4236L396.441 72.4964C397.509 73.3859 398.026 74.4809 398.026 75.952H402.026ZM399.034 69.4508C397.376 68.0087 395.305 66.7588 392.87 65.6764L391.245 69.3316C393.418 70.2972 395.124 71.3513 396.409 72.4692L399.034 69.4508ZM392.932 65.705C390.645 64.5944 388.139 63.4883 385.416 62.3861L383.915 66.0939C386.568 67.1677 388.99 68.2376 391.184 69.303L392.932 65.705ZM385.47 62.4087C382.961 61.3074 380.61 59.9941 378.415 58.4693L376.133 61.7547C378.545 63.4299 381.122 64.8686 383.862 66.0713L385.47 62.4087ZM378.466 58.5065C376.43 56.994 374.709 55.1302 373.301 52.9L369.919 55.036C371.582 57.6698 373.637 59.902 376.081 61.7175L378.466 58.5065ZM373.321 52.9324C372.09 50.8993 371.402 48.1834 371.402 44.656H367.402C367.402 48.6806 368.185 52.1727 369.899 55.0036L373.321 52.9324ZM371.402 44.656C371.402 41.6096 371.91 39.0917 372.851 37.043L369.216 35.373C367.982 38.0603 367.402 41.1744 367.402 44.656H371.402ZM372.859 37.0247C373.824 34.8675 375.17 33.1095 376.897 31.7168L374.386 28.6032C372.145 30.4105 370.419 32.6845 369.208 35.3913L372.859 37.0247ZM376.873 31.736C378.695 30.3124 380.854 29.2391 383.379 28.5344L382.304 24.6816C379.325 25.5129 376.684 26.8076 374.41 28.584L376.873 31.736ZM383.379 28.5344C385.927 27.8233 388.815 27.456 392.058 27.456V23.456C388.517 23.456 385.26 23.8566 382.304 24.6816L383.379 28.5344ZM392.058 27.456C395.842 27.456 399.387 27.7972 402.699 28.4718L403.497 24.5522C399.896 23.8188 396.082 23.456 392.058 23.456V27.456ZM402.734 28.4786C406.043 29.0915 408.661 29.9921 410.649 31.1285L412.634 27.6555C410.143 26.2319 407.064 25.2125 403.462 24.5454L402.734 28.4786ZM409.768 28.6915L405.64 39.7315L409.387 41.1325L413.515 30.0925L409.768 28.6915ZM408.587 38.7447C406.912 37.6784 404.557 36.8153 401.663 36.0917L400.693 39.9723C403.43 40.6567 405.3 41.3936 406.44 42.1193L408.587 38.7447ZM401.704 36.1025C398.698 35.2826 395.479 34.88 392.058 34.88V38.88C395.165 38.88 398.026 39.2454 400.652 39.9615L401.704 36.1025ZM392.058 34.88C388.759 34.88 385.911 35.5271 383.774 37.0892L386.134 40.3188C387.324 39.4488 389.212 38.88 392.058 38.88V34.88ZM383.744 37.1117C381.635 38.7143 380.554 40.941 380.554 43.6H384.554C384.554 42.163 385.073 41.1257 386.164 40.2963L383.744 37.1117ZM380.554 43.6C380.554 46.1094 381.549 48.2563 383.449 49.9092L386.074 46.8908C385.031 45.9837 384.554 44.9306 384.554 43.6H380.554ZM383.481 49.9364C385.168 51.3418 387.2 52.6088 389.552 53.751L391.3 50.153C389.171 49.1192 387.428 48.0182 386.042 46.8636L383.481 49.9364ZM389.572 53.7605C391.894 54.8572 394.375 55.9848 397.014 57.1433L398.622 53.4807C396.012 52.3352 393.565 51.2228 391.28 50.1435L389.572 53.7605ZM397.03 57.1503C399.581 58.2437 401.908 59.575 404.017 61.1415L406.402 57.9305C404.031 56.169 401.43 54.6843 398.606 53.4737L397.03 57.1503ZM404.069 61.1787C406.139 62.6164 407.834 64.4244 409.163 66.6196L412.585 64.5484C410.969 61.8796 408.888 59.6556 406.351 57.8933L404.069 61.1787ZM409.196 66.6724C410.472 68.6392 411.178 71.2107 411.178 74.512H415.178C415.178 70.6453 414.348 67.2648 412.552 64.4956L409.196 66.6724ZM411.178 74.512C411.178 77.8733 410.607 80.6778 409.539 82.9831L413.168 84.6649C414.532 81.7222 415.178 78.3187 415.178 74.512H411.178ZM409.53 83.0033C408.508 85.2751 407.041 87.1625 405.118 88.6898L407.605 91.8222C410.034 89.8935 411.896 87.4929 413.178 84.6447L409.53 83.0033ZM405.095 88.7081C403.235 90.2303 400.908 91.3951 398.063 92.1656L399.109 96.0265C402.408 95.1329 405.265 93.7377 407.628 91.8039L405.095 88.7081ZM398.053 92.1684C395.245 92.9451 392.099 93.344 388.602 93.344V97.344C392.4 97.344 395.911 96.9109 399.119 96.0236L398.053 92.1684ZM388.602 93.344C383.92 93.344 379.863 92.9065 376.407 92.0577L375.453 95.9423C379.293 96.8855 383.683 97.344 388.602 97.344V93.344ZM376.407 92.0577C372.798 91.1715 370.298 90.3202 368.786 89.5365L366.945 93.0875C368.89 94.0958 371.765 95.0365 375.453 95.9423L376.407 92.0577ZM369.738 92.016L373.962 80.784L370.218 79.376L365.994 90.608L369.738 92.016ZM371.132 81.8358C371.922 82.2664 372.889 82.7132 374.016 83.1774L375.539 79.4786C374.49 79.0468 373.666 78.6616 373.047 78.3242L371.132 81.8358ZM374.053 83.192C375.28 83.6693 376.628 84.1063 378.092 84.5055L379.144 80.6465C377.792 80.2777 376.579 79.8827 375.503 79.464L374.053 83.192ZM378.092 84.5055C379.569 84.9084 381.107 85.2424 382.705 85.5088L383.363 81.5632C381.889 81.3176 380.483 81.0116 379.144 80.6465L378.092 84.5055ZM382.718 85.5109C384.425 85.784 386.163 85.92 387.93 85.92V81.92C386.369 81.92 384.842 81.8 383.35 81.5611L382.718 85.5109ZM387.93 85.92C392 85.92 395.412 85.2621 397.918 83.696L395.798 80.304C394.208 81.2979 391.668 81.92 387.93 81.92V85.92ZM397.931 83.6873C400.67 81.9449 402.026 79.2634 402.026 75.952H398.026C398.026 78.0166 397.27 79.3671 395.784 80.3127L397.931 83.6873Z" fill="#EA0FFD" mask="url(#path-3-outside-2_0_1)"/>
</g>
<defs>
<filter id="filter0_f_0_1" x="0.580017" y="0.47998" width="422.598" height="104.864" filterUnits="userSpaceOnUse" color-interpolation-filters="sRGB">
<feFlood flood-opacity="0" result="BackgroundImageFix"/>
<feBlend mode="normal" in="SourceGraphic" in2="BackgroundImageFix" result="shape"/>
<feGaussianBlur stdDeviation="5" result="effect1_foregroundBlur_0_1"/>
</filter>
</defs>
</svg>
