<svg width="160" height="162" viewBox="0 0 160 162" fill="none" xmlns="http://www.w3.org/2000/svg">
    <path d="M41.2727 27.75C37.715 27.75 34.8195 30.6449 34.8181 34.2046C34.8181 37.7638 37.713 40.6592 41.2716 40.6592H41.2725C44.8316 40.6592 47.7271 37.7638 47.7271 34.2046C47.7271 30.6455 44.8316 27.75 41.2727 27.75Z" fill="#00B2FF"/>
    <path d="M118.727 27.75C115.169 27.75 112.274 30.6449 112.272 34.2046C112.272 37.7638 115.167 40.6592 118.726 40.6592H118.727C122.286 40.6592 125.181 37.7638 125.181 34.2046C125.181 30.6455 122.286 27.75 118.727 27.75Z" fill="#00B2FF"/>
    <path d="M139.969 45.802C141.9 42.2687 142.932 38.2857 142.932 34.2046C142.932 20.8583 132.074 10 118.727 10C108.645 10 103.522 10.8537 98.5676 11.6796C93.792 12.4758 89.281 13.2274 79.9997 13.2274C70.7184 13.2274 66.2076 12.4758 61.4318 11.6796C56.4779 10.8537 51.355 10 41.2728 10C27.9262 10 17.0681 20.8583 17.0681 34.2046C17.0681 38.2857 18.0996 42.2689 20.0307 45.802C14.1275 50.9626 10.6135 58.5052 10.6135 66.4772C10.6135 81.6032 22.9195 93.909 38.0453 93.909C41.9792 93.909 45.8134 93.0742 49.3407 91.4772V121.341C49.341 138.246 63.0945 152 79.9999 152C96.9054 152 110.659 138.246 110.659 121.341V91.4781C114.186 93.0747 118.02 93.9092 121.954 93.9092C137.08 93.9092 149.386 81.6032 149.386 66.4774C149.386 58.5052 145.872 50.9626 139.969 45.802ZM100.977 121.341C100.977 132.908 91.5668 142.318 79.9999 142.318C68.433 142.318 59.0228 132.908 59.0228 121.341V91.2146C63.8602 92.3603 66.7978 95.1795 69.6586 97.9288C72.5555 100.712 75.5502 103.591 80.0002 103.591C84.4502 103.591 87.445 100.712 90.3418 97.9288C93.2023 95.1795 96.1402 92.36 100.978 91.2146V121.341H100.977ZM105.818 81C93.9844 81 87.7547 86.9865 83.6326 90.948C82.511 92.0261 80.6351 93.8288 79.9999 93.9087C79.3648 93.8285 77.4889 92.0258 76.3673 90.948C72.2451 86.9865 66.0154 81 54.1817 81C51.5126 81 49.3407 78.8284 49.3407 76.159C49.3407 73.4895 51.5123 71.3179 54.1817 71.3179H59.0228V66.4769C59.0228 54.9103 68.433 45.5 79.9999 45.5C91.5668 45.5 100.977 54.9103 100.977 66.4772V71.3182H105.818C108.487 71.3182 110.659 73.4898 110.659 76.1592C110.659 78.8287 108.487 81 105.818 81ZM121.955 84.2272C120.663 84.2272 119.39 84.0871 118.15 83.817C119.537 81.5921 120.341 78.9685 120.341 76.159C120.341 69.7459 116.163 64.2906 110.385 62.3717C108.373 47.4006 95.5134 35.8179 79.9999 35.8179C64.4864 35.8179 51.6271 47.4006 49.6144 62.3717C43.8374 64.2906 39.6589 69.7459 39.6589 76.159C39.6589 78.9682 40.4632 81.5921 41.8499 83.817C40.6099 84.0871 39.3361 84.2272 38.0453 84.2272C28.2579 84.2272 20.2953 76.2646 20.2953 66.4772C20.2953 60.1842 23.682 54.3032 29.134 51.1292L34.2066 48.1761L30.3415 43.7586C28.0254 41.111 26.7499 37.718 26.7499 34.2046C26.7499 26.1969 33.2647 19.6818 41.2728 19.6818C50.5541 19.6818 55.0648 20.4334 59.8407 21.2296C64.7948 22.0553 69.9179 22.9092 80.0002 22.9092C90.0825 22.9092 95.2056 22.0553 100.16 21.2296C104.935 20.4334 109.446 19.6818 118.728 19.6818C126.735 19.6818 133.251 26.1966 133.251 34.2046C133.251 37.718 131.975 41.111 129.659 43.7586L125.794 48.1761L130.866 51.1292C136.318 54.3032 139.705 60.1842 139.705 66.4772C139.705 76.2646 131.742 84.2272 121.955 84.2272Z" fill="#00B2FF"/>
    <path d="M73.0818 57.1143L65.3408 62.9299C66.8168 64.8946 67.597 67.2373 67.597 69.7046H77.2788C77.2788 65.1231 75.8275 60.7694 73.0818 57.1143Z" fill="#00B2FF"/>
    <path d="M86.9182 57.1143C84.1725 60.7694 82.7212 65.1231 82.7212 69.7046H92.403C92.403 67.2373 93.1834 64.8946 94.6592 62.9299L86.9182 57.1143Z" fill="#00B2FF"/>
    <g filter="url(#filter0_f_0_1)">
        <path d="M41.2727 27.75C37.715 27.75 34.8195 30.6449 34.8181 34.2046C34.8181 37.7638 37.713 40.6592 41.2716 40.6592H41.2725C44.8316 40.6592 47.7271 37.7638 47.7271 34.2046C47.7271 30.6455 44.8316 27.75 41.2727 27.75Z" fill="#00B2FF"/>
        <path d="M118.727 27.75C115.169 27.75 112.274 30.6449 112.272 34.2046C112.272 37.7638 115.167 40.6592 118.726 40.6592H118.727C122.286 40.6592 125.181 37.7638 125.181 34.2046C125.181 30.6455 122.286 27.75 118.727 27.75Z" fill="#00B2FF"/>
        <path d="M139.969 45.802C141.9 42.2687 142.932 38.2857 142.932 34.2046C142.932 20.8583 132.074 10 118.727 10C108.645 10 103.522 10.8537 98.5676 11.6796C93.792 12.4758 89.281 13.2274 79.9997 13.2274C70.7184 13.2274 66.2076 12.4758 61.4318 11.6796C56.4779 10.8537 51.355 10 41.2728 10C27.9262 10 17.0681 20.8583 17.0681 34.2046C17.0681 38.2857 18.0996 42.2689 20.0307 45.802C14.1275 50.9626 10.6135 58.5052 10.6135 66.4772C10.6135 81.6032 22.9195 93.909 38.0453 93.909C41.9792 93.909 45.8134 93.0742 49.3407 91.4772V121.341C49.341 138.246 63.0945 152 79.9999 152C96.9054 152 110.659 138.246 110.659 121.341V91.4781C114.186 93.0747 118.02 93.9092 121.954 93.9092C137.08 93.9092 149.386 81.6032 149.386 66.4774C149.386 58.5052 145.872 50.9626 139.969 45.802ZM100.977 121.341C100.977 132.908 91.5668 142.318 79.9999 142.318C68.433 142.318 59.0228 132.908 59.0228 121.341V91.2146C63.8602 92.3603 66.7978 95.1795 69.6586 97.9288C72.5555 100.712 75.5502 103.591 80.0002 103.591C84.4502 103.591 87.445 100.712 90.3418 97.9288C93.2023 95.1795 96.1402 92.36 100.978 91.2146V121.341H100.977ZM105.818 81C93.9844 81 87.7547 86.9865 83.6326 90.948C82.511 92.0261 80.6351 93.8288 79.9999 93.9087C79.3648 93.8285 77.4889 92.0258 76.3673 90.948C72.2451 86.9865 66.0154 81 54.1817 81C51.5126 81 49.3407 78.8284 49.3407 76.159C49.3407 73.4895 51.5123 71.3179 54.1817 71.3179H59.0228V66.4769C59.0228 54.9103 68.433 45.5 79.9999 45.5C91.5668 45.5 100.977 54.9103 100.977 66.4772V71.3182H105.818C108.487 71.3182 110.659 73.4898 110.659 76.1592C110.659 78.8287 108.487 81 105.818 81ZM121.955 84.2272C120.663 84.2272 119.39 84.0871 118.15 83.817C119.537 81.5921 120.341 78.9685 120.341 76.159C120.341 69.7459 116.163 64.2906 110.385 62.3717C108.373 47.4006 95.5134 35.8179 79.9999 35.8179C64.4864 35.8179 51.6271 47.4006 49.6144 62.3717C43.8374 64.2906 39.6589 69.7459 39.6589 76.159C39.6589 78.9682 40.4632 81.5921 41.8499 83.817C40.6099 84.0871 39.3361 84.2272 38.0453 84.2272C28.2579 84.2272 20.2953 76.2646 20.2953 66.4772C20.2953 60.1842 23.682 54.3032 29.134 51.1292L34.2066 48.1761L30.3415 43.7586C28.0254 41.111 26.7499 37.718 26.7499 34.2046C26.7499 26.1969 33.2647 19.6818 41.2728 19.6818C50.5541 19.6818 55.0648 20.4334 59.8407 21.2296C64.7948 22.0553 69.9179 22.9092 80.0002 22.9092C90.0825 22.9092 95.2056 22.0553 100.16 21.2296C104.935 20.4334 109.446 19.6818 118.728 19.6818C126.735 19.6818 133.251 26.1966 133.251 34.2046C133.251 37.718 131.975 41.111 129.659 43.7586L125.794 48.1761L130.866 51.1292C136.318 54.3032 139.705 60.1842 139.705 66.4772C139.705 76.2646 131.742 84.2272 121.955 84.2272Z" fill="#00B2FF"/>
        <path d="M73.0818 57.1143L65.3408 62.9299C66.8168 64.8946 67.597 67.2373 67.597 69.7046H77.2788C77.2788 65.1231 75.8275 60.7694 73.0818 57.1143Z" fill="#00B2FF"/>
        <path d="M86.9182 57.1143C84.1725 60.7694 82.7212 65.1231 82.7212 69.7046H92.403C92.403 67.2373 93.1834 64.8946 94.6592 62.9299L86.9182 57.1143Z" fill="#00B2FF"/>
    </g>
    <defs>
        <filter id="filter0_f_0_1" x="-1" y="0" width="162" height="162" filterUnits="userSpaceOnUse" color-interpolation-filters="sRGB">
            <feFlood flood-opacity="0" result="BackgroundImageFix"/>
            <feBlend mode="normal" in="SourceGraphic" in2="BackgroundImageFix" result="shape"/>
            <feGaussianBlur stdDeviation="5" result="effect1_foregroundBlur_0_1"/>
        </filter>
    </defs>
</svg>