<svg width="162" height="158" viewBox="0 0 162 158" fill="none" xmlns="http://www.w3.org/2000/svg">
    <g filter="url(#filter0_f_0_1)">
        <path d="M74.1959 142.9H64.7294C63.4222 142.9 62.3628 143.959 62.3628 145.266C62.3628 146.575 63.4225 147.633 64.7294 147.633H74.1959C75.5031 147.633 76.5625 146.574 76.5625 145.266C76.5625 143.959 75.5028 142.9 74.1959 142.9Z" fill="#00B2FF"/>
        <path d="M97.8624 142.9H88.3959C87.0887 142.9 86.0293 143.959 86.0293 145.266C86.0293 146.575 87.089 147.633 88.3959 147.633H97.8624C99.1696 147.633 100.229 146.574 100.229 145.266C100.229 143.959 99.1696 142.9 97.8624 142.9Z" fill="#00B2FF"/>
        <path d="M90.0692 60.7598L87.7026 58.3932C86.7782 57.4689 85.2806 57.4689 84.3559 58.3932C83.4315 59.3176 83.4315 60.8153 84.3559 61.7399L86.7225 64.1065C87.1848 64.5689 87.7902 64.7999 88.3957 64.7999C89.0011 64.7999 89.6068 64.5689 90.0689 64.1065C90.9936 63.1821 90.9936 61.6845 90.0692 60.7598Z" fill="#00B2FF"/>
        <path d="M81 10.3665C51.672 10.3665 10 43.4145 10 74.269V83.7308C10 104.613 27.2752 121.51 48.1464 121.51H58.6245C60.1485 125.06 63.25 127.686 66.8 128.461V142.9C66.8 144.208 67.8597 145.266 69.1666 145.266C70.4737 145.266 71.5331 144.208 71.5331 142.9V128.458C74.4916 127.872 77.1288 126.237 78.8722 123.846C80.3826 124.004 81.8409 124.004 83.3491 123.846C85.0933 126.237 88.0997 127.873 90.4666 128.458V142.9C90.4666 144.208 91.5263 145.266 92.8331 145.266C94.14 145.266 95.1997 144.208 95.1997 142.9V128.461C99.3413 127.686 102.443 125.06 103.967 121.51H114.446C135.316 121.51 152 104.613 152 83.7333V74.2784C152 43.4214 110.328 10.3665 81 10.3665ZM95.2 123.552V121.6C95.2 120.292 94.1403 119.233 92.8334 119.233C91.5266 119.233 90.4669 120.292 90.4669 121.6V123.562C89.2834 122.978 87.5503 121.788 86.6986 120.176C86.2837 119.393 85.5465 118.917 84.682 118.917C84.5386 118.917 84.4302 118.93 84.2857 118.956C82.3049 119.323 80.2331 119.326 78.2501 118.956C77.2378 118.78 76.0719 119.263 75.5876 120.178C74.7365 121.788 73.3087 122.978 71.5337 123.562V121.6C71.5337 120.292 70.474 119.233 69.1671 119.233C67.86 119.233 66.8006 120.292 66.8006 121.6V123.552C64.434 122.575 62.2152 119.951 62.2152 116.867C62.2152 114.678 63.2772 112.644 64.9992 111.285C65.8116 110.643 66.1502 109.547 65.7805 108.581C65.0583 106.695 64.7116 104.708 64.7116 102.667C64.7116 95.8788 68.6371 89.849 74.927 87.3019C75.8214 86.9413 76.2674 86.0724 76.2674 85.1087V62.4336C76.2674 57.2126 80.6622 52.967 85.8821 52.967C91.102 52.967 95.4227 57.2126 95.4227 62.4336C95.4227 66.9196 92.1281 70.8185 87.7414 71.7085C86.6378 71.9326 85.734 72.9033 85.734 74.029V85.1089C85.734 86.0727 86.4667 86.9416 87.3612 87.3022C93.651 89.849 97.7893 95.879 97.7893 102.667C97.7893 104.708 97.4612 106.698 96.7401 108.581C96.3704 109.548 96.6904 110.643 97.5028 111.285C99.2245 112.644 100.073 114.678 100.073 116.867C100.072 119.951 98.1584 122.575 95.2 123.552ZM100.343 93.0715C110.88 92.192 119.162 84.0983 119.162 74.244C119.162 72.9358 118.103 71.8882 116.796 71.8882C115.489 71.8882 114.429 72.9524 114.429 74.2606C114.429 82.0909 107.258 88.4634 98.4427 88.4634C98.0683 88.4634 97.571 88.5599 97.2562 88.7147C95.4352 86.6149 93.425 84.8549 90.4669 83.578V75.8243C93.4253 74.9795 95.0733 73.4702 96.6677 71.6006C96.9847 71.7584 97.4848 71.8097 97.8625 71.8097H100.229C100.513 71.8097 100.794 71.8039 101.06 71.7046L119.993 64.6271C120.898 64.2873 121.506 63.4431 121.528 62.4771C121.551 61.5111 120.984 60.6339 120.095 60.2526L103.528 53.1104C103.234 52.9834 102.916 52.8763 102.596 52.8763H96.6023C94.0005 49.9179 90.0775 48.1881 85.8812 48.1881C78.051 48.1881 71.5334 54.6028 71.5334 62.433V83.5783C69.1669 84.8552 66.861 86.6163 65.0405 88.7155C64.7257 88.5613 64.3028 88.4665 63.9287 88.4665C55.1127 88.4665 47.8669 82.0945 47.8669 74.2642V69.8498C47.8669 58.5225 66.9043 43.4999 81.1481 43.4999C86.7158 43.4999 93.6056 45.885 99.9232 50.043C101.019 50.7688 102.521 50.459 103.239 49.3682C103.957 48.2774 103.673 46.8097 102.581 46.0908C95.5109 41.4362 87.608 38.7665 81.139 38.7665C65.4968 38.7665 43.1337 54.8432 43.1337 69.8498V74.2642C43.1337 84.1202 51.5644 92.1917 62.1018 93.0715C61.3427 94.5905 60.9078 96.0679 60.5281 97.8429H58.435C46.2458 97.8429 36.0337 88.7321 36.0337 77.4212V71.3219C36.0337 56.2599 59.72 34.033 81.0003 34.033C102.281 34.033 125.967 56.2646 125.967 71.3288V77.4212C125.967 88.7321 116.346 97.8429 104.158 97.8429H102.065C101.685 96.0682 101.102 94.5908 100.343 93.0715ZM99.4151 57.6097H102.111L112.813 62.1976L99.8006 67.0766H99.4023C99.9334 65.8932 100.229 63.9928 100.229 62.3432C100.229 60.6835 99.9406 59.3847 99.4151 57.6097ZM102.064 107.31C102.414 106.126 102.596 104.351 102.596 102.576H104.158C118.957 102.576 130.7 91.3417 130.7 77.4212V71.3288C130.7 51.0367 101.53 29.2999 81 29.2999C60.4696 29.2999 31.3 51.032 31.3 71.3222V77.4215C31.3 91.342 43.636 102.577 58.4345 102.577H59.9957C59.9957 104.352 60.1776 106.127 60.529 107.31H52.719C37.1564 107.31 24.2 95.3681 24.2 80.5763V72.7968C24.2 49.9714 58.0567 24.5667 81 24.5667C107.88 24.5667 137.8 53.3181 137.8 72.8037V80.5763C137.8 95.3679 125.435 107.31 109.874 107.31L102.064 107.31ZM147.267 83.7333C147.267 102.003 132.707 116.777 114.446 116.777H104.963C104.963 115.002 104.611 113.818 103.97 112.043H109.874C128.046 112.043 142.533 97.9771 142.533 80.5763V72.8037C142.533 47.2279 106.418 19.8333 80.9997 19.8333C55.5812 19.8333 19.4666 47.2254 19.4666 72.7965V80.576C19.4666 97.9771 34.5471 112.043 52.719 112.043H58.6228C57.9807 113.818 57.6291 115.001 57.6291 116.776H48.1461C29.8853 116.776 14.7331 102.001 14.7331 83.7308V74.269C14.7334 46.2664 54.233 15.0999 81 15.0999C107.767 15.0999 147.267 46.2733 147.267 74.2781V83.7333Z" fill="#00B2FF"/>
    </g>
    <path d="M74.1959 142.9H64.7294C63.4222 142.9 62.3628 143.959 62.3628 145.266C62.3628 146.575 63.4225 147.633 64.7294 147.633H74.1959C75.5031 147.633 76.5625 146.574 76.5625 145.266C76.5625 143.959 75.5028 142.9 74.1959 142.9Z" fill="#00B2FF"/>
    <path d="M97.8624 142.9H88.3959C87.0887 142.9 86.0293 143.959 86.0293 145.266C86.0293 146.575 87.089 147.633 88.3959 147.633H97.8624C99.1696 147.633 100.229 146.574 100.229 145.266C100.229 143.959 99.1696 142.9 97.8624 142.9Z" fill="#00B2FF"/>
    <path d="M90.0692 60.7598L87.7026 58.3932C86.7782 57.4689 85.2806 57.4689 84.3559 58.3932C83.4315 59.3176 83.4315 60.8153 84.3559 61.7399L86.7225 64.1065C87.1848 64.5689 87.7902 64.7999 88.3957 64.7999C89.0011 64.7999 89.6068 64.5689 90.0689 64.1065C90.9936 63.1821 90.9936 61.6845 90.0692 60.7598Z" fill="#00B2FF"/>
    <path d="M81 10.3665C51.672 10.3665 10 43.4145 10 74.269V83.7308C10 104.613 27.2752 121.51 48.1464 121.51H58.6245C60.1485 125.06 63.25 127.686 66.8 128.461V142.9C66.8 144.208 67.8597 145.266 69.1666 145.266C70.4737 145.266 71.5331 144.208 71.5331 142.9V128.458C74.4916 127.872 77.1288 126.237 78.8722 123.846C80.3826 124.004 81.8409 124.004 83.3491 123.846C85.0933 126.237 88.0997 127.873 90.4666 128.458V142.9C90.4666 144.208 91.5263 145.266 92.8331 145.266C94.14 145.266 95.1997 144.208 95.1997 142.9V128.461C99.3413 127.686 102.443 125.06 103.967 121.51H114.446C135.316 121.51 152 104.613 152 83.7333V74.2784C152 43.4214 110.328 10.3665 81 10.3665ZM95.2 123.552V121.6C95.2 120.292 94.1403 119.233 92.8334 119.233C91.5266 119.233 90.4669 120.292 90.4669 121.6V123.562C89.2834 122.978 87.5503 121.788 86.6986 120.176C86.2837 119.393 85.5465 118.917 84.682 118.917C84.5386 118.917 84.4302 118.93 84.2857 118.956C82.3049 119.323 80.2331 119.326 78.2501 118.956C77.2378 118.78 76.0719 119.263 75.5876 120.178C74.7365 121.788 73.3087 122.978 71.5337 123.562V121.6C71.5337 120.292 70.474 119.233 69.1671 119.233C67.86 119.233 66.8006 120.292 66.8006 121.6V123.552C64.434 122.575 62.2152 119.951 62.2152 116.867C62.2152 114.678 63.2772 112.644 64.9992 111.285C65.8116 110.643 66.1502 109.547 65.7805 108.581C65.0583 106.695 64.7116 104.708 64.7116 102.667C64.7116 95.8788 68.6371 89.849 74.927 87.3019C75.8214 86.9413 76.2674 86.0724 76.2674 85.1087V62.4336C76.2674 57.2126 80.6622 52.967 85.8821 52.967C91.102 52.967 95.4227 57.2126 95.4227 62.4336C95.4227 66.9196 92.1281 70.8185 87.7414 71.7085C86.6378 71.9326 85.734 72.9033 85.734 74.029V85.1089C85.734 86.0727 86.4667 86.9416 87.3612 87.3022C93.651 89.849 97.7893 95.879 97.7893 102.667C97.7893 104.708 97.4612 106.698 96.7401 108.581C96.3704 109.548 96.6904 110.643 97.5028 111.285C99.2245 112.644 100.073 114.678 100.073 116.867C100.072 119.951 98.1584 122.575 95.2 123.552ZM100.343 93.0715C110.88 92.192 119.162 84.0983 119.162 74.244C119.162 72.9358 118.103 71.8882 116.796 71.8882C115.489 71.8882 114.429 72.9524 114.429 74.2606C114.429 82.0909 107.258 88.4634 98.4427 88.4634C98.0683 88.4634 97.571 88.5599 97.2562 88.7147C95.4352 86.6149 93.425 84.8549 90.4669 83.578V75.8243C93.4253 74.9795 95.0733 73.4702 96.6677 71.6006C96.9847 71.7584 97.4848 71.8097 97.8625 71.8097H100.229C100.513 71.8097 100.794 71.8039 101.06 71.7046L119.993 64.6271C120.898 64.2873 121.506 63.4431 121.528 62.4771C121.551 61.5111 120.984 60.6339 120.095 60.2526L103.528 53.1104C103.234 52.9834 102.916 52.8763 102.596 52.8763H96.6023C94.0005 49.9179 90.0775 48.1881 85.8812 48.1881C78.051 48.1881 71.5334 54.6028 71.5334 62.433V83.5783C69.1669 84.8552 66.861 86.6163 65.0405 88.7155C64.7257 88.5613 64.3028 88.4665 63.9287 88.4665C55.1127 88.4665 47.8669 82.0945 47.8669 74.2642V69.8498C47.8669 58.5225 66.9043 43.4999 81.1481 43.4999C86.7158 43.4999 93.6056 45.885 99.9232 50.043C101.019 50.7688 102.521 50.459 103.239 49.3682C103.957 48.2774 103.673 46.8097 102.581 46.0908C95.5109 41.4362 87.608 38.7665 81.139 38.7665C65.4968 38.7665 43.1337 54.8432 43.1337 69.8498V74.2642C43.1337 84.1202 51.5644 92.1917 62.1018 93.0715C61.3427 94.5905 60.9078 96.0679 60.5281 97.8429H58.435C46.2458 97.8429 36.0337 88.7321 36.0337 77.4212V71.3219C36.0337 56.2599 59.72 34.033 81.0003 34.033C102.281 34.033 125.967 56.2646 125.967 71.3288V77.4212C125.967 88.7321 116.346 97.8429 104.158 97.8429H102.065C101.685 96.0682 101.102 94.5908 100.343 93.0715ZM99.4151 57.6097H102.111L112.813 62.1976L99.8006 67.0766H99.4023C99.9334 65.8932 100.229 63.9928 100.229 62.3432C100.229 60.6835 99.9406 59.3847 99.4151 57.6097ZM102.064 107.31C102.414 106.126 102.596 104.351 102.596 102.576H104.158C118.957 102.576 130.7 91.3417 130.7 77.4212V71.3288C130.7 51.0367 101.53 29.2999 81 29.2999C60.4696 29.2999 31.3 51.032 31.3 71.3222V77.4215C31.3 91.342 43.636 102.577 58.4345 102.577H59.9957C59.9957 104.352 60.1776 106.127 60.529 107.31H52.719C37.1564 107.31 24.2 95.3681 24.2 80.5763V72.7968C24.2 49.9714 58.0567 24.5667 81 24.5667C107.88 24.5667 137.8 53.3181 137.8 72.8037V80.5763C137.8 95.3679 125.435 107.31 109.874 107.31L102.064 107.31ZM147.267 83.7333C147.267 102.003 132.707 116.777 114.446 116.777H104.963C104.963 115.002 104.611 113.818 103.97 112.043H109.874C128.046 112.043 142.533 97.9771 142.533 80.5763V72.8037C142.533 47.2279 106.418 19.8333 80.9997 19.8333C55.5812 19.8333 19.4666 47.2254 19.4666 72.7965V80.576C19.4666 97.9771 34.5471 112.043 52.719 112.043H58.6228C57.9807 113.818 57.6291 115.001 57.6291 116.776H48.1461C29.8853 116.776 14.7331 102.001 14.7331 83.7308V74.269C14.7334 46.2664 54.233 15.0999 81 15.0999C107.767 15.0999 147.267 46.2733 147.267 74.2781V83.7333Z" fill="#00B2FF"/>
    <defs>
        <filter id="filter0_f_0_1" x="0" y="-2" width="162" height="162" filterUnits="userSpaceOnUse" color-interpolation-filters="sRGB">
            <feFlood flood-opacity="0" result="BackgroundImageFix"/>
            <feBlend mode="normal" in="SourceGraphic" in2="BackgroundImageFix" result="shape"/>
            <feGaussianBlur stdDeviation="5" result="effect1_foregroundBlur_0_1"/>
        </filter>
    </defs>
</svg>
