<svg width="162" height="142" viewBox="0 0 162 142" fill="none" xmlns="http://www.w3.org/2000/svg">
    <g clip-path="url(#clip0_0_1)">
        <path d="M10.9581 56.389C12.717 59.265 16.1206 59.917 19.224 59.917C19.8388 59.917 20.4395 59.8898 21.0159 59.8513C17.3893 68.5376 15.4273 77.8344 15.4273 86.5878C15.4273 98.1657 18.2731 106.627 24.1278 112.456C32.661 120.952 46.2881 122.583 62.435 122.847C62.8626 123.046 63.3116 123.233 63.7865 123.41C68.7359 125.254 75.2685 125.503 81.0072 125.503C86.7461 125.503 93.2786 125.254 98.2279 123.41C98.7029 123.233 99.1518 123.046 99.5778 122.847C115.725 122.582 129.352 120.951 137.885 112.455C143.74 106.626 146.585 98.164 146.585 86.5864C146.585 77.8328 144.625 68.5374 140.998 59.8513C144.482 60.0843 148.938 59.827 151.042 56.3862C153.92 51.6784 149.838 45.1945 145.11 37.6852C142.426 33.4222 139.651 29.0133 138.556 25.5053C137.276 21.4026 134.222 18.5568 129.725 17.2798C124.065 15.6723 117.381 16.8408 112.77 18.1034C108.451 19.2861 104.351 21.0135 101.66 22.7368C94.9717 20.4385 88.0241 19.2745 80.9998 19.2745C73.9738 19.2745 67.0282 20.4385 60.3382 22.7368C57.6483 21.0135 53.5468 19.2858 49.2281 18.1034C44.6175 16.8408 37.9336 15.6723 32.2733 17.2798C27.7773 18.5568 24.7241 21.4026 23.4427 25.5069C22.3487 29.0149 19.5729 33.4238 16.8886 37.6868C12.1623 45.1959 8.07955 51.6812 10.9581 56.389ZM34.1151 23.7621C37.3185 22.8525 42.1792 23.1586 47.4492 24.6029C52.2628 25.9215 56.1954 27.8406 57.594 29.0548L59.0954 30.359L61.9299 29.3196C68.182 27.0958 74.42 26.0146 80.9998 26.0146C87.5782 26.0146 93.8159 27.0956 100.068 29.3196L102.904 30.359L104.406 29.0548C105.804 27.8406 109.737 25.9215 114.551 24.6029C119.822 23.1586 124.681 22.8525 127.885 23.7621C130.904 24.6187 131.75 26.3134 132.124 27.5132C133.479 31.8607 136.492 36.6485 139.407 41.2777C141.195 44.1179 142.883 46.8006 144.013 49.1058C145.155 51.4339 145.266 52.4778 145.259 52.8298C144.911 52.9871 143.753 53.3446 140.786 53.0801C139.281 52.9455 137.738 52.7054 136.195 52.368L136.028 52.3307C120.606 48.8786 108.983 36.397 108.87 36.2738L106.387 38.5491L103.903 40.8243C104.326 41.2863 112.515 50.1153 124.789 55.6168C127.358 56.7679 130.103 57.7733 132.996 58.5255C137.422 67.475 139.849 77.3825 139.849 86.5878C139.849 96.2823 137.653 103.183 133.132 107.683C127.397 113.393 117.885 115.286 106.304 115.89C106.706 114.774 106.921 113.656 107.011 112.593L107.058 112.596C107.088 112.109 107.701 100.479 99.5614 85.4767C97.7908 82.2146 96.9845 79.1514 97.143 76.323C98.8203 77.6771 101.011 78.4739 103.4 78.4739H103.401C104.196 78.4739 104.997 78.3836 105.781 78.205C111.106 76.9922 114.525 71.9985 113.403 67.0733C112.463 62.9519 108.635 60.0731 104.092 60.0731C103.297 60.0731 102.496 60.1631 101.712 60.342C100.105 60.7082 98.6718 61.4217 97.485 62.3713L97.4692 62.3498C97.1232 62.6001 94.0327 64.9211 92.0393 69.3186C90.1887 73.4 88.9648 80.0742 93.6394 88.6904C94.3287 89.9603 94.9452 91.2 95.4986 92.4028C91.1497 89.6041 86.1433 88.0983 81.0093 88.0983C75.9024 88.0983 70.9215 89.5884 66.5899 92.3583C67.2219 90.9826 67.8498 89.7515 68.4247 88.6916C73.0996 80.0739 71.8754 73.4016 70.0264 69.3198C68.0328 64.9225 64.9425 62.6013 64.5965 62.3512L64.5807 62.3725C63.3923 61.423 61.9607 60.7107 60.3535 60.3432C59.5697 60.1643 58.769 60.0743 57.9738 60.0743C53.4305 60.0743 49.601 62.953 48.6629 67.0743C47.5415 71.9995 50.9609 76.9919 56.2851 78.2061C57.0687 78.3848 57.8696 78.4748 58.6648 78.4748C61.0544 78.4748 63.2468 77.6769 64.9241 76.3228C65.0831 79.15 64.2749 82.2132 62.503 85.478C56.9086 95.7888 55.4485 104.508 55.0925 109.11C54.9981 109.842 54.951 110.573 54.951 111.302C54.951 112.724 55.144 114.311 55.7132 115.891C44.134 115.288 34.6212 113.394 28.8853 107.684C24.3661 103.184 22.1698 96.2835 22.1698 86.589C22.1698 77.3852 24.5951 67.4775 29.0212 58.5269C31.9127 57.7747 34.6599 56.7693 37.2284 55.6182C49.5026 50.1167 57.6912 41.2874 58.1144 40.8257L55.6334 38.5504L53.1479 36.2724C53.0322 36.3982 41.4086 48.8784 25.9868 52.3321L25.981 52.3335V52.3321C24.3793 52.6896 22.7777 52.9428 21.2159 53.0813C18.2485 53.3458 17.0903 52.9868 16.7427 52.8309C16.7355 52.4792 16.8485 51.4353 17.9882 49.1071C19.1179 46.8017 20.8068 44.1191 22.5946 41.2791C25.5091 36.6499 28.5221 31.8635 29.8779 27.5146C30.2496 26.3134 31.0962 24.6187 34.1151 23.7621ZM81.0056 118.767C71.7373 118.767 66.7363 117.819 64.1608 116.134C62.5533 115.082 61.8897 113.743 61.7268 112.167C61.721 112.01 61.6969 111.18 61.7941 109.812C62.2647 106.553 64.2253 103.101 67.2425 100.325C71.0881 96.7853 75.976 94.8347 81.0056 94.8347C86.035 94.8347 90.9231 96.784 94.7684 100.325C98.2493 103.528 100.327 107.631 100.327 111.301C100.327 113.255 99.7451 114.894 97.8502 116.134C95.2747 117.819 90.2738 118.767 81.0056 118.767ZM103.206 66.9114C103.5 66.8441 103.797 66.8097 104.09 66.8097C105.447 66.8097 106.599 67.5506 106.833 68.5687C107.124 69.8486 105.956 71.253 104.283 71.635C103.99 71.7022 103.692 71.7352 103.399 71.7352C102.042 71.7352 100.889 70.9957 100.656 69.976C100.364 68.6961 101.533 67.2919 103.206 66.9114ZM61.4036 69.976C61.1718 70.9957 60.018 71.7352 58.6609 71.7352C58.3692 71.7352 58.0717 71.7008 57.7771 71.635C56.1039 71.253 54.9355 69.8502 55.2273 68.5687C55.4591 67.549 56.613 66.8097 57.9701 66.8097C58.2618 66.8097 58.5595 66.8441 58.8539 66.9114C60.527 67.2919 61.6953 68.6961 61.4036 69.976Z" fill="#00B2FF"/>
        <path d="M67.3685 113.719C67.3685 113.719 79.3224 114.301 78.5502 107.135C77.778 99.97 66.0058 102.087 67.3685 113.719Z" fill="#00B2FF"/>
        <path d="M83.4497 107.135C82.6775 114.299 94.6312 113.719 94.6312 113.719C95.9927 102.087 84.2205 99.97 83.4497 107.135Z" fill="#00B2FF"/>
    </g>
    <g clip-path="url(#clip1_0_1)" filter="url(#filter0_f_0_1)">
        <path d="M10.9581 56.389C12.717 59.265 16.1206 59.917 19.224 59.917C19.8388 59.917 20.4395 59.8898 21.0159 59.8513C17.3893 68.5376 15.4273 77.8344 15.4273 86.5878C15.4273 98.1657 18.2731 106.627 24.1278 112.456C32.661 120.952 46.2881 122.583 62.435 122.847C62.8626 123.046 63.3116 123.233 63.7865 123.41C68.7359 125.254 75.2685 125.503 81.0072 125.503C86.7461 125.503 93.2786 125.254 98.2279 123.41C98.7029 123.233 99.1518 123.046 99.5778 122.847C115.725 122.582 129.352 120.951 137.885 112.455C143.74 106.626 146.585 98.164 146.585 86.5864C146.585 77.8328 144.625 68.5374 140.998 59.8513C144.482 60.0843 148.938 59.827 151.042 56.3862C153.92 51.6784 149.838 45.1945 145.11 37.6852C142.426 33.4222 139.651 29.0133 138.556 25.5053C137.276 21.4026 134.222 18.5568 129.725 17.2798C124.065 15.6723 117.381 16.8408 112.77 18.1034C108.451 19.2861 104.351 21.0135 101.66 22.7368C94.9717 20.4385 88.0241 19.2745 80.9998 19.2745C73.9738 19.2745 67.0282 20.4385 60.3382 22.7368C57.6483 21.0135 53.5468 19.2858 49.2281 18.1034C44.6175 16.8408 37.9336 15.6723 32.2733 17.2798C27.7773 18.5568 24.7241 21.4026 23.4427 25.5069C22.3487 29.0149 19.5729 33.4238 16.8886 37.6868C12.1623 45.1959 8.07955 51.6812 10.9581 56.389ZM34.1151 23.7621C37.3185 22.8525 42.1792 23.1586 47.4492 24.6029C52.2628 25.9215 56.1954 27.8406 57.594 29.0548L59.0954 30.359L61.9299 29.3196C68.182 27.0958 74.42 26.0146 80.9998 26.0146C87.5782 26.0146 93.8159 27.0956 100.068 29.3196L102.904 30.359L104.406 29.0548C105.804 27.8406 109.737 25.9215 114.551 24.6029C119.822 23.1586 124.681 22.8525 127.885 23.7621C130.904 24.6187 131.75 26.3134 132.124 27.5132C133.479 31.8607 136.492 36.6485 139.407 41.2777C141.195 44.1179 142.883 46.8006 144.013 49.1058C145.155 51.4339 145.266 52.4778 145.259 52.8298C144.911 52.9871 143.753 53.3446 140.786 53.0801C139.281 52.9455 137.738 52.7054 136.195 52.368L136.028 52.3307C120.606 48.8786 108.983 36.397 108.87 36.2738L106.387 38.5491L103.903 40.8243C104.326 41.2863 112.515 50.1153 124.789 55.6168C127.358 56.7679 130.103 57.7733 132.996 58.5255C137.422 67.475 139.849 77.3825 139.849 86.5878C139.849 96.2823 137.653 103.183 133.132 107.683C127.397 113.393 117.885 115.286 106.304 115.89C106.706 114.774 106.921 113.656 107.011 112.593L107.058 112.596C107.088 112.109 107.701 100.479 99.5614 85.4767C97.7908 82.2146 96.9845 79.1514 97.143 76.323C98.8203 77.6771 101.011 78.4739 103.4 78.4739H103.401C104.196 78.4739 104.997 78.3836 105.781 78.205C111.106 76.9922 114.525 71.9985 113.403 67.0733C112.463 62.9519 108.635 60.0731 104.092 60.0731C103.297 60.0731 102.496 60.1631 101.712 60.342C100.105 60.7082 98.6718 61.4217 97.485 62.3713L97.4692 62.3498C97.1232 62.6001 94.0327 64.9211 92.0393 69.3186C90.1887 73.4 88.9648 80.0742 93.6394 88.6904C94.3287 89.9603 94.9452 91.2 95.4986 92.4028C91.1497 89.6041 86.1433 88.0983 81.0093 88.0983C75.9024 88.0983 70.9215 89.5884 66.5899 92.3583C67.2219 90.9826 67.8498 89.7515 68.4247 88.6916C73.0996 80.0739 71.8754 73.4016 70.0264 69.3198C68.0328 64.9225 64.9425 62.6013 64.5965 62.3512L64.5807 62.3725C63.3923 61.423 61.9607 60.7107 60.3535 60.3432C59.5697 60.1643 58.769 60.0743 57.9738 60.0743C53.4305 60.0743 49.601 62.953 48.6629 67.0743C47.5415 71.9995 50.9609 76.9919 56.2851 78.2061C57.0687 78.3848 57.8696 78.4748 58.6648 78.4748C61.0544 78.4748 63.2468 77.6769 64.9241 76.3228C65.0831 79.15 64.2749 82.2132 62.503 85.478C56.9086 95.7888 55.4485 104.508 55.0925 109.11C54.9981 109.842 54.951 110.573 54.951 111.302C54.951 112.724 55.144 114.311 55.7132 115.891C44.134 115.288 34.6212 113.394 28.8853 107.684C24.3661 103.184 22.1698 96.2835 22.1698 86.589C22.1698 77.3852 24.5951 67.4775 29.0212 58.5269C31.9127 57.7747 34.6599 56.7693 37.2284 55.6182C49.5026 50.1167 57.6912 41.2874 58.1144 40.8257L55.6334 38.5504L53.1479 36.2724C53.0322 36.3982 41.4086 48.8784 25.9868 52.3321L25.981 52.3335V52.3321C24.3793 52.6896 22.7777 52.9428 21.2159 53.0813C18.2485 53.3458 17.0903 52.9868 16.7427 52.8309C16.7355 52.4792 16.8485 51.4353 17.9882 49.1071C19.1179 46.8017 20.8068 44.1191 22.5946 41.2791C25.5091 36.6499 28.5221 31.8635 29.8779 27.5146C30.2496 26.3134 31.0962 24.6187 34.1151 23.7621ZM81.0056 118.767C71.7373 118.767 66.7363 117.819 64.1608 116.134C62.5533 115.082 61.8897 113.743 61.7268 112.167C61.721 112.01 61.6969 111.18 61.7941 109.812C62.2647 106.553 64.2253 103.101 67.2425 100.325C71.0881 96.7853 75.976 94.8347 81.0056 94.8347C86.035 94.8347 90.9231 96.784 94.7684 100.325C98.2493 103.528 100.327 107.631 100.327 111.301C100.327 113.255 99.7451 114.894 97.8502 116.134C95.2747 117.819 90.2738 118.767 81.0056 118.767ZM103.206 66.9114C103.5 66.8441 103.797 66.8097 104.09 66.8097C105.447 66.8097 106.599 67.5506 106.833 68.5687C107.124 69.8486 105.956 71.253 104.283 71.635C103.99 71.7022 103.692 71.7352 103.399 71.7352C102.042 71.7352 100.889 70.9957 100.656 69.976C100.364 68.6961 101.533 67.2919 103.206 66.9114ZM61.4036 69.976C61.1718 70.9957 60.018 71.7352 58.6609 71.7352C58.3692 71.7352 58.0717 71.7008 57.7771 71.635C56.1039 71.253 54.9355 69.8502 55.2273 68.5687C55.4591 67.549 56.613 66.8097 57.9701 66.8097C58.2618 66.8097 58.5595 66.8441 58.8539 66.9114C60.527 67.2919 61.6953 68.6961 61.4036 69.976Z" fill="#00B2FF"/>
        <path d="M67.3685 113.719C67.3685 113.719 79.3224 114.301 78.5502 107.135C77.778 99.97 66.0058 102.087 67.3685 113.719Z" fill="#00B2FF"/>
        <path d="M83.4497 107.135C82.6775 114.299 94.6312 113.719 94.6312 113.719C95.9927 102.087 84.2205 99.97 83.4497 107.135Z" fill="#00B2FF"/>
    </g>
    <defs>
        <filter id="filter0_f_0_1" x="0" y="-10" width="162" height="162" filterUnits="userSpaceOnUse" color-interpolation-filters="sRGB">
            <feFlood flood-opacity="0" result="BackgroundImageFix"/>
            <feBlend mode="normal" in="SourceGraphic" in2="BackgroundImageFix" result="shape"/>
            <feGaussianBlur stdDeviation="5" result="effect1_foregroundBlur_0_1"/>
        </filter>
        <clipPath id="clip0_0_1">
            <rect width="142" height="142" fill="white" transform="translate(10)"/>
        </clipPath>
        <clipPath id="clip1_0_1">
            <rect width="142" height="142" fill="white" transform="translate(10)"/>
        </clipPath>
    </defs>
</svg>
