<svg width="451" height="214" viewBox="0 0 451 214" fill="none" xmlns="http://www.w3.org/2000/svg">
<path d="M372.364 164.838H338.697L338.955 162.148C339.508 156.436 341.204 151.756 344.007 148.218C346.994 144.459 351.566 142.58 357.577 142.58C362.924 142.58 366.943 144.459 369.524 148.107C371.958 151.571 372.954 156.436 372.511 162.553L372.364 164.838ZM344.228 159.937H367.717C367.754 156.067 367.017 153.046 365.505 150.945C363.882 148.623 361.264 147.481 357.577 147.481C353.078 147.481 349.907 148.734 347.842 151.277C346.109 153.525 344.892 156.399 344.228 159.937Z" fill="#FF00FF"/>
<path d="M34.0725 99.8317C31.7863 99.8317 29.5738 99.6475 27.5457 99.3526C25.4069 99.021 23.3419 98.3576 21.4982 97.4363L20.1338 96.773V61.1004L20.2813 60.695C21.6825 56.6782 23.7107 53.5089 26.4025 51.2978C29.1682 49.013 32.745 47.8706 37.0225 47.8706C44.4344 47.8706 53.2844 52.1454 53.2844 72.4876C53.2844 81.7743 51.7357 88.4445 48.5644 92.9036C45.2457 97.4732 40.3413 99.8317 34.0725 99.8317ZM25.075 93.6037C26.1075 94.0091 27.2138 94.3039 28.3569 94.4882C30.1269 94.783 32.0444 94.9304 34.0725 94.9304C38.7557 94.9304 42.185 93.3089 44.545 89.9923C47.0525 86.4545 48.3432 80.5582 48.3432 72.4508C48.3432 52.7719 39.825 52.7719 37.0225 52.7719C33.8513 52.7719 31.4175 53.5089 29.5 55.0936C27.6194 56.6413 26.1444 58.9262 25.0382 61.9112V93.6037H25.075Z" fill="#FF00FF"/>
<path d="M272.912 195.794C270.626 195.794 268.413 195.61 266.385 195.315C264.246 194.947 262.181 194.32 260.338 193.399L258.973 192.735V157.063L259.121 156.657C260.522 152.641 262.55 149.471 265.242 147.26C268.008 144.975 271.584 143.833 275.862 143.833C283.274 143.833 292.124 148.108 292.124 168.45C292.124 177.737 290.575 184.407 287.404 188.866C284.085 193.472 279.217 195.794 272.912 195.794ZM263.914 189.603C264.947 190.008 266.053 190.303 267.196 190.487C268.966 190.782 270.884 190.93 272.912 190.93C277.595 190.93 281.024 189.308 283.384 185.992C285.892 182.454 287.183 176.557 287.183 168.45C287.183 148.771 278.664 148.771 275.862 148.771C272.691 148.771 270.257 149.508 268.339 151.093C266.459 152.641 264.984 154.925 263.877 157.91V189.603H263.914Z" fill="#FF00FF"/>
<path d="M33.0031 116.857C26.255 116.857 20.0231 116.305 14.3813 115.199C8.62875 114.057 4.38812 112.804 1.40125 111.366L0 110.703V1.69531H25.075V36.3361C26.7344 35.1199 28.615 34.0512 30.6431 33.2036C34.3306 31.619 38.4606 30.8451 42.9225 30.8451C52.9894 30.8451 60.8069 34.3829 66.1906 41.3111C71.4269 48.0549 74.0819 58.3366 74.0819 71.8612C74.0819 86.3809 70.3944 97.6207 63.0931 105.286C55.7181 112.951 45.6144 116.857 33.0031 116.857ZM4.90437 107.534C7.44875 108.566 10.9519 109.487 15.34 110.371C20.65 111.403 26.5869 111.956 33.0031 111.956C44.2131 111.956 53.1369 108.566 59.5163 101.895C65.8956 95.1885 69.1406 85.0542 69.1406 71.8244C69.1406 59.4422 66.8544 50.1555 62.2819 44.2961C57.82 38.5103 51.4775 35.7096 42.9225 35.7096C39.1613 35.7096 35.6581 36.3729 32.5606 37.6996C29.5 38.9894 26.9925 40.7583 25.075 42.9325L24.3375 43.7801H20.1338V6.59662H4.90437V107.534ZM34.0725 99.8318C31.7863 99.8318 29.5737 99.6475 27.5456 99.3527C25.4069 99.0211 23.3419 98.3577 21.4981 97.4364L20.1338 96.7731V61.1005L20.2813 60.6951C21.6825 56.6783 23.7106 53.509 26.4025 51.2979C29.1681 49.0131 32.745 47.8707 37.0225 47.8707C44.4344 47.8707 53.2844 52.1455 53.2844 72.4877C53.2844 81.7744 51.7356 88.4446 48.5644 92.9036C45.2456 97.4733 40.3413 99.8318 34.0725 99.8318ZM25.075 93.6038C26.1075 94.0092 27.2138 94.304 28.3569 94.4883C30.1269 94.7831 32.0444 94.9305 34.0725 94.9305C38.7556 94.9305 42.185 93.309 44.545 89.9923C47.0525 86.4546 48.3431 80.5583 48.3431 72.4509C48.3431 52.772 39.825 52.772 37.0225 52.772C33.8512 52.772 31.4175 53.509 29.5 55.0936C27.6194 56.6414 26.1444 58.9262 25.0381 61.9112V93.6038H25.075Z" fill="#FF00FF"/>
<path d="M96.8338 26.2754C92.2982 26.2754 88.6476 25.0593 85.9557 22.627C83.2269 20.158 81.8257 16.9887 81.8257 13.3035C81.8257 9.61833 83.19 6.44907 85.9188 3.86944C88.6107 1.32666 92.2613 0 96.8338 0C101.333 0 105.094 1.25296 107.97 3.79574C110.957 6.41222 112.469 9.58148 112.469 13.3035C112.469 17.0624 110.957 20.1948 107.933 22.7007C105.057 25.0593 101.333 26.2754 96.8338 26.2754ZM96.8338 4.9013C93.5519 4.9013 91.0813 5.71203 89.3113 7.40722C87.5782 9.06555 86.7301 10.9818 86.7301 13.3035C86.7301 15.5883 87.5413 17.4678 89.2376 18.9787C91.0076 20.6002 93.4782 21.3741 96.7969 21.3741C100.153 21.3741 102.771 20.5633 104.762 18.905C106.643 17.3572 107.528 15.5515 107.528 13.2667C107.528 10.9818 106.606 9.10241 104.725 7.44407C102.771 5.74889 100.189 4.9013 96.8338 4.9013Z" fill="#00FFFF"/>
<path d="M109.814 115.015H84.7754V32.6509H109.814V115.015ZM89.6798 110.077H104.909V37.5522H89.6798V110.077Z" fill="#FF00FF"/>
<path d="M157.272 117.152C150.745 117.152 145.103 116.083 140.531 113.983C135.884 111.845 132.049 108.824 129.136 104.954C126.26 101.122 124.158 96.4782 122.904 91.0979C121.687 85.9017 121.061 80.0792 121.061 73.8143C121.061 60.1792 124.232 49.4553 130.464 41.9743C136.806 34.346 146.099 30.4766 158.083 30.4766C163.946 30.4766 168.777 30.9556 172.427 31.9506C176.041 32.9088 179.36 34.1986 182.31 35.7095L184.117 36.6308L177.885 57.7838L175.267 56.5308C173.017 55.4621 170.805 54.6145 168.629 54.0617C166.527 53.509 164.057 53.2142 161.291 53.2142C156.461 53.2142 152.921 54.6882 150.524 57.7838C147.979 60.9899 146.726 66.4071 146.726 73.8512C146.726 76.9468 147.057 79.7843 147.721 82.364C148.348 84.8699 149.344 87.0442 150.597 88.8499C151.814 90.6188 153.363 91.9455 155.354 92.9405C157.309 93.9355 159.669 94.4514 162.361 94.4514C165.458 94.4514 168.113 94.046 170.178 93.2721C172.354 92.4614 174.308 91.5032 176.004 90.3608L178.77 88.5182L184.891 108.676L183.49 109.708C180.171 112.14 176.115 114.02 171.432 115.273C166.896 116.526 162.102 117.152 157.272 117.152ZM158.046 35.4147C147.463 35.4147 139.646 38.584 134.225 45.1436C128.731 51.7401 125.965 61.3953 125.965 73.8512C125.965 79.7475 126.555 85.1647 127.698 90.0292C128.804 94.7462 130.611 98.7631 133.082 102.043C135.516 105.249 138.724 107.792 142.596 109.561C146.541 111.366 151.482 112.288 157.309 112.288C161.697 112.288 166.048 111.735 170.215 110.592C173.644 109.671 176.668 108.381 179.212 106.76L176.004 96.1466C174.751 96.8099 173.386 97.3995 171.948 97.9155C169.33 98.8736 166.122 99.3895 162.434 99.3895C158.968 99.3895 155.834 98.6894 153.179 97.3258C150.487 95.9623 148.311 94.046 146.615 91.6506C144.992 89.3658 143.776 86.6388 143.001 83.5801C142.227 80.5951 141.821 77.3153 141.821 73.8143C141.821 65.1173 143.407 58.8525 146.689 54.7251C150.044 50.4503 154.986 48.276 161.328 48.276C164.536 48.276 167.412 48.6077 169.957 49.271C171.542 49.7132 173.165 50.2292 174.787 50.8925L178.217 39.1367C176.041 38.1786 173.681 37.331 171.137 36.6308C167.892 35.8569 163.504 35.4147 158.046 35.4147Z" fill="#FF00FF"/>
<path d="M213.248 212.672C208.897 212.672 205.283 211.346 202.555 208.729C199.789 206.076 198.388 202.575 198.388 198.3C198.388 193.988 199.789 190.487 202.591 187.908C205.32 185.365 208.897 184.075 213.248 184.075C217.784 184.075 221.471 185.365 224.237 187.908C227.003 190.487 228.441 193.988 228.441 198.3C228.441 202.575 227.04 206.113 224.274 208.729C221.508 211.382 217.821 212.672 213.248 212.672ZM213.248 188.976C210.151 188.976 207.754 189.787 205.947 191.482C204.177 193.141 203.329 195.352 203.329 198.3C203.329 201.248 204.177 203.496 205.984 205.191C207.791 206.923 210.188 207.771 213.285 207.771C216.567 207.771 219.075 206.923 220.881 205.191C222.651 203.496 223.536 201.248 223.536 198.3C223.536 195.389 222.688 193.141 220.918 191.482C219.075 189.824 216.567 188.976 213.248 188.976Z" fill="#00FFFF"/>
<path d="M271.843 212.856C265.094 212.856 258.863 212.304 253.221 211.198C248.058 210.166 244.112 208.95 240.794 207.365L239.392 206.702V144.496L239.245 68.5814C239.245 61.3585 238.028 57.8944 236.996 56.2729C235.705 54.2461 233.234 53.251 229.473 53.251C226.634 53.251 224.052 54.2092 221.656 56.1624C219.296 58.1155 217.71 60.5109 216.899 63.4959V115.015H191.824V1.69531H216.899V38.1049C218.742 36.4098 220.807 34.9357 223.02 33.7196C227.002 31.5822 232.017 30.4766 237.991 30.4766C242.158 30.4766 245.919 31.0294 249.164 32.1718C252.557 33.3511 255.47 35.3042 257.756 38.0312C260.006 40.6846 261.702 44.2961 262.771 48.7183C263.804 52.9562 264.32 58.2261 264.32 64.3803V132.003C265.869 130.898 267.602 129.94 269.482 129.166C273.17 127.581 277.3 126.807 281.762 126.807C291.829 126.807 299.646 130.345 305.03 137.273C310.266 144.017 312.884 154.299 312.884 167.823C312.884 182.343 309.197 193.583 301.896 201.248C294.558 208.95 284.454 212.856 271.843 212.856ZM244.334 203.533C246.989 204.638 250.16 205.56 254.179 206.334C259.489 207.366 265.426 207.918 271.843 207.918C283.053 207.918 291.976 204.528 298.356 197.858C304.735 191.151 307.98 181.016 307.98 167.787C307.98 155.404 305.694 146.118 301.121 140.258C296.659 134.473 290.317 131.672 281.762 131.672C278.001 131.672 274.497 132.335 271.4 133.662C268.339 134.952 265.832 136.721 263.914 138.895L263.177 139.742H259.416V64.3803C259.416 58.6314 258.936 53.7301 258.014 49.8607C257.129 46.1755 255.802 43.2642 254.032 41.2005C252.299 39.1368 250.197 37.7364 247.579 36.8151C244.85 35.8938 241.642 35.4148 237.991 35.4148C232.866 35.4148 228.625 36.2992 225.38 38.0681C222.098 39.837 219.296 42.2692 217.046 45.2911L216.309 46.2861H211.994V6.59662H196.765V110.077H211.994V62.8325L212.068 62.5377C213.137 58.4103 215.313 54.9831 218.558 52.3298C221.84 49.6396 225.527 48.2761 229.473 48.2761C235.004 48.2761 238.913 50.0818 241.162 53.6196C243.191 56.8257 244.186 61.727 244.186 68.5446L244.334 144.459V203.533ZM272.912 195.794C270.626 195.794 268.413 195.61 266.385 195.315C264.246 194.946 262.181 194.32 260.337 193.399L258.973 192.735V157.063L259.121 156.657C260.522 152.641 262.55 149.471 265.242 147.26C268.007 144.975 271.584 143.833 275.862 143.833C283.274 143.833 292.124 148.108 292.124 168.45C292.124 177.737 290.575 184.407 287.404 188.866C284.085 193.472 279.217 195.794 272.912 195.794ZM263.914 189.603C264.947 190.008 266.053 190.303 267.196 190.487C268.966 190.782 270.884 190.93 272.912 190.93C277.595 190.93 281.024 189.308 283.384 185.991C285.892 182.454 287.182 176.557 287.182 168.45C287.182 148.771 278.664 148.771 275.862 148.771C272.691 148.771 270.257 149.508 268.339 151.093C266.459 152.64 264.984 154.925 263.877 157.91V189.603H263.914Z" fill="#FF00FF"/>
<path d="M356.766 213.151C343.527 213.151 333.645 209.171 327.413 201.322C321.292 193.62 318.194 183.043 318.194 169.813C318.194 155.589 321.697 144.717 328.63 137.457C335.599 130.161 345.408 126.476 357.835 126.476C361.965 126.476 366.021 127.028 369.967 128.097C373.986 129.203 377.637 131.082 380.771 133.662C383.942 136.278 386.524 139.816 388.441 144.164C390.322 148.476 391.281 153.857 391.281 160.158C391.281 162.369 391.133 164.802 390.875 167.381C390.617 169.887 390.211 172.577 389.695 175.341L389.326 177.331H343.601C344.154 181.938 345.556 185.512 347.768 187.944C350.312 190.708 354.664 192.109 360.711 192.109C364.62 192.109 368.123 191.519 371.184 190.34C374.281 189.124 376.678 187.908 378.227 186.728L380.587 184.923L389.474 202.501L387.925 203.754C384.606 206.407 380.107 208.655 374.502 210.461C368.934 212.267 362.961 213.151 356.766 213.151ZM357.835 131.377C346.809 131.377 338.181 134.546 332.17 140.848C326.159 147.149 323.099 156.915 323.099 169.813C323.099 181.901 325.827 191.445 331.248 198.263C336.521 204.896 345.113 208.25 356.766 208.25C362.481 208.25 367.939 207.439 372.991 205.818C377.121 204.491 380.55 202.906 383.242 201.137L378.78 192.293C377.194 193.214 375.277 194.099 372.991 194.983C369.377 196.384 365.247 197.084 360.748 197.084C353.262 197.084 347.694 195.167 344.191 191.335C340.762 187.613 338.844 182.159 338.512 175.083L338.402 172.504H385.27C385.602 170.587 385.86 168.745 386.044 166.976C386.302 164.58 386.413 162.296 386.413 160.269C386.413 154.63 385.602 149.913 383.979 146.228C382.394 142.58 380.292 139.669 377.711 137.531C375.092 135.394 372.069 133.809 368.713 132.888C365.136 131.893 361.522 131.377 357.835 131.377ZM372.364 164.838H338.697L338.955 162.148C339.508 156.436 341.204 151.756 344.007 148.218C346.994 144.459 351.566 142.58 357.577 142.58C362.924 142.58 366.943 144.459 369.524 148.108C371.958 151.572 372.954 156.436 372.511 162.554L372.364 164.838ZM344.228 159.937H367.717C367.754 156.068 367.017 153.046 365.505 150.945C363.882 148.624 361.264 147.481 357.577 147.481C353.078 147.481 349.907 148.734 347.842 151.277C346.109 153.525 344.892 156.399 344.228 159.937Z" fill="#FF00FF"/>
<path d="M426.496 213.151C418.679 213.151 412.779 211.051 408.944 206.85C405.109 202.685 403.265 196.236 403.265 187.134V150.577H392.571V128.65H403.265V114.683L428.303 107.571V128.65H447.22V150.577H428.303V177.847C428.303 184.038 429.078 186.987 429.704 188.35C430.184 189.382 431.032 190.414 433.613 190.414C435.457 190.414 437.043 190.229 438.296 189.898C439.661 189.529 441.246 188.94 442.979 188.166L445.708 186.95L450.391 207.255L448.621 208.103C445.708 209.503 442.242 210.719 438.407 211.677C434.498 212.672 430.479 213.151 426.496 213.151ZM397.476 145.676H408.169V187.171C408.169 194.873 409.644 200.364 412.558 203.57C415.434 206.702 420.117 208.287 426.459 208.287C430.073 208.287 433.687 207.845 437.19 206.96C439.956 206.26 442.5 205.449 444.713 204.528L442.242 193.804C441.32 194.136 440.435 194.431 439.587 194.652C437.891 195.131 435.863 195.352 433.576 195.352C428.561 195.352 426.275 192.699 425.243 190.451C423.989 187.76 423.399 183.67 423.399 177.884V145.712H442.316V133.588H423.399V114.094L408.169 118.442V133.588H397.476V145.676Z" fill="#FF00FF"/>
<path d="M378.448 25.5013C368.381 12.0872 352.525 3.5376 334.235 3.5376C316.24 3.5376 300.089 12.382 290.317 25.7961C272.949 26.7174 259.194 41.0528 259.194 58.7048C259.194 76.3569 272.912 90.7291 290.317 91.6135C300.384 105.028 316.24 113.872 334.235 113.872C352.23 113.872 368.381 105.028 378.153 91.6135C395.521 90.6922 409.276 76.3569 409.276 58.7048C409.534 40.758 395.816 26.4226 378.448 25.5013ZM334.198 9.06538C349.132 9.06538 362.26 15.7724 371.405 25.833C372.917 27.3439 374.134 29.1865 375.387 31.0291C377.231 33.7561 378.743 36.8148 380.255 40.1683L374.761 43.5219C373.544 39.247 371.405 35.5987 368.344 32.54C366.832 31.0291 364.989 29.813 363.145 28.56C359.494 26.7174 355.512 25.5013 350.939 25.5013C344.855 25.5013 339.029 27.6387 334.788 31.2871C330.511 27.6387 324.721 25.5013 318.637 25.5013C314.064 25.5013 309.787 26.7174 306.136 28.8548C304.292 29.7761 302.486 31.287 300.937 32.8348C297.876 35.5619 295.737 39.247 294.852 43.1902L288.768 39.8367C289.985 36.778 291.497 34.0509 293.341 31.6187C294.557 29.7761 295.774 27.9704 297.323 26.4226C306.136 15.4407 319.559 9.06538 334.198 9.06538ZM264.652 58.4469C264.652 45.3276 274.092 34.3826 286.297 31.6187C281.725 39.5419 279.291 48.6811 279.291 58.4469C279.291 68.2126 281.725 77.3519 286.297 85.275C273.797 82.8428 264.652 71.5661 264.652 58.4469ZM296.991 91.0607C295.479 89.5498 294.262 87.7072 293.009 85.8646C287.809 77.9415 284.786 68.5074 284.786 58.4469C284.786 53.5824 285.412 49.0128 286.924 44.4063L293.931 48.3863C293.931 48.3863 293.931 48.3863 293.931 48.6811C293.931 49.6024 293.931 50.5237 294.226 51.7398V52.0346C294.852 57.5256 297.581 62.0952 300.937 65.4487L303.666 60.2526L314.027 41.9741L316.461 37.9941C315.244 37.9941 314.027 37.9941 312.479 37.9941C311.852 37.9941 311.262 37.9941 310.34 37.9941C307.611 37.9941 304.846 37.9941 302.707 38.2889C303.629 37.0728 304.846 35.8567 306.062 34.9354C307.574 33.7193 309.418 32.798 311.557 31.8767C313.696 31.2502 315.834 30.6606 318.268 30.6606C323.136 30.6606 327.708 32.5032 331.064 35.2302L334.714 38.2889L338.365 35.2302C341.721 32.5032 346.293 30.6606 351.161 30.6606C353.299 30.6606 355.438 30.9554 357.245 31.5819C359.384 32.2083 361.227 33.0928 362.739 34.6406C364.251 35.8567 365.468 37.0728 366.39 38.2889C364.546 37.9941 362.407 37.9941 359.974 37.9941L348.985 57.1939L344.412 65.117C346.551 66.9596 348.69 68.1757 351.124 69.097C352.636 69.7235 354.479 69.7235 355.991 69.7235C356.618 69.7235 357.503 69.7235 358.13 69.7235L358.425 70.6448C359.347 73.077 359.642 75.8409 359.642 78.568C359.642 79.1945 359.642 79.7841 359.642 80.0789C359.642 82.2163 359.015 84.0589 358.425 85.8646C355.069 95.6304 345.629 102.927 334.014 102.927C322.435 102.927 312.958 95.5935 309.602 85.8646C308.976 84.022 308.681 81.8846 308.386 80.0789C308.386 79.4524 308.386 78.8628 308.386 78.568C308.386 75.5093 309.012 72.7822 309.897 70.35L310.192 69.7235C311.114 69.7235 311.704 70.0183 312.626 70.0183C314.138 70.0183 315.687 69.7235 317.199 69.3919C319.927 68.7654 322.066 67.2544 324.205 65.4119C327.856 62.0583 330.621 57.1939 331.211 51.703H337.296C337.591 55.0565 338.807 58.41 340.356 61.1371L343.417 55.9409L345.851 51.6661L348.911 46.1752L353.484 38.252C352.267 38.252 351.345 38.252 350.128 38.252C343.417 38.252 338.217 39.1733 337.001 46.1752H330.916C329.994 40.9791 326.934 39.1733 322.361 38.5469L320.517 41.9004L317.162 47.6861L307.722 63.8272L305.583 67.4756L304.071 70.5343C303.149 73.593 302.854 75.1039 302.854 78.4574C302.854 79.9683 303.149 81.8109 303.149 83.3219C303.444 85.1645 304.071 86.9702 304.661 88.8128C307.722 96.7359 313.806 102.853 321.439 106.17C312.257 103.848 303.702 98.3574 296.991 91.0607ZM346.699 106.317C354.627 102.964 360.748 96.5517 363.477 88.9602C364.104 87.1176 364.694 85.3119 364.989 83.4693C365.284 81.9583 365.284 80.4106 365.284 78.6048C365.284 75.2513 364.657 71.8978 363.44 68.8391C370.446 64.8591 375.019 57.5624 375.019 49.3445L381.73 45.3645C382.947 49.6393 383.574 53.9141 383.574 58.4837C383.574 68.5443 380.513 77.9783 375.351 85.9015C374.134 87.7441 372.917 89.5498 371.368 91.0976C365.026 98.3574 356.471 103.848 346.699 106.317ZM382.394 85.275C386.966 77.3519 389.4 68.2126 389.4 58.4469C389.4 48.6811 386.966 39.5419 382.394 31.6187C394.894 34.3458 404.039 45.3276 404.039 58.4469C404.076 71.5661 394.894 82.8428 382.394 85.275Z" fill="#00FFFF"/>
<path d="M341.536 86.491C340.024 87.7071 337.259 88.6284 334.53 88.6284C331.801 88.6284 329.036 87.7071 327.524 86.491C326.602 85.8645 326.012 85.2749 325.68 84.6484H320.186C321.107 89.5129 327.192 93.4929 334.53 93.4929C341.868 93.4929 347.952 89.8445 348.874 84.6484H343.38C343.048 85.2749 342.458 85.8645 341.536 86.491Z" fill="#00FFFF"/>
</svg>
