<svg width="142" height="162" viewBox="0 0 142 162" fill="none" xmlns="http://www.w3.org/2000/svg">
    <path d="M104.025 76.3079C106.909 71.6962 113.572 59.4615 113.572 44.8646C113.572 26.6295 103.177 12.0806 102.735 11.4702C102.064 10.5466 100.992 10 99.8517 10C98.711 10 97.6391 10.5466 96.9693 11.4705C96.5269 12.0809 86.1321 26.6298 86.1321 44.8649C86.1321 53.1001 88.2529 60.5831 90.6195 66.3704C84.6849 63.4885 78.0278 61.8697 70.9994 61.8697C63.9726 61.8697 57.3169 63.4871 51.3834 66.3682C53.7497 60.5814 55.8703 53.0987 55.8703 44.8649C55.8703 26.6298 45.4757 12.0809 45.0333 11.4705C44.3638 10.5466 43.2919 10 42.1509 10C41.0099 10 39.9383 10.5466 39.2685 11.4705C38.8261 12.0809 28.4313 26.6298 28.4313 44.8646C28.4313 59.459 35.0917 71.6923 37.9766 76.3057C30.51 84.3509 25.9363 95.1171 25.9363 106.933C25.9366 131.783 46.1519 152 70.9999 152C82.6176 152 93.6484 147.591 102.061 139.584C103.485 138.229 103.541 135.976 102.186 134.551C100.831 133.127 98.577 133.071 97.1534 134.427C90.9351 140.344 83.0186 143.927 74.5599 144.714V131.46C77.3175 129.859 81.5015 126.712 81.5015 122.357C81.5015 116.567 76.7909 111.856 71.0002 111.856C65.2095 111.856 60.4989 116.567 60.4989 122.357C60.4989 126.712 64.6826 129.859 67.4405 131.46V144.712C48.1817 142.911 33.0565 126.656 33.0565 106.933C33.0565 86.0105 50.0779 68.9891 71.0002 68.9891C91.9225 68.9891 108.944 86.0105 108.944 106.933C108.944 111.621 108.1 116.196 106.436 120.53C105.732 122.366 106.649 124.425 108.484 125.129C110.319 125.834 112.378 124.917 113.083 123.082C115.061 117.931 116.064 112.497 116.064 106.932C116.063 95.1182 111.49 84.3531 104.025 76.3079ZM70.9996 118.976C72.854 118.976 74.3644 120.476 74.3816 122.326C74.2296 122.945 72.7844 124.241 71.0008 125.291C69.3117 124.291 67.7794 122.991 67.618 122.326C67.6349 120.476 69.1453 118.976 70.9996 118.976ZM42.1509 69.2611C39.3603 64.0008 35.551 54.9691 35.551 44.8649C35.551 34.7502 39.3664 25.7115 42.1567 20.4536C44.9463 25.6968 48.7506 34.7094 48.7506 44.8649C48.7509 54.9702 44.9413 64.0024 42.1509 69.2611ZM93.2518 44.8649C93.2518 34.7502 97.0672 25.7115 99.8575 20.4536C102.647 25.6968 106.451 34.7094 106.451 44.8649C106.451 54.9702 102.642 64.0024 99.8514 69.2611C97.0611 64.001 93.2518 54.9691 93.2518 44.8649Z" fill="#00B2FF"/>
    <path d="M107.606 126.837C105.967 125.751 103.758 126.199 102.673 127.838C102.586 127.97 102.498 128.101 102.409 128.231C101.306 129.858 101.73 132.072 103.358 133.175C103.969 133.59 104.664 133.789 105.353 133.789C106.493 133.789 107.614 133.242 108.302 132.227C108.404 132.076 108.507 131.923 108.608 131.771C109.694 130.131 109.245 127.922 107.606 126.837Z" fill="#00B2FF"/>
    <path d="M45.9031 93.7761C39.9166 93.7761 35.0457 98.6466 35.0457 104.634C35.0457 106.6 36.6398 108.193 38.6054 108.193C40.5709 108.193 42.1651 106.6 42.1651 104.634C42.1651 102.572 43.8416 100.896 45.9028 100.896C47.964 100.896 49.6406 102.572 49.6406 104.634C49.6406 106.6 51.2348 108.193 53.2003 108.193C55.1661 108.193 56.76 106.6 56.76 104.634C56.7603 98.6466 51.8896 93.7761 45.9031 93.7761Z" fill="#00B2FF"/>
    <path d="M96.0962 93.7761C90.1098 93.7761 85.2388 98.6466 85.2388 104.634C85.2388 106.6 86.8329 108.193 88.7985 108.193C90.764 108.193 92.3582 106.6 92.3582 104.634C92.3582 102.572 94.0347 100.896 96.0959 100.896C98.1572 100.896 99.8337 102.572 99.8337 104.634C99.8337 106.6 101.428 108.193 103.393 108.193C105.359 108.193 106.953 106.6 106.953 104.634C106.953 98.6466 102.083 93.7761 96.0962 93.7761Z" fill="#00B2FF"/>
    <g filter="url(#filter0_f_0_1)">
        <path d="M104.025 76.3079C106.909 71.6962 113.572 59.4615 113.572 44.8646C113.572 26.6295 103.177 12.0806 102.735 11.4702C102.064 10.5466 100.992 10 99.8517 10C98.711 10 97.6391 10.5466 96.9693 11.4705C96.5269 12.0809 86.1321 26.6298 86.1321 44.8649C86.1321 53.1001 88.2529 60.5831 90.6195 66.3704C84.6849 63.4885 78.0278 61.8697 70.9994 61.8697C63.9726 61.8697 57.3169 63.4871 51.3834 66.3682C53.7497 60.5814 55.8703 53.0987 55.8703 44.8649C55.8703 26.6298 45.4757 12.0809 45.0333 11.4705C44.3638 10.5466 43.2919 10 42.1509 10C41.0099 10 39.9383 10.5466 39.2685 11.4705C38.8261 12.0809 28.4313 26.6298 28.4313 44.8646C28.4313 59.459 35.0917 71.6923 37.9766 76.3057C30.51 84.3509 25.9363 95.1171 25.9363 106.933C25.9366 131.783 46.1519 152 70.9999 152C82.6176 152 93.6484 147.591 102.061 139.584C103.485 138.229 103.541 135.976 102.186 134.551C100.831 133.127 98.577 133.071 97.1534 134.427C90.9351 140.344 83.0186 143.927 74.5599 144.714V131.46C77.3175 129.859 81.5015 126.712 81.5015 122.357C81.5015 116.567 76.7909 111.856 71.0002 111.856C65.2095 111.856 60.4989 116.567 60.4989 122.357C60.4989 126.712 64.6826 129.859 67.4405 131.46V144.712C48.1817 142.911 33.0565 126.656 33.0565 106.933C33.0565 86.0105 50.0779 68.9891 71.0002 68.9891C91.9225 68.9891 108.944 86.0105 108.944 106.933C108.944 111.621 108.1 116.196 106.436 120.53C105.732 122.366 106.649 124.425 108.484 125.129C110.319 125.834 112.378 124.917 113.083 123.082C115.061 117.931 116.064 112.497 116.064 106.932C116.063 95.1182 111.49 84.3531 104.025 76.3079ZM70.9996 118.976C72.854 118.976 74.3644 120.476 74.3816 122.326C74.2296 122.945 72.7844 124.241 71.0008 125.291C69.3117 124.291 67.7794 122.991 67.618 122.326C67.6349 120.476 69.1453 118.976 70.9996 118.976ZM42.1509 69.2611C39.3603 64.0008 35.551 54.9691 35.551 44.8649C35.551 34.7502 39.3664 25.7115 42.1567 20.4536C44.9463 25.6968 48.7506 34.7094 48.7506 44.8649C48.7509 54.9702 44.9413 64.0024 42.1509 69.2611ZM93.2518 44.8649C93.2518 34.7502 97.0672 25.7115 99.8575 20.4536C102.647 25.6968 106.451 34.7094 106.451 44.8649C106.451 54.9702 102.642 64.0024 99.8514 69.2611C97.0611 64.001 93.2518 54.9691 93.2518 44.8649Z" fill="#00B2FF"/>
        <path d="M107.606 126.837C105.967 125.751 103.758 126.199 102.673 127.838C102.586 127.97 102.498 128.101 102.409 128.231C101.306 129.858 101.73 132.072 103.358 133.175C103.969 133.59 104.664 133.789 105.353 133.789C106.493 133.789 107.614 133.242 108.302 132.227C108.404 132.076 108.507 131.923 108.608 131.771C109.694 130.131 109.245 127.922 107.606 126.837Z" fill="#00B2FF"/>
        <path d="M45.9031 93.7761C39.9166 93.7761 35.0457 98.6466 35.0457 104.634C35.0457 106.6 36.6398 108.193 38.6054 108.193C40.5709 108.193 42.1651 106.6 42.1651 104.634C42.1651 102.572 43.8416 100.896 45.9028 100.896C47.964 100.896 49.6406 102.572 49.6406 104.634C49.6406 106.6 51.2348 108.193 53.2003 108.193C55.1661 108.193 56.76 106.6 56.76 104.634C56.7603 98.6466 51.8896 93.7761 45.9031 93.7761Z" fill="#00B2FF"/>
        <path d="M96.0962 93.7761C90.1098 93.7761 85.2388 98.6466 85.2388 104.634C85.2388 106.6 86.8329 108.193 88.7985 108.193C90.764 108.193 92.3582 106.6 92.3582 104.634C92.3582 102.572 94.0347 100.896 96.0959 100.896C98.1572 100.896 99.8337 102.572 99.8337 104.634C99.8337 106.6 101.428 108.193 103.393 108.193C105.359 108.193 106.953 106.6 106.953 104.634C106.953 98.6466 102.083 93.7761 96.0962 93.7761Z" fill="#00B2FF"/>
    </g>
    <defs>
        <filter id="filter0_f_0_1" x="-10" y="0" width="162" height="162" filterUnits="userSpaceOnUse" color-interpolation-filters="sRGB">
            <feFlood flood-opacity="0" result="BackgroundImageFix"/>
            <feBlend mode="normal" in="SourceGraphic" in2="BackgroundImageFix" result="shape"/>
            <feGaussianBlur stdDeviation="5" result="effect1_foregroundBlur_0_1"/>
        </filter>
    </defs>
</svg>
