<svg width="206" height="214" viewBox="0 0 206 214" fill="none" xmlns="http://www.w3.org/2000/svg">
    <path d="M99.29 109.247C99.238 102.453 83.1298 92.1147 76.4796 89.8981C28.1264 73.7802 50.3668 138.467 33.0617 162.261C22.728 176.47 15.0302 156.219 19.2184 148.889" stroke="#00B2FF" stroke-opacity="0.9" stroke-width="5" stroke-linecap="round" stroke-linejoin="round"/>
    <path d="M111.718 104.999C117.574 97.0808 133.112 87.5379 147.427 87.3805C163.159 87.2076 171.656 101.083 174.485 118.056C176.782 131.839 169.225 159.449 174.799 170.599C176.918 174.834 185.654 161.772 185.654 160.216" stroke="#00B2FF" stroke-opacity="0.9" stroke-width="5" stroke-linecap="round" stroke-linejoin="round"/>
    <path d="M70.2214 128.516C58.0581 116.948 38.2672 128.267 65.3902 143.632" stroke="#00B2FF" stroke-opacity="0.9" stroke-width="5" stroke-linecap="round" stroke-linejoin="round"/>
    <path d="M138.932 127.661C156.722 115.762 174.221 129.457 143.337 141.811" stroke="#00B2FF" stroke-opacity="0.9" stroke-width="5" stroke-linecap="round" stroke-linejoin="round"/>
    <path d="M97.8743 173.272C101.581 175.793 106.622 175.003 109.987 173.516" stroke="#00B2FF" stroke-opacity="0.9" stroke-width="5" stroke-linecap="round" stroke-linejoin="round"/>
    <path d="M96.6677 185.318C101.531 185.765 101.82 181.967 103.38 181.924C104.63 181.891 105.517 186.95 109.987 183.97" stroke="#00B2FF" stroke-opacity="0.9" stroke-width="5" stroke-linecap="round" stroke-linejoin="round"/>
    <path d="M129.419 146.844C129.96 144.351 129.89 141.823 129.89 139.293" stroke="#00B2FF" stroke-opacity="0.9" stroke-width="5" stroke-linecap="round" stroke-linejoin="round"/>
    <path d="M77.2928 148.87C77.2928 146.845 77.2676 143.635 77.2676 139.928" stroke="#00B2FF" stroke-opacity="0.9" stroke-width="5" stroke-linecap="round" stroke-linejoin="round"/>
    <path d="M81.2639 182.397C81.2639 195.915 93.471 200.503 102.75 200.802C111.717 201.091 124.131 199.249 125.56 185.386" stroke="#00B2FF" stroke-opacity="0.9" stroke-width="5" stroke-linecap="round" stroke-linejoin="round"/>
    <path d="M54.6128 104.056C55.7654 102.248 57.0323 99.7543 59.3323 99.1791C76.885 94.7913 91.9745 147.639 81.2635 166.383" stroke="#00B2FF" stroke-opacity="0.9" stroke-width="5" stroke-linecap="round" stroke-linejoin="round"/>
    <path d="M157.167 102.713C150.932 99.9017 141.884 100.382 137.544 104.18C126.702 113.666 120.105 137.227 121.156 152.036C121.749 160.4 123.301 163.227 126.201 170.961" stroke="#00B2FF" stroke-opacity="0.9" stroke-width="5" stroke-linecap="round" stroke-linejoin="round"/>
    <path d="M99.0233 110.659C96.7146 115.429 95.1119 117.271 91.0964 120.285" stroke="#00B2FF" stroke-opacity="0.9" stroke-width="5" stroke-linecap="round" stroke-linejoin="round"/>
    <path d="M111.48 106.695C112.61 109.778 115.16 113.49 117.709 115.189" stroke="#00B2FF" stroke-opacity="0.9" stroke-width="5" stroke-linecap="round" stroke-linejoin="round"/>
    <path d="M18.2749 151.249C19.5063 156.263 18.4865 163.143 21.5786 167.609C23.3873 170.222 24.8594 175.205 27.5564 176.891C37.3338 183.002 54.0029 145.95 56.7628 141.811" stroke="#00B2FF" stroke-opacity="0.9" stroke-width="5" stroke-linecap="round" stroke-linejoin="round"/>
    <path d="M157.967 141.654C161.351 152.145 174.642 205.994 185.653 162.262" stroke="#00B2FF" stroke-opacity="0.9" stroke-width="5" stroke-linecap="round" stroke-linejoin="round"/>
    <g filter="url(#filter0_f_0_1)">
        <path d="M99.29 109.247C99.238 102.453 83.1298 92.1147 76.4796 89.8981C28.1264 73.7802 50.3668 138.467 33.0617 162.261C22.728 176.47 15.0302 156.219 19.2184 148.889" stroke="#00B2FF" stroke-opacity="0.9" stroke-width="5" stroke-linecap="round" stroke-linejoin="round"/>
        <path d="M111.718 104.999C117.574 97.0808 133.112 87.5379 147.427 87.3805C163.159 87.2076 171.656 101.083 174.485 118.056C176.782 131.839 169.225 159.449 174.799 170.599C176.918 174.834 185.654 161.772 185.654 160.216" stroke="#00B2FF" stroke-opacity="0.9" stroke-width="5" stroke-linecap="round" stroke-linejoin="round"/>
        <path d="M70.2214 128.516C58.0581 116.948 38.2672 128.267 65.3902 143.632" stroke="#00B2FF" stroke-opacity="0.9" stroke-width="5" stroke-linecap="round" stroke-linejoin="round"/>
        <path d="M138.932 127.661C156.722 115.762 174.221 129.457 143.337 141.811" stroke="#00B2FF" stroke-opacity="0.9" stroke-width="5" stroke-linecap="round" stroke-linejoin="round"/>
        <path d="M97.8743 173.272C101.581 175.793 106.622 175.003 109.987 173.516" stroke="#00B2FF" stroke-opacity="0.9" stroke-width="5" stroke-linecap="round" stroke-linejoin="round"/>
        <path d="M96.6677 185.318C101.531 185.765 101.82 181.967 103.38 181.924C104.63 181.891 105.517 186.95 109.987 183.97" stroke="#00B2FF" stroke-opacity="0.9" stroke-width="5" stroke-linecap="round" stroke-linejoin="round"/>
        <path d="M129.419 146.844C129.96 144.351 129.89 141.823 129.89 139.293" stroke="#00B2FF" stroke-opacity="0.9" stroke-width="5" stroke-linecap="round" stroke-linejoin="round"/>
        <path d="M77.2928 148.87C77.2928 146.845 77.2676 143.635 77.2676 139.928" stroke="#00B2FF" stroke-opacity="0.9" stroke-width="5" stroke-linecap="round" stroke-linejoin="round"/>
        <path d="M81.2639 182.397C81.2639 195.915 93.471 200.503 102.75 200.802C111.717 201.091 124.131 199.249 125.56 185.386" stroke="#00B2FF" stroke-opacity="0.9" stroke-width="5" stroke-linecap="round" stroke-linejoin="round"/>
        <path d="M54.6128 104.056C55.7654 102.248 57.0323 99.7543 59.3323 99.1791C76.885 94.7913 91.9745 147.639 81.2635 166.383" stroke="#00B2FF" stroke-opacity="0.9" stroke-width="5" stroke-linecap="round" stroke-linejoin="round"/>
        <path d="M157.167 102.713C150.932 99.9017 141.884 100.382 137.544 104.18C126.702 113.666 120.105 137.227 121.156 152.036C121.749 160.4 123.301 163.227 126.201 170.961" stroke="#00B2FF" stroke-opacity="0.9" stroke-width="5" stroke-linecap="round" stroke-linejoin="round"/>
        <path d="M99.0233 110.659C96.7146 115.429 95.1119 117.271 91.0964 120.285" stroke="#00B2FF" stroke-opacity="0.9" stroke-width="5" stroke-linecap="round" stroke-linejoin="round"/>
        <path d="M111.48 106.695C112.61 109.778 115.16 113.49 117.709 115.189" stroke="#00B2FF" stroke-opacity="0.9" stroke-width="5" stroke-linecap="round" stroke-linejoin="round"/>
        <path d="M18.2749 151.249C19.5063 156.263 18.4865 163.143 21.5786 167.609C23.3873 170.222 24.8594 175.205 27.5564 176.891C37.3338 183.002 54.0029 145.95 56.7628 141.811" stroke="#00B2FF" stroke-opacity="0.9" stroke-width="5" stroke-linecap="round" stroke-linejoin="round"/>
        <path d="M157.967 141.654C161.351 152.145 174.642 205.994 185.653 162.262" stroke="#00B2FF" stroke-opacity="0.9" stroke-width="5" stroke-linecap="round" stroke-linejoin="round"/>
    </g>
    <defs>
        <filter id="filter0_f_0_1" x="-10" y="-10" width="226" height="226" filterUnits="userSpaceOnUse" color-interpolation-filters="sRGB">
            <feFlood flood-opacity="0" result="BackgroundImageFix"/>
            <feBlend mode="normal" in="SourceGraphic" in2="BackgroundImageFix" result="shape"/>
            <feGaussianBlur stdDeviation="5" result="effect1_foregroundBlur_0_1"/>
        </filter>
    </defs>
</svg>
