<svg width="427" height="195" viewBox="0 0 427 195" fill="none" xmlns="http://www.w3.org/2000/svg">
    <mask id="path-1-outside-1_51_260" maskUnits="userSpaceOnUse" x="-2" y="-2" width="431" height="199" fill="black">
        <rect fill="white" x="-2" y="-2" width="431" height="199"/>
        <path d="M0.866247 2.472C2.33825 2.216 3.90625 1.992 5.57025 1.8C7.29825 1.54399 8.99425 1.352 10.6582 1.224C12.3862 1.096 14.0502 0.999998 15.6502 0.935995C17.2502 0.871996 18.7222 0.839996 20.0662 0.839996C23.2022 0.839996 26.2742 1.128 29.2822 1.704C32.3542 2.28 35.0742 3.272 37.4422 4.68C39.8742 6.088 41.7943 8.04 43.2023 10.536C44.6743 12.968 45.4103 16.04 45.4103 19.752C45.4103 25.256 44.1303 29.736 41.5702 33.192C39.0103 36.648 35.5862 39.048 31.2982 40.392L36.0022 43.368L51.3622 69H36.1943L20.9302 42.696L14.0182 41.448V69H0.866247V2.472ZM21.0262 12.552C19.6822 12.552 18.3382 12.584 16.9942 12.648C15.7142 12.712 14.7222 12.84 14.0182 13.032V32.52H19.5862C23.2342 32.52 26.1462 31.688 28.3222 30.024C30.4982 28.36 31.5862 25.608 31.5862 21.768C31.5862 18.888 30.6902 16.648 28.8982 15.048C27.1062 13.384 24.4822 12.552 21.0262 12.552ZM90.6945 64.872C88.7745 66.408 86.1505 67.72 82.8225 68.808C79.5585 69.832 76.0705 70.344 72.3585 70.344C64.6145 70.344 58.9505 68.104 55.3665 63.624C51.7825 59.08 49.9905 52.872 49.9905 45C49.9905 36.552 52.0065 30.216 56.0385 25.992C60.0705 21.768 65.7345 19.656 73.0305 19.656C75.4625 19.656 77.8305 19.976 80.1345 20.616C82.4385 21.256 84.4865 22.312 86.2785 23.784C88.0705 25.256 89.5105 27.24 90.5985 29.736C91.6865 32.232 92.2305 35.336 92.2305 39.048C92.2305 40.392 92.1345 41.832 91.9425 43.368C91.8145 44.904 91.5905 46.504 91.2705 48.168H62.4705C62.6625 52.2 63.6865 55.24 65.5425 57.288C67.4625 59.336 70.5345 60.36 74.7585 60.36C77.3825 60.36 79.7185 59.976 81.7665 59.208C83.8785 58.376 85.4785 57.544 86.5665 56.712L90.6945 64.872ZM72.8385 29.64C69.5745 29.64 67.1425 30.632 65.5425 32.616C64.0065 34.536 63.0785 37.128 62.7585 40.392H80.6145C80.8705 36.936 80.3265 34.28 78.9825 32.424C77.7025 30.568 75.6545 29.64 72.8385 29.64ZM119.477 55.752C119.477 54.472 118.933 53.448 117.845 52.68C116.757 51.912 115.413 51.208 113.813 50.568C112.213 49.928 110.453 49.288 108.533 48.648C106.613 47.944 104.853 47.016 103.253 45.864C101.653 44.648 100.309 43.144 99.2205 41.352C98.1325 39.496 97.5885 37.128 97.5885 34.248C97.5885 29.512 98.9965 25.896 101.813 23.4C104.629 20.904 108.693 19.656 114.005 19.656C117.653 19.656 120.949 20.04 123.893 20.808C126.837 21.576 129.141 22.44 130.805 23.4L128.021 32.424C126.549 31.848 124.693 31.24 122.453 30.6C120.213 29.96 117.941 29.64 115.637 29.64C111.925 29.64 110.069 31.08 110.069 33.96C110.069 35.112 110.613 36.04 111.701 36.744C112.789 37.448 114.133 38.12 115.733 38.76C117.333 39.336 119.093 39.976 121.013 40.68C122.933 41.384 124.693 42.312 126.293 43.464C127.893 44.552 129.237 45.992 130.325 47.784C131.413 49.576 131.957 51.88 131.957 54.696C131.957 59.56 130.389 63.4 127.253 66.216C124.181 68.968 119.541 70.344 113.333 70.344C109.941 70.344 106.741 69.896 103.733 69C100.789 68.168 98.3885 67.176 96.5325 66.024L99.9885 56.712C101.461 57.544 103.413 58.376 105.845 59.208C108.277 59.976 110.773 60.36 113.333 60.36C115.189 60.36 116.661 60.008 117.749 59.304C118.901 58.6 119.477 57.416 119.477 55.752ZM150.664 21V48.264C150.664 52.168 151.112 54.984 152.008 56.712C152.968 58.44 154.792 59.304 157.48 59.304C159.848 59.304 161.8 58.6 163.336 57.192C164.936 55.784 166.12 54.056 166.888 52.008V21H179.368V54.408C179.368 57.032 179.496 59.624 179.752 62.184C180.008 64.68 180.392 66.952 180.904 69H171.496L169.288 61.896H168.904C167.432 64.328 165.384 66.344 162.76 67.944C160.136 69.544 157.032 70.344 153.448 70.344C151.016 70.344 148.84 70.024 146.92 69.384C145 68.744 143.4 67.688 142.12 66.216C140.84 64.744 139.848 62.76 139.144 60.264C138.504 57.768 138.184 54.632 138.184 50.856V21H150.664ZM201.745 52.872C201.745 55.112 202.033 56.744 202.609 57.768C203.185 58.792 204.113 59.304 205.393 59.304C206.161 59.304 206.897 59.24 207.601 59.112C208.369 58.984 209.297 58.696 210.385 58.248L211.729 68.04C210.705 68.552 209.137 69.064 207.025 69.576C204.913 70.088 202.737 70.344 200.497 70.344C196.849 70.344 194.065 69.512 192.145 67.848C190.225 66.12 189.265 63.304 189.265 59.4V1.8H201.745V52.872ZM210.668 21H217.292V11.976L229.772 8.424V21H241.484V31.56H229.772V49.992C229.772 53.32 230.092 55.72 230.732 57.192C231.436 58.6 232.716 59.304 234.572 59.304C235.852 59.304 236.94 59.176 237.836 58.92C238.796 58.664 239.852 58.28 241.004 57.768L243.212 67.368C241.484 68.2 239.468 68.904 237.164 69.48C234.86 70.056 232.524 70.344 230.156 70.344C225.74 70.344 222.476 69.224 220.364 66.984C218.316 64.68 217.292 60.936 217.292 55.752V31.56H210.668V21ZM247.4 23.784C249.96 22.632 253 21.736 256.52 21.096C260.04 20.392 263.72 20.04 267.56 20.04C270.888 20.04 273.672 20.456 275.912 21.288C278.152 22.056 279.912 23.176 281.192 24.648C282.536 26.12 283.464 27.88 283.976 29.928C284.552 31.976 284.84 34.28 284.84 36.84C284.84 39.656 284.744 42.504 284.552 45.384C284.36 48.2 284.232 50.984 284.168 53.736C284.168 56.488 284.264 59.176 284.456 61.8C284.648 64.36 285.128 66.792 285.896 69.096H275.72L273.704 62.472H273.224C271.944 64.456 270.152 66.184 267.848 67.656C265.608 69.064 262.696 69.768 259.112 69.768C256.872 69.768 254.856 69.448 253.064 68.808C251.272 68.104 249.736 67.144 248.456 65.928C247.176 64.648 246.184 63.176 245.48 61.512C244.776 59.784 244.424 57.864 244.424 55.752C244.424 52.808 245.064 50.344 246.344 48.36C247.688 46.312 249.576 44.68 252.008 43.464C254.504 42.184 257.448 41.32 260.84 40.872C264.296 40.36 268.136 40.2 272.36 40.392C272.808 36.808 272.552 34.248 271.592 32.712C270.632 31.112 268.488 30.312 265.16 30.312C262.664 30.312 260.008 30.568 257.192 31.08C254.44 31.592 252.168 32.264 250.376 33.096L247.4 23.784ZM263.24 59.496C265.736 59.496 267.72 58.952 269.192 57.864C270.664 56.712 271.752 55.496 272.456 54.216V47.976C270.472 47.784 268.552 47.752 266.696 47.88C264.904 48.008 263.304 48.296 261.896 48.744C260.488 49.192 259.368 49.832 258.536 50.664C257.704 51.496 257.288 52.552 257.288 53.832C257.288 55.624 257.8 57.032 258.824 58.056C259.912 59.016 261.384 59.496 263.24 59.496ZM334.673 52.104C334.673 54.792 334.705 57.48 334.769 60.168C334.833 62.856 335.121 65.832 335.633 69.096H326.705L324.977 62.856H324.593C323.313 65.096 321.457 66.92 319.025 68.328C316.657 69.672 313.841 70.344 310.577 70.344C304.561 70.344 299.889 68.36 296.561 64.392C293.233 60.424 291.569 54.216 291.569 45.768C291.569 37.576 293.425 31.208 297.137 26.664C300.849 22.12 306.289 19.848 313.457 19.848C315.441 19.848 317.073 19.976 318.353 20.232C319.633 20.424 320.913 20.776 322.193 21.288V1.8H334.673V52.104ZM313.457 59.784C315.889 59.784 317.809 59.208 319.217 58.056C320.625 56.84 321.617 55.112 322.193 52.872V32.52C321.297 31.816 320.305 31.304 319.217 30.984C318.129 30.6 316.721 30.408 314.993 30.408C311.473 30.408 308.817 31.592 307.025 33.96C305.297 36.328 304.433 40.392 304.433 46.152C304.433 50.248 305.137 53.544 306.545 56.04C308.017 58.536 310.321 59.784 313.457 59.784ZM341.879 45C341.879 36.872 343.863 30.632 347.831 26.28C351.799 21.864 357.367 19.656 364.535 19.656C368.375 19.656 371.703 20.264 374.519 21.48C377.335 22.696 379.671 24.424 381.527 26.664C383.383 28.84 384.759 31.496 385.655 34.632C386.615 37.768 387.095 41.224 387.095 45C387.095 53.128 385.111 59.4 381.143 63.816C377.239 68.168 371.703 70.344 364.535 70.344C360.695 70.344 357.367 69.736 354.551 68.52C351.735 67.304 349.367 65.608 347.447 63.432C345.591 61.192 344.183 58.504 343.223 55.368C342.327 52.232 341.879 48.776 341.879 45ZM354.743 45C354.743 47.112 354.935 49.064 355.319 50.856C355.703 52.648 356.279 54.216 357.047 55.56C357.815 56.904 358.807 57.96 360.023 58.728C361.303 59.432 362.807 59.784 364.535 59.784C367.799 59.784 370.231 58.6 371.831 56.232C373.431 53.864 374.231 50.12 374.231 45C374.231 40.584 373.495 37.032 372.023 34.344C370.551 31.592 368.055 30.216 364.535 30.216C361.463 30.216 359.063 31.368 357.335 33.672C355.607 35.976 354.743 39.752 354.743 45ZM414.178 55.752C414.178 54.472 413.634 53.448 412.546 52.68C411.458 51.912 410.114 51.208 408.514 50.568C406.914 49.928 405.154 49.288 403.234 48.648C401.314 47.944 399.554 47.016 397.954 45.864C396.354 44.648 395.01 43.144 393.922 41.352C392.834 39.496 392.29 37.128 392.29 34.248C392.29 29.512 393.698 25.896 396.514 23.4C399.33 20.904 403.394 19.656 408.706 19.656C412.354 19.656 415.65 20.04 418.594 20.808C421.538 21.576 423.842 22.44 425.506 23.4L422.722 32.424C421.25 31.848 419.394 31.24 417.154 30.6C414.914 29.96 412.642 29.64 410.338 29.64C406.626 29.64 404.77 31.08 404.77 33.96C404.77 35.112 405.314 36.04 406.402 36.744C407.49 37.448 408.834 38.12 410.434 38.76C412.034 39.336 413.794 39.976 415.714 40.68C417.634 41.384 419.394 42.312 420.994 43.464C422.594 44.552 423.938 45.992 425.026 47.784C426.114 49.576 426.658 51.88 426.658 54.696C426.658 59.56 425.09 63.4 421.954 66.216C418.882 68.968 414.242 70.344 408.034 70.344C404.642 70.344 401.442 69.896 398.434 69C395.49 68.168 393.09 67.176 391.234 66.024L394.69 56.712C396.162 57.544 398.114 58.376 400.546 59.208C402.978 59.976 405.474 60.36 408.034 60.36C409.89 60.36 411.362 60.008 412.45 59.304C413.602 58.6 414.178 57.416 414.178 55.752ZM39.9562 126.472C41.4282 126.216 42.9962 125.992 44.6602 125.8C46.3882 125.544 48.0842 125.352 49.7482 125.224C51.4762 125.096 53.1402 125 54.7402 124.936C56.3402 124.872 57.8122 124.84 59.1562 124.84C62.2922 124.84 65.3642 125.128 68.3722 125.704C71.4442 126.28 74.1642 127.272 76.5322 128.68C78.9642 130.088 80.8842 132.04 82.2922 134.536C83.7642 136.968 84.5002 140.04 84.5002 143.752C84.5002 149.256 83.2202 153.736 80.6602 157.192C78.1002 160.648 74.6762 163.048 70.3882 164.392L75.0922 167.368L90.4522 193H75.2842L60.0202 166.696L53.1082 165.448V193H39.9562V126.472ZM60.1162 136.552C58.7722 136.552 57.4282 136.584 56.0842 136.648C54.8042 136.712 53.8122 136.84 53.1082 137.032V156.52H58.6762C62.3242 156.52 65.2362 155.688 67.4122 154.024C69.5882 152.36 70.6762 149.608 70.6762 145.768C70.6762 142.888 69.7802 140.648 67.9882 139.048C66.1962 137.384 63.5722 136.552 60.1162 136.552ZM129.784 188.872C127.864 190.408 125.24 191.72 121.912 192.808C118.648 193.832 115.16 194.344 111.448 194.344C103.704 194.344 98.0405 192.104 94.4565 187.624C90.8725 183.08 89.0805 176.872 89.0805 169C89.0805 160.552 91.0965 154.216 95.1285 149.992C99.1605 145.768 104.824 143.656 112.12 143.656C114.552 143.656 116.92 143.976 119.224 144.616C121.528 145.256 123.576 146.312 125.368 147.784C127.16 149.256 128.6 151.24 129.688 153.736C130.776 156.232 131.32 159.336 131.32 163.048C131.32 164.392 131.224 165.832 131.032 167.368C130.904 168.904 130.68 170.504 130.36 172.168H101.56C101.752 176.2 102.776 179.24 104.632 181.288C106.552 183.336 109.624 184.36 113.848 184.36C116.472 184.36 118.808 183.976 120.856 183.208C122.968 182.376 124.568 181.544 125.656 180.712L129.784 188.872ZM111.928 153.64C108.664 153.64 106.232 154.632 104.632 156.616C103.096 158.536 102.168 161.128 101.848 164.392H119.704C119.96 160.936 119.416 158.28 118.072 156.424C116.792 154.568 114.744 153.64 111.928 153.64ZM172.21 190.024C170.29 191.432 167.954 192.488 165.202 193.192C162.514 193.96 159.73 194.344 156.85 194.344C153.01 194.344 149.746 193.736 147.058 192.52C144.434 191.304 142.29 189.608 140.626 187.432C138.962 185.192 137.746 182.504 136.978 179.368C136.274 176.232 135.922 172.776 135.922 169C135.922 160.872 137.746 154.632 141.394 150.28C145.042 145.864 150.354 143.656 157.33 143.656C160.85 143.656 163.666 143.944 165.778 144.52C167.954 145.096 169.906 145.832 171.634 146.728L168.658 156.904C167.186 156.2 165.714 155.656 164.242 155.272C162.834 154.888 161.202 154.696 159.346 154.696C155.89 154.696 153.266 155.848 151.474 158.152C149.682 160.392 148.786 164.008 148.786 169C148.786 171.048 149.01 172.936 149.458 174.664C149.906 176.392 150.578 177.896 151.474 179.176C152.37 180.456 153.522 181.48 154.93 182.248C156.402 182.952 158.098 183.304 160.018 183.304C162.13 183.304 163.922 183.048 165.394 182.536C166.866 181.96 168.178 181.288 169.33 180.52L172.21 190.024ZM215.123 188.872C213.203 190.408 210.579 191.72 207.251 192.808C203.987 193.832 200.499 194.344 196.787 194.344C189.043 194.344 183.379 192.104 179.795 187.624C176.211 183.08 174.419 176.872 174.419 169C174.419 160.552 176.435 154.216 180.467 149.992C184.499 145.768 190.163 143.656 197.459 143.656C199.891 143.656 202.259 143.976 204.563 144.616C206.867 145.256 208.915 146.312 210.707 147.784C212.499 149.256 213.939 151.24 215.027 153.736C216.115 156.232 216.659 159.336 216.659 163.048C216.659 164.392 216.563 165.832 216.371 167.368C216.243 168.904 216.019 170.504 215.699 172.168H186.899C187.091 176.2 188.115 179.24 189.971 181.288C191.891 183.336 194.963 184.36 199.187 184.36C201.811 184.36 204.147 183.976 206.195 183.208C208.307 182.376 209.907 181.544 210.995 180.712L215.123 188.872ZM197.267 153.64C194.003 153.64 191.571 154.632 189.971 156.616C188.435 158.536 187.507 161.128 187.187 164.392H205.043C205.299 160.936 204.755 158.28 203.411 156.424C202.131 154.568 200.083 153.64 197.267 153.64ZM253.409 193V165.736C253.409 161.832 252.833 159.016 251.681 157.288C250.593 155.56 248.705 154.696 246.017 154.696C243.649 154.696 241.633 155.4 239.969 156.808C238.369 158.152 237.217 159.848 236.513 161.896V193H224.033V145H233.921L235.361 151.336H235.745C237.217 149.288 239.169 147.496 241.601 145.96C244.033 144.424 247.169 143.656 251.009 143.656C253.377 143.656 255.489 143.976 257.345 144.616C259.201 145.256 260.769 146.312 262.049 147.784C263.329 149.256 264.289 151.272 264.929 153.832C265.569 156.328 265.889 159.432 265.889 163.144V193H253.409ZM269.914 145H276.538V135.976L289.018 132.424V145H300.73V155.56H289.018V173.992C289.018 177.32 289.338 179.72 289.978 181.192C290.682 182.6 291.962 183.304 293.818 183.304C295.098 183.304 296.186 183.176 297.082 182.92C298.042 182.664 299.098 182.28 300.25 181.768L302.458 191.368C300.73 192.2 298.714 192.904 296.41 193.48C294.106 194.056 291.77 194.344 289.402 194.344C284.986 194.344 281.722 193.224 279.61 190.984C277.562 188.68 276.538 184.936 276.538 179.752V155.56H269.914V145ZM344.866 188.872C342.946 190.408 340.322 191.72 336.994 192.808C333.73 193.832 330.242 194.344 326.53 194.344C318.786 194.344 313.122 192.104 309.538 187.624C305.954 183.08 304.162 176.872 304.162 169C304.162 160.552 306.178 154.216 310.21 149.992C314.242 145.768 319.906 143.656 327.202 143.656C329.634 143.656 332.002 143.976 334.306 144.616C336.61 145.256 338.658 146.312 340.45 147.784C342.242 149.256 343.682 151.24 344.77 153.736C345.858 156.232 346.402 159.336 346.402 163.048C346.402 164.392 346.306 165.832 346.114 167.368C345.986 168.904 345.762 170.504 345.442 172.168H316.642C316.834 176.2 317.858 179.24 319.714 181.288C321.634 183.336 324.706 184.36 328.93 184.36C331.554 184.36 333.89 183.976 335.938 183.208C338.05 182.376 339.65 181.544 340.738 180.712L344.866 188.872ZM327.01 153.64C323.746 153.64 321.314 154.632 319.714 156.616C318.178 158.536 317.25 161.128 316.93 164.392H334.786C335.042 160.936 334.498 158.28 333.154 156.424C331.874 154.568 329.826 153.64 327.01 153.64ZM373.648 179.752C373.648 178.472 373.104 177.448 372.016 176.68C370.928 175.912 369.584 175.208 367.984 174.568C366.384 173.928 364.624 173.288 362.704 172.648C360.784 171.944 359.024 171.016 357.424 169.864C355.824 168.648 354.48 167.144 353.392 165.352C352.304 163.496 351.76 161.128 351.76 158.248C351.76 153.512 353.168 149.896 355.984 147.4C358.8 144.904 362.864 143.656 368.176 143.656C371.824 143.656 375.12 144.04 378.064 144.808C381.008 145.576 383.312 146.44 384.976 147.4L382.192 156.424C380.72 155.848 378.864 155.24 376.624 154.6C374.384 153.96 372.112 153.64 369.808 153.64C366.096 153.64 364.24 155.08 364.24 157.96C364.24 159.112 364.784 160.04 365.872 160.744C366.96 161.448 368.304 162.12 369.904 162.76C371.504 163.336 373.264 163.976 375.184 164.68C377.104 165.384 378.864 166.312 380.464 167.464C382.064 168.552 383.408 169.992 384.496 171.784C385.584 173.576 386.128 175.88 386.128 178.696C386.128 183.56 384.56 187.4 381.424 190.216C378.352 192.968 373.712 194.344 367.504 194.344C364.112 194.344 360.912 193.896 357.904 193C354.96 192.168 352.56 191.176 350.704 190.024L354.16 180.712C355.632 181.544 357.584 182.376 360.016 183.208C362.448 183.976 364.944 184.36 367.504 184.36C369.36 184.36 370.832 184.008 371.92 183.304C373.072 182.6 373.648 181.416 373.648 179.752Z"/>
    </mask>
    <path d="M0.866249 2.472L0.523563 0.501575L-1.13375 0.789803V2.472H0.866249ZM5.57025 1.8L5.7995 3.78681L5.83149 3.78312L5.86335 3.7784L5.57025 1.8ZM10.6582 1.224L10.5105 -0.770546L10.5049 -0.770111L10.6582 1.224ZM15.6502 0.935997L15.5703 -1.06241H15.5703L15.6502 0.935997ZM29.2822 1.70399L28.9061 3.66832L28.9137 3.66974L29.2822 1.70399ZM37.4422 4.68L36.4201 6.39907L36.4301 6.40502L36.4402 6.41085L37.4422 4.68ZM43.2023 10.536L41.4603 11.5186L41.4754 11.5454L41.4912 11.5716L43.2023 10.536ZM41.5703 33.192L39.9631 32.0015V32.0015L41.5703 33.192ZM31.2982 40.392L30.7001 38.4835L26.5814 39.7745L30.229 42.0822L31.2982 40.392ZM36.0023 43.368L37.7178 42.34L37.4734 41.9321L37.0715 41.6778L36.0023 43.368ZM51.3623 69V71H54.8924L53.0778 67.972L51.3623 69ZM36.1943 69L34.4644 70.0038L35.0425 71H36.1943V69ZM20.9302 42.696L22.6601 41.6922L22.1959 40.8922L21.2856 40.7278L20.9302 42.696ZM14.0182 41.448L14.3736 39.4798L12.0182 39.0546V41.448H14.0182ZM14.0182 69V71H16.0182V69H14.0182ZM0.866249 69H-1.13375V71H0.866249V69ZM16.9942 12.648L16.8991 10.6503L16.8944 10.6505L16.9942 12.648ZM14.0182 13.032L13.492 11.1025L12.0182 11.5044V13.032H14.0182ZM14.0182 32.52H12.0182V34.52H14.0182V32.52ZM28.8982 15.048L27.5373 16.5136L27.5517 16.5269L27.5662 16.5399L28.8982 15.048ZM1.20893 4.44242C2.6391 4.1937 4.16899 3.97495 5.7995 3.78681L5.341 -0.186821C3.6435 0.00904465 2.03739 0.2383 0.523563 0.501575L1.20893 4.44242ZM5.86335 3.7784C7.54712 3.52895 9.19649 3.34235 10.8116 3.21811L10.5049 -0.770111C8.79201 -0.638355 7.04938 -0.440964 5.27715 -0.17841L5.86335 3.7784ZM10.806 3.21853C12.5132 3.09207 14.1546 2.99743 15.7302 2.9344L15.5703 -1.06241C13.9459 -0.997429 12.2593 -0.900074 10.5105 -0.770538L10.806 3.21853ZM15.7302 2.9344C17.3084 2.87127 18.7534 2.84 20.0662 2.84V-1.16C18.6911 -1.16 17.1921 -1.12728 15.5703 -1.06241L15.7302 2.9344ZM20.0662 2.84C23.079 2.84 26.025 3.11661 28.9061 3.66831L29.6584 -0.260315C26.5235 -0.860615 23.3254 -1.16 20.0662 -1.16V2.84ZM28.9137 3.66974C31.7857 4.20825 34.279 5.12598 36.4201 6.39907L38.4644 2.96093C35.8695 1.41801 32.9228 0.351746 29.6508 -0.261749L28.9137 3.66974ZM36.4402 6.41085C38.5568 7.63628 40.2241 9.32716 41.4603 11.5186L44.9442 9.55335C43.3644 6.75284 41.1917 4.53971 38.4443 2.94915L36.4402 6.41085ZM41.4912 11.5716C42.7247 13.6095 43.4102 16.2959 43.4102 19.752H47.4102C47.4102 15.7841 46.6238 12.3265 44.9133 9.50039L41.4912 11.5716ZM43.4102 19.752C43.4102 24.9479 42.2045 28.9757 39.9631 32.0015L43.1774 34.3825C46.056 30.4963 47.4102 25.5641 47.4102 19.752H43.4102ZM39.9631 32.0015C37.6668 35.1016 34.6036 37.2601 30.7001 38.4835L31.8964 42.3005C36.5689 40.8359 40.3537 38.1944 43.1774 34.3825L39.9631 32.0015ZM30.229 42.0822L34.933 45.0582L37.0715 41.6778L32.3675 38.7018L30.229 42.0822ZM34.2867 44.396L49.6467 70.028L53.0778 67.972L37.7178 42.34L34.2867 44.396ZM51.3623 67H36.1943V71H51.3623V67ZM37.9241 67.9962L22.6601 41.6922L19.2004 43.6998L34.4644 70.0038L37.9241 67.9962ZM21.2856 40.7278L14.3736 39.4798L13.6629 43.4162L20.5749 44.6642L21.2856 40.7278ZM12.0182 41.448V69H16.0182V41.448H12.0182ZM14.0182 67H0.866249V71H14.0182V67ZM2.86625 69V2.472H-1.13375V69H2.86625ZM21.0262 10.552C19.6505 10.552 18.2748 10.5848 16.8991 10.6503L17.0894 14.6457C18.4017 14.5832 19.714 14.552 21.0262 14.552V10.552ZM16.8944 10.6505C15.5609 10.7172 14.4018 10.8544 13.492 11.1025L14.5445 14.9615C15.0427 14.8256 15.8676 14.7068 17.0941 14.6455L16.8944 10.6505ZM12.0182 13.032V32.52H16.0182V13.032H12.0182ZM14.0182 34.52H19.5863V30.52H14.0182V34.52ZM19.5863 34.52C23.5283 34.52 26.9124 33.6199 29.5371 31.6127L27.1073 28.4353C25.3801 29.7561 22.9402 30.52 19.5863 30.52V34.52ZM29.5371 31.6127C32.3864 29.4339 33.5863 25.9654 33.5863 21.768H29.5863C29.5863 25.2506 28.6101 27.2861 27.1073 28.4353L29.5371 31.6127ZM33.5863 21.768C33.5863 18.4418 32.5314 15.6107 30.2303 13.5561L27.5662 16.5399C28.8491 17.6853 29.5863 19.3342 29.5863 21.768H33.5863ZM30.2591 13.5824C27.9684 11.4553 24.7784 10.552 21.0262 10.552V14.552C24.1861 14.552 26.2441 15.3127 27.5373 16.5136L30.2591 13.5824ZM90.6945 64.872L91.9439 66.4337L93.2125 65.4189L92.4791 63.9692L90.6945 64.872ZM82.8225 68.808L83.4212 70.7163L83.4326 70.7127L83.444 70.709L82.8225 68.808ZM55.3665 63.624L53.7961 64.8626L53.8048 64.8734L55.3665 63.624ZM56.0385 25.992L54.5918 24.611L56.0385 25.992ZM80.1345 20.616L79.5992 22.543L80.1345 20.616ZM90.5985 29.736L92.4319 28.9368V28.9368L90.5985 29.736ZM91.9425 43.368L89.9579 43.1199L89.9528 43.1608L89.9494 43.2019L91.9425 43.368ZM91.2705 48.168V50.168H92.9225L93.2345 48.5457L91.2705 48.168ZM62.4705 48.168V46.168H60.373L60.4728 48.2631L62.4705 48.168ZM65.5425 57.288L64.0605 58.631L64.0719 58.6436L64.0834 58.6559L65.5425 57.288ZM81.7665 59.208L82.4687 61.0807L82.4842 61.0749L82.4995 61.0688L81.7665 59.208ZM86.5665 56.712L88.3511 55.8092L87.2642 53.6607L85.3516 55.1233L86.5665 56.712ZM65.5425 32.616L63.9857 31.3605L63.9808 31.3666L65.5425 32.616ZM62.7585 40.392L60.768 40.1969L60.5528 42.392H62.7585V40.392ZM80.6145 40.392V42.392H82.4718L82.609 40.5397L80.6145 40.392ZM78.9825 32.424L77.3361 33.5595L77.3491 33.5784L77.3626 33.597L78.9825 32.424ZM89.4451 63.3103C87.7736 64.6475 85.3899 65.8645 82.201 66.907L83.444 70.709C86.9111 69.5755 89.7754 68.1685 91.9439 66.4337L89.4451 63.3103ZM82.2238 66.8997C79.1693 67.858 75.8847 68.344 72.3585 68.344V72.344C76.2563 72.344 79.9477 71.806 83.4212 70.7163L82.2238 66.8997ZM72.3585 68.344C64.9952 68.344 60.0106 66.2276 56.9282 62.3746L53.8048 64.8734C57.8904 69.9804 64.2338 72.344 72.3585 72.344V68.344ZM56.9368 62.3854C53.7165 58.3025 51.9905 52.5832 51.9905 45H47.9905C47.9905 53.1608 49.8485 59.8575 53.7962 64.8626L56.9368 62.3854ZM51.9905 45C51.9905 36.8376 53.9399 31.0871 57.4852 27.3729L54.5918 24.611C50.0731 29.3449 47.9905 36.2663 47.9905 45H51.9905ZM57.4852 27.3729C61.0502 23.6382 66.136 21.656 73.0305 21.656V17.656C65.333 17.656 59.0908 19.8978 54.5918 24.611L57.4852 27.3729ZM73.0305 21.656C75.2847 21.656 77.4725 21.9523 79.5992 22.543L80.6698 18.689C78.1885 17.9997 75.6403 17.656 73.0305 17.656V21.656ZM79.5992 22.543C81.6431 23.1108 83.4392 24.04 85.009 25.3295L87.548 22.2385C85.5338 20.584 83.2339 19.4012 80.6698 18.689L79.5992 22.543ZM85.009 25.3295C86.5175 26.5686 87.7815 28.2787 88.7651 30.5352L92.4319 28.9368C91.2395 26.2013 89.6235 23.9434 87.548 22.2385L85.009 25.3295ZM88.7651 30.5352C89.711 32.7052 90.2305 35.5171 90.2305 39.048H94.2305C94.2305 35.1549 93.662 31.7588 92.4319 28.9368L88.7651 30.5352ZM90.2305 39.048C90.2305 40.2978 90.1412 41.6542 89.9579 43.1199L93.927 43.6161C94.1278 42.0098 94.2305 40.4862 94.2305 39.048H90.2305ZM89.9494 43.2019C89.8279 44.6603 89.6143 46.1895 89.3065 47.7903L93.2345 48.5457C93.5667 46.8185 93.8011 45.1477 93.9356 43.5341L89.9494 43.2019ZM91.2705 46.168H62.4705V50.168H91.2705V46.168ZM60.4728 48.2631C60.6769 52.5511 61.7776 56.112 64.0605 58.631L67.0245 55.945C65.5953 54.368 64.648 51.8489 64.4682 48.0729L60.4728 48.2631ZM64.0834 58.6559C66.537 61.273 70.2598 62.36 74.7585 62.36V58.36C70.8092 58.36 68.388 57.399 67.0016 55.9201L64.0834 58.6559ZM74.7585 62.36C77.5757 62.36 80.1563 61.9478 82.4687 61.0807L81.0642 57.3353C79.2807 58.0042 77.1893 58.36 74.7585 58.36V62.36ZM82.4995 61.0688C84.6868 60.2072 86.4814 59.2948 87.7814 58.3007L85.3516 55.1233C84.4756 55.7932 83.0702 56.5448 81.0334 57.3472L82.4995 61.0688ZM84.7819 57.6148L88.9099 65.7748L92.4791 63.9692L88.3511 55.8092L84.7819 57.6148ZM72.8385 27.64C69.154 27.64 66.0676 28.7788 63.9857 31.3605L67.0993 33.8715C68.2174 32.4851 69.995 31.64 72.8385 31.64V27.64ZM63.9808 31.3666C62.1343 33.6746 61.1135 36.6732 60.768 40.1969L64.749 40.5871C65.0435 37.5828 65.8787 35.3974 67.1042 33.8654L63.9808 31.3666ZM62.7585 42.392H80.6145V38.392H62.7585V42.392ZM82.609 40.5397C82.8827 36.8449 82.3343 33.6427 80.6024 31.251L77.3626 33.597C78.3187 34.9173 78.8583 37.0271 78.62 40.2443L82.609 40.5397ZM80.6289 31.2885C78.8818 28.7553 76.1276 27.64 72.8385 27.64V31.64C75.1814 31.64 76.5231 32.3807 77.3361 33.5595L80.6289 31.2885ZM117.845 52.68L116.691 54.3139V54.3139L117.845 52.68ZM113.813 50.568L113.07 52.425V52.425L113.813 50.568ZM108.533 48.648L107.844 50.5258L107.872 50.536L107.9 50.5454L108.533 48.648ZM103.253 45.864L102.042 47.4563L102.063 47.472L102.084 47.4871L103.253 45.864ZM99.2205 41.352L97.4951 42.3634L97.5029 42.3768L97.5109 42.39L99.2205 41.352ZM101.813 23.4L100.486 21.9033H100.486L101.813 23.4ZM123.893 20.808L124.397 18.8728L123.893 20.808ZM130.805 23.4L132.716 23.9896L133.186 22.465L131.804 21.6676L130.805 23.4ZM128.021 32.424L127.292 34.2865L129.297 35.0711L129.932 33.0136L128.021 32.424ZM122.453 30.6L121.903 32.523L122.453 30.6ZM111.701 36.744L112.787 35.0649L112.787 35.0649L111.701 36.744ZM115.733 38.76L114.99 40.617L115.022 40.6299L115.055 40.6418L115.733 38.76ZM126.293 43.464L125.124 45.0871L125.146 45.1028L125.168 45.1179L126.293 43.464ZM130.325 47.784L128.615 48.822V48.822L130.325 47.784ZM127.253 66.216L128.587 67.7057L128.589 67.7041L127.253 66.216ZM103.733 69L104.303 67.0832L104.29 67.0792L104.276 67.0754L103.733 69ZM96.5325 66.024L94.6575 65.3281L94.0886 66.861L95.4778 67.7233L96.5325 66.024ZM99.9885 56.712L100.973 54.9709L98.9299 53.8163L98.1135 56.0161L99.9885 56.712ZM105.845 59.208L105.197 61.1003L105.22 61.108L105.242 61.1152L105.845 59.208ZM117.749 59.304L116.706 57.5974L116.684 57.6109L116.662 57.6249L117.749 59.304ZM121.477 55.752C121.477 53.7916 120.591 52.1709 118.998 51.0461L116.691 54.3139C117.274 54.7251 117.477 55.1524 117.477 55.752H121.477ZM118.998 51.0461C117.751 50.1661 116.26 49.3931 114.555 48.711L113.07 52.425C114.565 53.0229 115.762 53.6579 116.691 54.3139L118.998 51.0461ZM114.555 48.711C112.913 48.0543 111.116 47.401 109.165 46.7506L107.9 50.5454C109.789 51.175 111.512 51.8017 113.07 52.425L114.555 48.711ZM109.221 46.7702C107.465 46.1266 105.868 45.2827 104.421 44.2409L102.084 47.4871C103.837 48.7493 105.76 49.7614 107.844 50.5258L109.221 46.7702ZM104.463 44.2717C103.071 43.214 101.894 41.901 100.93 40.314L97.5109 42.39C98.7234 44.387 100.234 46.082 102.042 47.4563L104.463 44.2717ZM100.946 40.3406C100.089 38.8782 99.5885 36.8888 99.5885 34.248H95.5885C95.5885 37.3671 96.1764 40.1138 97.4951 42.3634L100.946 40.3406ZM99.5885 34.248C99.5885 29.9252 100.857 26.919 103.139 24.8967L100.486 21.9033C97.1355 24.873 95.5885 29.0988 95.5885 34.248H99.5885ZM103.139 24.8967C105.463 22.8368 108.981 21.656 114.005 21.656V17.656C108.404 17.656 103.794 18.9712 100.486 21.9033L103.139 24.8967ZM114.005 21.656C117.515 21.656 120.637 22.0258 123.388 22.7432L124.397 18.8728C121.26 18.0542 117.79 17.656 114.005 17.656V21.656ZM123.388 22.7432C126.247 23.4891 128.359 24.2981 129.805 25.1324L131.804 21.6676C129.922 20.5819 127.426 19.6629 124.397 18.8728L123.388 22.7432ZM128.893 22.8104L126.109 31.8344L129.932 33.0136L132.716 23.9896L128.893 22.8104ZM128.749 30.5615C127.198 29.9545 125.277 29.327 123.002 28.677L121.903 32.523C124.108 33.153 125.899 33.7415 127.292 34.2865L128.749 30.5615ZM123.002 28.677C120.585 27.9865 118.128 27.64 115.637 27.64V31.64C117.753 31.64 119.84 31.9335 121.903 32.523L123.002 28.677ZM115.637 27.64C113.577 27.64 111.665 28.0299 110.235 29.1398C108.708 30.3245 108.069 32.0569 108.069 33.96H112.069C112.069 32.9831 112.357 32.5555 112.687 32.3002C113.112 31.9701 113.984 31.64 115.637 31.64V27.64ZM108.069 33.96C108.069 35.8846 109.04 37.4049 110.614 38.4231L112.787 35.0649C112.185 34.6751 112.069 34.3394 112.069 33.96H108.069ZM110.614 38.4231C111.839 39.216 113.306 39.9436 114.99 40.617L116.475 36.903C114.959 36.2964 113.738 35.68 112.787 35.0649L110.614 38.4231ZM115.055 40.6418C116.651 41.2162 118.407 41.8548 120.324 42.5578L121.701 38.8022C119.778 38.0972 118.014 37.4558 116.41 36.8782L115.055 40.6418ZM120.324 42.5578C122.08 43.2014 123.677 44.0453 125.124 45.0871L127.461 41.8409C125.708 40.5787 123.786 39.5666 121.701 38.8022L120.324 42.5578ZM125.168 45.1179C126.512 46.0317 127.663 47.254 128.615 48.822L132.034 46.746C130.81 44.7299 129.273 43.0723 127.417 41.8101L125.168 45.1179ZM128.615 48.822C129.458 50.2112 129.957 52.1243 129.957 54.696H133.957C133.957 51.6357 133.367 48.9408 132.034 46.746L128.615 48.822ZM129.957 54.696C129.957 59.0887 128.563 62.3512 125.916 64.7279L128.589 67.7041C132.214 64.4488 133.957 60.0313 133.957 54.696H129.957ZM125.918 64.7263C123.36 67.018 119.29 68.344 113.333 68.344V72.344C119.791 72.344 125.001 70.918 128.587 67.7057L125.918 64.7263ZM113.333 68.344C110.118 68.344 107.112 67.9198 104.303 67.0832L103.162 70.9168C106.369 71.8722 109.763 72.344 113.333 72.344V68.344ZM104.276 67.0754C101.446 66.2756 99.235 65.3475 97.5872 64.3247L95.4778 67.7233C97.542 69.0045 100.131 70.0604 103.189 70.9246L104.276 67.0754ZM98.4075 66.7199L101.864 57.4079L98.1135 56.0161L94.6575 65.3281L98.4075 66.7199ZM99.0044 58.4531C100.624 59.3684 102.702 60.2467 105.197 61.1003L106.492 57.3157C104.123 56.5053 102.297 55.7196 100.973 54.9709L99.0044 58.4531ZM105.242 61.1152C107.87 61.9449 110.569 62.36 113.333 62.36V58.36C110.976 58.36 108.683 58.0071 106.447 57.3008L105.242 61.1152ZM113.333 62.36C115.415 62.36 117.312 61.9687 118.835 60.9831L116.662 57.6249C116.009 58.0473 114.962 58.36 113.333 58.36V62.36ZM118.791 61.0106C120.682 59.8551 121.477 57.9252 121.477 55.752H117.477C117.477 56.9068 117.119 57.3449 116.706 57.5974L118.791 61.0106ZM150.664 21H152.664V19H150.664V21ZM152.008 56.712L150.233 57.6326L150.246 57.6582L150.26 57.6833L152.008 56.712ZM163.336 57.192L162.015 55.6906L162 55.704L161.985 55.7177L163.336 57.192ZM166.888 52.008L168.761 52.7102L168.888 52.3707V52.008H166.888ZM166.888 21V19H164.888V21H166.888ZM179.368 21H181.368V19H179.368V21ZM179.752 62.184L177.762 62.383L177.763 62.3881L179.752 62.184ZM180.904 69V71H183.466L182.845 68.5149L180.904 69ZM171.496 69L169.587 69.5936L170.024 71H171.496V69ZM169.288 61.896L171.198 61.3024L170.761 59.896H169.288V61.896ZM168.904 61.896V59.896H167.777L167.193 60.8604L168.904 61.896ZM162.76 67.944L163.802 69.6516L162.76 67.944ZM142.12 66.216L140.611 67.5284L142.12 66.216ZM139.144 60.264L137.207 60.7608L137.213 60.7839L137.22 60.8069L139.144 60.264ZM138.184 21V19H136.184V21H138.184ZM148.664 21V48.264H152.664V21H148.664ZM148.664 48.264C148.664 52.228 149.104 55.4551 150.233 57.6326L153.784 55.7914C153.121 54.5129 152.664 52.108 152.664 48.264H148.664ZM150.26 57.6833C151.697 60.2695 154.364 61.304 157.48 61.304V57.304C155.221 57.304 154.24 56.6105 153.757 55.7407L150.26 57.6833ZM157.48 61.304C160.276 61.304 162.732 60.4589 164.688 58.6663L161.985 55.7177C160.869 56.7411 159.421 57.304 157.48 57.304V61.304ZM164.658 58.6934C166.511 57.0625 167.881 55.0575 168.761 52.7102L165.016 51.3058C164.36 53.0545 163.362 54.5055 162.015 55.6906L164.658 58.6934ZM168.888 52.008V21H164.888V52.008H168.888ZM166.888 23H179.368V19H166.888V23ZM177.368 21V54.408H181.368V21H177.368ZM177.368 54.408C177.368 57.0971 177.5 59.7556 177.762 62.383L181.743 61.985C181.493 59.4924 181.368 56.9669 181.368 54.408H177.368ZM177.763 62.3881C178.027 64.9617 178.425 67.3294 178.964 69.4851L182.845 68.5149C182.36 66.5746 181.99 64.3983 181.742 61.9799L177.763 62.3881ZM180.904 67H171.496V71H180.904V67ZM173.406 68.4064L171.198 61.3024L167.379 62.4896L169.587 69.5936L173.406 68.4064ZM169.288 59.896H168.904V63.896H169.288V59.896ZM167.193 60.8604C165.901 62.996 164.092 64.7896 161.719 66.2364L163.802 69.6516C166.677 67.8984 168.964 65.66 170.615 62.9316L167.193 60.8604ZM161.719 66.2364C159.458 67.6153 156.727 68.344 153.448 68.344V72.344C157.338 72.344 160.815 71.4727 163.802 69.6516L161.719 66.2364ZM153.448 68.344C151.189 68.344 149.233 68.0465 147.553 67.4866L146.288 71.2814C148.448 72.0015 150.844 72.344 153.448 72.344V68.344ZM147.553 67.4866C145.959 66.9553 144.666 66.0954 143.63 64.9036L140.611 67.5284C142.135 69.2806 144.042 70.5327 146.288 71.2814L147.553 67.4866ZM143.63 64.9036C142.596 63.715 141.718 62.0223 141.069 59.7211L137.22 60.8069C137.979 63.4977 139.085 65.773 140.611 67.5284L143.63 64.9036ZM141.082 59.7672C140.498 57.4897 140.184 54.5345 140.184 50.856H136.184C136.184 54.7295 136.511 58.0463 137.207 60.7608L141.082 59.7672ZM140.184 50.856V21H136.184V50.856H140.184ZM138.184 23H150.664V19H138.184V23ZM202.609 57.768L200.866 58.7485V58.7485L202.609 57.768ZM207.601 59.112L207.272 57.1392L207.257 57.1416L207.243 57.1443L207.601 59.112ZM210.385 58.248L212.366 57.976L212.015 55.414L209.623 56.3986L210.385 58.248ZM211.729 68.04L212.623 69.8289L213.905 69.1879L213.71 67.768L211.729 68.04ZM207.025 69.576L206.554 67.6323L207.025 69.576ZM192.145 67.848L190.807 69.3346L190.821 69.3471L190.835 69.3594L192.145 67.848ZM189.265 1.8V-0.200005H187.265V1.8H189.265ZM201.745 1.8H203.745V-0.200005H201.745V1.8ZM199.745 52.872C199.745 55.196 200.028 57.26 200.866 58.7485L204.352 56.7875C204.037 56.228 203.745 55.028 203.745 52.872H199.745ZM200.866 58.7485C201.833 60.4682 203.469 61.304 205.393 61.304V57.304C204.756 57.304 204.537 57.1158 204.352 56.7875L200.866 58.7485ZM205.393 61.304C206.272 61.304 207.128 61.2307 207.959 61.0797L207.243 57.1443C206.665 57.2493 206.049 57.304 205.393 57.304V61.304ZM207.93 61.0848C208.901 60.9229 209.982 60.5767 211.146 60.0974L209.623 56.3986C208.611 56.8153 207.837 57.0451 207.272 57.1392L207.93 61.0848ZM208.403 58.52L209.747 68.312L213.71 67.768L212.366 57.976L208.403 58.52ZM210.834 66.2511C210.016 66.6601 208.625 67.1302 206.554 67.6323L207.496 71.5197C209.649 70.9978 211.393 70.4439 212.623 69.8289L210.834 66.2511ZM206.554 67.6323C204.601 68.1058 202.583 68.344 200.497 68.344V72.344C202.891 72.344 205.225 72.0702 207.496 71.5197L206.554 67.6323ZM200.497 68.344C197.123 68.344 194.881 67.5724 193.455 66.3366L190.835 69.3594C193.249 71.4516 196.574 72.344 200.497 72.344V68.344ZM193.483 66.3614C192.16 65.1711 191.265 63.0275 191.265 59.4H187.265C187.265 63.5805 188.289 67.0689 190.807 69.3346L193.483 66.3614ZM191.265 59.4V1.8H187.265V59.4H191.265ZM189.265 3.8H201.745V-0.200005H189.265V3.8ZM199.745 1.8V52.872H203.745V1.8H199.745ZM210.667 21V19H208.667V21H210.667ZM217.292 21V23H219.292V21H217.292ZM217.292 11.976L216.744 10.0524L215.292 10.4658V11.976H217.292ZM229.772 8.424H231.772V5.77534L229.224 6.50039L229.772 8.424ZM229.772 21H227.772V23H229.772V21ZM241.483 21H243.483V19H241.483V21ZM241.483 31.56V33.56H243.483V31.56H241.483ZM229.772 31.56V29.56H227.772V31.56H229.772ZM230.732 57.192L228.897 57.9895L228.919 58.0385L228.943 58.0864L230.732 57.192ZM237.836 58.92L237.32 56.9875L237.303 56.9921L237.286 56.997L237.836 58.92ZM241.004 57.768L242.953 57.3197L242.409 54.9548L240.191 55.9404L241.004 57.768ZM243.211 67.368L244.079 69.17L245.519 68.4769L245.161 66.9197L243.211 67.368ZM237.164 69.48L237.649 71.4203L237.164 69.48ZM220.363 66.984L218.869 68.3127L218.888 68.3347L218.908 68.356L220.363 66.984ZM217.292 31.56H219.292V29.56H217.292V31.56ZM210.667 31.56H208.667V33.56H210.667V31.56ZM210.667 23H217.292V19H210.667V23ZM219.292 21V11.976H215.292V21H219.292ZM217.839 13.8996L230.319 10.3476L229.224 6.50039L216.744 10.0524L217.839 13.8996ZM227.772 8.424V21H231.772V8.424H227.772ZM229.772 23H241.483V19H229.772V23ZM239.483 21V31.56H243.483V21H239.483ZM241.483 29.56H229.772V33.56H241.483V29.56ZM227.772 31.56V49.992H231.772V31.56H227.772ZM227.772 49.992C227.772 53.3626 228.083 56.1164 228.897 57.9895L232.566 56.3945C232.1 55.3236 231.772 53.2774 231.772 49.992H227.772ZM228.943 58.0864C229.461 59.1239 230.232 59.9654 231.256 60.5284C232.26 61.081 233.396 61.304 234.572 61.304V57.304C233.891 57.304 233.459 57.175 233.183 57.0236C232.927 56.8826 232.706 56.6681 232.52 56.2976L228.943 58.0864ZM234.572 61.304C235.973 61.304 237.258 61.1651 238.385 60.843L237.286 56.997C236.621 57.1869 235.73 57.304 234.572 57.304V61.304ZM238.351 60.8525C239.435 60.5633 240.592 60.1396 241.816 59.5956L240.191 55.9404C239.111 56.4204 238.156 56.7647 237.32 56.9875L238.351 60.8525ZM239.054 58.2163L241.262 67.8163L245.161 66.9197L242.953 57.3197L239.054 58.2163ZM242.344 65.566C240.763 66.327 238.88 66.9892 236.678 67.5397L237.649 71.4203C240.055 70.8188 242.204 70.073 244.079 69.17L242.344 65.566ZM236.678 67.5397C234.533 68.0762 232.359 68.344 230.155 68.344V72.344C232.688 72.344 235.186 72.0358 237.649 71.4203L236.678 67.5397ZM230.155 68.344C226.047 68.344 223.413 67.3034 221.819 65.612L218.908 68.356C221.538 71.1446 225.432 72.344 230.155 72.344V68.344ZM221.858 65.6553C220.295 63.8965 219.292 60.7554 219.292 55.752H215.292C215.292 61.1166 216.336 65.4635 218.869 68.3127L221.858 65.6553ZM219.292 55.752V31.56H215.292V55.752H219.292ZM217.292 29.56H210.667V33.56H217.292V29.56ZM212.667 31.56V21H208.667V31.56H212.667ZM247.4 23.784L246.58 21.9602L244.952 22.6926L245.495 24.3928L247.4 23.784ZM256.52 21.096L256.878 23.0637L256.895 23.0606L256.912 23.0572L256.52 21.096ZM275.912 21.288L275.216 23.1628L275.24 23.1717L275.264 23.1799L275.912 21.288ZM281.192 24.648L279.683 25.9604L279.699 25.9786L279.715 25.9965L281.192 24.648ZM283.976 29.928L282.036 30.4131L282.043 30.4414L282.051 30.4695L283.976 29.928ZM284.552 45.384L286.548 45.52L286.548 45.517L284.552 45.384ZM284.168 53.736L282.169 53.6895L282.168 53.7127V53.736H284.168ZM284.456 61.8L282.462 61.946L282.462 61.9496L284.456 61.8ZM285.896 69.096V71.096H288.671L287.794 68.4635L285.896 69.096ZM275.72 69.096L273.807 69.6783L274.238 71.096H275.72V69.096ZM273.704 62.472L275.618 61.8897L275.186 60.472H273.704V62.472ZM273.224 62.472V60.472H272.134L271.544 61.3877L273.224 62.472ZM267.848 67.656L268.913 69.3493L268.919 69.3454L268.925 69.3414L267.848 67.656ZM253.064 68.808L252.333 70.6695L252.362 70.681L252.392 70.6915L253.064 68.808ZM248.456 65.928L247.042 67.3422L247.06 67.3603L247.079 67.378L248.456 65.928ZM245.48 61.512L243.628 62.2666L243.633 62.279L243.638 62.2913L245.48 61.512ZM246.344 48.36L244.672 47.2627L244.668 47.2692L244.664 47.2757L246.344 48.36ZM252.008 43.464L252.903 45.2529L252.912 45.2483L252.921 45.2436L252.008 43.464ZM260.84 40.872L261.102 42.8548L261.118 42.8527L261.133 42.8504L260.84 40.872ZM272.36 40.392L272.269 42.3899L274.116 42.4739L274.345 40.6401L272.36 40.392ZM271.592 32.712L269.877 33.741L269.887 33.7566L269.896 33.772L271.592 32.712ZM257.192 31.08L256.834 29.1122L256.826 29.1137L257.192 31.08ZM250.376 33.096L248.471 33.7048L249.162 35.865L251.218 34.91L250.376 33.096ZM269.192 57.864L270.381 59.4724L270.403 59.456L270.425 59.439L269.192 57.864ZM272.456 54.216L274.209 55.1798L274.456 54.7297V54.216H272.456ZM272.456 47.976H274.456V46.1602L272.649 45.9853L272.456 47.976ZM266.696 47.88L266.559 45.8847L266.554 45.8851L266.696 47.88ZM258.536 50.664L257.122 49.2498V49.2498L258.536 50.664ZM258.824 58.056L257.41 59.4702L257.454 59.5144L257.501 59.5557L258.824 58.056ZM248.221 25.6078C250.599 24.5377 253.476 23.6822 256.878 23.0637L256.162 19.1283C252.524 19.7898 249.321 20.7263 246.58 21.9602L248.221 25.6078ZM256.912 23.0572C260.295 22.3807 263.843 22.04 267.56 22.04V18.04C263.598 18.04 259.786 18.4033 256.128 19.1348L256.912 23.0572ZM267.56 22.04C270.737 22.04 273.267 22.4392 275.216 23.1628L276.609 19.4132C274.077 18.4728 271.04 18.04 267.56 18.04V22.04ZM275.264 23.1799C277.242 23.8581 278.679 24.8053 279.683 25.9604L282.701 23.3356C281.146 21.5467 279.063 20.2539 276.561 19.3961L275.264 23.1799ZM279.715 25.9965C280.822 27.2091 281.6 28.6672 282.036 30.4131L285.917 29.4429C285.329 27.0928 284.25 25.0309 282.669 23.2995L279.715 25.9965ZM282.051 30.4695C282.569 32.3098 282.84 34.4272 282.84 36.84H286.84C286.84 34.1328 286.536 31.6422 285.902 29.3865L282.051 30.4695ZM282.84 36.84C282.84 39.6105 282.746 42.4141 282.557 45.251L286.548 45.517C286.743 42.5939 286.84 39.7015 286.84 36.84H282.84ZM282.557 45.248C282.363 48.093 282.233 50.9069 282.169 53.6895L286.168 53.7825C286.231 51.0611 286.358 48.307 286.548 45.52L282.557 45.248ZM282.168 53.736C282.168 56.5345 282.266 59.2712 282.462 61.946L286.451 61.654C286.263 59.0808 286.168 56.4415 286.168 53.736H282.168ZM282.462 61.9496C282.665 64.6646 283.176 67.2595 283.999 69.7285L287.794 68.4635C287.081 66.3245 286.631 64.0554 286.451 61.6504L282.462 61.9496ZM285.896 67.096H275.72V71.096H285.896V67.096ZM277.634 68.5137L275.618 61.8897L271.791 63.0543L273.807 69.6783L277.634 68.5137ZM273.704 60.472H273.224V64.472H273.704V60.472ZM271.544 61.3877C270.442 63.0951 268.871 64.629 266.771 65.9706L268.925 69.3414C271.433 67.739 273.446 65.8169 274.905 63.5563L271.544 61.3877ZM266.784 65.9627C264.957 67.1111 262.449 67.768 259.112 67.768V71.768C262.943 71.768 266.26 71.0169 268.913 69.3493L266.784 65.9627ZM259.112 67.768C257.062 67.768 255.279 67.4751 253.737 66.9245L252.392 70.6915C254.434 71.4209 256.683 71.768 259.112 71.768V67.768ZM253.796 66.9465C252.222 66.3282 250.911 65.501 249.834 64.478L247.079 67.378C248.562 68.787 250.323 69.8798 252.333 70.6695L253.796 66.9465ZM249.87 64.5138C248.772 63.4156 247.926 62.159 247.322 60.7327L243.638 62.2913C244.443 64.193 245.58 65.8804 247.042 67.3422L249.87 64.5138ZM247.332 60.7574C246.738 59.2986 246.424 57.6392 246.424 55.752H242.424C242.424 58.0888 242.814 60.2694 243.628 62.2666L247.332 60.7574ZM246.424 55.752C246.424 53.0977 246.999 51.0336 248.025 49.4443L244.664 47.2757C243.129 49.6544 242.424 52.5183 242.424 55.752H246.424ZM248.016 49.4573C249.146 47.736 250.751 46.3288 252.903 45.2529L251.114 41.6751C248.402 43.0312 246.231 44.888 244.672 47.2627L248.016 49.4573ZM252.921 45.2436C255.174 44.0882 257.889 43.2792 261.102 42.8548L260.578 38.8892C257.008 39.3608 253.835 40.2798 251.096 41.6844L252.921 45.2436ZM261.133 42.8504C264.439 42.3607 268.148 42.2026 272.269 42.3899L272.451 38.3941C268.125 38.1974 264.153 38.3593 260.547 38.8936L261.133 42.8504ZM274.345 40.6401C274.802 36.9834 274.639 33.8126 273.288 31.652L269.896 33.772C270.466 34.6834 270.815 36.6326 270.376 40.1439L274.345 40.6401ZM273.307 31.683C271.772 29.1248 268.641 28.312 265.16 28.312V32.312C268.336 32.312 269.492 33.0991 269.877 33.741L273.307 31.683ZM265.16 28.312C262.528 28.312 259.752 28.5818 256.834 29.1123L257.55 33.0477C260.265 32.5541 262.8 32.312 265.16 32.312V28.312ZM256.826 29.1137C253.972 29.6447 251.526 30.357 249.534 31.282L251.218 34.91C252.81 34.171 254.908 33.5392 257.558 33.0463L256.826 29.1137ZM252.281 32.4872L249.305 23.1752L245.495 24.3928L248.471 33.7048L252.281 32.4872ZM263.24 61.496C266.011 61.496 268.459 60.8927 270.381 59.4724L268.003 56.2556C266.981 57.0113 265.461 57.496 263.24 57.496V61.496ZM270.425 59.439C272.053 58.1652 273.344 56.7528 274.209 55.1798L270.704 53.2522C270.161 54.2392 269.276 55.2588 267.96 56.289L270.425 59.439ZM274.456 54.216V47.976H270.456V54.216H274.456ZM272.649 45.9853C270.563 45.7834 268.532 45.7486 266.559 45.8847L266.834 49.8753C268.572 49.7554 270.382 49.7846 272.264 49.9667L272.649 45.9853ZM266.554 45.8851C264.637 46.022 262.877 46.3333 261.29 46.8381L262.503 50.6499C263.732 50.2587 265.172 49.994 266.839 49.8749L266.554 45.8851ZM261.29 46.8381C259.653 47.3588 258.231 48.1412 257.122 49.2498L259.95 52.0782C260.506 51.5228 261.323 51.0251 262.503 50.6499L261.29 46.8381ZM257.122 49.2498C255.88 50.4917 255.288 52.0729 255.288 53.832H259.288C259.288 53.0311 259.528 52.5003 259.95 52.0782L257.122 49.2498ZM255.288 53.832C255.288 56.021 255.926 57.9863 257.41 59.4702L260.238 56.6418C259.674 56.0777 259.288 55.227 259.288 53.832H255.288ZM257.501 59.5557C259.047 60.92 261.037 61.496 263.24 61.496V57.496C261.732 57.496 260.777 57.112 260.147 56.5563L257.501 59.5557ZM334.769 60.168L332.77 60.2156V60.2156L334.769 60.168ZM335.633 69.096V71.096H337.971L337.609 68.7861L335.633 69.096ZM326.705 69.096L324.778 69.6298L325.184 71.096H326.705V69.096ZM324.977 62.856L326.905 62.3222L326.499 60.856H324.977V62.856ZM324.593 62.856V60.856H323.433L322.857 61.8637L324.593 62.856ZM319.025 68.328L320.012 70.0674L320.02 70.0631L320.027 70.0589L319.025 68.328ZM296.561 64.392L295.029 65.6772L296.561 64.392ZM297.137 26.664L298.686 27.9293L297.137 26.664ZM318.353 20.232L317.961 22.1932L318.009 22.2027L318.057 22.2099L318.353 20.232ZM322.193 21.288L321.45 23.145L324.193 24.2421V21.288H322.193ZM322.193 1.8V-0.200005H320.193V1.8H322.193ZM334.673 1.8H336.673V-0.200005H334.673V1.8ZM319.217 58.056L320.484 59.6039L320.504 59.5871L320.524 59.5696L319.217 58.056ZM322.193 52.872L324.13 53.3701L324.193 53.125V52.872H322.193ZM322.193 32.52H324.193V31.5479L323.429 30.9474L322.193 32.52ZM319.217 30.984L318.552 32.87L318.602 32.8877L318.653 32.9027L319.217 30.984ZM307.025 33.96L305.43 32.7531L305.42 32.767L305.41 32.7811L307.025 33.96ZM306.545 56.04L304.803 57.0226L304.813 57.0394L304.823 57.056L306.545 56.04ZM332.673 52.104C332.673 54.8079 332.705 57.5117 332.77 60.2156L336.769 60.1204C336.705 57.4483 336.673 54.7761 336.673 52.104H332.673ZM332.77 60.2156C332.836 63.0086 333.135 66.0739 333.657 69.4059L337.609 68.7861C337.108 65.5901 336.83 62.7034 336.769 60.1204L332.77 60.2156ZM335.633 67.096H326.705V71.096H335.633V67.096ZM328.633 68.5622L326.905 62.3222L323.05 63.3898L324.778 69.6298L328.633 68.5622ZM324.977 60.856H324.593V64.856H324.977V60.856ZM322.857 61.8637C321.767 63.77 320.178 65.3499 318.023 66.5971L320.027 70.0589C322.737 68.4901 324.859 66.422 326.33 63.8483L322.857 61.8637ZM318.038 66.5886C316.026 67.7308 313.564 68.344 310.577 68.344V72.344C314.119 72.344 317.289 71.6132 320.012 70.0674L318.038 66.5886ZM310.577 68.344C305.046 68.344 300.978 66.546 298.094 63.1068L295.029 65.6772C298.8 70.174 304.076 72.344 310.577 72.344V68.344ZM298.094 63.1068C295.207 59.6653 293.569 54.0222 293.569 45.768H289.569C289.569 54.4097 291.259 61.1827 295.029 65.6772L298.094 63.1068ZM293.569 45.768C293.569 37.8568 295.363 31.9978 298.686 27.9293L295.588 25.3987C291.488 30.4182 289.569 37.2952 289.569 45.768H293.569ZM298.686 27.9293C301.934 23.9529 306.743 21.848 313.457 21.848V17.848C305.835 17.848 299.764 20.2871 295.588 25.3987L298.686 27.9293ZM313.457 21.848C315.37 21.848 316.858 21.9726 317.961 22.1932L318.745 18.2708C317.288 17.9794 315.513 17.848 313.457 17.848V21.848ZM318.057 22.2099C319.174 22.3775 320.305 22.6866 321.45 23.145L322.936 19.431C321.522 18.8653 320.092 18.4705 318.65 18.2541L318.057 22.2099ZM324.193 21.288V1.8H320.193V21.288H324.193ZM322.193 3.8H334.673V-0.200005H322.193V3.8ZM332.673 1.8V52.104H336.673V1.8H332.673ZM313.457 61.784C316.195 61.784 318.614 61.1338 320.484 59.6039L317.951 56.5081C317.005 57.2822 315.584 57.784 313.457 57.784V61.784ZM320.524 59.5696C322.309 58.0286 323.478 55.9081 324.13 53.3701L320.256 52.3739C319.757 54.3159 318.942 55.6514 317.91 56.5424L320.524 59.5696ZM324.193 52.872V32.52H320.193V52.872H324.193ZM323.429 30.9474C322.334 30.0872 321.115 29.4573 319.782 29.0653L318.653 32.9027C319.496 33.1507 320.26 33.5448 320.958 34.0926L323.429 30.9474ZM319.883 29.098C318.503 28.6109 316.846 28.408 314.993 28.408V32.408C316.596 32.408 317.756 32.5891 318.552 32.87L319.883 29.098ZM314.993 28.408C310.978 28.408 307.673 29.7897 305.43 32.7531L308.62 35.1669C309.961 33.3943 311.969 32.408 314.993 32.408V28.408ZM305.41 32.7811C303.286 35.6917 302.433 40.3122 302.433 46.152H306.433C306.433 40.4718 307.309 36.9643 308.641 35.1389L305.41 32.7811ZM302.433 46.152C302.433 50.4532 303.169 54.1253 304.803 57.0226L308.287 55.0574C307.106 52.9627 306.433 50.0428 306.433 46.152H302.433ZM304.823 57.056C306.689 60.2202 309.684 61.784 313.457 61.784V57.784C310.959 57.784 309.346 56.8518 308.268 55.024L304.823 57.056ZM347.831 26.28L349.309 27.6275L349.314 27.6221L349.319 27.6167L347.831 26.28ZM374.519 21.48L375.312 19.6439L374.519 21.48ZM381.527 26.664L379.987 27.94L379.996 27.951L380.006 27.9619L381.527 26.664ZM385.655 34.632L383.732 35.1814L383.737 35.1995L383.743 35.2174L385.655 34.632ZM381.143 63.816L379.656 62.4793L379.654 62.4805L381.143 63.816ZM354.551 68.52L355.344 66.6839L354.551 68.52ZM347.447 63.432L345.907 64.708L345.927 64.732L345.948 64.7552L347.447 63.432ZM343.223 55.368L341.3 55.9174L341.305 55.9355L341.311 55.9534L343.223 55.368ZM357.047 55.56L358.784 54.5677V54.5677L357.047 55.56ZM360.023 58.728L358.955 60.419L359.006 60.4513L359.059 60.4804L360.023 58.728ZM371.831 56.232L373.488 57.3517V57.3517L371.831 56.232ZM372.023 34.344L370.26 35.2873L370.264 35.296L370.269 35.3046L372.023 34.344ZM357.335 33.672L355.735 32.472V32.472L357.335 33.672ZM343.879 45C343.879 37.1798 345.787 31.491 349.309 27.6275L346.353 24.9325C341.94 29.773 339.879 36.5642 339.879 45H343.879ZM349.319 27.6167C352.83 23.7095 357.807 21.656 364.535 21.656V17.656C356.928 17.656 350.769 20.0185 346.344 24.9433L349.319 27.6167ZM364.535 21.656C368.169 21.656 371.215 22.2318 373.726 23.3161L375.312 19.6439C372.191 18.2962 368.581 17.656 364.535 17.656V21.656ZM373.726 23.3161C376.269 24.414 378.344 25.9563 379.987 27.94L383.067 25.388C380.999 22.8917 378.402 20.978 375.312 19.6439L373.726 23.3161ZM380.006 27.9619C381.651 29.8914 382.904 32.2822 383.732 35.1814L387.578 34.0826C386.615 30.7098 385.115 27.7886 383.049 25.3661L380.006 27.9619ZM383.743 35.2174C384.637 38.1375 385.095 41.393 385.095 45H389.095C389.095 41.055 388.594 37.3985 387.568 34.0466L383.743 35.2174ZM385.095 45C385.095 52.8179 383.189 58.5471 379.656 62.4793L382.631 65.1527C387.034 60.2529 389.095 53.4381 389.095 45H385.095ZM379.654 62.4805C376.214 66.3162 371.274 68.344 364.535 68.344V72.344C372.132 72.344 378.265 70.0198 382.632 65.1515L379.654 62.4805ZM364.535 68.344C360.901 68.344 357.855 67.7682 355.344 66.6839L353.758 70.3561C356.879 71.7038 360.489 72.344 364.535 72.344V68.344ZM355.344 66.6839C352.783 65.5779 350.661 64.0513 348.947 62.1088L345.948 64.7552C348.074 67.1647 350.688 69.0301 353.758 70.3561L355.344 66.6839ZM348.987 62.156C347.32 60.1437 346.028 57.6981 345.136 54.7826L341.311 55.9534C342.338 59.3099 343.863 62.2403 345.907 64.708L348.987 62.156ZM345.146 54.8186C344.309 51.8868 343.879 48.6187 343.879 45H339.879C339.879 48.9333 340.346 52.5772 341.3 55.9174L345.146 54.8186ZM352.743 45C352.743 47.232 352.946 49.3264 353.364 51.2751L357.275 50.4369C356.924 48.8016 356.743 46.992 356.743 45H352.743ZM353.364 51.2751C353.783 53.2323 354.424 55.0003 355.311 56.5523L358.784 54.5677C358.135 53.4317 357.623 52.0637 357.275 50.4369L353.364 51.2751ZM355.311 56.5523C356.228 58.1581 357.442 59.4631 358.955 60.419L361.091 57.037C360.173 56.4569 359.402 55.6499 358.784 54.5677L355.311 56.5523ZM359.059 60.4804C360.684 61.3742 362.532 61.784 364.535 61.784V57.784C363.083 57.784 361.922 57.4898 360.987 56.9756L359.059 60.4804ZM364.535 61.784C368.354 61.784 371.459 60.3553 373.488 57.3517L370.174 55.1123C369.004 56.8447 367.245 57.784 364.535 57.784V61.784ZM373.488 57.3517C375.428 54.4815 376.231 50.2437 376.231 45H372.231C372.231 49.9963 371.435 53.2465 370.174 55.1123L373.488 57.3517ZM376.231 45C376.231 40.3868 375.466 36.4673 373.777 33.3834L370.269 35.3046C371.524 37.5967 372.231 40.7812 372.231 45H376.231ZM373.787 33.4007C372.887 31.7175 371.631 30.3888 370.013 29.4965C368.407 28.6114 366.555 28.216 364.535 28.216V32.216C366.036 32.216 367.191 32.5086 368.082 32.9995C368.959 33.4832 369.688 34.2185 370.26 35.2873L373.787 33.4007ZM364.535 28.216C360.883 28.216 357.869 29.6265 355.735 32.472L358.935 34.872C360.257 33.1095 362.044 32.216 364.535 32.216V28.216ZM355.735 32.472C353.608 35.308 352.743 39.6304 352.743 45H356.743C356.743 39.8736 357.606 36.644 358.935 34.872L355.735 32.472ZM412.546 52.68L411.392 54.3139V54.3139L412.546 52.68ZM408.514 50.568L407.771 52.425V52.425L408.514 50.568ZM403.234 48.648L402.545 50.5258L402.573 50.536L402.601 50.5454L403.234 48.648ZM397.954 45.864L396.744 47.4563L396.764 47.472L396.785 47.4871L397.954 45.864ZM393.922 41.352L392.196 42.3634L392.204 42.3768L392.212 42.39L393.922 41.352ZM396.514 23.4L395.187 21.9033L396.514 23.4ZM418.594 20.808L419.099 18.8728L418.594 20.808ZM425.506 23.4L427.417 23.9896L427.887 22.465L426.505 21.6676L425.506 23.4ZM422.722 32.424L421.993 34.2865L423.998 35.0711L424.633 33.0136L422.722 32.424ZM417.154 30.6L416.604 32.523L417.154 30.6ZM406.402 36.744L407.488 35.0649V35.0649L406.402 36.744ZM410.434 38.76L409.691 40.617L409.723 40.6299L409.756 40.6418L410.434 38.76ZM420.994 43.464L419.825 45.0871L419.847 45.1028L419.869 45.1179L420.994 43.464ZM425.026 47.784L423.316 48.822V48.822L425.026 47.784ZM421.954 66.216L423.288 67.7057L423.29 67.7041L421.954 66.216ZM398.434 69L399.005 67.0832L398.991 67.0792L398.978 67.0754L398.434 69ZM391.234 66.024L389.359 65.3281L388.79 66.861L390.179 67.7233L391.234 66.024ZM394.69 56.712L395.674 54.9709L393.631 53.8163L392.815 56.0161L394.69 56.712ZM400.546 59.208L399.898 61.1003L399.921 61.108L399.943 61.1152L400.546 59.208ZM412.45 59.304L411.407 57.5974L411.385 57.6109L411.363 57.6249L412.45 59.304ZM416.178 55.752C416.178 53.7916 415.293 52.1709 413.699 51.0461L411.392 54.3139C411.975 54.7251 412.178 55.1524 412.178 55.752H416.178ZM413.699 51.0461C412.452 50.1661 410.962 49.3931 409.257 48.711L407.771 52.425C409.266 53.0229 410.463 53.6579 411.392 54.3139L413.699 51.0461ZM409.257 48.711C407.615 48.0543 405.817 47.401 403.866 46.7506L402.601 50.5454C404.49 51.175 406.213 51.8017 407.771 52.425L409.257 48.711ZM403.922 46.7702C402.167 46.1266 400.569 45.2827 399.122 44.2409L396.785 47.4871C398.538 48.7493 400.461 49.7614 402.545 50.5258L403.922 46.7702ZM399.164 44.2717C397.772 43.214 396.595 41.901 395.631 40.314L392.212 42.39C393.425 44.387 394.935 46.082 396.744 47.4563L399.164 44.2717ZM395.647 40.3406C394.79 38.8782 394.29 36.8888 394.29 34.248H390.29C390.29 37.3671 390.878 40.1138 392.196 42.3634L395.647 40.3406ZM394.29 34.248C394.29 29.9252 395.559 26.919 397.84 24.8967L395.187 21.9033C391.837 24.873 390.29 29.0988 390.29 34.248H394.29ZM397.84 24.8967C400.164 22.8368 403.683 21.656 408.706 21.656V17.656C403.105 17.656 398.495 18.9712 395.187 21.9033L397.84 24.8967ZM408.706 21.656C412.216 21.656 415.339 22.0258 418.089 22.7432L419.099 18.8728C415.961 18.0542 412.491 17.656 408.706 17.656V21.656ZM418.089 22.7432C420.948 23.4891 423.06 24.2981 424.506 25.1324L426.505 21.6676C424.623 20.5819 422.128 19.6629 419.099 18.8728L418.089 22.7432ZM423.595 22.8104L420.811 31.8344L424.633 33.0136L427.417 23.9896L423.595 22.8104ZM423.451 30.5615C421.899 29.9545 419.978 29.327 417.703 28.677L416.604 32.523C418.809 33.153 420.6 33.7415 421.993 34.2865L423.451 30.5615ZM417.703 28.677C415.286 27.9865 412.83 27.64 410.338 27.64V31.64C412.454 31.64 414.541 31.9335 416.604 32.523L417.703 28.677ZM410.338 27.64C408.279 27.64 406.366 28.0299 404.936 29.1398C403.409 30.3245 402.77 32.0569 402.77 33.96H406.77C406.77 32.9831 407.059 32.5555 407.388 32.3002C407.813 31.9701 408.685 31.64 410.338 31.64V27.64ZM402.77 33.96C402.77 35.8846 403.742 37.4049 405.315 38.4231L407.488 35.0649C406.886 34.6751 406.77 34.3394 406.77 33.96H402.77ZM405.315 38.4231C406.541 39.216 408.008 39.9436 409.691 40.617L411.177 36.903C409.66 36.2964 408.439 35.68 407.488 35.0649L405.315 38.4231ZM409.756 40.6418C411.352 41.2162 413.108 41.8548 415.025 42.5578L416.402 38.8022C414.479 38.0972 412.716 37.4558 411.111 36.8782L409.756 40.6418ZM415.025 42.5578C416.781 43.2014 418.378 44.0453 419.825 45.0871L422.162 41.8409C420.409 40.5787 418.487 39.5666 416.402 38.8022L415.025 42.5578ZM419.869 45.1179C421.213 46.0317 422.364 47.254 423.316 48.822L426.735 46.746C425.511 44.7299 423.974 43.0723 422.118 41.8101L419.869 45.1179ZM423.316 48.822C424.16 50.2112 424.658 52.1243 424.658 54.696H428.658C428.658 51.6357 428.068 48.9408 426.735 46.746L423.316 48.822ZM424.658 54.696C424.658 59.0887 423.264 62.3512 420.617 64.7279L423.29 67.7041C426.915 64.4488 428.658 60.0313 428.658 54.696H424.658ZM420.619 64.7263C418.061 67.018 413.991 68.344 408.034 68.344V72.344C414.493 72.344 419.702 70.918 423.288 67.7057L420.619 64.7263ZM408.034 68.344C404.82 68.344 401.813 67.9198 399.005 67.0832L397.863 70.9168C401.07 71.8722 404.464 72.344 408.034 72.344V68.344ZM398.978 67.0754C396.148 66.2756 393.936 65.3475 392.288 64.3247L390.179 67.7233C392.243 69.0045 394.832 70.0604 397.89 70.9246L398.978 67.0754ZM393.109 66.7199L396.565 57.4079L392.815 56.0161L389.359 65.3281L393.109 66.7199ZM393.706 58.4531C395.325 59.3684 397.403 60.2467 399.898 61.1003L401.193 57.3157C398.824 56.5053 396.999 55.7196 395.674 54.9709L393.706 58.4531ZM399.943 61.1152C402.571 61.9449 405.27 62.36 408.034 62.36V58.36C405.677 58.36 403.384 58.0071 401.148 57.3008L399.943 61.1152ZM408.034 62.36C410.117 62.36 412.013 61.9687 413.536 60.9831L411.363 57.6249C410.71 58.0473 409.663 58.36 408.034 58.36V62.36ZM413.493 61.0106C415.383 59.8551 416.178 57.9252 416.178 55.752H412.178C412.178 56.9068 411.82 57.3449 411.407 57.5974L413.493 61.0106ZM39.9562 126.472L39.6136 124.502L37.9562 124.79V126.472H39.9562ZM44.6602 125.8L44.8895 127.787L44.9215 127.783L44.9533 127.778L44.6602 125.8ZM49.7482 125.224L49.6005 123.229L49.5948 123.23L49.7482 125.224ZM54.7402 124.936L54.6603 122.938L54.7402 124.936ZM68.3722 125.704L67.9961 127.668L68.0037 127.67L68.3722 125.704ZM76.5322 128.68L75.5101 130.399L75.5201 130.405L75.5302 130.411L76.5322 128.68ZM82.2923 134.536L80.5503 135.519L80.5654 135.545L80.5812 135.572L82.2923 134.536ZM80.6602 157.192L79.0531 156.002L80.6602 157.192ZM70.3882 164.392L69.7901 162.484L65.6713 163.774L69.319 166.082L70.3882 164.392ZM75.0922 167.368L76.8078 166.34L76.5634 165.932L76.1615 165.678L75.0922 167.368ZM90.4522 193V195H93.9824L92.1678 191.972L90.4522 193ZM75.2842 193L73.5544 194.004L74.1325 195H75.2842V193ZM60.0202 166.696L61.7501 165.692L61.2859 164.892L60.3756 164.728L60.0202 166.696ZM53.1082 165.448L53.4636 163.48L51.1082 163.055V165.448H53.1082ZM53.1082 193V195H55.1082V193H53.1082ZM39.9562 193H37.9562V195H39.9562V193ZM56.0842 136.648L55.9891 134.65L55.9844 134.65L56.0842 136.648ZM53.1082 137.032L52.582 135.102L51.1082 135.504V137.032H53.1082ZM53.1082 156.52H51.1082V158.52H53.1082V156.52ZM67.9882 139.048L66.6273 140.514L66.6416 140.527L66.6562 140.54L67.9882 139.048ZM40.2989 128.442C41.7291 128.194 43.259 127.975 44.8895 127.787L44.431 123.813C42.7335 124.009 41.1274 124.238 39.6136 124.502L40.2989 128.442ZM44.9533 127.778C46.6371 127.529 48.2865 127.342 49.9016 127.218L49.5948 123.23C47.882 123.362 46.1394 123.559 44.3671 123.822L44.9533 127.778ZM49.896 127.219C51.6032 127.092 53.2446 126.997 54.8202 126.934L54.6603 122.938C53.0359 123.003 51.3493 123.1 49.6005 123.229L49.896 127.219ZM54.8202 126.934C56.3984 126.871 57.8434 126.84 59.1562 126.84V122.84C57.7811 122.84 56.2821 122.873 54.6603 122.938L54.8202 126.934ZM59.1562 126.84C62.169 126.84 65.115 127.117 67.9961 127.668L68.7484 123.74C65.6135 123.139 62.4154 122.84 59.1562 122.84V126.84ZM68.0037 127.67C70.8757 128.208 73.369 129.126 75.5101 130.399L77.5544 126.961C74.9595 125.418 72.0128 124.352 68.7408 123.738L68.0037 127.67ZM75.5302 130.411C77.6468 131.636 79.3141 133.327 80.5503 135.519L84.0342 133.553C82.4544 130.753 80.2817 128.54 77.5343 126.949L75.5302 130.411ZM80.5812 135.572C81.8147 137.609 82.5002 140.296 82.5002 143.752H86.5002C86.5002 139.784 85.7138 136.327 84.0033 133.5L80.5812 135.572ZM82.5002 143.752C82.5002 148.948 81.2945 152.976 79.0531 156.002L82.2674 158.382C85.146 154.496 86.5002 149.564 86.5002 143.752H82.5002ZM79.0531 156.002C76.7568 159.102 73.6936 161.26 69.7901 162.484L70.9864 166.3C75.6589 164.836 79.4437 162.194 82.2674 158.382L79.0531 156.002ZM69.319 166.082L74.023 169.058L76.1615 165.678L71.4575 162.702L69.319 166.082ZM73.3767 168.396L88.7367 194.028L92.1678 191.972L76.8078 166.34L73.3767 168.396ZM90.4522 191H75.2842V195H90.4522V191ZM77.0141 191.996L61.7501 165.692L58.2904 167.7L73.5544 194.004L77.0141 191.996ZM60.3756 164.728L53.4636 163.48L52.7529 167.416L59.6649 168.664L60.3756 164.728ZM51.1082 165.448V193H55.1082V165.448H51.1082ZM53.1082 191H39.9562V195H53.1082V191ZM41.9562 193V126.472H37.9562V193H41.9562ZM60.1162 134.552C58.7405 134.552 57.3648 134.585 55.9891 134.65L56.1794 138.646C57.4917 138.583 58.804 138.552 60.1162 138.552V134.552ZM55.9844 134.65C54.6509 134.717 53.4917 134.854 52.582 135.102L53.6345 138.962C54.1327 138.826 54.9576 138.707 56.1841 138.646L55.9844 134.65ZM51.1082 137.032V156.52H55.1082V137.032H51.1082ZM53.1082 158.52H58.6762V154.52H53.1082V158.52ZM58.6762 158.52C62.6183 158.52 66.0024 157.62 68.6271 155.613L66.1973 152.435C64.4701 153.756 62.0302 154.52 58.6762 154.52V158.52ZM68.6271 155.613C71.4764 153.434 72.6762 149.965 72.6762 145.768H68.6762C68.6762 149.251 67.7001 151.286 66.1973 152.435L68.6271 155.613ZM72.6762 145.768C72.6762 142.442 71.6214 139.611 69.3203 137.556L66.6562 140.54C67.939 141.685 68.6762 143.334 68.6762 145.768H72.6762ZM69.3491 137.582C67.0584 135.455 63.8684 134.552 60.1162 134.552V138.552C63.2761 138.552 65.3341 139.313 66.6273 140.514L69.3491 137.582ZM129.784 188.872L131.034 190.434L132.302 189.419L131.569 187.969L129.784 188.872ZM121.912 192.808L122.511 194.716L122.523 194.713L122.534 194.709L121.912 192.808ZM94.4565 187.624L92.8861 188.863L92.8948 188.873L94.4565 187.624ZM95.1285 149.992L93.6818 148.611L95.1285 149.992ZM119.224 144.616L118.689 146.543L119.224 144.616ZM129.688 153.736L131.522 152.937L129.688 153.736ZM131.033 167.368L129.048 167.12L129.043 167.161L129.039 167.202L131.033 167.368ZM130.36 172.168V174.168H132.013L132.325 172.546L130.36 172.168ZM101.56 172.168V170.168H99.463L99.5628 172.263L101.56 172.168ZM104.632 181.288L103.151 182.631L103.162 182.644L103.173 182.656L104.632 181.288ZM120.856 183.208L121.559 185.081L121.574 185.075L121.59 185.069L120.856 183.208ZM125.656 180.712L127.441 179.809L126.354 177.661L124.442 179.123L125.656 180.712ZM104.632 156.616L103.076 155.36L103.071 155.367L104.632 156.616ZM101.848 164.392L99.858 164.197L99.6428 166.392H101.848V164.392ZM119.704 164.392V166.392H121.562L121.699 164.54L119.704 164.392ZM118.072 156.424L116.426 157.559L116.439 157.578L116.453 157.597L118.072 156.424ZM128.535 187.31C126.864 188.647 124.48 189.865 121.291 190.907L122.534 194.709C126.001 193.576 128.865 192.169 131.034 190.434L128.535 187.31ZM121.314 190.9C118.259 191.858 114.975 192.344 111.448 192.344V196.344C115.346 196.344 119.038 195.806 122.511 194.716L121.314 190.9ZM111.448 192.344C104.085 192.344 99.1006 190.228 96.0182 186.375L92.8948 188.873C96.9804 193.98 103.324 196.344 111.448 196.344V192.344ZM96.0268 186.385C92.8065 182.303 91.0805 176.583 91.0805 169H87.0805C87.0805 177.161 88.9385 183.857 92.8862 188.863L96.0268 186.385ZM91.0805 169C91.0805 160.838 93.0299 155.087 96.5752 151.373L93.6818 148.611C89.1631 153.345 87.0805 160.266 87.0805 169H91.0805ZM96.5752 151.373C100.14 147.638 105.226 145.656 112.12 145.656V141.656C104.423 141.656 98.1808 143.898 93.6818 148.611L96.5752 151.373ZM112.12 145.656C114.375 145.656 116.562 145.952 118.689 146.543L119.76 142.689C117.279 142 114.73 141.656 112.12 141.656V145.656ZM118.689 146.543C120.733 147.111 122.529 148.04 124.099 149.329L126.638 146.239C124.624 144.584 122.324 143.401 119.76 142.689L118.689 146.543ZM124.099 149.329C125.608 150.569 126.871 152.279 127.855 154.535L131.522 152.937C130.329 150.201 128.713 147.943 126.638 146.239L124.099 149.329ZM127.855 154.535C128.801 156.705 129.32 159.517 129.32 163.048H133.32C133.32 159.155 132.752 155.759 131.522 152.937L127.855 154.535ZM129.32 163.048C129.32 164.298 129.231 165.654 129.048 167.12L133.017 167.616C133.218 166.01 133.32 164.486 133.32 163.048H129.32ZM129.039 167.202C128.918 168.66 128.704 170.189 128.396 171.79L132.325 172.546C132.657 170.819 132.891 169.148 133.026 167.534L129.039 167.202ZM130.36 170.168H101.56V174.168H130.36V170.168ZM99.5628 172.263C99.7669 176.551 100.868 180.112 103.151 182.631L106.114 179.945C104.685 178.368 103.738 175.849 103.558 172.073L99.5628 172.263ZM103.173 182.656C105.627 185.273 109.35 186.36 113.848 186.36V182.36C109.899 182.36 107.478 181.399 106.092 179.92L103.173 182.656ZM113.848 186.36C116.666 186.36 119.246 185.948 121.559 185.081L120.154 181.335C118.371 182.004 116.279 182.36 113.848 182.36V186.36ZM121.59 185.069C123.777 184.207 125.571 183.295 126.871 182.301L124.442 179.123C123.566 179.793 122.16 180.545 120.123 181.347L121.59 185.069ZM123.872 181.615L128 189.775L131.569 187.969L127.441 179.809L123.872 181.615ZM111.928 151.64C108.244 151.64 105.158 152.779 103.076 155.36L106.189 157.872C107.307 156.485 109.085 155.64 111.928 155.64V151.64ZM103.071 155.367C101.224 157.675 100.203 160.673 99.858 164.197L103.839 164.587C104.133 161.583 104.969 159.397 106.194 157.865L103.071 155.367ZM101.848 166.392H119.704V162.392H101.848V166.392ZM121.699 164.54C121.973 160.845 121.424 157.643 119.692 155.251L116.453 157.597C117.409 158.917 117.948 161.027 117.71 164.244L121.699 164.54ZM119.719 155.289C117.972 152.755 115.218 151.64 111.928 151.64V155.64C114.271 155.64 115.613 156.381 116.426 157.559L119.719 155.289ZM172.21 190.024L173.392 191.637L174.535 190.799L174.124 189.444L172.21 190.024ZM165.202 193.192L164.706 191.254L164.679 191.261L164.652 191.269L165.202 193.192ZM147.058 192.52L146.217 194.335L146.225 194.338L146.233 194.342L147.058 192.52ZM140.626 187.432L139.02 188.625L139.029 188.636L139.037 188.647L140.626 187.432ZM136.978 179.368L135.026 179.806L135.031 179.825L135.035 179.844L136.978 179.368ZM141.394 150.28L142.926 151.565L142.931 151.559L142.936 151.554L141.394 150.28ZM165.778 144.52L165.252 146.45L165.259 146.451L165.266 146.453L165.778 144.52ZM171.634 146.728L173.553 147.289L174.015 145.71L172.554 144.952L171.634 146.728ZM168.658 156.904L167.795 158.708L169.917 159.723L170.577 157.465L168.658 156.904ZM164.242 155.272L163.716 157.202L163.726 157.204L163.737 157.207L164.242 155.272ZM151.474 158.152L153.035 159.401L153.044 159.391L153.052 159.38L151.474 158.152ZM149.458 174.664L151.394 174.162L149.458 174.664ZM151.474 179.176L153.112 178.029L151.474 179.176ZM154.93 182.248L153.972 184.004L154.019 184.029L154.067 184.052L154.93 182.248ZM165.394 182.536L166.051 184.425L166.087 184.412L166.123 184.398L165.394 182.536ZM169.33 180.52L171.244 179.94L170.462 177.361L168.22 178.856L169.33 180.52ZM171.027 188.411C169.349 189.642 167.257 190.602 164.706 191.254L165.697 195.13C168.65 194.374 171.231 193.222 173.392 191.637L171.027 188.411ZM164.652 191.269C162.148 191.984 159.55 192.344 156.85 192.344V196.344C159.91 196.344 162.879 195.936 165.751 195.115L164.652 191.269ZM156.85 192.344C153.212 192.344 150.245 191.767 147.882 190.698L146.233 194.342C149.246 195.705 152.808 196.344 156.85 196.344V192.344ZM147.899 190.705C145.552 189.618 143.67 188.121 142.214 186.217L139.037 188.647C140.909 191.095 143.316 192.99 146.217 194.335L147.899 190.705ZM142.231 186.239C140.749 184.244 139.635 181.809 138.92 178.892L135.035 179.844C135.857 183.199 137.174 186.14 139.02 188.625L142.231 186.239ZM138.929 178.93C138.262 175.96 137.922 172.654 137.922 169H133.922C133.922 172.898 134.285 176.504 135.026 179.806L138.929 178.93ZM137.922 169C137.922 161.143 139.687 155.429 142.926 151.565L139.861 148.995C135.804 153.835 133.922 160.601 133.922 169H137.922ZM142.936 151.554C146.121 147.698 150.807 145.656 157.33 145.656V141.656C149.9 141.656 143.962 144.03 139.852 149.006L142.936 151.554ZM157.33 145.656C160.766 145.656 163.383 145.94 165.252 146.45L166.304 142.59C163.949 141.948 160.934 141.656 157.33 141.656V145.656ZM165.266 146.453C167.322 146.998 169.134 147.684 170.713 148.504L172.554 144.952C170.678 143.98 168.586 143.194 166.29 142.587L165.266 146.453ZM169.714 146.167L166.738 156.343L170.577 157.465L173.553 147.289L169.714 146.167ZM169.521 155.1C167.942 154.345 166.35 153.755 164.747 153.337L163.737 157.207C165.077 157.557 166.43 158.055 167.795 158.708L169.521 155.1ZM164.768 153.342C163.149 152.901 161.334 152.696 159.346 152.696V156.696C161.07 156.696 162.518 156.875 163.716 157.202L164.768 153.342ZM159.346 152.696C155.4 152.696 152.138 154.041 149.895 156.924L153.052 159.38C154.394 157.655 156.38 156.696 159.346 156.696V152.696ZM149.912 156.903C147.692 159.677 146.786 163.856 146.786 169H150.786C150.786 164.16 151.671 161.107 153.035 159.401L149.912 156.903ZM146.786 169C146.786 171.193 147.026 173.252 147.522 175.166L151.394 174.162C150.994 172.62 150.786 170.903 150.786 169H146.786ZM147.522 175.166C148.021 177.092 148.784 178.822 149.835 180.323L153.112 178.029C152.371 176.97 151.79 175.692 151.394 174.162L147.522 175.166ZM149.835 180.323C150.913 181.863 152.301 183.092 153.972 184.004L155.887 180.492C154.743 179.868 153.827 179.049 153.112 178.029L149.835 180.323ZM154.067 184.052C155.852 184.906 157.852 185.304 160.018 185.304V181.304C158.344 181.304 156.952 180.998 155.793 180.444L154.067 184.052ZM160.018 185.304C162.279 185.304 164.307 185.031 166.051 184.425L164.737 180.647C163.536 181.065 161.98 181.304 160.018 181.304V185.304ZM166.123 184.398C167.71 183.777 169.152 183.042 170.439 182.184L168.22 178.856C167.203 179.534 166.022 180.143 164.665 180.674L166.123 184.398ZM167.416 181.1L170.296 190.604L174.124 189.444L171.244 179.94L167.416 181.1ZM215.123 188.872L216.373 190.434L217.641 189.419L216.908 187.969L215.123 188.872ZM207.251 192.808L207.85 194.716L207.861 194.713L207.873 194.709L207.251 192.808ZM179.795 187.624L178.225 188.863L178.234 188.873L179.795 187.624ZM180.467 149.992L179.021 148.611L180.467 149.992ZM204.563 144.616L204.028 146.543L204.563 144.616ZM215.027 153.736L216.861 152.937L215.027 153.736ZM216.371 167.368L214.387 167.12L214.382 167.161L214.378 167.202L216.371 167.368ZM215.699 172.168V174.168H217.351L217.663 172.546L215.699 172.168ZM186.899 172.168V170.168H184.802L184.902 172.263L186.899 172.168ZM189.971 181.288L188.489 182.631L188.501 182.644L188.512 182.656L189.971 181.288ZM206.195 183.208L206.897 185.081L206.913 185.075L206.928 185.069L206.195 183.208ZM210.995 180.712L212.78 179.809L211.693 177.661L209.78 179.123L210.995 180.712ZM189.971 156.616L188.414 155.36L188.41 155.367L189.971 156.616ZM187.187 164.392L185.197 164.197L184.982 166.392H187.187V164.392ZM205.043 164.392V166.392H206.901L207.038 164.54L205.043 164.392ZM203.411 156.424L201.765 157.559L201.778 157.578L201.791 157.597L203.411 156.424ZM213.874 187.31C212.202 188.647 209.819 189.865 206.63 190.907L207.873 194.709C211.34 193.576 214.204 192.169 216.373 190.434L213.874 187.31ZM206.653 190.9C203.598 191.858 200.313 192.344 196.787 192.344V196.344C200.685 196.344 204.376 195.806 207.85 194.716L206.653 190.9ZM196.787 192.344C189.424 192.344 184.439 190.228 181.357 186.375L178.234 188.873C182.319 193.98 188.663 196.344 196.787 196.344V192.344ZM181.366 186.385C178.145 182.303 176.419 176.583 176.419 169H172.419C172.419 177.161 174.277 183.857 178.225 188.863L181.366 186.385ZM176.419 169C176.419 160.838 178.369 155.087 181.914 151.373L179.021 148.611C174.502 153.345 172.419 160.266 172.419 169H176.419ZM181.914 151.373C185.479 147.638 190.565 145.656 197.459 145.656V141.656C189.762 141.656 183.52 143.898 179.021 148.611L181.914 151.373ZM197.459 145.656C199.713 145.656 201.901 145.952 204.028 146.543L205.099 142.689C202.617 142 200.069 141.656 197.459 141.656V145.656ZM204.028 146.543C206.072 147.111 207.868 148.04 209.438 149.329L211.977 146.239C209.962 144.584 207.663 143.401 205.099 142.689L204.028 146.543ZM209.438 149.329C210.946 150.569 212.21 152.279 213.194 154.535L216.861 152.937C215.668 150.201 214.052 147.943 211.977 146.239L209.438 149.329ZM213.194 154.535C214.14 156.705 214.659 159.517 214.659 163.048H218.659C218.659 159.155 218.091 155.759 216.861 152.937L213.194 154.535ZM214.659 163.048C214.659 164.298 214.57 165.654 214.387 167.12L218.356 167.616C218.557 166.01 218.659 164.486 218.659 163.048H214.659ZM214.378 167.202C214.257 168.66 214.043 170.189 213.735 171.79L217.663 172.546C217.995 170.819 218.23 169.148 218.364 167.534L214.378 167.202ZM215.699 170.168H186.899V174.168H215.699V170.168ZM184.902 172.263C185.106 176.551 186.206 180.112 188.489 182.631L191.453 179.945C190.024 178.368 189.077 175.849 188.897 172.073L184.902 172.263ZM188.512 182.656C190.966 185.273 194.689 186.36 199.187 186.36V182.36C195.238 182.36 192.817 181.399 191.43 179.92L188.512 182.656ZM199.187 186.36C202.004 186.36 204.585 185.948 206.897 185.081L205.493 181.335C203.709 182.004 201.618 182.36 199.187 182.36V186.36ZM206.928 185.069C209.116 184.207 210.91 183.295 212.21 182.301L209.78 179.123C208.904 179.793 207.499 180.545 205.462 181.347L206.928 185.069ZM209.211 181.615L213.339 189.775L216.908 187.969L212.78 179.809L209.211 181.615ZM197.267 151.64C193.583 151.64 190.496 152.779 188.414 155.36L191.528 157.872C192.646 156.485 194.424 155.64 197.267 155.64V151.64ZM188.41 155.367C186.563 157.675 185.542 160.673 185.197 164.197L189.178 164.587C189.472 161.583 190.307 159.397 191.533 157.865L188.41 155.367ZM187.187 166.392H205.043V162.392H187.187V166.392ZM207.038 164.54C207.311 160.845 206.763 157.643 205.031 155.251L201.791 157.597C202.747 158.917 203.287 161.027 203.049 164.244L207.038 164.54ZM205.058 155.289C203.311 152.755 200.556 151.64 197.267 151.64V155.64C199.61 155.64 200.952 156.381 201.765 157.559L205.058 155.289ZM253.409 193H251.409V195H253.409V193ZM251.681 157.288L249.989 158.354L250.003 158.376L250.017 158.397L251.681 157.288ZM239.969 156.808L241.256 158.339L241.261 158.335L239.969 156.808ZM236.513 161.896L234.622 161.246L234.513 161.562V161.896H236.513ZM236.513 193V195H238.513V193H236.513ZM224.033 193H222.033V195H224.033V193ZM224.033 145V143H222.033V145H224.033ZM233.921 145L235.872 144.557L235.518 143H233.921V145ZM235.361 151.336L233.411 151.779L233.765 153.336H235.361V151.336ZM235.745 151.336V153.336H236.771L237.369 152.503L235.745 151.336ZM241.601 145.96L240.533 144.269L241.601 145.96ZM257.345 144.616L256.693 146.507L257.345 144.616ZM262.049 147.784L260.54 149.096V149.096L262.049 147.784ZM264.929 153.832L262.989 154.317L262.992 154.329L264.929 153.832ZM265.889 193V195H267.889V193H265.889ZM255.409 193V165.736H251.409V193H255.409ZM255.409 165.736C255.409 161.733 254.837 158.416 253.345 156.179L250.017 158.397C250.829 159.616 251.409 161.931 251.409 165.736H255.409ZM253.374 156.222C251.806 153.732 249.148 152.696 246.017 152.696V156.696C248.263 156.696 249.381 157.388 249.989 158.354L253.374 156.222ZM246.017 152.696C243.22 152.696 240.735 153.54 238.677 155.281L241.261 158.335C242.532 157.26 244.078 156.696 246.017 156.696V152.696ZM238.683 155.277C236.795 156.863 235.439 158.868 234.622 161.246L238.405 162.546C238.995 160.828 239.944 159.441 241.256 158.339L238.683 155.277ZM234.513 161.896V193H238.513V161.896H234.513ZM236.513 191H224.033V195H236.513V191ZM226.033 193V145H222.033V193H226.033ZM224.033 147H233.921V143H224.033V147ZM231.971 145.443L233.411 151.779L237.312 150.893L235.872 144.557L231.971 145.443ZM235.361 153.336H235.745V149.336H235.361V153.336ZM237.369 152.503C238.672 150.691 240.424 149.069 242.669 147.651L240.533 144.269C237.914 145.923 235.763 147.885 234.121 150.169L237.369 152.503ZM242.669 147.651C244.691 146.374 247.424 145.656 251.009 145.656V141.656C246.915 141.656 243.375 142.474 240.533 144.269L242.669 147.651ZM251.009 145.656C253.2 145.656 255.085 145.952 256.693 146.507L257.997 142.725C255.893 142 253.555 141.656 251.009 141.656V145.656ZM256.693 146.507C258.22 147.033 259.492 147.891 260.54 149.096L263.558 146.472C262.047 144.733 260.182 143.479 257.997 142.725L256.693 146.507ZM260.54 149.096C261.553 150.262 262.4 151.96 262.989 154.317L266.87 153.347C266.179 150.584 265.105 148.25 263.558 146.472L260.54 149.096ZM262.992 154.329C263.576 156.609 263.889 159.533 263.889 163.144H267.889C267.889 159.331 267.562 156.047 266.867 153.335L262.992 154.329ZM263.889 163.144V193H267.889V163.144H263.889ZM265.889 191H253.409V195H265.889V191ZM269.914 145V143H267.914V145H269.914ZM276.538 145V147H278.538V145H276.538ZM276.538 135.976L275.99 134.052L274.538 134.466V135.976H276.538ZM289.018 132.424H291.018V129.775L288.47 130.5L289.018 132.424ZM289.018 145H287.018V147H289.018V145ZM300.73 145H302.73V143H300.73V145ZM300.73 155.56V157.56H302.73V155.56H300.73ZM289.018 155.56V153.56H287.018V155.56H289.018ZM289.978 181.192L288.144 181.989L288.165 182.039L288.189 182.086L289.978 181.192ZM297.082 182.92L296.566 180.988L296.549 180.992L296.532 180.997L297.082 182.92ZM300.25 181.768L302.199 181.32L301.655 178.955L299.437 179.94L300.25 181.768ZM302.458 191.368L303.325 193.17L304.765 192.477L304.407 190.92L302.458 191.368ZM296.41 193.48L296.895 195.42L296.41 193.48ZM279.61 190.984L278.115 192.313L278.134 192.335L278.155 192.356L279.61 190.984ZM276.538 155.56H278.538V153.56H276.538V155.56ZM269.914 155.56H267.914V157.56H269.914V155.56ZM269.914 147H276.538V143H269.914V147ZM278.538 145V135.976H274.538V145H278.538ZM277.085 137.9L289.565 134.348L288.47 130.5L275.99 134.052L277.085 137.9ZM287.018 132.424V145H291.018V132.424H287.018ZM289.018 147H300.73V143H289.018V147ZM298.73 145V155.56H302.73V145H298.73ZM300.73 153.56H289.018V157.56H300.73V153.56ZM287.018 155.56V173.992H291.018V155.56H287.018ZM287.018 173.992C287.018 177.363 287.329 180.116 288.144 181.989L291.812 180.395C291.346 179.324 291.018 177.277 291.018 173.992H287.018ZM288.189 182.086C288.708 183.124 289.478 183.965 290.502 184.528C291.507 185.081 292.642 185.304 293.818 185.304V181.304C293.138 181.304 292.705 181.175 292.43 181.024C292.173 180.883 291.952 180.668 291.767 180.298L288.189 182.086ZM293.818 185.304C295.22 185.304 296.504 185.165 297.631 184.843L296.532 180.997C295.868 181.187 294.976 181.304 293.818 181.304V185.304ZM297.597 184.852C298.681 184.563 299.838 184.14 301.062 183.596L299.437 179.94C298.357 180.42 297.402 180.765 296.566 180.988L297.597 184.852ZM298.301 182.216L300.509 191.816L304.407 190.92L302.199 181.32L298.301 182.216ZM301.59 189.566C300.009 190.327 298.127 190.989 295.925 191.54L296.895 195.42C299.301 194.819 301.45 194.073 303.325 193.17L301.59 189.566ZM295.925 191.54C293.779 192.076 291.606 192.344 289.402 192.344V196.344C291.934 196.344 294.433 196.036 296.895 195.42L295.925 191.54ZM289.402 192.344C285.294 192.344 282.66 191.303 281.065 189.612L278.155 192.356C280.784 195.145 284.678 196.344 289.402 196.344V192.344ZM281.105 189.655C279.541 187.896 278.538 184.755 278.538 179.752H274.538C274.538 185.117 275.582 189.464 278.115 192.313L281.105 189.655ZM278.538 179.752V155.56H274.538V179.752H278.538ZM276.538 153.56H269.914V157.56H276.538V153.56ZM271.914 155.56V145H267.914V155.56H271.914ZM344.866 188.872L346.115 190.434L347.384 189.419L346.65 187.969L344.866 188.872ZM336.994 192.808L337.592 194.716L337.604 194.713L337.615 194.709L336.994 192.808ZM309.538 187.624L307.967 188.863L307.976 188.873L309.538 187.624ZM310.21 149.992L308.763 148.611L310.21 149.992ZM334.306 144.616L333.77 146.543L334.306 144.616ZM344.77 153.736L346.603 152.937L344.77 153.736ZM346.114 167.368L344.129 167.12L344.124 167.161L344.121 167.202L346.114 167.368ZM345.442 172.168V174.168H347.094L347.406 172.546L345.442 172.168ZM316.642 172.168V170.168H314.544L314.644 172.263L316.642 172.168ZM319.714 181.288L318.232 182.631L318.243 182.644L318.255 182.656L319.714 181.288ZM335.938 183.208L336.64 185.081L336.655 185.075L336.671 185.069L335.938 183.208ZM340.738 180.712L342.522 179.809L341.435 177.661L339.523 179.123L340.738 180.712ZM319.714 156.616L318.157 155.36L318.152 155.367L319.714 156.616ZM316.93 164.392L314.939 164.197L314.724 166.392H316.93V164.392ZM334.786 164.392V166.392H336.643L336.78 164.54L334.786 164.392ZM333.154 156.424L331.507 157.559L331.52 157.578L331.534 157.597L333.154 156.424ZM343.616 187.31C341.945 188.647 339.561 189.865 336.372 190.907L337.615 194.709C341.082 193.576 343.947 192.169 346.115 190.434L343.616 187.31ZM336.395 190.9C333.341 191.858 330.056 192.344 326.53 192.344V196.344C330.428 196.344 334.119 195.806 337.592 194.716L336.395 190.9ZM326.53 192.344C319.166 192.344 314.182 190.228 311.099 186.375L307.976 188.873C312.062 193.98 318.405 196.344 326.53 196.344V192.344ZM311.108 186.385C307.888 182.303 306.162 176.583 306.162 169H302.162C302.162 177.161 304.02 183.857 307.967 188.863L311.108 186.385ZM306.162 169C306.162 160.838 308.111 155.087 311.656 151.373L308.763 148.611C304.244 153.345 302.162 160.266 302.162 169H306.162ZM311.656 151.373C315.221 147.638 320.307 145.656 327.202 145.656V141.656C319.504 141.656 313.262 143.898 308.763 148.611L311.656 151.373ZM327.202 145.656C329.456 145.656 331.644 145.952 333.77 146.543L334.841 142.689C332.36 142 329.812 141.656 327.202 141.656V145.656ZM333.77 146.543C335.814 147.111 337.61 148.04 339.18 149.329L341.719 146.239C339.705 144.584 337.405 143.401 334.841 142.689L333.77 146.543ZM339.18 149.329C340.689 150.569 341.953 152.279 342.936 154.535L346.603 152.937C345.411 150.201 343.795 147.943 341.719 146.239L339.18 149.329ZM342.936 154.535C343.882 156.705 344.402 159.517 344.402 163.048H348.402C348.402 159.155 347.833 155.759 346.603 152.937L342.936 154.535ZM344.402 163.048C344.402 164.298 344.312 165.654 344.129 167.12L348.098 167.616C348.299 166.01 348.402 164.486 348.402 163.048H344.402ZM344.121 167.202C343.999 168.66 343.786 170.189 343.478 171.79L347.406 172.546C347.738 170.819 347.972 169.148 348.107 167.534L344.121 167.202ZM345.442 170.168H316.642V174.168H345.442V170.168ZM314.644 172.263C314.848 176.551 315.949 180.112 318.232 182.631L321.196 179.945C319.767 178.368 318.819 175.849 318.639 172.073L314.644 172.263ZM318.255 182.656C320.708 185.273 324.431 186.36 328.93 186.36V182.36C324.98 182.36 322.559 181.399 321.173 179.92L318.255 182.656ZM328.93 186.36C331.747 186.36 334.328 185.948 336.64 185.081L335.235 181.335C333.452 182.004 331.361 182.36 328.93 182.36V186.36ZM336.671 185.069C338.858 184.207 340.653 183.295 341.953 182.301L339.523 179.123C338.647 179.793 337.241 180.545 335.205 181.347L336.671 185.069ZM338.953 181.615L343.081 189.775L346.65 187.969L342.522 179.809L338.953 181.615ZM327.01 151.64C323.325 151.64 320.239 152.779 318.157 155.36L321.271 157.872C322.389 156.485 324.166 155.64 327.01 155.64V151.64ZM318.152 155.367C316.306 157.675 315.285 160.673 314.939 164.197L318.92 164.587C319.215 161.583 320.05 159.397 321.275 157.865L318.152 155.367ZM316.93 166.392H334.786V162.392H316.93V166.392ZM336.78 164.54C337.054 160.845 336.506 157.643 334.774 155.251L331.534 157.597C332.49 158.917 333.029 161.027 332.791 164.244L336.78 164.54ZM334.8 155.289C333.053 152.755 330.299 151.64 327.01 151.64V155.64C329.353 155.64 330.694 156.381 331.507 157.559L334.8 155.289ZM372.016 176.68L370.862 178.314L372.016 176.68ZM367.984 174.568L367.241 176.425L367.984 174.568ZM362.704 172.648L362.015 174.526L362.043 174.536L362.071 174.545L362.704 172.648ZM357.424 169.864L356.214 171.456L356.234 171.472L356.255 171.487L357.424 169.864ZM353.392 165.352L351.666 166.363L351.674 166.377L351.682 166.39L353.392 165.352ZM355.984 147.4L354.657 145.903L355.984 147.4ZM378.064 144.808L378.569 142.873L378.064 144.808ZM384.976 147.4L386.887 147.99L387.357 146.465L385.975 145.668L384.976 147.4ZM382.192 156.424L381.463 158.286L383.468 159.071L384.103 157.014L382.192 156.424ZM376.624 154.6L376.074 156.523L376.624 154.6ZM365.872 160.744L366.958 159.065L365.872 160.744ZM369.904 162.76L369.161 164.617L369.193 164.63L369.226 164.642L369.904 162.76ZM380.464 167.464L379.295 169.087L379.317 169.103L379.339 169.118L380.464 167.464ZM384.496 171.784L382.786 172.822L384.496 171.784ZM381.424 190.216L382.758 191.706L382.76 191.704L381.424 190.216ZM357.904 193L358.475 191.083L358.461 191.079L358.448 191.075L357.904 193ZM350.704 190.024L348.829 189.328L348.26 190.861L349.649 191.723L350.704 190.024ZM354.16 180.712L355.144 178.971L353.101 177.816L352.285 180.016L354.16 180.712ZM360.016 183.208L359.368 185.1L359.391 185.108L359.414 185.115L360.016 183.208ZM371.92 183.304L370.877 181.597L370.855 181.611L370.833 181.625L371.92 183.304ZM375.648 179.752C375.648 177.792 374.763 176.171 373.169 175.046L370.862 178.314C371.445 178.725 371.648 179.152 371.648 179.752H375.648ZM373.169 175.046C371.923 174.166 370.432 173.393 368.727 172.711L367.241 176.425C368.736 177.023 369.933 177.658 370.862 178.314L373.169 175.046ZM368.727 172.711C367.085 172.054 365.287 171.401 363.336 170.751L362.071 174.545C363.96 175.175 365.683 175.802 367.241 176.425L368.727 172.711ZM363.392 170.77C361.637 170.127 360.039 169.283 358.592 168.241L356.255 171.487C358.008 172.749 359.931 173.761 362.015 174.526L363.392 170.77ZM358.634 168.272C357.242 167.214 356.065 165.901 355.101 164.314L351.682 166.39C352.895 168.387 354.405 170.082 356.214 171.456L358.634 168.272ZM355.117 164.341C354.26 162.878 353.76 160.889 353.76 158.248H349.76C349.76 161.367 350.348 164.114 351.666 166.363L355.117 164.341ZM353.76 158.248C353.76 153.925 355.029 150.919 357.31 148.897L354.657 145.903C351.307 148.873 349.76 153.099 349.76 158.248H353.76ZM357.31 148.897C359.634 146.837 363.153 145.656 368.176 145.656V141.656C362.575 141.656 357.965 142.971 354.657 145.903L357.31 148.897ZM368.176 145.656C371.686 145.656 374.809 146.026 377.559 146.743L378.569 142.873C375.431 142.054 371.961 141.656 368.176 141.656V145.656ZM377.559 146.743C380.418 147.489 382.53 148.298 383.976 149.132L385.975 145.668C384.093 144.582 381.598 143.663 378.569 142.873L377.559 146.743ZM383.065 146.81L380.281 155.834L384.103 157.014L386.887 147.99L383.065 146.81ZM382.921 154.562C381.369 153.955 379.448 153.327 377.173 152.677L376.074 156.523C378.279 157.153 380.07 157.741 381.463 158.286L382.921 154.562ZM377.173 152.677C374.757 151.986 372.3 151.64 369.808 151.64V155.64C371.924 155.64 374.011 155.934 376.074 156.523L377.173 152.677ZM369.808 151.64C367.749 151.64 365.836 152.03 364.406 153.14C362.879 154.324 362.24 156.057 362.24 157.96H366.24C366.24 156.983 366.529 156.556 366.858 156.3C367.283 155.97 368.155 155.64 369.808 155.64V151.64ZM362.24 157.96C362.24 159.885 363.212 161.405 364.785 162.423L366.958 159.065C366.356 158.675 366.24 158.339 366.24 157.96H362.24ZM364.785 162.423C366.011 163.216 367.478 163.944 369.161 164.617L370.647 160.903C369.13 160.296 367.909 159.68 366.958 159.065L364.785 162.423ZM369.226 164.642C370.822 165.216 372.578 165.855 374.495 166.558L375.872 162.802C373.949 162.097 372.186 161.456 370.581 160.878L369.226 164.642ZM374.495 166.558C376.251 167.201 377.848 168.045 379.295 169.087L381.632 165.841C379.879 164.579 377.957 163.567 375.872 162.802L374.495 166.558ZM379.339 169.118C380.683 170.032 381.834 171.254 382.786 172.822L386.205 170.746C384.981 168.73 383.444 167.072 381.588 165.81L379.339 169.118ZM382.786 172.822C383.63 174.211 384.128 176.124 384.128 178.696H388.128C388.128 175.636 387.538 172.941 386.205 170.746L382.786 172.822ZM384.128 178.696C384.128 183.089 382.734 186.351 380.088 188.728L382.76 191.704C386.385 188.449 388.128 184.031 388.128 178.696H384.128ZM380.089 188.726C377.531 191.018 373.461 192.344 367.504 192.344V196.344C373.963 196.344 379.172 194.918 382.758 191.706L380.089 188.726ZM367.504 192.344C364.29 192.344 361.283 191.92 358.475 191.083L357.333 194.917C360.54 195.872 363.934 196.344 367.504 196.344V192.344ZM358.448 191.075C355.618 190.276 353.406 189.347 351.758 188.325L349.649 191.723C351.713 193.005 354.302 194.06 357.36 194.925L358.448 191.075ZM352.579 190.72L356.035 181.408L352.285 180.016L348.829 189.328L352.579 190.72ZM353.176 182.453C354.795 183.368 356.873 184.247 359.368 185.1L360.663 181.316C358.294 180.505 356.469 179.72 355.144 178.971L353.176 182.453ZM359.414 185.115C362.041 185.945 364.74 186.36 367.504 186.36V182.36C365.147 182.36 362.854 182.007 360.618 181.301L359.414 185.115ZM367.504 186.36C369.587 186.36 371.483 185.969 373.006 184.983L370.833 181.625C370.18 182.047 369.133 182.36 367.504 182.36V186.36ZM372.963 185.011C374.853 183.855 375.648 181.925 375.648 179.752H371.648C371.648 180.907 371.29 181.345 370.877 181.597L372.963 185.011Z" fill="#EA0FFD" mask="url(#path-1-outside-1_51_260)"/>
</svg>