<svg width="142" height="162" viewBox="0 0 142 162" fill="none" xmlns="http://www.w3.org/2000/svg">
    <g filter="url(#filter0_f_0_1)">
        <path d="M106.02 48.1007C102.485 45.1866 98.4143 42.7901 93.9499 40.9524C94.2209 40.3001 94.486 39.6031 94.7281 38.8754C97.1396 31.6214 95.3871 27.1451 93.4926 24.6676C91.0614 21.4879 88.0505 20.3177 85.4476 20.1061C84.9953 19.1665 84.4151 18.1184 83.6865 17.0645C80.4918 12.4426 76.105 10 71.0003 10C65.8955 10 61.5084 12.4426 58.3145 17.0637C57.586 18.1179 57.0058 19.1657 56.5534 20.1053C53.9508 20.3169 50.9391 21.4876 48.5085 24.6665C46.6134 27.1446 44.8612 31.6206 47.2727 38.8745C47.5145 39.6026 47.7799 40.2992 48.0509 40.9516C43.5862 42.7895 39.5154 45.186 35.9812 48.0998C26.2065 56.1597 21.0396 67.4221 21.0396 80.6697C21.0396 93.8898 26.3085 107.409 35.4955 117.76C41.9737 125.059 49.7529 130.163 58.1387 132.75C58.0192 133.447 57.8755 134.172 57.7269 134.917C56.919 138.959 55.9136 143.99 59.0661 147.835C61.3637 150.638 65.2673 152 71.0003 152C76.7332 152 80.6371 150.638 82.9349 147.835C86.0875 143.99 85.0824 138.96 84.2745 134.918C84.1258 134.173 83.9822 133.448 83.8624 132.751C92.2481 130.164 100.027 125.059 106.505 117.761C115.692 107.409 120.961 93.8907 120.961 80.6705C120.961 67.4224 115.795 56.1603 106.02 48.1007ZM55.4144 29.9477C56.3823 28.6822 57.3957 28.686 57.9565 28.8261L62.2983 30.7811L63.6099 25.8388C63.6149 25.8202 64.1626 23.8924 65.4661 22.0068C67.7564 18.6936 70.1979 18.6936 71.0003 18.6936C76.3419 18.6936 78.3155 25.5701 78.3906 25.8388L79.4296 30.8923L84.0432 28.8261C84.6045 28.6866 85.6179 28.6813 86.5861 29.948C87.7452 31.4634 87.0449 34.3849 86.524 35.9913C86.2567 36.8164 85.9427 37.5943 85.6329 38.2838C80.9971 37.185 76.0798 36.6153 71 36.6153C65.9152 36.6153 60.9937 37.1855 56.354 38.2866C55.0613 35.3742 54.0889 31.6805 55.4144 29.9477ZM76.2121 142.323C76.2041 142.333 75.3554 143.306 71.0003 143.306C66.6449 143.306 65.7965 142.333 65.7887 142.323C65.2448 141.66 65.8996 138.382 66.2519 136.621C66.3927 135.915 66.5339 135.201 66.6618 134.48C68.099 134.625 69.5459 134.702 71.0005 134.702C72.4552 134.702 73.9024 134.625 75.3396 134.48C75.4674 135.201 75.6086 135.915 75.7492 136.621C76.1009 138.382 76.756 141.66 76.2121 142.323ZM100.003 111.99C91.9797 121.03 81.6797 126.009 71.0003 126.009C60.3209 126.009 50.0209 121.03 41.9973 111.99C34.2031 103.207 29.7332 91.7926 29.7332 80.6705C29.7332 70.1048 33.8062 61.1622 41.5117 54.8085C48.9403 48.6834 59.4128 45.31 71.0005 45.31C82.588 45.31 93.0607 48.6836 100.489 54.8085C108.195 61.1619 112.268 70.1048 112.268 80.6705C112.267 91.7923 107.797 103.208 100.003 111.99Z" fill="#00B2FF"/>
        <path d="M71.0002 70.8752L50.2791 89.5102L71.0002 122.415L91.7214 89.5102L71.0002 70.8752ZM61.5392 91.0764L71.0002 82.5681L80.4613 91.0764L71.0002 106.1L61.5392 91.0764Z" fill="#00B2FF"/>
        <path d="M48.9413 67.2556C45.7962 67.2556 43.2366 69.8413 43.2366 73.0341C43.2366 76.2266 45.7962 78.8145 48.9413 78.8145C52.0908 78.8145 54.6495 76.2266 54.6495 73.0341C54.6495 69.841 52.0905 67.2556 48.9413 67.2556Z" fill="#00B2FF"/>
        <path d="M93.0157 67.2107C89.8401 67.2107 87.2642 69.818 87.2642 73.0344C87.2642 76.2507 89.8401 78.858 93.0157 78.858C96.1874 78.858 98.7634 76.2507 98.7634 73.0344C98.7637 69.8177 96.1877 67.2107 93.0157 67.2107Z" fill="#00B2FF"/>
    </g>
    <path d="M106.02 48.1007C102.485 45.1866 98.4143 42.7901 93.9499 40.9524C94.2209 40.3001 94.486 39.6031 94.7281 38.8754C97.1396 31.6214 95.3871 27.1451 93.4926 24.6676C91.0614 21.4879 88.0505 20.3177 85.4476 20.1061C84.9953 19.1665 84.4151 18.1184 83.6865 17.0645C80.4918 12.4426 76.105 10 71.0003 10C65.8955 10 61.5084 12.4426 58.3145 17.0637C57.586 18.1179 57.0058 19.1657 56.5534 20.1053C53.9508 20.3169 50.9391 21.4876 48.5085 24.6665C46.6134 27.1446 44.8612 31.6206 47.2727 38.8745C47.5145 39.6026 47.7799 40.2992 48.0509 40.9516C43.5862 42.7895 39.5154 45.186 35.9812 48.0998C26.2065 56.1597 21.0396 67.4221 21.0396 80.6697C21.0396 93.8898 26.3085 107.409 35.4955 117.76C41.9737 125.059 49.7529 130.163 58.1387 132.75C58.0192 133.447 57.8755 134.172 57.7269 134.917C56.919 138.959 55.9136 143.99 59.0661 147.835C61.3637 150.638 65.2673 152 71.0003 152C76.7332 152 80.6371 150.638 82.9349 147.835C86.0875 143.99 85.0824 138.96 84.2745 134.918C84.1258 134.173 83.9822 133.448 83.8624 132.751C92.2481 130.164 100.027 125.059 106.505 117.761C115.692 107.409 120.961 93.8907 120.961 80.6705C120.961 67.4224 115.795 56.1603 106.02 48.1007ZM55.4144 29.9477C56.3823 28.6822 57.3957 28.686 57.9565 28.8261L62.2983 30.7811L63.6099 25.8388C63.6149 25.8202 64.1626 23.8924 65.4661 22.0068C67.7564 18.6936 70.1979 18.6936 71.0003 18.6936C76.3419 18.6936 78.3155 25.5701 78.3906 25.8388L79.4296 30.8923L84.0432 28.8261C84.6045 28.6866 85.6179 28.6813 86.5861 29.948C87.7452 31.4634 87.0449 34.3849 86.524 35.9913C86.2567 36.8164 85.9427 37.5943 85.6329 38.2838C80.9971 37.185 76.0798 36.6153 71 36.6153C65.9152 36.6153 60.9937 37.1855 56.354 38.2866C55.0613 35.3742 54.0889 31.6805 55.4144 29.9477ZM76.2121 142.323C76.2041 142.333 75.3554 143.306 71.0003 143.306C66.6449 143.306 65.7965 142.333 65.7887 142.323C65.2448 141.66 65.8996 138.382 66.2519 136.621C66.3927 135.915 66.5339 135.201 66.6618 134.48C68.099 134.625 69.5459 134.702 71.0005 134.702C72.4552 134.702 73.9024 134.625 75.3396 134.48C75.4674 135.201 75.6086 135.915 75.7492 136.621C76.1009 138.382 76.756 141.66 76.2121 142.323ZM100.003 111.99C91.9797 121.03 81.6797 126.009 71.0003 126.009C60.3209 126.009 50.0209 121.03 41.9973 111.99C34.2031 103.207 29.7332 91.7926 29.7332 80.6705C29.7332 70.1048 33.8062 61.1622 41.5117 54.8085C48.9403 48.6834 59.4128 45.31 71.0005 45.31C82.588 45.31 93.0607 48.6836 100.489 54.8085C108.195 61.1619 112.268 70.1048 112.268 80.6705C112.267 91.7923 107.797 103.208 100.003 111.99Z" fill="#00B2FF"/>
    <path d="M71.0002 70.8752L50.2791 89.5102L71.0002 122.415L91.7214 89.5102L71.0002 70.8752ZM61.5392 91.0764L71.0002 82.5681L80.4613 91.0764L71.0002 106.1L61.5392 91.0764Z" fill="#00B2FF"/>
    <path d="M48.9413 67.2556C45.7962 67.2556 43.2366 69.8413 43.2366 73.0341C43.2366 76.2266 45.7962 78.8145 48.9413 78.8145C52.0908 78.8145 54.6495 76.2266 54.6495 73.0341C54.6495 69.841 52.0905 67.2556 48.9413 67.2556Z" fill="#00B2FF"/>
    <path d="M93.0157 67.2107C89.8401 67.2107 87.2642 69.818 87.2642 73.0344C87.2642 76.2507 89.8401 78.858 93.0157 78.858C96.1874 78.858 98.7634 76.2507 98.7634 73.0344C98.7637 69.8177 96.1877 67.2107 93.0157 67.2107Z" fill="#00B2FF"/>
    <defs>
        <filter id="filter0_f_0_1" x="-10" y="0" width="162" height="162" filterUnits="userSpaceOnUse" color-interpolation-filters="sRGB">
            <feFlood flood-opacity="0" result="BackgroundImageFix"/>
            <feBlend mode="normal" in="SourceGraphic" in2="BackgroundImageFix" result="shape"/>
            <feGaussianBlur stdDeviation="5" result="effect1_foregroundBlur_0_1"/>
        </filter>
    </defs>
</svg>
