<svg width="184" height="37" viewBox="0 0 184 37" fill="none" xmlns="http://www.w3.org/2000/svg">
<path d="M64.0798 11.766C63.1928 11.766 62.3963 11.9289 61.6722 12.2367C60.9482 12.5444 60.3508 12.9607 59.8983 13.4857H59.7716V5.55713H55.4814V27.9308C56.0788 28.2205 56.9477 28.4739 58.1243 28.7092C59.2828 28.9445 60.5861 29.0531 61.98 29.0531C64.5323 29.0531 66.5416 28.2748 68.0078 26.7361C69.4741 25.1975 70.1981 22.9348 70.1981 19.9661C70.1981 17.1965 69.6732 15.1329 68.6233 13.7753C67.5734 12.4358 66.0709 11.766 64.0798 11.766ZM64.8581 24.1657C64.2608 25.0165 63.3738 25.4328 62.1972 25.4328C61.7265 25.4328 61.2921 25.3966 60.8939 25.3423C60.4775 25.2699 60.1155 25.1613 59.7535 24.9802V17.7758C60.025 16.9974 60.4051 16.4181 60.8939 16.0018C61.3826 15.6036 62.0343 15.3863 62.8307 15.3863C64.7857 15.3863 65.7632 16.9612 65.7632 20.1109C65.7632 21.9573 65.4736 23.3149 64.8581 24.1657Z" fill="white"/>
<path d="M75.5745 5.19531C74.7418 5.19531 74.0902 5.41254 73.6195 5.86508C73.1489 6.31762 72.9136 6.86067 72.9136 7.49423C72.9136 8.12779 73.1489 8.67084 73.6195 9.08718C74.0902 9.52162 74.7418 9.73884 75.5745 9.73884C76.4072 9.73884 77.0951 9.52162 77.6019 9.08718C78.1269 8.65274 78.3803 8.12779 78.3803 7.49423C78.3803 6.86067 78.1269 6.31762 77.6019 5.86508C77.077 5.43064 76.4072 5.19531 75.5745 5.19531Z" fill="#FF00FF"/>
<path d="M77.8189 12.1641H73.5288V28.6728H77.8189V12.1641Z" fill="white"/>
<path d="M91.3772 25.0529C90.8703 25.2339 90.2548 25.3244 89.5308 25.3244C88.8791 25.3244 88.2999 25.1977 87.793 24.9443C87.3043 24.6909 86.8879 24.3469 86.5802 23.9125C86.2725 23.4781 86.0371 22.9531 85.8923 22.3557C85.7294 21.7584 85.657 21.1067 85.657 20.4008C85.657 18.6811 85.9647 17.4321 86.5802 16.6537C87.1957 15.8753 88.1007 15.4771 89.2955 15.4771C89.929 15.4771 90.5083 15.5495 90.997 15.6762C91.4858 15.8029 91.9926 16.0021 92.4995 16.2374L93.5312 12.7437C92.9339 12.436 92.2641 12.1826 91.5401 11.9835C90.7979 11.7844 89.8204 11.6938 88.6257 11.6938C86.2363 11.6938 84.408 12.4541 83.1409 13.9566C81.8919 15.459 81.2583 17.6131 81.2583 20.4008C81.2583 21.7041 81.385 22.8807 81.6384 23.9668C81.8919 25.0529 82.3082 25.958 82.8694 26.7183C83.4486 27.4785 84.1908 28.0578 85.0959 28.4922C86.0009 28.9086 87.1233 29.1258 88.4447 29.1258C89.4403 29.1258 90.3997 28.9991 91.3409 28.7456C92.2822 28.4922 93.0787 28.1302 93.7304 27.6414L92.7348 24.3831C92.3365 24.6366 91.884 24.8719 91.3772 25.0529Z" fill="white"/>
<path d="M109.443 13.1236C109.008 12.6168 108.483 12.2547 107.85 12.0375C107.216 11.8203 106.474 11.7117 105.641 11.7117C104.446 11.7117 103.469 11.9289 102.709 12.3452C101.93 12.7616 101.297 13.3227 100.754 14.0287H100.627V5.5752H96.3369V28.673H100.627V18.1378C100.826 17.3594 101.224 16.7439 101.84 16.2371C102.437 15.7483 103.107 15.4949 103.831 15.4949C104.827 15.4949 105.496 15.7845 105.877 16.3819C106.257 16.9793 106.438 17.9387 106.438 19.2782V28.6549H110.728V18.3912C110.728 17.1241 110.619 16.038 110.42 15.1691C110.203 14.3183 109.877 13.6304 109.443 13.1236Z" fill="white"/>
<path d="M127.164 14.1014C126.53 13.3411 125.716 12.7618 124.756 12.3274C123.779 11.9111 122.638 11.6938 121.317 11.6938C118.855 11.6938 116.936 12.4541 115.579 13.9566C114.221 15.459 113.533 17.6131 113.533 20.4008C113.533 21.7041 113.696 22.8807 114.004 23.9668C114.33 25.0529 114.8 25.958 115.452 26.7183C116.104 27.4785 116.9 28.0578 117.878 28.4922C118.837 28.9086 119.996 29.1258 121.317 29.1258C123.779 29.1258 125.698 28.3655 127.037 26.8631C128.395 25.3606 129.064 23.2065 129.064 20.4189C129.064 19.1155 128.902 17.9389 128.594 16.8528C128.268 15.7667 127.797 14.8616 127.164 14.1014ZM123.815 24.2745C123.272 25.0891 122.421 25.4873 121.299 25.4873C120.701 25.4873 120.195 25.3606 119.76 25.1072C119.326 24.8538 118.982 24.4917 118.728 24.0392C118.457 23.5686 118.258 23.0436 118.131 22.4282C118.004 21.8127 117.932 21.1429 117.932 20.4189C117.932 18.6087 118.222 17.3235 118.819 16.527C119.416 15.7305 120.231 15.3323 121.299 15.3323C122.512 15.3323 123.362 15.8029 123.869 16.7261C124.376 17.6674 124.63 18.8802 124.63 20.4008C124.648 22.1747 124.376 23.46 123.815 24.2745Z" fill="white"/>
<path d="M133.862 23.9849C133.065 23.9849 132.432 24.2021 131.943 24.6546C131.454 25.1072 131.219 25.7226 131.219 26.4829C131.219 27.2613 131.454 27.8767 131.943 28.3293C132.432 28.7999 133.065 29.0171 133.862 29.0171C134.694 29.0171 135.364 28.7818 135.835 28.3293C136.323 27.8586 136.559 27.2432 136.559 26.4829C136.559 25.7045 136.323 25.1072 135.835 24.6546C135.346 24.2021 134.694 23.9849 133.862 23.9849Z" fill="#00FFFF"/>
<path d="M148.434 11.766C147.547 11.766 146.75 11.9289 146.026 12.2367C145.302 12.5444 144.705 12.9607 144.252 13.4857H144.126V5.55713H139.835V27.9308C140.433 28.2205 141.302 28.4739 142.478 28.7092C143.637 28.9445 144.94 29.0531 146.334 29.0531C148.886 29.0531 150.896 28.2748 152.362 26.7361C153.828 25.1975 154.552 22.9348 154.552 19.9661C154.552 17.1965 154.027 15.1329 152.977 13.7753C151.927 12.4358 150.425 11.766 148.434 11.766ZM149.212 24.1657C148.615 25.0165 147.728 25.4328 146.551 25.4328C146.081 25.4328 145.646 25.3966 145.248 25.3423C144.85 25.2699 144.469 25.1613 144.107 24.9802V17.7758C144.379 16.9974 144.759 16.4181 145.248 16.0018C145.737 15.6036 146.388 15.3863 147.185 15.3863C149.14 15.3863 150.117 16.9612 150.117 20.1109C150.117 21.9573 149.828 23.3149 149.212 24.1657Z" fill="white"/>
<path d="M169.196 13.1238C168.58 12.617 167.874 12.255 167.078 12.0377C166.281 11.8205 165.467 11.7119 164.634 11.7119C162.118 11.7119 160.181 12.436 158.787 13.8841C157.393 15.3323 156.706 17.5226 156.706 20.4188C156.706 23.1341 157.321 25.252 158.552 26.8087C159.783 28.3655 161.738 29.1438 164.399 29.1438C165.666 29.1438 166.879 28.9628 168.019 28.6008C169.16 28.2388 170.047 27.7862 170.716 27.2613L169.304 24.4555C168.924 24.7451 168.381 25.0167 167.675 25.2882C166.969 25.5597 166.155 25.7045 165.25 25.7045C163.801 25.7045 162.752 25.3606 162.1 24.6546C161.448 23.9487 161.104 22.8988 161.032 21.523H170.897C171.006 20.9438 171.096 20.4007 171.151 19.8758C171.205 19.3508 171.241 18.844 171.241 18.3914C171.241 17.1243 171.06 16.0563 170.68 15.1874C170.318 14.3005 169.811 13.6307 169.196 13.1238ZM167.259 18.8259H161.159C161.267 17.7036 161.593 16.7985 162.118 16.1287C162.661 15.459 163.476 15.115 164.598 15.115C165.557 15.115 166.263 15.4409 166.716 16.0744C167.168 16.7261 167.349 17.6493 167.259 18.8259Z" fill="white"/>
<path d="M182.99 24.7992C182.591 24.9802 182.229 25.1069 181.922 25.1974C181.596 25.2879 181.216 25.3241 180.781 25.3241C180.148 25.3241 179.713 25.0707 179.478 24.582C179.243 24.0932 179.134 23.2605 179.134 22.1201V15.7845H183.152V12.1642H179.134V7.83789L174.844 9.0507V12.1642H172.563V15.7845H174.844V24.1113C174.844 25.8853 175.206 27.1705 175.912 27.9489C176.618 28.7273 177.74 29.1255 179.261 29.1255C180.075 29.1255 180.872 29.035 181.668 28.8359C182.465 28.6367 183.152 28.4014 183.75 28.1118L182.99 24.7992Z" fill="white"/>
<path d="M39.6427 7.29499C36.2939 2.84197 31.0263 0 24.9441 0C18.9706 0 13.5944 2.93248 10.3361 7.4036C4.56163 7.71133 0 12.4721 0 18.3551C0 24.2382 4.56163 28.9989 10.3361 29.3067C13.6849 33.7597 18.9525 36.7102 24.9441 36.7102C30.9177 36.7102 36.2939 33.7778 39.5522 29.3067C45.3266 28.9989 49.8883 24.2382 49.8883 18.3551C49.9969 12.3635 45.4353 7.60272 39.6427 7.29499ZM24.9441 1.81017C29.904 1.81017 34.2665 4.03668 37.3076 7.3855C37.8144 7.89234 38.2127 8.5078 38.629 9.10516C39.2445 10.0102 39.7513 11.0239 40.2582 12.1462L38.4299 13.2685C38.0317 11.8566 37.3076 10.6257 36.2939 9.612C35.7871 9.10516 35.1716 8.70692 34.5742 8.29058C33.3614 7.67512 32.04 7.27689 30.5195 7.27689C28.4921 7.27689 26.5733 7.98285 25.1433 9.19567C23.7313 7.98285 21.7944 7.27689 19.7671 7.27689C18.2465 7.27689 16.8346 7.67513 15.6037 8.39919C14.9882 8.70692 14.3908 9.21377 13.884 9.72062C12.8703 10.6257 12.1643 11.8566 11.8566 13.1599L9.82922 12.0376C10.2275 11.0239 10.7343 10.1189 11.3498 9.30428C11.748 8.68882 12.1643 8.09146 12.6712 7.58462C15.6218 3.94617 20.0748 1.81017 24.9441 1.81017ZM1.82827 18.2465C1.82827 13.884 4.97797 10.2456 9.03275 9.32238C7.5122 11.9652 6.69763 15.0063 6.69763 18.2465C6.69763 21.4867 7.5122 24.5278 9.03275 27.1707C4.86936 26.3561 1.82827 22.609 1.82827 18.2465ZM12.5807 29.0894C12.0738 28.5826 11.6756 27.9671 11.2593 27.3698C9.53959 24.7269 8.5259 21.5953 8.5259 18.2465C8.5259 16.6174 8.72502 15.0968 9.23187 13.5763L11.567 14.8977C11.567 14.8977 11.567 14.8977 11.567 15.0063C11.567 15.314 11.567 15.6218 11.6756 16.02V16.1286C11.8747 17.9569 12.7979 19.4774 13.9021 20.5816L14.8072 18.862L18.2465 12.7798L19.0611 11.4584C18.6629 11.4584 18.2465 11.4584 17.7397 11.4584C17.5405 11.4584 17.3414 11.4584 17.0337 11.4584C16.1286 11.4584 15.2054 11.4584 14.4995 11.567C14.8072 11.1688 15.2054 10.7524 15.6218 10.4447C16.1286 10.0464 16.7441 9.73872 17.45 9.43099C18.156 9.23187 18.862 9.03275 19.6765 9.03275C21.3057 9.03275 22.8262 9.64821 23.9304 10.5533L25.1433 11.567L26.3561 10.5533C27.4784 9.64821 28.9989 9.03275 30.61 9.03275C31.3159 9.03275 32.0219 9.14136 32.6374 9.34048C33.3433 9.5396 33.9588 9.84733 34.4656 10.3542C34.9725 10.7524 35.3707 11.1688 35.6784 11.567C35.063 11.4584 34.357 11.4584 33.5424 11.4584L29.8859 17.8483L28.3654 20.4911C29.0713 21.1066 29.7773 21.5048 30.5919 21.8125C31.0987 22.0117 31.7142 22.0117 32.221 22.0117C32.4201 22.0117 32.7279 22.0117 32.927 22.0117L33.0356 22.3194C33.3433 23.134 33.4338 24.0391 33.4338 24.9622C33.4338 25.1614 33.4338 25.3605 33.4338 25.4691C33.4338 26.1751 33.2347 26.7905 33.0356 27.3879C31.9133 30.6281 28.7817 33.0718 24.926 33.0718C21.0704 33.0718 17.9388 30.6462 16.8165 27.3879C16.6174 26.7724 16.5087 26.0665 16.4182 25.4691C16.4182 25.27 16.4182 25.0709 16.4182 24.9622C16.4182 23.9486 16.6174 23.0435 16.9251 22.2289L17.0337 22.0298C17.3414 22.0298 17.5405 22.1384 17.8483 22.1384C18.3551 22.1384 18.862 22.0298 19.3688 21.9393C20.2739 21.7401 20.998 21.2333 21.7039 20.6178C22.9167 19.4955 23.8399 17.8845 24.0391 16.0562H26.0664C26.1751 17.1785 26.5733 18.2827 27.0801 19.2059L28.0938 17.4862L28.9084 16.0743L29.9221 14.246L31.4426 11.6032C31.0444 11.6032 30.7367 11.6032 30.3203 11.6032C28.0938 11.6032 26.3742 11.9109 25.9578 14.246H23.9304C23.6227 12.5264 22.609 11.9109 21.0885 11.7118L20.473 12.8341L19.3507 14.7529L16.201 20.1291L15.4951 21.3419L14.9882 22.3556C14.6805 23.3693 14.59 23.8761 14.59 24.9985C14.59 25.5053 14.6986 26.1208 14.6986 26.6276C14.8072 27.2431 15.0063 27.8404 15.2054 28.4559C16.2191 31.0987 18.2465 33.1261 20.7808 34.2303C17.6492 33.3433 14.8072 31.5151 12.5807 29.0894ZM29.1075 34.1579C31.7504 33.0356 33.7778 30.9177 34.6829 28.3835C34.882 27.768 35.0811 27.1707 35.1897 26.5552C35.2983 26.0483 35.2983 25.5415 35.2983 24.926C35.2983 23.8037 35.0992 22.6995 34.6829 21.6858C37.018 20.3644 38.5385 17.9388 38.5385 15.2054L40.765 13.884C41.1633 15.2959 41.3805 16.726 41.3805 18.2465C41.3805 21.5953 40.3668 24.7269 38.6471 27.3698C38.2489 27.9852 37.8325 28.5826 37.3257 29.0894C35.1897 31.5151 32.3477 33.3433 29.1075 34.1579ZM40.9641 27.1707C42.4847 24.5278 43.2993 21.4867 43.2993 18.2465C43.2993 15.0063 42.4847 11.9652 40.9641 9.32238C45.1275 10.2275 48.1686 13.884 48.1686 18.2465C48.1686 22.609 45.1275 26.3561 40.9641 27.1707Z" fill="white"/>
<path d="M27.3879 27.5686C26.8811 27.9668 25.976 28.2745 25.0528 28.2745C24.1477 28.2745 23.2245 27.9668 22.7177 27.5686C22.4099 27.3695 22.2108 27.1703 22.1022 26.9531H20.2739C20.5817 28.5823 22.6091 29.8856 25.0347 29.8856C27.4603 29.8856 29.4877 28.6728 29.7954 26.9531H27.9671C27.8947 27.1703 27.6775 27.3695 27.3879 27.5686Z" fill="white"/>
</svg>
