<svg width="162" height="150" viewBox="0 0 162 150" fill="none" xmlns="http://www.w3.org/2000/svg">
    <g clip-path="url(#clip0_0_1)" filter="url(#filter0_f_0_1)">
        <path d="M151.458 81.6976L127.189 47.5546C128.032 46.6419 128.843 45.6911 129.605 44.7024C138.806 32.7628 132.928 13.4813 132.674 12.6659C132.306 11.4899 131.241 10.6696 130.011 10.6133C129.158 10.5753 109.013 9.7962 99.8119 21.7358C99.0911 22.6708 98.4158 23.6384 97.7804 24.6241C92.3004 22.97 86.5457 22.1011 80.9997 22.1011C75.4531 22.1011 69.6985 22.97 64.2187 24.6241C63.5833 23.6381 62.908 22.6705 62.1878 21.7361C52.9869 9.79703 32.8406 10.5736 31.9889 10.6138C30.7578 10.6698 29.6936 11.4905 29.3261 12.6664C29.0715 13.4815 23.1938 32.763 32.3966 44.7052C33.164 45.6986 33.9741 46.6477 34.8112 47.5538L10.5419 81.6976C9.94285 82.5404 9.83219 83.6365 10.2513 84.5822C10.6703 85.5277 11.5567 86.1822 12.5834 86.3042L21.2041 87.3304C19.5747 93.0556 18.6689 97.1148 18.1805 99.6406C17.5407 102.948 17.4383 104.498 17.4289 104.664C17.3643 105.787 17.9484 106.848 18.9318 107.393C19.9153 107.939 21.1245 107.874 22.0436 107.225L25.1543 105.029C24.2069 109.731 23.5577 115.791 24.7208 121.304C24.8884 122.1 25.3793 122.789 26.0754 123.209C26.5363 123.486 27.0597 123.629 27.588 123.629C27.8573 123.629 28.128 123.592 28.3923 123.517C28.8549 123.385 38.616 120.585 44.1152 118.012C45.8514 119.219 47.9032 120.116 50.2356 120.695V121.189C50.2356 131.235 58.4092 139.409 68.4557 139.409H80.998C80.9989 139.409 80.9997 139.409 81.0011 139.409C81.0022 139.409 81.0028 139.409 81.0042 139.409H93.5467C103.593 139.409 111.767 131.235 111.767 121.189V120.7C114.129 120.116 116.157 119.228 117.889 118.016C119.999 119.007 122.964 120.136 126.743 121.386C130.414 122.601 133.479 123.48 133.608 123.517C133.872 123.593 134.143 123.63 134.414 123.63C134.941 123.63 135.464 123.487 135.925 123.21C136.622 122.79 137.112 122.1 137.281 121.304C138.443 115.791 137.794 109.731 136.847 105.029L139.958 107.225C140.878 107.875 142.088 107.94 143.071 107.393C144.055 106.846 144.639 105.784 144.572 104.66C144.559 104.434 144.229 99.3841 140.798 87.3304L149.418 86.3042C150.445 86.1819 151.331 85.5277 151.751 84.5822C152.167 83.6365 152.057 82.5404 151.458 81.6976ZM104.453 25.3136C110.267 17.769 122.652 16.6225 127.619 16.4744C128.747 21.3123 130.798 33.5554 124.964 41.1266C124.653 41.5299 124.331 41.924 124.005 42.3134C121.13 38.2861 117.276 34.6468 112.707 31.5976C116.309 26.9435 119.838 25.4237 120.736 25.5588C122.013 26.4776 123.798 26.223 124.766 24.9666C125.753 23.6845 125.514 21.8451 124.232 20.8578C119.844 17.4781 112.758 21.928 108.031 28.0648C107.893 28.2426 107.759 28.4234 107.625 28.6045C106.281 27.9092 104.893 27.2614 103.466 26.6645C103.785 26.2083 104.112 25.7559 104.453 25.3136ZM34.3854 16.4708C39.3521 16.6111 51.7136 17.744 57.5472 25.3139C57.8884 25.7559 58.2142 26.2083 58.5337 26.6648C57.1063 27.2616 55.7184 27.9098 54.3744 28.6048C54.2421 28.4259 54.1093 28.247 53.9734 28.0715C49.2422 21.9283 42.1561 17.4775 37.7676 20.8581C36.4858 21.8454 36.2467 23.6847 37.234 24.9669C38.2011 26.2227 39.9869 26.4779 41.2641 25.559C42.1627 25.4193 45.6877 26.9427 49.2924 31.5976C44.7234 34.6468 40.8689 38.2858 37.9945 42.3111C37.6686 41.9234 37.3477 41.5299 37.036 41.1261C31.2221 33.5815 33.2644 21.3118 34.3854 16.4708ZM93.5451 133.55H81.0028C81.0019 133.55 81.0011 133.55 80.9997 133.55C80.9986 133.55 80.998 133.55 80.9969 133.55H68.4546C61.7446 133.55 56.2701 128.175 56.1017 121.504C56.9379 121.546 57.8224 121.567 58.7803 121.567C59.0174 121.567 59.2535 121.538 59.4834 121.482L66.5265 119.741V125.789C66.5265 127.407 67.8381 128.719 69.4564 128.719C71.0744 128.719 72.3862 127.407 72.3862 125.789V118.292L81 116.162L89.6134 118.292V125.789C89.6134 127.407 90.9253 128.719 92.5433 128.719C94.1613 128.719 95.4732 127.407 95.4732 125.789V119.74L102.516 121.481C102.746 121.538 102.983 121.567 103.219 121.567C104.177 121.567 105.061 121.545 105.898 121.504C105.729 128.174 100.255 133.55 93.5451 133.55ZM75.4359 89.4452C75.4359 88.3483 75.6628 88.2606 75.9764 88.1397C76.9613 87.7595 78.9008 87.7592 80.7778 87.7606H81.2216C83.1031 87.7606 85.0378 87.7598 86.023 88.1397C86.3366 88.2606 86.5635 88.3483 86.5635 89.4452C86.5635 90.8752 83.83 93.158 81.0022 94.6723C78.3805 93.2567 75.4359 90.9425 75.4359 89.4452ZM125.632 78.6315C124.014 78.6315 122.702 79.9434 122.702 81.5614C122.702 83.1794 124.014 84.4912 125.632 84.4912H134.105C134.059 84.8842 134.089 85.2867 134.205 85.6747C135.847 91.137 136.898 95.316 137.568 98.367L133.571 95.5453C132.521 94.8043 131.113 94.834 130.095 95.6161C129.077 96.399 128.688 97.753 129.134 98.9569C129.173 99.0618 132.575 108.372 131.979 116.911C130.975 116.599 129.809 116.23 128.582 115.824C126.252 115.053 124.223 114.32 122.576 113.658C126.643 108.733 127.157 103.744 127.181 103.49C127.33 101.879 126.144 100.452 124.533 100.303C122.92 100.156 121.495 101.34 121.346 102.951C121.342 103.003 120.733 108.182 115.695 112.265C115.68 112.277 115.667 112.291 115.652 112.304C115.617 112.334 115.581 112.362 115.546 112.395C113.869 113.952 111.535 114.932 108.414 115.39C107.007 115.594 105.461 115.696 103.572 115.707L83.9298 110.851V99.7524C86.987 98.1005 92.4232 94.4593 92.4232 89.4454C92.4232 85.2162 90.0899 83.4285 88.1327 82.6733C86.1283 81.8997 83.7443 81.9061 81.2205 81.9011H80.7795C78.2601 81.9028 75.8713 81.9 73.8673 82.6733C71.9098 83.4285 69.5767 85.2165 69.5767 89.4454C69.5767 94.4593 75.013 98.1005 78.0701 99.7524V110.851L58.4281 115.707C56.5396 115.696 54.9932 115.594 53.5882 115.39C53.0019 115.304 52.4377 115.199 51.9122 115.077C49.6113 114.545 47.8255 113.667 46.4515 112.393C46.4169 112.361 46.3803 112.332 46.3445 112.302C46.3306 112.29 46.3184 112.277 46.3043 112.266C41.2766 108.191 40.6742 103.142 40.6531 102.952C40.5042 101.341 39.0784 100.159 37.4664 100.304C35.8551 100.453 34.6697 101.879 34.8186 103.49C34.8422 103.745 35.3561 108.734 39.4239 113.659C36.5218 114.822 32.8531 116.034 30.0223 116.912C29.4329 108.394 32.8279 99.0598 32.8659 98.9567C33.3121 97.7527 32.9224 96.3987 31.9046 95.6158C30.8867 94.8331 29.4778 94.8043 28.4289 95.5451L24.428 98.3695C25.0761 95.4244 26.1234 91.2329 27.7944 85.6738C27.9108 85.2858 27.9411 84.8834 27.8953 84.4904H36.3679C37.9859 84.4904 39.2977 83.1786 39.2977 81.5606C39.2977 79.9428 37.9862 78.6307 36.3679 78.6307H19.9106L23.6048 73.4336H39.2975C40.9155 73.4336 42.2273 72.1217 42.2273 70.5037C42.2273 68.8857 40.9158 67.5738 39.2975 67.5738H27.7694L31.4636 62.3764H42.2273C43.8453 62.3764 45.1572 61.0646 45.1572 59.4466C45.1572 57.8285 43.8456 56.5167 42.2273 56.5167H35.6285L39.9392 50.4517C40.0751 50.2806 40.1927 50.0934 40.2887 49.8921C40.52 49.4075 40.7599 48.9413 41.0051 48.499C45.1957 40.8898 53.5316 34.4726 63.8765 30.8924C68.4624 29.3023 73.3148 28.3361 78.0696 28.051V34.0835H70.4434C68.8254 34.0835 67.5136 35.3953 67.5136 37.0133C67.5136 38.6314 68.8251 39.9432 70.4434 39.9432H78.0696V44.9473H74.4455C72.8275 44.9473 71.5157 46.2591 71.5157 47.8772C71.5157 49.4952 72.8272 50.807 74.4455 50.807H78.0696V55.1635C78.0696 56.7813 79.3811 58.0934 80.9994 58.0934C82.6172 58.0934 83.9293 56.7816 83.9293 55.1635V50.807H87.5506C89.1683 50.807 90.4804 49.4952 90.4804 47.8772C90.4804 46.2591 89.1686 44.9473 87.5506 44.9473H83.9293V39.9432H91.5526C93.1704 39.9432 94.4825 38.6314 94.4825 37.0133C94.4825 35.3953 93.1707 34.0835 91.5526 34.0835H83.9293V28.0521C88.6843 28.3372 93.5365 29.3037 98.1237 30.894C108.469 34.4745 116.805 40.8925 120.999 48.5128C121.244 48.9552 121.484 49.42 121.711 49.8943C121.806 50.0929 121.922 50.2781 122.055 50.447L126.371 56.5181H119.772C118.154 56.5181 116.842 57.8299 116.842 59.4479C116.842 61.066 118.154 62.3778 119.772 62.3778H130.536L134.23 67.5752H122.702C121.084 67.5752 119.772 68.8871 119.772 70.5051C119.772 72.1231 121.084 73.4349 122.702 73.4349H138.395L142.089 78.6321H125.632V78.6315Z" fill="#00B2FF"/>
        <path d="M99.9409 60.6277C93.7001 60.6277 88.6228 65.7047 88.6228 71.9452C88.6228 73.563 89.9346 74.8751 91.5527 74.8751C93.1704 74.8751 94.4825 73.5633 94.4825 71.9452C94.4825 68.9358 96.9312 66.4871 99.9409 66.4871C102.949 66.4871 105.396 68.9355 105.396 71.9452C105.396 73.563 106.708 74.8751 108.326 74.8751C109.944 74.8751 111.256 73.5633 111.256 71.9452C111.255 65.7047 106.18 60.6277 99.9409 60.6277Z" fill="#00B2FF"/>
        <path d="M105.718 92.4421H104.719C103.101 92.4421 101.789 93.754 101.789 95.372C101.789 96.9897 103.101 98.3019 104.719 98.3019H105.718C107.336 98.3019 108.648 96.99 108.648 95.372C108.648 93.7543 107.336 92.4421 105.718 92.4421Z" fill="#00B2FF"/>
        <path d="M99.0943 101.902H98.0922C96.4745 101.902 95.1624 103.214 95.1624 104.832C95.1624 106.45 96.4742 107.762 98.0922 107.762H99.0943C100.712 107.762 102.024 106.45 102.024 104.832C102.024 103.214 100.712 101.902 99.0943 101.902Z" fill="#00B2FF"/>
        <path d="M112.345 101.902H111.343C109.726 101.902 108.414 103.214 108.414 104.832C108.414 106.45 109.725 107.762 111.343 107.762H112.345C113.963 107.762 115.275 106.45 115.275 104.832C115.275 103.214 113.964 101.902 112.345 101.902Z" fill="#00B2FF"/>
        <path d="M62.0589 60.6277C55.8201 60.6277 50.7441 65.7047 50.7441 71.9452C50.7441 73.563 52.0557 74.8751 53.674 74.8751C55.2923 74.8751 56.6039 73.5633 56.6039 71.9452C56.6039 68.9358 59.0511 66.4871 62.0592 66.4871C65.0687 66.4871 67.5173 68.9355 67.5173 71.9452C67.5173 73.563 68.8289 74.8751 70.4472 74.8751C72.0652 74.8751 73.3771 73.5633 73.3771 71.9452C73.3768 65.7047 68.2997 60.6277 62.0589 60.6277Z" fill="#00B2FF"/>
        <path d="M57.2804 92.4421H56.2814C54.6634 92.4421 53.3516 93.754 53.3516 95.372C53.3516 96.9897 54.6631 98.3019 56.2814 98.3019H57.2804C58.8984 98.3019 60.2103 96.99 60.2103 95.372C60.2103 93.7543 58.8984 92.4421 57.2804 92.4421Z" fill="#00B2FF"/>
        <path d="M63.9075 101.902H62.9054C61.2874 101.902 59.9756 103.214 59.9756 104.832C59.9756 106.45 61.2871 107.762 62.9054 107.762H63.9075C65.5255 107.762 66.8373 106.45 66.8373 104.832C66.8373 103.214 65.5255 101.902 63.9075 101.902Z" fill="#00B2FF"/>
        <path d="M50.6563 101.902H49.6542C48.0362 101.902 46.7244 103.214 46.7244 104.832C46.7244 106.45 48.0359 107.762 49.6542 107.762H50.6563C52.2743 107.762 53.5861 106.45 53.5861 104.832C53.5859 103.214 52.2743 101.902 50.6563 101.902Z" fill="#00B2FF"/>
        <path d="M81.0029 60.3035C79.3848 60.3035 78.073 61.6153 78.073 63.2333V64.4542C78.073 66.0719 79.3846 67.3841 81.0029 67.3841C82.6206 67.3841 83.9327 66.0722 83.9327 64.4542V63.2333C83.9327 61.615 82.6206 60.3035 81.0029 60.3035Z" fill="#00B2FF"/>
    </g>
    <g clip-path="url(#clip1_0_1)">
        <path d="M151.458 81.6976L127.189 47.5546C128.032 46.6419 128.843 45.6911 129.605 44.7024C138.806 32.7628 132.928 13.4813 132.674 12.6659C132.306 11.4899 131.241 10.6696 130.011 10.6133C129.158 10.5753 109.013 9.7962 99.8119 21.7358C99.0911 22.6708 98.4158 23.6384 97.7804 24.6241C92.3004 22.97 86.5457 22.1011 80.9997 22.1011C75.4531 22.1011 69.6985 22.97 64.2187 24.6241C63.5833 23.6381 62.908 22.6705 62.1878 21.7361C52.9869 9.79703 32.8406 10.5736 31.9889 10.6138C30.7578 10.6698 29.6936 11.4905 29.3261 12.6664C29.0715 13.4815 23.1938 32.763 32.3966 44.7052C33.164 45.6986 33.9741 46.6477 34.8112 47.5538L10.5419 81.6976C9.94285 82.5404 9.83219 83.6365 10.2513 84.5822C10.6703 85.5277 11.5567 86.1822 12.5834 86.3042L21.2041 87.3304C19.5747 93.0556 18.6689 97.1148 18.1805 99.6406C17.5407 102.948 17.4383 104.498 17.4289 104.664C17.3643 105.787 17.9484 106.848 18.9318 107.393C19.9153 107.939 21.1245 107.874 22.0436 107.225L25.1543 105.029C24.2069 109.731 23.5577 115.791 24.7208 121.304C24.8884 122.1 25.3793 122.789 26.0754 123.209C26.5363 123.486 27.0597 123.629 27.588 123.629C27.8573 123.629 28.128 123.592 28.3923 123.517C28.8549 123.385 38.616 120.585 44.1152 118.012C45.8514 119.219 47.9032 120.116 50.2356 120.695V121.189C50.2356 131.235 58.4092 139.409 68.4557 139.409H80.998C80.9989 139.409 80.9997 139.409 81.0011 139.409C81.0022 139.409 81.0028 139.409 81.0042 139.409H93.5467C103.593 139.409 111.767 131.235 111.767 121.189V120.7C114.129 120.116 116.157 119.228 117.889 118.016C119.999 119.007 122.964 120.136 126.743 121.386C130.414 122.601 133.479 123.48 133.608 123.517C133.872 123.593 134.143 123.63 134.414 123.63C134.941 123.63 135.464 123.487 135.925 123.21C136.622 122.79 137.112 122.1 137.281 121.304C138.443 115.791 137.794 109.731 136.847 105.029L139.958 107.225C140.878 107.875 142.088 107.94 143.071 107.393C144.055 106.846 144.639 105.784 144.572 104.66C144.559 104.434 144.229 99.3841 140.798 87.3304L149.418 86.3042C150.445 86.1819 151.331 85.5277 151.751 84.5822C152.167 83.6365 152.057 82.5404 151.458 81.6976ZM104.453 25.3136C110.267 17.769 122.652 16.6225 127.619 16.4744C128.747 21.3123 130.798 33.5554 124.964 41.1266C124.653 41.5299 124.331 41.924 124.005 42.3134C121.13 38.2861 117.276 34.6468 112.707 31.5976C116.309 26.9435 119.838 25.4237 120.736 25.5588C122.013 26.4776 123.798 26.223 124.766 24.9666C125.753 23.6845 125.514 21.8451 124.232 20.8578C119.844 17.4781 112.758 21.928 108.031 28.0648C107.893 28.2426 107.759 28.4234 107.625 28.6045C106.281 27.9092 104.893 27.2614 103.466 26.6645C103.785 26.2083 104.112 25.7559 104.453 25.3136ZM34.3854 16.4708C39.3521 16.6111 51.7136 17.744 57.5472 25.3139C57.8884 25.7559 58.2142 26.2083 58.5337 26.6648C57.1063 27.2616 55.7184 27.9098 54.3744 28.6048C54.2421 28.4259 54.1093 28.247 53.9734 28.0715C49.2422 21.9283 42.1561 17.4775 37.7676 20.8581C36.4858 21.8454 36.2467 23.6847 37.234 24.9669C38.2011 26.2227 39.9869 26.4779 41.2641 25.559C42.1627 25.4193 45.6877 26.9427 49.2924 31.5976C44.7234 34.6468 40.8689 38.2858 37.9945 42.3111C37.6686 41.9234 37.3477 41.5299 37.036 41.1261C31.2221 33.5815 33.2644 21.3118 34.3854 16.4708ZM93.5451 133.55H81.0028C81.0019 133.55 81.0011 133.55 80.9997 133.55C80.9986 133.55 80.998 133.55 80.9969 133.55H68.4546C61.7446 133.55 56.2701 128.175 56.1017 121.504C56.9379 121.546 57.8224 121.567 58.7803 121.567C59.0174 121.567 59.2535 121.538 59.4834 121.482L66.5265 119.741V125.789C66.5265 127.407 67.8381 128.719 69.4564 128.719C71.0744 128.719 72.3862 127.407 72.3862 125.789V118.292L81 116.162L89.6134 118.292V125.789C89.6134 127.407 90.9253 128.719 92.5433 128.719C94.1613 128.719 95.4732 127.407 95.4732 125.789V119.74L102.516 121.481C102.746 121.538 102.983 121.567 103.219 121.567C104.177 121.567 105.061 121.545 105.898 121.504C105.729 128.174 100.255 133.55 93.5451 133.55ZM75.4359 89.4452C75.4359 88.3483 75.6628 88.2606 75.9764 88.1397C76.9613 87.7595 78.9008 87.7592 80.7778 87.7606H81.2216C83.1031 87.7606 85.0378 87.7598 86.023 88.1397C86.3366 88.2606 86.5635 88.3483 86.5635 89.4452C86.5635 90.8752 83.83 93.158 81.0022 94.6723C78.3805 93.2567 75.4359 90.9425 75.4359 89.4452ZM125.632 78.6315C124.014 78.6315 122.702 79.9434 122.702 81.5614C122.702 83.1794 124.014 84.4912 125.632 84.4912H134.105C134.059 84.8842 134.089 85.2867 134.205 85.6747C135.847 91.137 136.898 95.316 137.568 98.367L133.571 95.5453C132.521 94.8043 131.113 94.834 130.095 95.6161C129.077 96.399 128.688 97.753 129.134 98.9569C129.173 99.0618 132.575 108.372 131.979 116.911C130.975 116.599 129.809 116.23 128.582 115.824C126.252 115.053 124.223 114.32 122.576 113.658C126.643 108.733 127.157 103.744 127.181 103.49C127.33 101.879 126.144 100.452 124.533 100.303C122.92 100.156 121.495 101.34 121.346 102.951C121.342 103.003 120.733 108.182 115.695 112.265C115.68 112.277 115.667 112.291 115.652 112.304C115.617 112.334 115.581 112.362 115.546 112.395C113.869 113.952 111.535 114.932 108.414 115.39C107.007 115.594 105.461 115.696 103.572 115.707L83.9298 110.851V99.7524C86.987 98.1005 92.4232 94.4593 92.4232 89.4454C92.4232 85.2162 90.0899 83.4285 88.1327 82.6733C86.1283 81.8997 83.7443 81.9061 81.2205 81.9011H80.7795C78.2601 81.9028 75.8713 81.9 73.8673 82.6733C71.9098 83.4285 69.5767 85.2165 69.5767 89.4454C69.5767 94.4593 75.013 98.1005 78.0701 99.7524V110.851L58.4281 115.707C56.5396 115.696 54.9932 115.594 53.5882 115.39C53.0019 115.304 52.4377 115.199 51.9122 115.077C49.6113 114.545 47.8255 113.667 46.4515 112.393C46.4169 112.361 46.3803 112.332 46.3445 112.302C46.3306 112.29 46.3184 112.277 46.3043 112.266C41.2766 108.191 40.6742 103.142 40.6531 102.952C40.5042 101.341 39.0784 100.159 37.4664 100.304C35.8551 100.453 34.6697 101.879 34.8186 103.49C34.8422 103.745 35.3561 108.734 39.4239 113.659C36.5218 114.822 32.8531 116.034 30.0223 116.912C29.4329 108.394 32.8279 99.0598 32.8659 98.9567C33.3121 97.7527 32.9224 96.3987 31.9046 95.6158C30.8867 94.8331 29.4778 94.8043 28.4289 95.5451L24.428 98.3695C25.0761 95.4244 26.1234 91.2329 27.7944 85.6738C27.9108 85.2858 27.9411 84.8834 27.8953 84.4904H36.3679C37.9859 84.4904 39.2977 83.1786 39.2977 81.5606C39.2977 79.9428 37.9862 78.6307 36.3679 78.6307H19.9106L23.6048 73.4336H39.2975C40.9155 73.4336 42.2273 72.1217 42.2273 70.5037C42.2273 68.8857 40.9158 67.5738 39.2975 67.5738H27.7694L31.4636 62.3764H42.2273C43.8453 62.3764 45.1572 61.0646 45.1572 59.4466C45.1572 57.8285 43.8456 56.5167 42.2273 56.5167H35.6285L39.9392 50.4517C40.0751 50.2806 40.1927 50.0934 40.2887 49.8921C40.52 49.4075 40.7599 48.9413 41.0051 48.499C45.1957 40.8898 53.5316 34.4726 63.8765 30.8924C68.4624 29.3023 73.3148 28.3361 78.0696 28.051V34.0835H70.4434C68.8254 34.0835 67.5136 35.3953 67.5136 37.0133C67.5136 38.6314 68.8251 39.9432 70.4434 39.9432H78.0696V44.9473H74.4455C72.8275 44.9473 71.5157 46.2591 71.5157 47.8772C71.5157 49.4952 72.8272 50.807 74.4455 50.807H78.0696V55.1635C78.0696 56.7813 79.3811 58.0934 80.9994 58.0934C82.6172 58.0934 83.9293 56.7816 83.9293 55.1635V50.807H87.5506C89.1683 50.807 90.4804 49.4952 90.4804 47.8772C90.4804 46.2591 89.1686 44.9473 87.5506 44.9473H83.9293V39.9432H91.5526C93.1704 39.9432 94.4825 38.6314 94.4825 37.0133C94.4825 35.3953 93.1707 34.0835 91.5526 34.0835H83.9293V28.0521C88.6843 28.3372 93.5365 29.3037 98.1237 30.894C108.469 34.4745 116.805 40.8925 120.999 48.5128C121.244 48.9552 121.484 49.42 121.711 49.8943C121.806 50.0929 121.922 50.2781 122.055 50.447L126.371 56.5181H119.772C118.154 56.5181 116.842 57.8299 116.842 59.4479C116.842 61.066 118.154 62.3778 119.772 62.3778H130.536L134.23 67.5752H122.702C121.084 67.5752 119.772 68.8871 119.772 70.5051C119.772 72.1231 121.084 73.4349 122.702 73.4349H138.395L142.089 78.6321H125.632V78.6315Z" fill="#00B2FF"/>
        <path d="M99.9409 60.6277C93.7001 60.6277 88.6228 65.7047 88.6228 71.9452C88.6228 73.563 89.9346 74.8751 91.5527 74.8751C93.1704 74.8751 94.4825 73.5633 94.4825 71.9452C94.4825 68.9358 96.9312 66.4871 99.9409 66.4871C102.949 66.4871 105.396 68.9355 105.396 71.9452C105.396 73.563 106.708 74.8751 108.326 74.8751C109.944 74.8751 111.256 73.5633 111.256 71.9452C111.255 65.7047 106.18 60.6277 99.9409 60.6277Z" fill="#00B2FF"/>
        <path d="M105.718 92.4421H104.719C103.101 92.4421 101.789 93.754 101.789 95.372C101.789 96.9897 103.101 98.3019 104.719 98.3019H105.718C107.336 98.3019 108.648 96.99 108.648 95.372C108.648 93.7543 107.336 92.4421 105.718 92.4421Z" fill="#00B2FF"/>
        <path d="M99.0943 101.902H98.0922C96.4745 101.902 95.1624 103.214 95.1624 104.832C95.1624 106.45 96.4742 107.762 98.0922 107.762H99.0943C100.712 107.762 102.024 106.45 102.024 104.832C102.024 103.214 100.712 101.902 99.0943 101.902Z" fill="#00B2FF"/>
        <path d="M112.345 101.902H111.343C109.726 101.902 108.414 103.214 108.414 104.832C108.414 106.45 109.725 107.762 111.343 107.762H112.345C113.963 107.762 115.275 106.45 115.275 104.832C115.275 103.214 113.964 101.902 112.345 101.902Z" fill="#00B2FF"/>
        <path d="M62.0589 60.6277C55.8201 60.6277 50.7441 65.7047 50.7441 71.9452C50.7441 73.563 52.0557 74.8751 53.674 74.8751C55.2923 74.8751 56.6039 73.5633 56.6039 71.9452C56.6039 68.9358 59.0511 66.4871 62.0592 66.4871C65.0687 66.4871 67.5173 68.9355 67.5173 71.9452C67.5173 73.563 68.8289 74.8751 70.4472 74.8751C72.0652 74.8751 73.3771 73.5633 73.3771 71.9452C73.3768 65.7047 68.2997 60.6277 62.0589 60.6277Z" fill="#00B2FF"/>
        <path d="M57.2804 92.4421H56.2814C54.6634 92.4421 53.3516 93.754 53.3516 95.372C53.3516 96.9897 54.6631 98.3019 56.2814 98.3019H57.2804C58.8984 98.3019 60.2103 96.99 60.2103 95.372C60.2103 93.7543 58.8984 92.4421 57.2804 92.4421Z" fill="#00B2FF"/>
        <path d="M63.9075 101.902H62.9054C61.2874 101.902 59.9756 103.214 59.9756 104.832C59.9756 106.45 61.2871 107.762 62.9054 107.762H63.9075C65.5255 107.762 66.8373 106.45 66.8373 104.832C66.8373 103.214 65.5255 101.902 63.9075 101.902Z" fill="#00B2FF"/>
        <path d="M50.6563 101.902H49.6542C48.0362 101.902 46.7244 103.214 46.7244 104.832C46.7244 106.45 48.0359 107.762 49.6542 107.762H50.6563C52.2743 107.762 53.5861 106.45 53.5861 104.832C53.5859 103.214 52.2743 101.902 50.6563 101.902Z" fill="#00B2FF"/>
        <path d="M81.0029 60.3035C79.3848 60.3035 78.073 61.6153 78.073 63.2333V64.4542C78.073 66.0719 79.3846 67.3841 81.0029 67.3841C82.6206 67.3841 83.9327 66.0722 83.9327 64.4542V63.2333C83.9327 61.615 82.6206 60.3035 81.0029 60.3035Z" fill="#00B2FF"/>
    </g>
    <defs>
        <filter id="filter0_f_0_1" x="0" y="-6" width="162" height="162" filterUnits="userSpaceOnUse" color-interpolation-filters="sRGB">
            <feFlood flood-opacity="0" result="BackgroundImageFix"/>
            <feBlend mode="normal" in="SourceGraphic" in2="BackgroundImageFix" result="shape"/>
            <feGaussianBlur stdDeviation="5" result="effect1_foregroundBlur_0_1"/>
        </filter>
        <clipPath id="clip0_0_1">
            <rect width="142" height="142" fill="white" transform="translate(10 4)"/>
        </clipPath>
        <clipPath id="clip1_0_1">
            <rect width="142" height="142" fill="white" transform="translate(10 4)"/>
        </clipPath>
    </defs>
</svg>
