<svg width="158" height="162" viewBox="0 0 158 162" fill="none" xmlns="http://www.w3.org/2000/svg">
    <g clip-path="url(#clip0_0_1)" filter="url(#filter0_f_0_1)">
        <path d="M141.091 31.2624C137.847 28.6862 133.737 27.7449 129.817 28.6809C128.713 28.9447 127.657 29.3499 126.663 29.8757C126.483 28.4984 126.143 27.1361 125.636 25.824C124.099 21.8472 121.268 18.7978 117.665 17.2377C114.039 15.6674 110.093 15.8061 106.552 17.6293C105.433 18.2051 104.407 18.9312 103.481 19.7757C102.983 18.4561 102.325 17.2 101.506 16.0435C99.1547 12.7242 95.7891 10.6192 92.0278 10.1155C88.2715 9.61189 84.5698 10.7681 81.6036 13.3696C80.6077 14.2435 79.7387 15.2472 79.0002 16.3474C78.2616 15.2475 77.3927 14.2435 76.3968 13.3696C73.4308 10.7681 69.7289 9.61189 65.9722 10.1153C62.2109 10.6189 58.8451 12.7242 56.4943 16.0432C55.6753 17.1994 55.0166 18.4558 54.5194 19.7751C53.5933 18.9306 52.5663 18.2045 51.4483 17.6288C47.9075 15.8061 43.9606 15.6674 40.3349 17.2372C36.732 18.7975 33.9011 21.8466 32.3641 25.8234C31.8568 27.1355 31.5168 28.4976 31.3371 29.8751C30.3428 29.3493 29.287 28.9438 28.1826 28.6803C24.2629 27.7449 20.1535 28.6853 16.9091 31.2619C10.1431 36.6354 8.95686 47.5278 14.3698 54.572L43.9046 93.007C44.2604 95.1268 44.8068 97.2094 45.544 99.2378C47.8235 105.506 51.7784 110.952 57.0265 115.071V123.566C57.0265 127.462 59.5556 130.777 63.0577 131.96V140.246L56.1321 147.171C55.0275 148.276 55.0275 150.067 56.1321 151.172C57.237 152.276 59.0276 152.276 60.1328 151.172L63.0579 148.247V149.172C63.0579 150.734 64.3246 152 65.8866 152C67.4485 152 68.7152 150.734 68.7152 149.172V148.246L71.6406 151.172C72.1931 151.724 72.9169 152 73.6408 152C74.3647 152 75.0885 151.724 75.641 151.172C76.7457 150.067 76.7457 148.276 75.641 147.171L68.7155 140.246V131.96C72.2177 130.777 74.7468 127.462 74.7468 123.566V122.411C77.5749 122.751 80.4257 122.751 83.2538 122.411V123.566C83.2538 127.462 85.7829 130.777 89.2852 131.96V140.246L82.3596 147.171C81.255 148.276 81.255 150.067 82.3596 151.172C83.4646 152.277 85.2551 152.277 86.3603 151.172L89.2857 148.246V149.172C89.2857 150.734 90.5523 152 92.1143 152C93.6763 152 94.943 150.734 94.943 149.172V148.247L97.8681 151.172C98.4206 151.724 99.1444 152 99.8683 152C100.592 152 101.316 151.724 101.868 151.172C102.973 150.067 102.973 148.276 101.868 147.171L94.943 140.246V131.96C98.445 130.777 100.974 127.462 100.974 123.566V115.071C106.223 110.952 110.178 105.506 112.457 99.2378C113.194 97.2091 113.74 95.1268 114.096 93.0068L143.631 54.5717C149.043 47.5278 147.857 36.6354 141.091 31.2624ZM104.213 29.5099C104.874 26.428 106.67 23.9308 109.141 22.6587C111.146 21.6264 113.376 21.5449 115.417 22.4288C117.618 23.382 119.373 25.312 120.36 27.8636C121.497 30.8067 121.42 34.1088 120.152 36.9141L107.181 65.3706C104.75 62.207 101.779 59.4385 98.3598 57.2167L104.213 29.5099ZM81.8285 25.9077C81.8208 22.6029 83.0982 19.5835 85.3339 17.6227C87.0534 16.1148 89.1648 15.4394 91.2768 15.7229C93.4631 16.0157 95.456 17.2907 96.8888 19.3134C98.6896 21.8558 99.3416 25.1442 98.6788 28.3367L94.5472 47.8941C91.6503 43.6868 87.0936 40.7068 81.8288 39.9119V25.9208C81.8288 25.9177 81.8285 25.915 81.8285 25.9116C81.8282 25.9105 81.8285 25.9091 81.8285 25.9077ZM78.9999 45.3564C86.2835 45.3564 92.2089 51.2819 92.2089 58.5655C92.2089 63.3496 89.6521 67.5478 85.8331 69.8658C85.6478 69.9204 85.4722 69.9931 85.3067 70.0813L88.3178 65.6507C88.9066 64.7843 88.9687 63.663 88.4781 62.7373C87.9875 61.8115 87.0259 61.2321 85.9781 61.2321H72.0211C70.9733 61.2321 70.0118 61.8112 69.5211 62.7373C69.0305 63.6633 69.0926 64.7843 69.6814 65.6507L72.6926 70.0813C72.527 69.9931 72.3514 69.9207 72.1662 69.8658C68.3471 67.548 65.7903 63.3496 65.7903 58.5655C65.7909 51.2819 71.7163 45.3564 78.9999 45.3564ZM78.9999 77.4314C79.665 77.4314 80.3214 77.3957 80.969 77.3286V86.2543C80.969 87.3398 80.0857 88.2232 78.9999 88.2232C77.9144 88.2232 77.0308 87.3398 77.0308 86.2543V77.3286C77.6784 77.396 78.3348 77.4314 78.9999 77.4314ZM77.3638 66.8891H80.6359L78.9999 69.2964L77.3638 66.8891ZM61.1113 19.3134C62.5437 17.291 64.5367 16.0157 66.7233 15.7229C68.8375 15.4397 70.9467 16.1148 72.6662 17.6227C74.9013 19.5835 76.179 22.6032 76.1715 25.9144V39.9116C70.9065 40.7068 66.35 43.6866 63.4531 47.8941L59.3224 28.3414V28.3409C58.6576 25.147 59.3096 21.8569 61.1113 19.3134ZM37.6408 27.8636C38.6268 25.312 40.3821 23.3823 42.5831 22.429C44.6249 21.5451 46.8536 21.6261 48.8591 22.6589C51.3302 23.9314 53.1263 26.4283 53.7855 29.5018L59.6402 57.2154C56.2597 59.4119 53.2699 62.1701 50.8116 65.354L37.8516 36.9222C36.58 34.1085 36.5034 30.8067 37.6408 27.8636ZM43.6098 83.3386L18.8555 51.1246C15.313 46.5149 16.0618 39.1592 20.4272 35.6927C22.3295 34.182 24.6159 33.6459 26.8685 34.1837C29.3641 34.7797 31.4899 36.6312 32.7016 39.2643L47.2039 71.0817C45.2769 74.9099 44.0599 79.0672 43.6098 83.3386ZM49.0679 87.0766C49.0679 77.7759 53.4702 68.9833 60.7518 63.3571C61.8986 67.7203 64.5739 71.4677 68.1669 73.9974C65.8413 83.361 59.0026 91.1289 50.0394 94.657C49.396 92.1944 49.0679 89.6553 49.0679 87.0766ZM96.4894 111.366C95.7525 111.898 95.3157 112.751 95.3157 113.66V123.566C95.3157 125.332 93.8791 126.768 92.1132 126.768C90.3477 126.768 88.911 125.332 88.911 123.566V119.063C88.911 118.206 88.5225 117.395 87.8543 116.859C87.1862 116.322 86.3101 116.117 85.4734 116.301C81.2131 117.24 76.7875 117.24 72.5273 116.301C71.6902 116.117 70.8141 116.321 70.1463 116.859C69.4781 117.395 69.0896 118.206 69.0896 119.063V123.566C69.0896 125.332 67.653 126.768 65.8871 126.768C64.1215 126.768 62.6849 125.332 62.6849 123.566V113.66C62.6849 112.751 62.2481 111.898 61.5112 111.366C57.3929 108.395 54.1383 104.495 51.9819 99.9767C60.5607 96.6372 67.5159 90.0328 71.3746 81.7982V86.2546C71.3746 89.4604 73.364 92.2086 76.1724 93.3346V98.4538C76.1724 100.016 77.439 101.282 79.001 101.282C80.563 101.282 81.8296 100.016 81.8296 98.4538V93.3346C84.638 92.2086 86.6274 89.4604 86.6274 86.2546V81.7982C90.4863 90.0331 97.4413 96.6372 106.02 99.977C103.863 104.495 100.608 108.394 96.4894 111.366ZM107.96 94.6572C98.9972 91.1289 92.1587 83.361 89.8329 73.9974C93.4267 71.4672 96.1028 67.7183 97.2488 63.3535C104.536 68.9786 108.932 77.7545 108.932 87.0769C108.932 89.6559 108.604 92.195 107.96 94.6572ZM139.144 51.1246L114.388 83.3408C113.93 79.0448 112.692 74.9049 110.783 71.1097L125.296 39.2685C126.507 36.6332 128.634 34.7797 131.131 34.1834C133.383 33.6453 135.671 34.1817 137.573 35.6924C141.938 39.1592 142.687 46.5149 139.144 51.1246Z" fill="#00B2FF"/>
        <path d="M70.2272 53.1323C68.6652 53.1323 67.3986 54.3987 67.3986 55.9609V57.0573C67.3986 58.6196 68.6652 59.8859 70.2272 59.8859C71.7892 59.8859 73.0558 58.6196 73.0558 57.0573V55.9609C73.0558 54.3987 71.7892 53.1323 70.2272 53.1323Z" fill="#00B2FF"/>
        <path d="M87.7728 53.1323C86.2108 53.1323 84.9442 54.3987 84.9442 55.9609V57.0573C84.9442 58.6196 86.2106 59.8859 87.7728 59.8859C89.3348 59.8859 90.6015 58.6196 90.6015 57.0573V55.9609C90.6015 54.3987 89.3348 53.1323 87.7728 53.1323Z" fill="#00B2FF"/>
        <path d="M78.9999 103.575C77.4379 103.575 76.1713 104.842 76.1713 106.404V107.5C76.1713 109.062 77.4379 110.329 78.9999 110.329C80.5619 110.329 81.8285 109.062 81.8285 107.5V106.404C81.8285 104.842 80.5619 103.575 78.9999 103.575Z" fill="#00B2FF"/>
    </g>
    <g clip-path="url(#clip1_0_1)">
        <path d="M141.091 31.2624C137.847 28.6862 133.737 27.7449 129.817 28.6809C128.713 28.9447 127.657 29.3499 126.663 29.8757C126.483 28.4984 126.143 27.1361 125.636 25.824C124.099 21.8472 121.268 18.7978 117.665 17.2377C114.039 15.6674 110.093 15.8061 106.552 17.6293C105.433 18.2051 104.407 18.9312 103.481 19.7757C102.983 18.4561 102.325 17.2 101.506 16.0435C99.1547 12.7242 95.7891 10.6192 92.0278 10.1155C88.2715 9.61189 84.5698 10.7681 81.6036 13.3696C80.6077 14.2435 79.7387 15.2472 79.0002 16.3474C78.2616 15.2475 77.3927 14.2435 76.3968 13.3696C73.4308 10.7681 69.7289 9.61189 65.9722 10.1153C62.2109 10.6189 58.8451 12.7242 56.4943 16.0432C55.6753 17.1994 55.0166 18.4558 54.5194 19.7751C53.5933 18.9306 52.5663 18.2045 51.4483 17.6288C47.9075 15.8061 43.9606 15.6674 40.3349 17.2372C36.732 18.7975 33.9011 21.8466 32.3641 25.8234C31.8568 27.1355 31.5168 28.4976 31.3371 29.8751C30.3428 29.3493 29.287 28.9438 28.1826 28.6803C24.2629 27.7449 20.1535 28.6853 16.9091 31.2619C10.1431 36.6354 8.95686 47.5278 14.3698 54.572L43.9046 93.007C44.2604 95.1268 44.8068 97.2094 45.544 99.2378C47.8235 105.506 51.7784 110.952 57.0265 115.071V123.566C57.0265 127.462 59.5556 130.777 63.0577 131.96V140.246L56.1321 147.171C55.0275 148.276 55.0275 150.067 56.1321 151.172C57.237 152.276 59.0276 152.276 60.1328 151.172L63.0579 148.247V149.172C63.0579 150.734 64.3246 152 65.8866 152C67.4485 152 68.7152 150.734 68.7152 149.172V148.246L71.6406 151.172C72.1931 151.724 72.9169 152 73.6408 152C74.3647 152 75.0885 151.724 75.641 151.172C76.7457 150.067 76.7457 148.276 75.641 147.171L68.7155 140.246V131.96C72.2177 130.777 74.7468 127.462 74.7468 123.566V122.411C77.5749 122.751 80.4257 122.751 83.2538 122.411V123.566C83.2538 127.462 85.7829 130.777 89.2852 131.96V140.246L82.3596 147.171C81.255 148.276 81.255 150.067 82.3596 151.172C83.4646 152.277 85.2551 152.277 86.3603 151.172L89.2857 148.246V149.172C89.2857 150.734 90.5523 152 92.1143 152C93.6763 152 94.943 150.734 94.943 149.172V148.247L97.8681 151.172C98.4206 151.724 99.1444 152 99.8683 152C100.592 152 101.316 151.724 101.868 151.172C102.973 150.067 102.973 148.276 101.868 147.171L94.943 140.246V131.96C98.445 130.777 100.974 127.462 100.974 123.566V115.071C106.223 110.952 110.178 105.506 112.457 99.2378C113.194 97.2091 113.74 95.1268 114.096 93.0068L143.631 54.5717C149.043 47.5278 147.857 36.6354 141.091 31.2624ZM104.213 29.5099C104.874 26.428 106.67 23.9308 109.141 22.6587C111.146 21.6264 113.376 21.5449 115.417 22.4288C117.618 23.382 119.373 25.312 120.36 27.8636C121.497 30.8067 121.42 34.1088 120.152 36.9141L107.181 65.3706C104.75 62.207 101.779 59.4385 98.3598 57.2167L104.213 29.5099ZM81.8285 25.9077C81.8208 22.6029 83.0982 19.5835 85.3339 17.6227C87.0534 16.1148 89.1648 15.4394 91.2768 15.7229C93.4631 16.0157 95.456 17.2907 96.8888 19.3134C98.6896 21.8558 99.3416 25.1442 98.6788 28.3367L94.5472 47.8941C91.6503 43.6868 87.0936 40.7068 81.8288 39.9119V25.9208C81.8288 25.9177 81.8285 25.915 81.8285 25.9116C81.8282 25.9105 81.8285 25.9091 81.8285 25.9077ZM78.9999 45.3564C86.2835 45.3564 92.2089 51.2819 92.2089 58.5655C92.2089 63.3496 89.6521 67.5478 85.8331 69.8658C85.6478 69.9204 85.4722 69.9931 85.3067 70.0813L88.3178 65.6507C88.9066 64.7843 88.9687 63.663 88.4781 62.7373C87.9875 61.8115 87.0259 61.2321 85.9781 61.2321H72.0211C70.9733 61.2321 70.0118 61.8112 69.5211 62.7373C69.0305 63.6633 69.0926 64.7843 69.6814 65.6507L72.6926 70.0813C72.527 69.9931 72.3514 69.9207 72.1662 69.8658C68.3471 67.548 65.7903 63.3496 65.7903 58.5655C65.7909 51.2819 71.7163 45.3564 78.9999 45.3564ZM78.9999 77.4314C79.665 77.4314 80.3214 77.3957 80.969 77.3286V86.2543C80.969 87.3398 80.0857 88.2232 78.9999 88.2232C77.9144 88.2232 77.0308 87.3398 77.0308 86.2543V77.3286C77.6784 77.396 78.3348 77.4314 78.9999 77.4314ZM77.3638 66.8891H80.6359L78.9999 69.2964L77.3638 66.8891ZM61.1113 19.3134C62.5437 17.291 64.5367 16.0157 66.7233 15.7229C68.8375 15.4397 70.9467 16.1148 72.6662 17.6227C74.9013 19.5835 76.179 22.6032 76.1715 25.9144V39.9116C70.9065 40.7068 66.35 43.6866 63.4531 47.8941L59.3224 28.3414V28.3409C58.6576 25.147 59.3096 21.8569 61.1113 19.3134ZM37.6408 27.8636C38.6268 25.312 40.3821 23.3823 42.5831 22.429C44.6249 21.5451 46.8536 21.6261 48.8591 22.6589C51.3302 23.9314 53.1263 26.4283 53.7855 29.5018L59.6402 57.2154C56.2597 59.4119 53.2699 62.1701 50.8116 65.354L37.8516 36.9222C36.58 34.1085 36.5034 30.8067 37.6408 27.8636ZM43.6098 83.3386L18.8555 51.1246C15.313 46.5149 16.0618 39.1592 20.4272 35.6927C22.3295 34.182 24.6159 33.6459 26.8685 34.1837C29.3641 34.7797 31.4899 36.6312 32.7016 39.2643L47.2039 71.0817C45.2769 74.9099 44.0599 79.0672 43.6098 83.3386ZM49.0679 87.0766C49.0679 77.7759 53.4702 68.9833 60.7518 63.3571C61.8986 67.7203 64.5739 71.4677 68.1669 73.9974C65.8413 83.361 59.0026 91.1289 50.0394 94.657C49.396 92.1944 49.0679 89.6553 49.0679 87.0766ZM96.4894 111.366C95.7525 111.898 95.3157 112.751 95.3157 113.66V123.566C95.3157 125.332 93.8791 126.768 92.1132 126.768C90.3477 126.768 88.911 125.332 88.911 123.566V119.063C88.911 118.206 88.5225 117.395 87.8543 116.859C87.1862 116.322 86.3101 116.117 85.4734 116.301C81.2131 117.24 76.7875 117.24 72.5273 116.301C71.6902 116.117 70.8141 116.321 70.1463 116.859C69.4781 117.395 69.0896 118.206 69.0896 119.063V123.566C69.0896 125.332 67.653 126.768 65.8871 126.768C64.1215 126.768 62.6849 125.332 62.6849 123.566V113.66C62.6849 112.751 62.2481 111.898 61.5112 111.366C57.3929 108.395 54.1383 104.495 51.9819 99.9767C60.5607 96.6372 67.5159 90.0328 71.3746 81.7982V86.2546C71.3746 89.4604 73.364 92.2086 76.1724 93.3346V98.4538C76.1724 100.016 77.439 101.282 79.001 101.282C80.563 101.282 81.8296 100.016 81.8296 98.4538V93.3346C84.638 92.2086 86.6274 89.4604 86.6274 86.2546V81.7982C90.4863 90.0331 97.4413 96.6372 106.02 99.977C103.863 104.495 100.608 108.394 96.4894 111.366ZM107.96 94.6572C98.9972 91.1289 92.1587 83.361 89.8329 73.9974C93.4267 71.4672 96.1028 67.7183 97.2488 63.3535C104.536 68.9786 108.932 77.7545 108.932 87.0769C108.932 89.6559 108.604 92.195 107.96 94.6572ZM139.144 51.1246L114.388 83.3408C113.93 79.0448 112.692 74.9049 110.783 71.1097L125.296 39.2685C126.507 36.6332 128.634 34.7797 131.131 34.1834C133.383 33.6453 135.671 34.1817 137.573 35.6924C141.938 39.1592 142.687 46.5149 139.144 51.1246Z" fill="#00B2FF"/>
        <path d="M70.2272 53.1323C68.6652 53.1323 67.3986 54.3987 67.3986 55.9609V57.0573C67.3986 58.6196 68.6652 59.8859 70.2272 59.8859C71.7892 59.8859 73.0558 58.6196 73.0558 57.0573V55.9609C73.0558 54.3987 71.7892 53.1323 70.2272 53.1323Z" fill="#00B2FF"/>
        <path d="M87.7728 53.1323C86.2108 53.1323 84.9442 54.3987 84.9442 55.9609V57.0573C84.9442 58.6196 86.2106 59.8859 87.7728 59.8859C89.3348 59.8859 90.6015 58.6196 90.6015 57.0573V55.9609C90.6015 54.3987 89.3348 53.1323 87.7728 53.1323Z" fill="#00B2FF"/>
        <path d="M78.9999 103.575C77.4379 103.575 76.1713 104.842 76.1713 106.404V107.5C76.1713 109.062 77.4379 110.329 78.9999 110.329C80.5619 110.329 81.8285 109.062 81.8285 107.5V106.404C81.8285 104.842 80.5619 103.575 78.9999 103.575Z" fill="#00B2FF"/>
    </g>
    <defs>
        <filter id="filter0_f_0_1" x="-2" y="0" width="162" height="162" filterUnits="userSpaceOnUse" color-interpolation-filters="sRGB">
            <feFlood flood-opacity="0" result="BackgroundImageFix"/>
            <feBlend mode="normal" in="SourceGraphic" in2="BackgroundImageFix" result="shape"/>
            <feGaussianBlur stdDeviation="5" result="effect1_foregroundBlur_0_1"/>
        </filter>
        <clipPath id="clip0_0_1">
            <rect width="142" height="142" fill="white" transform="translate(8 10)"/>
        </clipPath>
        <clipPath id="clip1_0_1">
            <rect width="142" height="142" fill="white" transform="translate(8 10)"/>
        </clipPath>
    </defs>
</svg>
